<?xml version="1.0" standalone="no"?>
<!DOCTYPE svg PUBLIC "-//W3C//DTD SVG 20010904//EN"
 "http://www.w3.org/TR/2001/REC-SVG-20010904/DTD/svg10.dtd">
<svg version="1.0" xmlns="http://www.w3.org/2000/svg"
 width="152.000000pt" height="152.000000pt" viewBox="0 0 152.000000 152.000000"
 preserveAspectRatio="xMidYMid meet">
<metadata>
Created by potrace 1.11, written by Peter Selinger 2001-2013
</metadata>
<g transform="translate(0.000000,152.000000) scale(0.100000,-0.100000)"
fill="#000000" stroke="none">
<path d="M1088 1487 c42 -45 65 -114 58 -181 -6 -67 -15 -106 -25 -106 -3 0
-14 7 -24 15 -10 7 -40 18 -65 25 -40 9 -52 18 -80 61 -37 57 -57 60 -22 5
l22 -36 -25 -9 c-28 -11 -89 -4 -134 15 -49 20 -40 -1 11 -25 39 -20 68 -26
199 -45 21 -4 52 -13 68 -22 26 -13 30 -19 24 -42 -7 -29 -27 -48 -83 -77 -21
-11 -54 -30 -74 -42 -21 -13 -38 -19 -38 -13 0 20 -30 9 -35 -12 -7 -27 -105
-78 -149 -78 -27 0 -28 2 -23 34 7 46 31 95 63 129 46 50 18 39 -39 -15 -31
-29 -61 -52 -66 -50 -6 2 -1 27 11 59 11 31 27 79 35 107 8 28 16 60 20 71 3
11 7 36 10 55 3 29 0 26 -21 -25 -14 -33 -34 -66 -43 -73 -12 -9 -18 -28 -20
-66 -2 -71 -16 -96 -52 -96 -16 0 -34 6 -40 14 -11 13 -10 120 4 309 2 31 2
57 0 57 -2 0 -11 -25 -20 -55 -15 -55 -22 -106 -29 -218 -2 -32 -7 -62 -12
-67 -5 -4 -26 -1 -46 7 -42 17 -45 24 -52 162 -5 87 -16 123 -17 55 -1 -103
-6 -164 -12 -171 -13 -13 -40 25 -40 57 0 34 -12 40 -22 11 -22 -72 59 -135
258 -201 62 -20 68 -24 62 -44 -3 -11 -7 -38 -7 -58 -1 -31 -6 -39 -30 -49
-31 -13 -48 -36 -48 -67 0 -11 -34 -52 -80 -95 -44 -42 -80 -83 -80 -91 0 -22
59 -85 85 -92 13 -3 33 0 45 6 23 12 163 21 179 11 5 -3 26 -57 46 -119 20
-62 47 -135 59 -162 18 -38 22 -59 17 -88 -13 -74 4 -136 44 -154 32 -14 51 2
58 47 9 57 69 250 93 296 29 58 72 101 143 142 l55 31 -65 17 c-125 33 -145
47 -174 124 -10 28 -25 60 -32 72 -16 24 -14 27 46 66 62 40 89 113 66 179
-14 43 -15 42 50 93 97 76 114 103 122 198 4 38 2 57 -6 57 -6 0 -10 -3 -9 -7
4 -14 -25 -124 -34 -129 -5 -3 -5 7 -1 23 13 51 7 166 -12 203 -20 40 -64 90
-79 90 -5 0 0 -10 12 -23z m-211 -594 c-3 -3 -11 -2 -17 2 -9 6 -9 10 1 16 14
8 27 -7 16 -18z"/>
<path d="M1197 1360 c3 -11 9 -20 15 -20 5 0 4 9 -2 20 -6 11 -12 20 -14 20
-2 0 -2 -9 1 -20z"/>
</g>
</svg>
