<?xml version="1.0" standalone="no"?>
<!DOCTYPE svg PUBLIC "-//W3C//DTD SVG 20010904//EN"
 "http://www.w3.org/TR/2001/REC-SVG-20010904/DTD/svg10.dtd">
<svg version="1.0" xmlns="http://www.w3.org/2000/svg"
 width="220.000000pt" height="220.000000pt" viewBox="0 0 220.000000 220.000000"
 preserveAspectRatio="xMidYMid meet">
<metadata>
Created by potrace 1.11, written by Peter Selinger 2001-2013
</metadata>
<g transform="translate(0.000000,220.000000) scale(0.100000,-0.100000)"
fill="#000000" stroke="none">
<path d="M0 1535 c0 -23 4 -25 45 -25 26 0 45 -5 45 -11 0 -6 6 -9 14 -6 9 4
16 -3 20 -16 3 -12 6 -184 6 -383 l0 -361 -23 -21 c-16 -15 -36 -22 -65 -22
-35 0 -42 -3 -42 -20 0 -19 7 -20 208 -20 201 0 208 1 209 20 2 18 -4 20 -51
20 -42 0 -57 5 -72 23 -18 20 -20 36 -20 167 l1 144 78 3 c42 1 77 -2 77 -8 0
-5 5 -9 11 -9 6 0 29 -18 51 -40 23 -22 44 -40 48 -40 13 0 217 -210 211 -216
-3 -4 -1 -4 6 -1 6 4 18 0 26 -8 9 -8 20 -15 26 -15 6 0 11 -5 11 -11 0 -5 5
-7 10 -4 6 4 18 1 27 -7 11 -9 56 -14 140 -17 117 -3 123 -2 123 17 0 16 -9
20 -50 25 -28 3 -56 10 -63 14 -6 4 -14 8 -17 8 -3 0 -23 11 -44 25 -22 14
-47 30 -56 35 -9 6 -64 58 -121 116 -58 58 -122 118 -142 133 -43 33 -47 51
-12 60 14 4 25 11 25 17 0 6 4 8 8 5 13 -8 80 67 88 98 3 14 9 26 13 26 10 0
8 137 -2 146 -4 4 -7 14 -7 22 0 27 -60 90 -107 112 -27 12 -48 21 -49 19 0
-2 -8 2 -17 9 -9 8 -21 11 -26 8 -5 -4 -12 -2 -16 4 -4 6 -101 10 -266 10
l-259 0 0 -25z m479 -34 c5 -7 10 -12 12 -11 2 1 15 -3 29 -10 25 -11 83 -89
79 -107 -1 -4 1 -16 6 -26 11 -27 -1 -127 -21 -167 -27 -55 -81 -96 -139 -107
-35 -6 -156 -9 -164 -3 -4 3 -7 106 -7 229 l1 223 98 -4 c66 -2 101 -8 106
-17z"/>
<path d="M1145 1532 c-7 -19 -6 -20 30 -24 17 -2 40 -9 53 -16 l22 -13 0 -374
c0 -362 -1 -376 -20 -395 -13 -13 -33 -20 -60 -20 -33 0 -40 -3 -40 -20 0 -19
7 -20 190 -20 183 0 190 1 190 20 0 16 -7 20 -37 20 -26 0 -45 7 -59 23 -19
21 -21 33 -20 187 l1 165 270 0 270 0 3 -164 c2 -157 2 -165 -19 -188 -18 -19
-33 -23 -79 -23 -49 0 -56 -3 -57 -20 -2 -19 4 -20 208 -20 202 0 209 1 209
20 0 16 -7 20 -37 20 -52 1 -76 21 -82 72 -7 58 -7 623 0 672 7 46 38 76 79
76 22 0 28 4 27 19 -1 18 -12 19 -196 17 -177 -1 -194 -3 -197 -18 -2 -15 6
-18 39 -19 23 -1 48 -1 55 0 6 1 12 -3 12 -9 0 -5 6 -10 14 -10 22 0 24 -17
26 -194 l1 -166 -273 2 -273 3 -1 161 c-1 145 1 163 18 184 11 14 32 25 46 26
15 1 33 3 40 3 6 1 12 9 12 19 0 17 -13 18 -179 19 -151 0 -181 -2 -186 -15z"/>
</g>
</svg>
