<?xml version="1.0" standalone="no"?>
<!DOCTYPE svg PUBLIC "-//W3C//DTD SVG 20010904//EN"
 "http://www.w3.org/TR/2001/REC-SVG-20010904/DTD/svg10.dtd">
<svg version="1.0" xmlns="http://www.w3.org/2000/svg"
 width="210.000000pt" height="210.000000pt" viewBox="0 0 210.000000 210.000000"
 preserveAspectRatio="xMidYMid meet">
<metadata>
Created by potrace 1.11, written by Peter Selinger 2001-2013
</metadata>
<g transform="translate(0.000000,210.000000) scale(0.100000,-0.100000)"
fill="#000000" stroke="none">
<path d="M1243 2044 c64 -198 84 -292 99 -471 9 -110 9 -173 -1 -275 -10 -121
-37 -273 -57 -322 -5 -13 -4 -17 4 -12 16 9 69 153 94 254 18 71 22 117 23
252 0 215 -28 346 -111 512 -32 64 -64 103 -51 62z"/>
<path d="M1370 2057 c0 -2 9 -30 21 -63 100 -288 117 -692 40 -966 -10 -38
-15 -68 -10 -68 8 0 61 131 79 198 74 277 40 622 -81 837 -27 47 -49 76 -49
62z"/>
<path d="M1640 2050 c0 -8 11 -50 25 -92 62 -195 90 -440 74 -655 -8 -111 -37
-280 -55 -327 -5 -13 -4 -17 3 -13 6 4 23 39 38 78 105 275 107 585 4 849 -32
81 -89 184 -89 160z"/>
<path d="M1514 2030 c2 -14 16 -62 30 -108 14 -45 35 -140 47 -210 18 -110 20
-153 16 -322 -4 -143 -10 -219 -25 -285 -37 -168 -36 -155 -13 -113 31 54 71
180 87 272 19 107 18 322 -1 425 -26 135 -84 290 -130 346 -16 20 -16 20 -11
-5z"/>
<path d="M1770 2045 c0 -3 11 -41 25 -83 94 -292 108 -642 36 -929 -10 -40
-15 -73 -11 -73 6 0 39 80 70 170 19 54 42 190 47 285 10 177 -28 375 -101
531 -37 78 -66 121 -66 99z"/>
<path d="M910 1724 c-288 -41 -496 -135 -689 -311 -63 -56 -186 -211 -176
-221 3 -3 40 28 82 69 177 169 391 302 608 378 104 37 226 71 254 71 11 0 23
5 26 10 6 10 -49 12 -105 4z"/>
<path d="M925 1599 c-254 -32 -524 -171 -699 -360 -60 -64 -129 -160 -121
-167 3 -3 42 31 89 75 138 134 271 224 458 312 145 69 335 131 403 131 15 0
24 4 20 10 -7 12 -51 11 -150 -1z"/>
<path d="M986 1479 c-228 -26 -472 -142 -648 -309 -84 -79 -178 -194 -178
-218 0 -6 34 22 75 62 130 128 326 262 489 336 86 39 290 107 349 115 26 4 47
11 47 16 0 10 -35 10 -134 -2z"/>
<path d="M1012 1355 c-292 -46 -579 -217 -745 -444 -26 -35 -47 -68 -47 -74 0
-5 28 17 63 49 235 224 501 373 792 446 44 11 87 24 95 29 22 12 -59 9 -158
-6z"/>
<path d="M1125 1243 c-70 -9 -193 -36 -250 -55 -141 -49 -314 -152 -424 -254
-63 -58 -186 -212 -177 -222 3 -2 44 32 92 77 212 201 480 349 763 422 63 16
117 32 120 34 5 6 -77 4 -124 -2z"/>
<path d="M1090 1066 c0 -18 55 -111 107 -181 126 -169 321 -316 515 -389 85
-32 199 -58 235 -54 22 2 12 9 -52 31 -126 45 -326 154 -443 241 -112 84 -249
214 -320 304 -23 30 -42 51 -42 48z"/>
<path d="M1030 915 c150 -281 447 -506 752 -569 136 -28 142 -18 18 29 -165
62 -350 168 -489 280 -66 53 -231 219 -284 285 -28 35 -28 34 3 -25z"/>
<path d="M924 855 c20 -58 111 -188 186 -268 173 -184 365 -295 603 -346 48
-11 89 -16 92 -12 2 5 -35 23 -83 41 -293 110 -561 301 -745 530 -33 41 -57
66 -53 55z"/>
<path d="M841 754 c-2 -23 116 -196 182 -268 156 -172 395 -310 600 -346 34
-6 70 -13 80 -16 9 -3 17 -1 17 4 0 5 -35 22 -77 37 -140 49 -326 151 -448
243 -130 99 -274 242 -337 332 -9 14 -17 20 -17 14z"/>
<path d="M780 605 c161 -300 493 -538 810 -580 67 -9 58 5 -18 30 -90 29 -322
151 -422 222 -90 64 -298 260 -369 348 l-33 40 32 -60z"/>
</g>
</svg>
