<?xml version="1.0" standalone="no"?>
<!DOCTYPE svg PUBLIC "-//W3C//DTD SVG 20010904//EN"
 "http://www.w3.org/TR/2001/REC-SVG-20010904/DTD/svg10.dtd">
<svg version="1.0" xmlns="http://www.w3.org/2000/svg"
 width="1849.000000pt" height="1849.000000pt" viewBox="0 0 1849.000000 1849.000000"
 preserveAspectRatio="xMidYMid meet">
<metadata>
Created by potrace 1.11, written by Peter Selinger 2001-2013
</metadata>
<g transform="translate(0.000000,1849.000000) scale(0.100000,-0.100000)"
fill="#000000" stroke="none">
<path d="M4761 14010 l0 -4479 1937 0 c1065 0 1945 -1 1954 -1 20 0 18 -6 -72
-195 -29 -60 -63 -135 -77 -165 -14 -30 -37 -82 -53 -115 -15 -33 -41 -89 -58
-125 -17 -36 -48 -103 -70 -150 -43 -92 -227 -487 -272 -585 -15 -33 -47 -100
-70 -150 -51 -108 -97 -208 -135 -290 -15 -33 -44 -96 -65 -140 -21 -44 -47
-100 -58 -125 -11 -25 -39 -85 -62 -135 -23 -49 -58 -124 -77 -165 -19 -41
-51 -108 -70 -149 -19 -41 -151 -326 -295 -635 -143 -309 -278 -599 -300 -646
-22 -47 -65 -139 -95 -205 -30 -66 -71 -154 -91 -195 -71 -153 -152 -328 -201
-432 -28 -61 -137 -297 -208 -448 -20 -41 -48 -102 -63 -135 -15 -33 -44 -96
-65 -140 -20 -44 -63 -137 -95 -207 -33 -69 -63 -135 -68 -145 -15 -28 -78
-163 -102 -218 -13 -27 -42 -90 -65 -140 -24 -49 -87 -184 -140 -300 -53 -115
-114 -246 -135 -290 -21 -44 -49 -105 -63 -135 -13 -30 -40 -86 -58 -125 -18
-38 -34 -72 -34 -75 -1 -3 -15 -34 -32 -70 -29 -62 -144 -309 -203 -435 -15
-33 -44 -96 -65 -140 -21 -44 -50 -107 -65 -140 -15 -33 -43 -94 -63 -135 -19
-41 -64 -138 -100 -215 -149 -321 -162 -349 -248 -533 -27 -57 -49 -105 -49
-107 0 -2 -24 -54 -54 -116 -29 -63 -66 -141 -81 -174 -53 -116 -93 -201 -135
-290 -23 -50 -54 -115 -67 -145 -14 -30 -27 -58 -30 -62 -2 -5 301 -8 675 -8
l679 0 36 77 c46 100 117 253 150 323 14 30 100 215 190 410 91 195 184 396
207 445 40 85 60 128 129 278 16 34 61 131 100 216 88 186 135 288 168 361 24
51 110 237 190 410 20 41 53 113 75 160 22 47 107 231 190 410 83 179 156 330
163 335 8 7 703 10 2046 9 1119 -1 2038 -2 2042 -3 4 0 19 -25 31 -53 27 -59
272 -587 347 -747 27 -57 49 -105 49 -106 0 -2 25 -56 56 -121 31 -66 109
-234 174 -374 65 -140 136 -293 158 -340 22 -47 54 -114 70 -150 17 -36 137
-294 267 -575 131 -280 251 -539 268 -575 16 -36 47 -103 69 -150 22 -47 56
-120 75 -162 l36 -78 679 0 c643 0 678 1 670 17 -5 10 -18 38 -29 63 -12 25
-39 83 -61 130 -22 47 -96 207 -165 355 -124 267 -183 394 -237 510 -16 33
-42 90 -59 128 -59 128 -89 192 -136 292 -43 91 -110 235 -195 420 -18 39 -56
121 -86 184 -30 62 -54 114 -54 116 0 2 -25 56 -56 121 -55 117 -90 191 -134
289 -13 28 -42 91 -65 140 -44 93 -99 210 -142 305 -41 88 -108 231 -239 513
-41 87 -74 160 -74 162 0 2 -29 63 -63 137 -35 73 -74 156 -87 183 -40 87 -86
187 -128 275 -21 47 -99 213 -171 370 -73 157 -143 308 -156 335 -13 28 -51
108 -84 179 -34 71 -61 130 -61 132 0 2 -29 65 -65 140 -36 75 -65 138 -65
139 0 2 -25 56 -56 121 -31 66 -78 166 -104 224 -27 58 -71 155 -100 215 -28
61 -77 164 -107 230 -30 66 -71 154 -90 195 -212 453 -318 681 -330 710 -9 19
-46 100 -84 179 -38 79 -69 146 -69 148 0 2 -27 60 -60 129 -33 69 -60 127
-60 129 0 2 -29 65 -65 140 -36 76 -65 139 -65 140 0 2 -24 54 -54 117 -29 62
-93 199 -141 303 -48 105 -116 250 -151 324 -35 73 -64 135 -64 136 0 2 -21
47 -46 102 -25 54 -61 132 -80 173 -19 41 -46 97 -59 124 -14 27 -23 51 -21
53 2 2 881 4 1954 4 l1950 0 0 4479 0 4480 -4479 0 -4478 0 0 -4480z m7729 0
l0 -3250 -3250 0 -3250 0 0 3250 0 3250 3250 0 3250 0 0 -3250z m-3240 -6189
c0 -5 27 -66 60 -136 34 -70 85 -180 114 -244 30 -64 71 -152 91 -196 21 -44
51 -109 67 -145 17 -36 50 -108 75 -160 25 -52 53 -113 63 -135 10 -22 43 -93
74 -157 31 -65 56 -120 56 -122 0 -4 63 -140 142 -306 22 -47 53 -112 68 -145
35 -76 70 -152 160 -345 40 -85 83 -180 97 -210 14 -30 50 -106 79 -169 30
-62 54 -115 54 -116 0 -2 29 -65 65 -140 36 -75 65 -138 65 -140 0 -2 29 -65
65 -140 36 -76 65 -140 65 -144 0 -4 -661 -7 -1470 -7 -808 0 -1470 4 -1470 8
0 5 4 16 10 26 5 9 28 58 51 107 43 94 73 158 131 285 20 41 52 111 72 155 21
44 52 112 70 150 40 84 89 188 126 270 15 33 42 92 61 130 18 39 33 72 34 75
1 3 19 41 39 85 46 97 84 179 124 265 16 36 49 106 72 155 58 124 122 262 199
428 62 134 262 564 338 727 27 58 69 149 93 202 40 87 60 117 60 89z"/>
<path d="M9217 16514 c-1 -1 -58 -4 -127 -8 -69 -3 -136 -8 -150 -10 -14 -3
-59 -10 -100 -16 -41 -6 -91 -16 -110 -20 -19 -5 -46 -11 -60 -14 -73 -13
-264 -70 -335 -101 -16 -7 -40 -16 -52 -20 -13 -3 -63 -26 -113 -51 -50 -24
-92 -44 -94 -44 -14 0 -227 -132 -326 -201 -218 -154 -471 -417 -627 -654 -86
-130 -176 -295 -221 -405 -13 -30 -27 -64 -32 -75 -35 -79 -108 -331 -126
-435 -4 -25 -8 -47 -9 -50 -1 -3 -5 -30 -10 -60 -31 -202 -36 -498 -11 -680 2
-14 6 -50 10 -80 4 -30 21 -114 37 -187 126 -559 440 -1057 895 -1423 168
-135 399 -273 584 -350 41 -17 84 -35 95 -40 70 -31 350 -110 440 -124 17 -2
50 -8 75 -11 25 -4 53 -9 63 -11 92 -17 377 -23 537 -11 106 8 135 12 265 36
98 18 137 28 270 66 258 75 636 274 832 438 413 345 670 711 832 1182 38 110
93 333 106 430 4 28 8 61 10 75 21 152 21 508 0 618 -1 9 -6 37 -9 62 -3 25
-8 56 -11 70 -2 14 -7 39 -10 55 -121 629 -502 1210 -1045 1591 -112 79 -179
119 -320 189 -95 48 -242 111 -310 132 -173 55 -331 92 -455 109 -27 3 -59 8
-69 10 -27 5 -315 21 -319 18z m290 -1259 c254 -56 469 -172 643 -345 100 -99
123 -125 177 -205 102 -153 181 -346 207 -510 2 -16 7 -49 11 -73 13 -78 7
-276 -10 -368 -63 -343 -217 -600 -502 -834 -36 -29 -159 -103 -228 -137 -228
-110 -475 -149 -725 -116 -170 22 -254 46 -398 113 -327 153 -586 449 -695
795 -23 72 -30 107 -52 235 -9 48 -9 258 0 311 4 24 9 58 11 74 38 251 176
511 373 705 110 108 205 177 336 243 130 66 222 94 425 131 56 10 357 -3 427
-19z"/>
</g>
</svg>
