<svg xmlns="http://www.w3.org/2000/svg" viewBox="0 0 1024 1024"><path fill="#C7C8CA" d="M650.673 156.964c-.922 1.155-2.162 1.627-3.506 1.933-.902.204-1.301.832-1.323 1.756-.012.445.144.586.559.522.811-.12 1.618-.301 2.433-.349 2.184-.132 2.754-2.381 1.835-3.848zm1.55 17.042c-.156.265-.228.349-.265.433-.457 1.275-.962 2.525-1.347 3.812-1.01 3.379-1.66 6.843-2.044 10.354-.168 1.467-.108 2.934.397 4.353.072.192.265.337.409.505.156-.144.373-.265.445-.445.325-.782.746-1.551.89-2.369.541-3.103 1.142-6.205 1.455-9.344.228-2.333.036-4.702.036-7.276zm-30.582-9.946c.481-.108 1.479-.204 2.381-.541 1.575-.565 2.778-1.624 3.68-3.055 1.227-1.936 2.465-3.86 2.958-6.145.108-.529.036-.962-.325-1.395-1.142-1.371-2.321-2.73-3.355-4.185-1.467-2.081-3.187-4.053-3.488-6.747a.903.903 0 0 0-.12-.325c-.734-1.443-1.491-2.874-2.201-4.329-.349-.698-.698-.902-1.455-.661-.216.06-.457.132-.625.277-1.058.914-2.249 1.732-3.091 2.814-2.165 2.766-3.223 6.097-4.149 9.416-.409 1.467-.601 3.091-.457 4.606.228 2.501 1.515 4.69 2.862 6.771 1.587 2.465 3.993 3.451 7.348 3.524zm95.066-5.423c-.433.541-.782.998-1.155 1.431-1.251 1.479-2.646 2.754-4.57 3.283-1.792.493-3.548.265-5.219-.529-1.888-.902-3.5-2.177-4.847-3.776-2.165-2.55-4.089-5.243-5.676-8.19-.385-.698-.625-1.467-.998-2.177-.313-.589-.722-1.13-1.118-1.744-1.347 2.213-2.622 4.269-3.848 6.362-2.117 3.572-4.522 6.927-7.552 9.765-2.129 1.984-4.498 3.644-7.456 4.185a12.118 12.118 0 0 1-6.109-.457c-1.155-.397-2.056-1.251-2.73-2.237-.734-1.07-1.335-2.237-1.948-3.391-.866-1.599-1.251-1.744-2.934-1.022-2.598 1.106-2.682 1.347-2.429 4.462.204 2.562.349 5.123.421 7.685.06 2.477.108 4.967-.048 7.432-.433 7.18-1.744 14.119-5.412 20.468-1.01 1.756-2.441 2.742-4.329 2.994-1.828.241-2.946-.445-3.644-1.888-1.648-3.403-1.84-6.999-1.744-10.667.108-4.077.722-8.082 1.924-11.966.77-2.477 1.792-4.895 2.73-7.324.698-1.804 1.479-3.572 2.153-5.376.12-.349.036-.926-.18-1.191-.156-.18-.746-.084-1.106.024-2.718.794-5.424 1.66-8.142 2.429-1.094.301-2.153-.77-1.876-1.936.241-1.034.661-2.044 1.094-3.007.974-2.117.902-2.393-1.118-3.5-.529-.277-1.058-.541-1.587-.806s-1.058-.541-1.672-.866c-.409.601-.842 1.215-1.239 1.852-1.948 3.079-4.377 5.676-7.613 7.396-2.369 1.263-4.931 2.008-7.613 2.381-1.72.241-3.391.048-5.063-.192-2.417-.349-4.221-1.732-5.664-3.596-2.02-2.622-3.62-5.46-3.884-8.863-.156-1.936.241-3.824.77-5.688 1.239-4.377 3.379-8.262 6.458-11.593 1.936-2.093 4.173-3.86 6.614-5.364.914-.553.878-.698.734-1.732-.18-1.323-.241-2.67-.265-4.017-.012-.71.349-1.347.986-1.72.878-.517 1.756-1.106 2.706-1.443 1.611-.565 2.934.301 4.185 1.191 3.079 2.201 5.267 5.207 6.915 8.49 1.479 2.946 2.586 6.133 3.067 9.428.313 2.105.385 4.245.589 6.362.024.301.132.637.313.866 1.491 1.852 3.488 3.007 5.676 3.86.228.084.673-.072.878-.265.842-.77 1.611-1.636 2.465-2.393.673-.601 1.395-1.203 2.189-1.636 1.924-1.058 4.077-.216 4.859 1.816.469 1.203.722 1.371 1.984 1.359 1.648-.024 2.345.625 2.453 2.273.096 1.575.156 1.575 1.563.89 1.611-.782 3.211-1.575 4.859-2.249.77-.313 1.636-.421 2.477-.481 1.106-.072 1.912.445 2.429 1.455.926 1.816 1.9 3.608 2.874 5.4.18.349.421.661.673.962.782.902 1.768 1.106 2.85.601 1.732-.83 3.127-2.068 4.329-3.548 4.293-5.364 7.552-11.317 9.982-17.714.613-1.624.89-3.319.529-5.123-.553-2.682-.926-5.412-1.371-8.118-.373-2.237.325-3.776 2.345-4.75a17.777 17.777 0 0 1 3.283-1.155c1.503-.373 2.658.577 2.742 2.044.241 3.848.601 7.685.926 11.521.265 3.187 1.203 6.242 2.237 9.236 1.575 4.594 3.728 8.875 7.216 12.351.373.373.794.698 1.227.998.553.397 1.142.337 1.515-.204.421-.589.878-1.239.986-1.912.228-1.371.265-2.778.313-4.173.036-.673.204-1.263.866-1.503 1.263-.445 2.538-.926 3.848-1.155 1.395-.228 2.538.493 3.403 1.575 1.599 1.984 3.163 3.993 4.762 5.977.373.469.77.914 1.179 1.335.529.541.89.433 1.118-.277.577-1.888.553-3.836.589-5.797 0-.746.024-1.515.156-2.261.289-1.66 1.359-2.694 2.922-3.127 2.766-.758 5.568-1.046 8.43-.517.565.108.661.337.457.842-.445 1.07-1.167 1.972-2.213 2.345-1.816.637-2.333 1.924-2.525 3.692-.337 3.019-1.335 5.869-2.489 8.671-.998 2.405-2.718 3.656-5.183 4.197-2.538.565-4.486-.277-6.133-2.141-.938-1.07-1.864-2.153-2.826-3.199-.565-.625-1.203-1.191-1.84-1.816zm20.155 56.618c.06 2.586.625 5.087 1.467 7.516a42.29 42.29 0 0 0 2.105 5.063c.613 1.227 1.431 1.203 2.189 0a21.28 21.28 0 0 0 2.622-6.097c1.431-5.604 2.898-11.196 4.173-16.837.758-3.367 1.179-6.807 1.78-10.21.397-2.297.854-4.594 1.239-6.891.481-2.778.866-5.568 1.383-8.334.926-4.859 1.936-9.693 2.91-14.54.06-.265.204-.517.228-.782.024-.277.072-.637-.072-.842-.228-.361-.601-.541-1.07-.313-.289.144-.601.216-.914.313-1.756.529-3.031-.241-4.077-1.563a194.205 194.205 0 0 1-3.584-4.702c-.589-.794-1.227-1.467-2.153-1.864-1.395-.601-1.732-1.611-1.599-3.091.036-.361.481-.77.83-.986.83-.481 1.72-.854 2.574-1.287 2.189-1.106 3.596-.878 5.4 1.431 1.239 1.563 2.345 3.223 3.512 4.847.108.144.228.289.361.421.71.734 1.335.613 1.732-.325.216-.505.409-1.022.589-1.539.806-2.273 2.67-3.139 4.822-3.584.529-.108 1.094-.072 1.636-.012 1.936.216 2.586 1.022 2.165 3.007-.926 4.39-2.044 8.719-3.031 13.096a1664.981 1664.981 0 0 0-3.8 17.57c-1.467 6.891-2.838 13.806-4.353 20.685-1.034 4.738-2.105 9.477-3.403 14.143-.974 3.5-2.225 6.927-3.596 10.294-.698 1.72-1.708 3.391-2.922 4.774-1.263 1.443-3.067 2.285-5.039 2.586-.313.048-.625.084-.95.132-1.864.289-3.175-.637-4.221-2.02-1.936-2.55-2.958-5.496-3.764-8.551-.842-3.199-1.251-6.47-1.491-9.765-.012-.18-.036-.385.024-.541.541-1.395 2.321-3.524 4.546-3.427 1.407.072 1.768.385 1.735 1.78v.493z"/><path fill="#C7C8CA" d="M664.109 125.169c-1.169.06-1.688-.922-1.87-1.674-.132-.551-.161-1.13-.328-1.667-.361-1.155-.042-2.083.869-2.814 1.4-1.124 2.922-2.041 4.792-1.912.698.046 1.437.305 2.038.666.866.52 1.082 1.139.625 2.053a27.983 27.983 0 0 1-2.328 3.87c-.313.433-1.022.616-1.583.823-.722.265-1.476.441-2.216.655zM349.642 36.39c-.433 1.583-.83 3.716-2.768 4.153-.946.118-1.936-.04-2.529-.871-1.424-2.056-1.462-4.714-1.621-7.276-.238-5.46-.593-11.353 1.106-16.247.397-.83 1.265-1.624 2.213-1.708 1.147-.12 2.136.397 2.651 1.347 1.106 2.008 1.146 4.498 1.423 6.879.313 4.582.228 9.284-.481 13.71zm3.396-23.933c-2.141-2.766-5.616-3.921-9.02-2.97-3.283.746-5.58 4.149-6.374 7.192-1.587 5.773-1.503 12.724-.673 18.809.673 3.752 2.008 8.057 6.001 9.597 2.922 1.142 6.795.746 9.056-1.587 3.716-3.921 4.065-9.332 4.341-14.624.12-5.46-.204-10.763-2.574-15.261l-.794-1.191zM282.71 38.518c-.361.95-1.227 2.093-2.333 2.165-.794.192-1.587-.12-2.141-.637-1.191-1.142-1.275-2.694-1.587-4.149-.673-5.736-.589-11.822.313-17.438.397-1.551.746-3.644 2.682-4.041 1.263-.313 2.369.553 2.922 1.624 1.419 3.367 1.299 7.36 1.335 11.232-.12 3.872-.036 7.793-1.227 11.232zm-2.851-29.236c-3.283.072-6.29 2.333-7.552 5.291-1.587 3.824-2.141 8.142-2.177 12.567.156 5.604.12 11.341 3.355 15.646 1.816 2.453 4.546 3.283 7.504 2.97 2.886-.192 5.568-2.333 6.759-4.943 1.9-4.149 2.285-9.008 2.285-13.866-.108-4.822-.385-9.609-2.646-13.553-1.611-2.73-4.426-4.269-7.552-4.113zm25.832 19.098c-2.694-2.886-7.228-4.353-8.178-8.418-.192-1.972-.349-4.474 1.624-5.46.517-.277 1.263-.156 1.78.036.914.553 1.347 1.539 1.503 2.562.313 1.299.12 2.898.241 4.281h5.616c.204-2.85-.036-5.712-1.263-8.13-.71-1.347-2.02-2.574-3.439-3.199-2.646-1.311-6.446-.914-8.731.95-3.127 2.61-3.957 6.879-3.091 10.703 1.022 4.474 5.845 6.879 9.008 9.958 1.732 1.503 2.333 3.596 2.056 5.857-.156 1.383-.794 2.958-2.297 3.319-.83.156-1.624 0-2.177-.517-1.816-1.9-1.419-4.907-1.419-7.552 0 0-3.921-.048-5.821 0-.277 3.56 0 7.276 2.165 10.078 2.177 2.525 5.46 3.247 8.695 2.646 3.007-.517 5.724-3.163 6.362-6.133 1.034-3.836.397-8.262-2.646-11.028zm84.7 8.683c-.397 1.299-.866 2.922-2.333 3.439-1.191.349-2.297-.084-3.007-.986-.95-1.191-.95-2.73-1.263-4.185-.794-5.376-.601-11.148.036-16.608.277-1.539.746-3.163 2.213-4.029.95-.433 2.213-.241 2.958.553 1.467 1.936 1.551 4.462 1.864 6.915.397 4.907.313 10.114-.481 14.9zm-4.389-27.66c-3.007.156-5.688 2.61-6.759 5.291-2.02 4.943-2.141 10.823-1.9 16.524.481 5.412 1.034 11.701 6.759 14.107 2.958 1.022 6.674.553 8.935-1.78 3.283-3.644 3.836-8.418 4.185-13.289.12-5.46-.072-11.028-2.129-15.694-1.539-3.439-5.219-5.857-9.092-5.183zm-117.255 21.43h-5.881c-.192 3.079.048 6.278-1.299 8.851-.469.866-1.383 1.142-2.297 1.022-1.106-.277-1.66-1.467-2.008-2.453-1.419-5.58-1.347-12.339-.83-18.232.241-1.864.433-3.716 1.78-5.099.553-.361 1.383-.517 2.02-.241 1.263.589 1.66 1.936 1.9 3.163.325 1.732.325 3.668.517 5.448h5.857c.036-3.644-.469-7.156-2.129-10.126-1.816-3.127-5.376-4.474-8.899-3.596-4.113.83-5.965 5.171-6.674 8.767 0 .397-.277.866-.084 1.179-.036.036-.156 0-.156.12-.517 3.115-.517 6.446-.469 9.609.361 4.907.553 9.885 3.439 13.758 2.141 2.73 5.773 3.355 8.983 2.405 5.135-1.9 6.133-7.516 6.41-12.411-.084-.758.156-1.503-.12-2.213zm53.865-.529l-.12.228c-1.419-6.759-2.85-13.674-4.149-20.468h-8.106v34.828h5.352V20.96l2.982 14.9c.637 3.007 1.828 9.044 1.828 9.044h4.269l4.822-22.934v22.946h5.243V10.04h-7.841l-4.269 20.276z"/><path fill="#C7C8CA" d="M369.327 26.508c-1.263 1.542-3.223 1.462-5.117 1.462V15.2c.072-.12-.06-.316.168-.277 2.177-.198 4.498.156 5.496 2.292 1.263 2.728 1.383 6.839-.553 9.29zm-.956-16.406l-10.282.048v34.84h5.989V32.758h3.415c2.453-.078 4.666-.83 6.326-2.766 3.439-3.56 3.668-9.567 2.044-14.074-1.227-2.964-4.197-5.693-7.516-5.811zM405.441 10.101h-5.929v34.868h11.976v-4.666h-6.037zm7.513 0h5.857v34.908h-5.845zm22.778 0h-15.911v5.023h5.135v29.88h5.7V15.059h5.075zM441.118 30.441l1.818-12.63.04-.156c.67 4.233 1.9 12.796 1.9 12.796h-3.758zm-2.293-20.34l-5.691 34.927h5.773l1.587-9.745h5.183l1.66 9.725h5.496L446.975 10.1h-8.142zm27.296 0v21.31c-.038-.041-5.554-21.308-5.554-21.308h-6.523v34.888h4.94V22.988c.238.712 5.775 22.02 5.775 22.02h6.266V10.101h-4.903zM4.187 54.279H.002v.797h23.183V40.44h-.706s-.029 8.437-2.804 11.213c-2.36 2.36-4.847 2.583-8.923 2.583V27.31s2.814-.2 4.175 1.162c2.153 2.153 2.363 4.907 2.363 8.707h.743V16.551h-.743c0 3.8-.21 6.554-2.363 8.707-1.361 1.363-4.175 1.162-4.175 1.162V.842c4.077 0 6.013.222 8.375 2.583 2.776 2.776 2.804 11.212 2.804 11.212h.705V0H.003v.799h4.185v53.48zM65.864.827v53.41c4.077 0 6.563-.224 8.923-2.583 2.776-2.776 2.804-11.213 2.804-11.213h.705v14.636H55.113v-.797h4.185V.8h-4.185V.004h14.571v.824h-3.821zm54.663 0v53.41c4.074 0 6.561-.224 8.923-2.583 2.774-2.776 2.802-11.213 2.802-11.213h.705v14.636h-23.181v-.797h4.185V.8h-4.185V.004h14.57v.824h-3.819zm48.209 53.452h-4.185v.797h23.181V40.44h-.705s-.028 8.437-2.802 11.213c-2.362 2.36-4.849 2.583-8.923 2.583V27.31s2.814-.2 4.173 1.162c2.155 2.153 2.366 4.907 2.366 8.707h.741V16.551h-.741c0 3.8-.21 6.554-2.367 8.707-1.359 1.363-4.173 1.162-4.173 1.162V.842c4.077 0 6.013.222 8.375 2.583 2.776 2.776 2.802 11.212 2.802 11.212h.706V0h-22.633v.799h4.185v53.48zm704.809-21.845c-.043.301-.084.515-.127.73-.259 1.158-.558 1.845-.944 2.102-.344.257-1.074.385-2.189.385h-4.421V20.113c0-.729.084-1.203.301-1.371.171-.173.514-.259 1.07-.259h1.59v-6.094h-15.069v6.095h1.287c.77 0 1.203.18 1.371.481.12.385.168.818.168 1.251v14.756c0 .433-.048.866-.216 1.287-.132.301-.565.481-1.335.481l-1.287-.036v6.097h24.196l.216-11.196h-4.51c-.048.349-.096.601-.132.866zm-32.104-8.117c-.433.469-.854.818-1.371.986-.301.048-.649.132-.95.168-.301 0-.517.036-.734.036h-.649v-6.518h.902c1.239 0 2.141.301 2.658.95.517.601.77 1.335.77 2.189 0 .986-.216 1.72-.649 2.189zm6.963-9.825c-2.67-1.203-5.58-1.888-8.803-2.008-.433-.048-.866-.048-1.287-.048h-12.7v6.097h1.239c.649 0 1.034.084 1.251.301s.337.685.337 1.419v14.756c0 .722-.132 1.203-.349 1.419s-.601.349-1.251.349l-1.251-.036v6.096h15.417v-6.049h-1.72c-.685 0-1.106-.173-1.287-.433-.216-.253-.301-.685-.301-1.329V32.14h3.271c3.439 0 5.965-.601 7.6-1.848 1.587-1.203 2.658-2.574 3.223-4.041.216-.647.385-1.287.469-1.888s.132-1.163.132-1.678c0-4.252-1.335-6.951-3.993-8.202zm43.138 13.766l2.525-7.985h.349l2.225 7.985h-5.099zm17.077 8.034c-.301-.301-.565-.854-.818-1.636-.048-.084-.048-.168-.084-.253 0-.084-.048-.168-.048-.253l-6.145-21.743h-11.677l-2.405 8.118-4.041 12.832c-.048.129-.084.259-.18.429-.048.129-.084.301-.132.429-.168.469-.421.902-.722 1.323-.084.12-.18.253-.265.385-.421.517-1.022.818-1.804.818h-.637v6.049h11.244v-6.049h-.421c-.421 0-.685-.048-.854-.096s-.301-.084-.337-.168a.493.493 0 0 1-.12-.349c0-.18.048-.349.084-.517l.18-.565h9.224l.18.986c0 .036 0 .084.048.084v.084c0 .253-.084.385-.301.421s-.433.084-.685.084h-1.251v6.049h14.131v-6.052h-.649c-.649 0-1.118-.172-1.467-.473zm103.738-23.918v6.095h.649c.253 0 .469 0 .685.048s.301.216.301.433v.18c-.048.048-.048.132-.048.176 0 .048-.036.048-.036.084 0 .048 0 .048-.041.084 0 .048-.041.132-.041.18 0 .042-.042.084-.042.084l-2.321 3.735h-.253l-2.189-2.706c-.344-.433-.433-.861-.517-1.118-.126-.257-.171-.469-.171-.685s.084-.344.262-.385c.176-.088.346-.088.563-.088h.734v-6.094h-14.804v6.094h.421c.782 0 1.335.13 1.672.429.349.301.649.685.902 1.203.048.084.096.129.096.216.048.041.084.127.132.168l7.119 10.817v3.993c0 .637-.12 1.022-.337 1.191a1.415 1.415 0 0 1-.734.216h-1.924v6.049h15.141v-6.049h-1.936c-.253 0-.469-.084-.637-.216-.204-.084-.301-.469-.301-1.07v-4.414l4.979-8.971c.216-.433.349-.902.481-1.251.12-.385.253-.685.385-.95.216-.469.469-.854.77-1.07s.734-.301 1.287-.301h1.167v-6.084h-11.377zm-28.165 16.608c0 2.105-.212 3.865-.64 5.279-.433 1.419-1.375 2.105-2.833 2.105-1.455 0-2.398-.685-2.826-2.105-.433-1.414-.601-3.175-.601-5.279v-2.79c0-3.002.253-4.933.77-5.835s1.118-1.455 1.764-1.587c.168-.036.301-.036.469-.036h.902c.132 0 .301 0 .433.048.637.132 1.239.685 1.756 1.587.553.902.806 2.838.806 5.845v2.79zm10.304-7.035a19.12 19.12 0 0 0-.943-2.447 12.884 12.884 0 0 0-1.419-2.316c-.689-.986-1.419-1.768-2.233-2.405a14.055 14.055 0 0 0-2.405-1.636c-1.287-.649-2.538-1.07-3.74-1.251-1.245-.216-2.231-.301-3.047-.301s-1.848.084-3.05.301c-1.245.216-2.489.637-3.818 1.287a24.17 24.17 0 0 0-2.36 1.624c-.779.637-1.503 1.419-2.189 2.357a10.428 10.428 0 0 0-1.377 2.309c-.385.818-.734 1.636-.986 2.453-.301.986-.517 1.936-.601 2.874a20.415 20.415 0 0 0-.171 2.754c0 .77.048 1.804.176 3.043.168 1.299.469 2.586.938 3.957.216.601.469 1.203.77 1.804a9.664 9.664 0 0 0 1.07 1.804 11.468 11.468 0 0 0 4.762 3.86c1.924.818 3.908 1.335 5.965 1.419h1.72c2.056-.084 4.029-.601 5.965-1.419a11.63 11.63 0 0 0 4.762-3.86 9.61 9.61 0 0 0 1.07-1.804c.301-.601.553-1.203.77-1.804.469-1.371.818-2.658.938-3.945.12-1.239.216-2.273.216-3.043 0-.854-.096-1.756-.18-2.742a20.083 20.083 0 0 0-.649-2.874zm-40.779 13.384c-.385.385-.818.637-1.287.734-.265.036-.481.084-.685.084h-2.525V30.45h2.357c.818 0 1.503.253 2.02.77.469.469.722 1.242.722 2.23-.012.854-.18 1.503-.613 1.888zm-4.498-16.35h1.118c1.022 0 1.924.12 2.61.385.722.301 1.118 1.022 1.118 2.225 0 .685-.216 1.335-.601 1.931-.433.559-1.155.818-2.273.818h-1.972v-5.364zm8.623 8.07h-.517v-.385h.204c1.587 0 3.043-.601 4.329-1.768 1.323-1.161 1.972-2.748 1.972-4.847 0-3.127-1.263-5.989-3.271-6.963-2.093-.998-4.245-.661-6.783-.673-.601-.036-1.167-.036-1.768-.036H937.12v6.097h1.335c.421 0 .77.048 1.022.216.301.132.433.649.433 1.503v14.756c0 .866-.132 1.383-.433 1.551a2.38 2.38 0 0 1-1.034.216c-.048 0-.084-.048-.084-.048l-1.251.042v6.049h11.751s7.841.06 10.888-.241c3.271-.313 5.039-3.884 5.039-7.997 0-1.936-.601-3.692-1.72-5.195s-2.874-2.273-5.235-2.273zm-34.237-8.543h.685c.262 0 .477 0 .685.043.178.042.301.216.301.428 0 .042 0 .127-.038.171 0 .041 0 .126-.041.168v.088c0 .041-.042.041-.042.084-.048.042-.048.132-.048.172-.048.042-.048.084-.048.084l-2.357 3.86h-.265l-2.153-2.832c-.349-.427-.433-.856-.517-1.114-.132-.265-.18-.481-.18-.698s.084-.349.253-.385c.132-.096.349-.096.565-.096h.685v-6.084h-14.683v6.095h.385c.774 0 1.331.13 1.676.429.344.301.685.685.945 1.203.043.084.043.129.084.216.046.041.089.127.132.168l2.874 4.551 4.163 6.35.043 3.596v.301c0 .637-.132 1.022-.346 1.203-.257.12-.469.216-.729.216h-1.972v6.049h15.191v-6.049h-1.972c-.216 0-.433-.096-.646-.216-.168-.084-.265-.481-.265-1.082v-4.161l4.979-9.236c.216-.433.301-.902.469-1.251.12-.385.253-.685.385-.95.216-.481.469-.866.77-1.07.253-.216.722-.301 1.287-.301h1.155v-6.072h-11.412v6.094zm-366.399 8.538h-3.687v22.886h4.353c4.51 0 7.098-4.237 7.18-10.964.094-7.925-3.031-11.932-7.846-11.932zm-1.07-21.369l-2.612-.012v20.661h4.149c3.584 0 6.522-3.764 6.5-10.33-.016-7.336-3.271-10.306-8.033-10.306zm3.022 44.701H543.44c-.103 0-.103-.421 0-.421h4.498l.012-44.256-4.51.012v-.481h13.469c5.736 0 12.9 1.118 13.157 10.499.25 9.26-7.581 10.956-11.165 10.956 5.736 0 12.748 4.281 12.748 11.906 0 6.085-5.063 11.774-12.495 11.774zm24.264-36.571l-6.085 22.741h11.605l-5.52-22.741zm4.461 36.499v-.325l4.943.012-3.62-12.952h-11.87l-2.525 9.308a76.675 76.675 0 0 0-.818 3.656h4.798v.325h-9.825v-.325h4.51s.253-1.142.866-3.644l11.366-42.61 13.072 46.235 4.546.012v.313h-15.454zm18.701 0l19.315-44.955h-9.332c-6.863.108-8.796 8.495-8.911 17.39-.019 1.191-.114 2.76-.168 4.522 0 0-.313.016-.313-.034l.024-22.335h24.528l-19.02 45.086 8.496.012c8.202-.268 9.833-6.201 10.122-22.722h.376v23.018l-25.106.012zM712.619 5.351h-3.336l.005 21.102h4.149c4.661 0 6.909-2.913 7.232-10.195.356-7.997-3.646-10.908-8.05-10.908zm16.708 45.453c-.788.39-1.732.541-2.838.541-4.637 0-6.226-3.403-6.039-12.421v-4.161c0-5.635-2.706-7.591-7.011-7.591h-4.149l.012 22.832h5.352l.012.253h-15.467l-.014-.238 4.546-.008-.024-44.701-4.51.008v-.457h14.549c7.071 0 12.916 1.93 12.922 11.142.012 7.786-6.302 10.761-11.22 10.761 7.276 0 11.593 3.049 10.751 12.288l-.168 5.764c0 3.264.433 5.676 2.297 5.667.601-.002 1.179-.144 1.563-.577.421-.463.661-1.182.722-1.64.024-.238.132-.796.072-1.413 0 0 .024-6.662 0-6.687.024.024.361 0 .361 0v4.137c.048 3.704.048 4.161-.265 4.907-.204.481-.637 1.203-1.407 1.575zm-81.108-36.999l-6.085 22.729h11.6l-5.51-22.729zm4.474 36.487v-.309h4.939l-3.62-12.976h-11.87l-2.525 9.296a78.099 78.099 0 0 0-.818 3.648h4.807v.325h-9.83v-.325h4.522s.253-1.15.866-3.648l11.373-42.584 13.076 46.252 4.542.006v.301h-15.454z"/><path fill="#C7C8CA" d="M680.107 13.817l-6.089 22.733h11.6l-5.512-22.733zm4.466 36.496v-.325l4.931.004-3.62-12.952h-11.87l-2.525 9.303a76.73 76.73 0 0 0-.818 3.646h4.798v.325h-9.825v-.319l4.51-.006s.253-1.15.866-3.646l11.377-42.587 13.084 46.235 4.534.007v.313h-15.454zM30.319 129.556s.185 34.029.185 35.698c0 1.669 1.669 1.299 1.669 1.299h.742v2.782H19.927v-2.69h1.66c1.479 0 1.383-1.852 1.383-1.852v-26.15l-6.674 30.878h-3.608l-6.494-31.156v26.798c0 1.948 1.756 1.39 1.756 1.39h1.479v2.968H.157v-2.783h1.047c1.575 0 1.575-2.225 1.575-2.225v-34.866c0-1.761-1.575-1.389-1.575-1.389H.001l.093-2.874h10.941l5.748 25.784 5.472-25.772h10.664v2.874H31.62c-1.299 0-1.299 1.299-1.299 1.299zm11.304 9.153c-2.393 0-2.189 2.922-2.189 2.922v7.889h4.101v-7.42s.457-3.367-1.924-3.367zm8.346 13.698H39.398s.373 8.154.373 9.645.277 4.365 3.331 4.45c3.896 0 3.524-3.8 3.524-3.8v-3.8h3.055c-.469 8.346-1.299 11.124-8.815 11.124s-9.368-11.774-8.996-15.478c.373-3.704-.277-18.821 9.729-18.821 10.15 0 8.346 16.692 8.346 16.692zm19.662 13.253c0 1.118 1.022 1.203 1.022 1.203h.553v2.694H61.104v-2.874h.926c.926 0 .83-1.203.83-1.203s-.096-19.374-.096-21.046c0-1.66.734-4.077-1.864-4.077s-2.694 2.874-2.694 2.874v22.717c0 .842 1.01 1.022 1.01 1.022h.649v2.417H49.39v-2.694h1.299c.926 0 .83-1.203.83-1.203v-24.942c0-1.299-1.299-.926-1.299-.926h-1.022v-3.067c1.479 0 7.131-.373 8.154-.649s.926 1.022.926 1.022v1.948s1.948-3.151 6.025-3.055c5.003 0 5.279 4.738 5.279 4.738v25.122zm1.673-27.818l-1.852-1.486 3.151-3.524s-3.439-1.764-2.874-4.731c.553-2.97 6.578-3.62 7.228.553s-3.62 7.786-5.664 9.18zm17.606 22.805c-.565 6.488-3.439 9.733-8.346 9.361-4.077-.463-4.822-2.501-4.822-2.501s-.842 0-.746.553c.084.553 0 1.387 0 1.387h-2.501V158.69h2.79s.277 7.787 3.331 7.973c3.055.184 5.424-1.407 3.055-6.951 0 0-7.6-7.516-8.526-11.133s-1.441-9.44 3.427-12.24c3.708-2.129 8.719 1.395 8.719 1.395v-1.106h2.321v9.465H84.93s-.277-5.376-1.948-6.398c-1.672-1.01-5.661-.457-4.269 4.269 1.395 4.726 10.757 10.198 10.201 16.692zm26.148-31.151v36.162c0 1.118 1.575 1.299 1.575 1.299h1.116v2.321h-13.253v-2.417h1.854c1.02 0 1.114-1.106 1.114-1.106v-17.089h-8.07v17.156c0 1.206 1.395 1.022 1.395 1.022h1.484v2.41H89.11v-2.69h1.761c.938 0 1.022-1.017 1.022-1.017v-35.982c0-1.484-1.299-1.206-1.299-1.206h-1.299v-2.874l12.892-.093v2.778h-1.672c-1.203 0-1.203 1.106-1.203 1.106v16.404h8.25v-16.404c0-1.114-1.299-1.114-1.299-1.114h-1.66v-2.682h12.988v2.694h-1.756c-.926 0-.734 1.299-.734 1.299zm11.447 9.213c-2.381 0-2.189 2.91-2.189 2.91v7.889h4.113v-7.42s.469-3.379-1.924-3.379zm-2.213 13.674s.373 8.166.373 9.645.277 4.365 3.343 4.45c3.896 0 3.524-3.8 3.524-3.8v-3.8h3.067c-.469 8.346-1.299 11.124-8.815 11.124-7.504 0-9.356-11.774-8.996-15.478.373-3.716-.277-18.821 9.741-18.821 10.15 0 8.346 16.68 8.346 16.68h-10.571zm18.641 1.996c-1.01 3.019-.457 8.274-.385 9.356.084 1.082.926 2.093 2.165 1.852 1.239-.228 1.624-1.383 1.624-1.383l.072-13.589s-2.465.77-3.476 3.788zm13.373 12.7c-.541 1.696-1.239 3.091-4.871 2.862s-4.089-3.091-4.089-3.091h-.627s-1.082 3.476-5.64 3.175c-4.558-.313-5.56-5.64-5.412-10.968.156-5.328 3.331-8.887 10.439-10.896v-7.576s0-1.551-2.465-1.78c-2.477-.228-2.862.625-2.706.926 0 0 3.319 2.093 2.469 4.329s-4.095 2.321-5.099 1.082c-1.005-1.239-2.008-5.328 1.311-7.805 3.325-2.477 12.983-2.622 13.68 4.786v23.884s.541.926.998.156l.154-3.319h2.008s.392 2.55-.149 4.257zm11.438 2.658h-10.739v-2.934h.847c.77 0 .625-1.155.625-1.155v-36.439c0-1.155-1.005-.854-1.005-.854h-1.082v-2.85c4.173.084 8.887-.842 8.887-.842v41.189c-.075.926 1.082.926 1.082.926l1.393.156v2.778zm13.289-30.282h-4.868l-.156 25.267s-.077 1.936 1.155 1.936c1.239 0 1.01-2.008 1.01-2.008v-6.181h3.091l-.156 6.807c-.307 2.165-1.852 4.642-6.643 4.642s-5.405-3.632-5.405-3.632l.072-26.962h-2.321v-2.934h2.09c3.091-2.237 4.714-8.502 4.714-8.502h2.55v8.43h4.863v3.175zm21.713 29.909h-10.207l.072-2.465h.854c1.003-.072.77-.854.77-.854s.078-19.158.078-22.645c0-3.476-1.395-3.007-1.395-3.007-2.477.072-2.934 2.477-2.934 2.477v23.258c0 .698.69.698.69.698l.77.084v2.393h-9.813v-2.237l.698-.072c.854-.084.77-1.239.77-1.239s.084-35.465 0-36.547-1.383-.854-1.383-.854h-.854l.072-2.321c3.403-.072 8.887-1.155 8.887-1.155v13.986l.541.072c.842-1.624 2.622-3.031 6.025-3.091 4.786.084 4.786 5.953 4.786 5.953s-.084 23.102-.084 24.341c0 1.239 1.768 1.082 1.768 1.082l-.144 2.165zm75.932-5.039s.125-.373.174-.613c.048-.241.075-.83.075-.83l.072-15.959s-.072-1.275-.072-2.032c0-1.034-.421-1.756-.421-1.756l9.44-4.377v4.305c.168-.18 3.467-4.353 8.71-3.812 5.243.553 5.352 3.86 5.451 3.848.216-.036 3.432-4.365 8.49-3.824 4.618.505 5.358 3.427 5.358 4.486v19.518s.072.457.096.529l.172.517s-9.561.048-9.549 0c0 0 .176-.216.225-.445.06-.289.096-.77.096-.77s-.048-15.177-.147-15.67c-.096-.493-.337-1.599-1.876-1.864-2.068-.337-2.862 2.129-2.862 2.129 0 1.287-.192 15.55-.192 15.55s.036.397.132.637l.185.445h-9.695s.144-.265.192-.505c.058-.241.036-.529.036-.529s.108-15.381 0-15.778c-.096-.397-.409-1.852-2.044-1.852-1.508 0-2.498 1.804-2.694 2.754-.12.553-.15 14.852-.15 14.852l.144.577.197.493s-9.525.036-9.549 0zm48.675-5.412c1.888 2.429 4.606.541 4.798.144 0 0-1.66-7.168-1.924-7.276 0 0-5.352 2.213-2.862 7.131zm10.499 5.34a8.494 8.494 0 0 1-2.129-.722c-.613-.337-1.972-1.515-1.972-1.515s-.144.048-.493.253c-.337.204-2.766 1.599-3.8 1.936-2.153.685-4.546.577-6.181-.048-4.774-1.864-4.847-5.893-4.895-6.879-.048-.998-.204-5.195 3.836-7.42 3.091-1.708 6.999-1.984 6.999-1.984s-.685-3.512-3.043-4.498c-2.634-1.106-5.111.301-5.111.301s.024-3.752 0-3.908c0 0 3.307-1.179 6.278-1.13s4.702.493 5.785.938c1.094.445 4.065 2.081 5.099 6.674 1.034 4.606 1.383 7.468 1.636 8.911s.445 3.271 1.287 4.353c.842 1.094 1.804.818 1.984.842 0 0 .024 3.86 0 4.005 0 0-4.197.108-5.243-.096zm6.794.108h10.125s-.126-.168-.2-.289c-.072-.12-.174-.589-.174-.589v-13.108c0-.493.265-2.778.746-3.512.493-.746 1.142-1.287 2.525-1.479 1.383-.204 3.488.241 3.488.241s1.948-6.181 1.972-6.398c0 0-.613-.722-2.55-.866-1.876-.144-3.319.986-4.161 1.78s-1.551 1.611-2.02 2.008v-3.644l-9.994 4.305s.168.349.349.758c.168.421.289 1.756.289 1.756l-.072 18.183-.12.493-.216.373zm18.605 0h10.114s-.144-.265-.241-.517c-.036-.072-.12-.409-.108-.722v-24.774l-9.597 4.209.048 20.613s.06.313-.048.649a3.046 3.046 0 0 1-.168.493zm5.051-26.301c3.031 0 5.328-1.924 5.328-4.041 0-2.105-2.297-3.872-5.328-3.872s-5.267 1.816-5.267 3.921 2.237 3.981 5.267 3.981zm15.958 12.976l6.386-1.816s.385-6.554-3.271-6.302c-3.656.241-3.163 8.082-3.115 8.106zm6.23 8.839c4.353.349 6.181-1.287 6.181-1.287v4.257c-.241.192-2.67 1.335-7.468 1.431s-6.879-1.239-7.372-1.443c-.493-.192-5.34-3.163-6.278-8.851s1.624-9.837 1.624-9.837 2.513-4.75 8.947-5.736c6.434-.986 9.813 2.165 11.124 4.209 2.032 3.139 2.874 7.937 2.874 7.937s-14.888 4.077-14.936 4.233c-.048.144.938 4.75 5.291 5.087zm36.294 3.392l.048-4.329c-.144.048-1.672 1.058-3.656.938-2.826-.18-4.63-2.477-4.955-2.97-.337-.541-1.599-3.055-1.72-5.893-.144-2.958.938-5.688 1.828-6.578s2.129-1.684 3.704-1.624c1.587.048 3.884.842 3.957.842l.024-4.233s-3.776-1.07-5.953-1.167c-5.412-.228-8.671 2.994-9.296 3.656-.685.746-3.512 3.464-3.367 10.535.553 7.324 4.907 9.946 4.907 9.946s2.489 2.056 7.961 1.996c4.522-.048 6.53-1.13 6.53-1.13zm2.093.974l10.006.024s-.12-.253-.168-.397c0 0-.12-.421-.156-.782-.024-.313-.048-32.531-.048-32.531.036-.108-10.282 4.63-10.282 4.63.397.373.673.938.77 1.684l.024 26.289s-.012.289-.072.637l-.072.409zm38.327 0h10.198s-.156-.265-.192-.421c0 0-.156-.517-.156-.673 0-.313.06-24.365 0-24.726l-9.561 4.522.024 20.312-.048.505c-.036.132-.241.505-.241.505zm12.856.024h10.114s-.12-.12-.204-.469c-.024-.096-.096-.637-.096-.637v-12.94c0-.493.18-2.754.661-3.488.493-.746 1.142-1.287 2.525-1.479 1.383-.204 3.439.168 3.439.168l1.924-6.266s-.373-.854-2.429-.914c-1.876-.06-3.331.962-4.173 1.756s-1.948 2.032-1.948 2.032.048-3.764 0-3.788l-10.066 4.426s.18.325.349.95.18 1.66.18 1.66l.036 17.185s-.012.794-.108 1.239c-.072.325-.192.565-.192.565zm25.411-13.337c.349 0 6.145-1.611 6.386-1.804.253-.204.385-6.554-3.271-6.302-3.668.241-3.464 8.106-3.115 8.106zm6.037 8.911c4.353.349 6.181-1.407 6.181-1.407v4.365c-.241.204-2.67 1.335-7.468 1.443-4.798.096-6.879-1.239-7.372-1.443s-5.34-3.175-6.278-8.863c-.938-5.688 1.636-9.837 1.636-9.837s2.513-4.738 8.947-5.736c6.217-.95 9.597 2.333 11.124 4.209 1.539 1.876 2.838 7.793 2.634 7.961-.12.108-14.636 4.065-14.684 4.209-.048.156.938 4.75 5.291 5.099zm-39.794-21.454c3.031 0 5.328-1.936 5.328-4.041s-2.285-3.872-5.316-3.872-5.267 1.828-5.267 3.933 2.237 3.981 5.267 3.981zm-22.128 20.432c1.888 2.429 4.606.541 4.798.144 0 0-1.648-7.168-1.924-7.264 0 0-5.352 2.213-2.862 7.119zm10.499 5.352c-1.034-.204-1.852-.565-2.129-.722-.613-.325-1.984-1.503-1.984-1.503s-.144.06-.493.253-2.778 1.599-3.812 1.936c-2.153.685-4.546.577-6.181-.048-4.774-1.852-4.847-5.893-4.895-6.879-.048-.998-.204-5.195 3.836-7.42 3.103-1.708 6.999-1.984 6.999-1.984s-.685-3.512-3.031-4.498c-2.634-1.118-5.123.301-5.123.301s.024-3.764 0-3.908c0 0 3.319-1.191 6.29-1.142s4.702.493 5.785.938c1.094.445 4.053 2.081 5.099 6.674s1.383 7.468 1.636 8.899c.253 1.431.445 3.259 1.287 4.353.842 1.082 1.804.818 1.984.842 0 0 .024 3.86 0 4.005 0 0-4.197.096-5.243-.096zm472.841-26.987v-.012h-3.812c-.168 0-.349-.024-.349.253.012 1.78.012 3.56.012 5.34 0 .313.072.373.373.373 1.984 0 3.969 0 5.953-.012.529 0 1.046-.06 1.575-.108.685-.06 1.359-.216 1.984-.517.666-.337 1.227-.782 1.376-1.551.072-.409.096-.842.084-1.251-.012-.722-.361-1.287-.926-1.72-.734-.553-1.611-.782-2.513-.806-1.239-.048-2.489-.012-3.74-.012zm-31.335-.024v-.024h-3.921c-.208 0-.253.096-.253.277v5.388c0 .216.064.313.301.313 1.936 0 3.878-.012 5.821 0 1.147.012 2.289-.072 3.383-.469.589-.216 1.106-.541 1.455-1.094.373-.577.445-1.227.373-1.888-.06-.517-.241-.986-.625-1.383-.734-.77-1.696-1.034-2.682-1.094-1.287-.072-2.574-.012-3.86-.012zm.497 20.456c.746 0 1.491.012 2.237 0 1.251-.024 2.509.084 3.749-.192a4.933 4.933 0 0 0 1.467-.553c1.263-.746 1.484-2.237 1.07-3.476-.253-.77-.854-1.215-1.563-1.527-.938-.421-1.948-.529-2.946-.534-2.778-.024-5.556 0-8.346-.012-.253 0-.325.096-.325.319v5.712c0 .192.072.277.289.277h4.402zm31.468.014c.89 0 1.78.012 2.658 0 1.311-.012 2.634.072 3.908-.361.625-.216 1.179-.517 1.587-1.058.469-.637.529-1.359.469-2.105-.072-.842-.469-1.467-1.179-1.912-1.082-.685-2.321-.818-3.56-.842-2.742-.036-5.484-.012-8.238-.012-.313 0-.385.06-.385.385v5.58c0 .277.072.337.349.337h4.402zm26.854-10.199v9.609c0 .409 0 .409.385.409 1.563 0 3.127-.012 4.69 0 .974 0 1.924-.084 2.862-.301.818-.18 1.599-.457 2.345-.818.914-.457 1.744-1.034 2.429-1.768a8.699 8.699 0 0 0 1.828-2.85c.361-.902.601-1.816.71-2.766.072-.661.096-1.335.072-1.996a11.772 11.772 0 0 0-.241-2.056c-.132-.613-.349-1.215-.577-1.804-.373-1.022-.974-1.912-1.708-2.706-.974-1.058-2.153-1.828-3.512-2.333a10.806 10.806 0 0 0-3.584-.698c-1.756-.036-3.524-.012-5.291-.012-.361 0-.397.036-.397.385v9.681zm43.667 10.499a11.27 11.27 0 0 0 3.836-.806c1.599-.649 2.898-1.684 3.945-3.043.673-.878 1.215-1.84 1.515-2.91.216-.782.469-1.575.553-2.369a11.25 11.25 0 0 0-.084-3.355 11.797 11.797 0 0 0-.95-2.982 9.917 9.917 0 0 0-2.297-3.067 9.668 9.668 0 0 0-3.788-2.117 10.29 10.29 0 0 0-2.557-.409 10.277 10.277 0 0 0-4.161.746 9.026 9.026 0 0 0-2.742 1.72 9.858 9.858 0 0 0-2.718 4.089 11.321 11.321 0 0 0-.673 3.704c0 .529.072 1.063.096 1.599.06.974.325 1.912.685 2.814a10.486 10.486 0 0 0 2.369 3.56c1.378 1.359 3.026 2.189 4.895 2.586.685.144 1.395.168 2.085.241zm-19.184-4.558c-.289.18-.313.493-.409.75a17.684 17.684 0 0 1-2.742 4.871c-1.371 1.744-3.031 3.168-4.931 4.305a18.525 18.525 0 0 1-3.115 1.491c-1.058.397-2.141.685-3.247.926-1.852.409-3.728.481-5.616.481-1.503 0-3.019.012-4.522.012-1.287 0-2.562-.012-3.848-.012-1.78 0-3.56 0-5.34.012-.228 0-.253-.108-.253-.277 0-.974 0-1.948.012-2.922v-2.61c0-.084-.048-.18-.06-.265h-.072c-.228.373-.457.734-.698 1.094-.589.914-1.371 1.636-2.237 2.273-.962.685-2.02 1.203-3.145 1.599-1.01.349-2.044.589-3.091.77-2.093.349-4.185.325-6.29.313-1.515 0-3.031.012-4.558.012-1.876 0-3.752-.012-5.628-.012-1.78 0-3.56 0-5.34.012-.253 0-.289-.12-.289-.325v-5.364c0-.072 0-.156-.014-.228 0-.028-.072-.072-.096-.06a.26.26 0 0 0-.144.132c-.421.854-.998 1.599-1.684 2.261a10.04 10.04 0 0 1-3.007 1.981c-.601.265-1.227.517-1.852.722a8.796 8.796 0 0 1-1.443.373c-.878.156-1.744.277-2.622.385-.457.06-.926.096-1.395.096-2.55.012-5.087.024-7.637.024h-5.135c-2.02 0-4.041.007-6.073.019-.253 0-.253-.132-.253-.313l.008-9.188v-27.816c0-.34 0-.349.349-.349 5.881 0 11.774 0 17.654.008 1.251 0 2.501.156 3.728.433 1.215.265 2.381.673 3.488 1.263 1.684.902 3.031 2.153 3.933 3.848.409.77.734 1.587.842 2.465.096.765.228 1.527.228 2.297 0 1.431-.253 2.826-.878 4.125-.613 1.259-1.491 2.309-2.574 3.175-.241.192-.216.261.048.409 1.563.83 2.946 1.872 3.945 3.355.12.18.204.385.325.574.036.06.108.096.156.144.036-.072.108-.144.12-.204.012-.445.012-.89.012-1.347l-.012-20.18c0-.349 0-.349.349-.349 5.845 0 11.701-.012 17.546.012.986 0 1.972.132 2.946.277.77.108 1.527.277 2.273.517 1.563.493 2.994 1.251 4.209 2.381a8.645 8.645 0 0 1 2.081 2.838c.361.794.589 1.636.722 2.501.144.938.156 1.876.072 2.814a8.643 8.643 0 0 1-.89 3.187c-.361.722-.794 1.395-1.359 1.96-.385.385-.782.746-1.187 1.118-.241.228-.241.265.048.409 1.684.854 3.127 1.984 4.125 3.632a8.3 8.3 0 0 0 .277.445c.012.012.036.024.12.072.024-.132.072-.241.072-.349v-9.344l-.012-8.43c0-1.263 0-2.525-.012-3.788 0-.204.072-.277.277-.277h14.708c1.227 0 2.441.108 3.656.301 1.251.204 2.465.505 3.668.902a19.07 19.07 0 0 1 5.003 2.562 17.877 17.877 0 0 1 3.584 3.415 18.35 18.35 0 0 1 2.165 3.488c.301.661.529 1.347.806 2.02.024.064.048.12.156.204.072-.18.156-.349.228-.529.313-.758.601-1.527.95-2.261.673-1.443 1.575-2.742 2.622-3.945a18.678 18.678 0 0 1 4.245-3.644 17.458 17.458 0 0 1 3.271-1.66 29.369 29.369 0 0 1 2.646-.83c.722-.192 1.455-.373 2.189-.445 1.167-.117 2.345-.201 3.512-.177a22.87 22.87 0 0 1 3.391.325c.962.156 1.9.457 2.838.722 1.07.301 2.081.758 3.067 1.287a19.245 19.245 0 0 1 4.847 3.668c1.515 1.587 2.73 3.379 3.584 5.4a22.3 22.3 0 0 1 1.034 2.91c.313 1.106.505 2.249.553 3.415.024.601.127 1.203.096 1.804a29.22 29.22 0 0 1-.289 3.079c-.132.89-.385 1.756-.613 2.622-.433 1.624-1.158 3.115-2.044 4.534a18.838 18.838 0 0 1-3.781 4.377 18.204 18.204 0 0 1-3.355 2.297c-.734.385-1.491.716-2.261 1.022-.673.271-1.377.505-2.081.698a15.97 15.97 0 0 1-1.847.385c-.818.125-1.648.257-2.477.289-1.503.06-3.007.084-4.486-.18-1.046-.18-2.068-.445-3.091-.722-1.768-.469-3.391-1.263-4.931-2.237-.974-.625-1.912-1.311-2.718-2.141-.673-.698-1.347-1.383-1.948-2.129a15.09 15.09 0 0 1-2.129-3.464c-.345-.794-.625-1.611-.946-2.417-.024-.036-.06-.084-.084-.132zm-14.387 243.682c-8.021 0-18.352 2.874-18.352 11.437 0 8.382 10.446 11.253 18.352 11.253 7.913 0 18.34-2.874 18.34-11.256 0-8.563-10.318-11.437-18.34-11.437zM824.51 418.636c5.448.469 10.042.734 15.069.734 7.36 0 16.885-.409 16.885-6.145 0-3.343-3.752-5.111-6.987-5.111v-.228c3.091-.373 5.592-2.465 5.592-4.931 0-5.111-8.13-5.508-15.778-5.508-5.075 0-9.152.192-14.78.698v20.48zm43.907 0l4.185-6.879h4.233v6.867h11.22v-20.456c-4.774-.517-11.581-.698-13.71-.698-9.052 0-17.579.589-17.579 7.504 0 2.97 2.61 4.738 5.556 5.472l-6.097 8.19h12.206zm131.842 0l12.134-10.258v10.258h11.437v-20.48h-10.15l-12.134 10.258v-10.258h-11.437v20.468h10.15zm-80.551 0h11.653v-7.649h7.877v7.649h11.694v-20.48h-11.694v7.095h-7.937v-7.095h-11.653v20.468zm-97.579-13.494v-6.073c-2.97-1.251-6.394-2.02-10.439-2.02-7.865 0-16.355 2.982-16.355 11.437 0 8.154 8.454 11.244 16.5 11.244 3.819 0 7.536-.698 10.294-1.876v-6.073c-2.317.95-4.594 1.467-7.023 1.467-3.451 0-7.24-1.13-7.24-4.774 0-3.524 3.271-4.895 6.798-4.895 2.277 0 5.039.613 7.456 1.539zm148.377 8.915c-2.64 0-6.326-1.431-6.326-5.62 0-4.45 3.644-5.736 6.326-5.736s6.321 1.287 6.321 5.736c0 4.197-3.678 5.628-6.323 5.628zm-75.517-3.816h7.432c2.275 0 2.934.734 2.934 1.66 0 1.479-1.619 2.141-4.341 2.141-3.127 0-7.312-.806-10.33-1.611l-.878 5.099c3.451 1.022 7.57 2.056 13.301 2.056 7.356 0 15.077-1.768 15.077-6.554 0-3.259-3.634-4.702-6.759-4.919v-.144c2.501-.481 5.033-2.201 5.033-4.774 0-4.377-6.145-6.035-12.579-6.035-4.666 0-9.745.998-13.157 1.912l.698 4.931c3.049-.77 6.907-1.539 9.781-1.539 2.538 0 3.86.481 3.86 1.864 0 .89-.51 1.624-2.531 1.624h-7.54v4.293zm-59.265 3.789v-4.149h5.8c1.984 0 3.127.553 3.127 2.105s-1.142 2.056-3.127 2.056h-5.809zm0-7.601v-3.933h5.58c1.282 0 2.754.373 2.754 1.912 0 1.551-1.472 2.032-2.754 2.032h-5.586zm41.093.878h-5.424c-2.429 0-3.271-1.239-3.271-2.417s.847-2.393 3.271-2.393h5.442v4.81z"/><path fill="#C7C8CA" d="M1011.922 396.331l-8.386-7.168V403.5zM611.958 273.136c-5.414 0-8.478 3.115-9.244 9.344l-.613 6.386c-.204 2.655-1.479 4.135-3.824 4.493-.613 0-.914.307-.914.919v2.554c0 .562.313.868.926.868 5.159 0 8.021-3.014 8.587-9.092l.613-5.616c.156-2.145.565-3.476 1.13-4.089.613-.765 1.84-1.173 3.632-1.173h4.089v18.845c0 .565.253.878.866.878h2.958c.565 0 .878-.301.878-.866v-22.525c0-.613-.301-.914-.866-.914h-8.166zm-33.402 14.094v-13.177c0-.613-.307-.919-.919-.919h-3.067c-.565 0-.878.301-.878.914v14.708c0 6.025 2.862 9.092 8.575 9.092 2.802 0 5.412-1.022 7.913-3.067l.505 2.141c.253.349.505.505.758.505h2.141c.613 0 .914-.253.914-.77v-22.621c0-.613-.361-.926-1.022-.926h-2.91c-.613 0-.926.301-.926.914v15.826c-1.792 2.141-4.041 3.211-6.638 3.211-3.019 0-4.498-1.984-4.498-5.869zm-20.628-7.48c4.702 0 7.047 2.249 7.047 6.689 0 4.341-2.345 6.482-7.047 6.536h-1.527c-3.163-.057-4.75-1.792-4.75-5.265v-7.96h6.284zm12.158 6.689c0-7.509-4.083-11.286-12.303-11.286h-6.133v-7.408h14.203c.613 0 .866-.361.919-1.022v-2.706c-.048-.661-.304-1.022-.914-1.022h-18.28c-.613 0-.921.361-.921 1.022v23.186c0 6.891 3.271 10.366 9.753 10.366h.874c8.539 0 12.82-3.728 12.82-11.136zm121.83-3.584h-11.082v-8.839c0-.613-.303-.92-.914-.92h-3.011c-.565 0-.818.301-.77.914v22.525c-.06.565.204.866.76.866h3.019c.613 0 .916-.308.916-.871v-9.344h11.082v9.344c0 .565.361.873.974.873h2.91c.613 0 .914-.313.914-.866v-22.525c0-.613-.304-.926-.914-.926h-2.91c-.613 0-.974.301-.974.914v8.827zm-22.32-9.753h-2.962c-.661 0-1.022.301-1.022.914v15.836c-1.789 2.147-3.981 3.221-6.638 3.221-2.958 0-4.498-1.996-4.498-5.872v-13.169c0-.613-.309-.921-.872-.921h-2.958c-.661 0-1.022.301-1.022.914v14.708c0 6.025 2.862 9.092 8.579 9.092 3.067 0 5.724-1.022 7.973-3.067l.457 2.141c.253.349.517.505.818.505h2.141c.565 0 .878-.253.878-.77v-22.633c0-.613-.313-.914-.866-.914zm.777-9.107c0-.661-.313-1.022-.926-1.022H650.65c-.661 0-1.01.361-1.01 1.022v2.706c0 .661.361 1.022 1.022 1.022h18.797c.613 0 .914-.361.914-1.022v-2.706zm-35.802 29.319c-2.754 0-4.089-1.227-4.089-3.68-.048-2.405 1.227-3.68 3.836-3.884l5.364-.517.108 6.53c-1.792 1.022-3.524 1.527-5.207 1.527zm4.51-15.658c.457.613.71 1.636.71 3.067v.565l-5.364.253c-6.025.409-9.044 3.067-9.044 8.07 0 5.412 3.067 8.178 9.2 8.178 2.201 0 4.293-.565 6.23-1.792l.409.866c.361.361.673.517.878.517h1.84c.469 0 .722-.253.722-.77v-15.886c0-5.676-3.115-8.539-9.452-8.539-2.706 0-5.159.409-7.252 1.275-.361.301-.565.613-.565.866v2.706c.108.409.265.661.409.77.361.048.613.096.77.096 1.948-.758 4.185-1.118 6.638-1.118 1.888 0 3.163.313 3.884.866zM214.843 392.843l33.541 7.441 18.848-7.829-16.307 18.887zm164.544 3.62l7.925 8.736 14.443-10.417-17.859 22.251z"/><path fill="#C7C8CA" d="M385.856 418.844h8.899l4.943-17.722-13.842 17.722zm-13.065 0h8.899l-3.984-17.854-4.907 17.854zm-92.726 10.462l-40.817-8.322-21.556 8.779 19.083-22.112 43.289 21.657zm-31.777-31.949a5.891 5.891 0 0 1-5.881-5.881c0-3.235 2.642-5.878 5.881-5.878s5.881 2.642 5.881 5.881c0 3.239-2.642 5.878-5.881 5.878zM497.18 409.77c.164-.577.26-1.102.295-1.575a3.988 3.988 0 0 0-.096-1.314c-.142-.695-.443-1.2-.904-1.508-.462-.31-1.015-.465-1.666-.465-.499 0-.991.096-1.472.289-.469.192-.938.481-1.407.854s-.866.878-1.215 1.503c-.337.613-.637 1.359-.878 2.237a5.804 5.804 0 0 0-.168.818 6.97 6.97 0 0 0-.096.806c-.06.746.024 1.407.241 1.96.144.433.433.746.842.962.421.216.938.325 1.575.325 1.215 0 2.237-.421 3.067-1.251.902-.95 1.539-2.153 1.924-3.584zm6.992.128c-.758 2.778-1.96 4.871-3.608 6.29-1.648 1.407-3.211 2.309-4.678 2.706-1.407.349-2.55.529-3.415.529a8.097 8.097 0 0 1-3.127-.613 4.592 4.592 0 0 1-1.371-.854l-1.936 7.095h-6.759l6.577-24.198h6.422l-.373 1.251c1.84-1.227 3.8-1.828 5.893-1.828 2.814 0 4.774.897 5.905 2.694.758 1.215 1.07 2.694.938 4.438-.06.758-.204 1.587-.445 2.501zm-29.862-1.974c.048-.253.084-.474.096-.673.058-.746-.1-1.275-.469-1.587-.541-.486-1.217-.726-2.044-.726-.685 0-1.275.084-1.78.253a3.416 3.416 0 0 0-1.335.812c-.316.325-.589.637-.821.926a5.348 5.348 0 0 0-.649.998h7.005zm5.977 3.716h-14.071c-.024.089-.028.174-.036.253-.012.084-.024.18-.029.289-.024.316 0 .637.072.962.042.313.138.589.277.833s.325.469.541.661c.224.192.499.337.83.438.337.096.698.144 1.106.144.782 0 1.525-.168 2.225-.499.325-.144.613-.349.863-.605.249-.265.505-.637.794-1.13h6.831a17.106 17.106 0 0 1-1.227 1.972 8.632 8.632 0 0 1-1.275 1.383c-.435.421-.967.83-1.599 1.203-.637.373-1.359.722-2.177 1.034-1.616.613-3.56.926-5.811.926-1.696 0-3.151-.228-4.359-.661a7.214 7.214 0 0 1-1.611-.83 5.333 5.333 0 0 1-1.179-1.106 5.377 5.377 0 0 1-.764-1.383 7.095 7.095 0 0 1-.378-1.672c-.024-.204-.032-.445-.032-.722s0-.553.024-.83c.048-.685.18-1.455.397-2.273.541-1.972 1.479-3.68 2.802-5.123a12.45 12.45 0 0 1 4.798-3.223c.89-.337 1.828-.601 2.814-.782s1.996-.277 3.019-.277c1.78 0 3.235.265 4.402.782 1.155.529 2.032 1.239 2.622 2.153.277.469.481.95.625 1.467s.241 1.022.265 1.551c.024.517.024 1.022-.012 1.491-.06.746-.192 1.503-.409 2.261l-.349 1.323zm-19.266-5.977h-6.037l-3.608 13.253h-6.747l3.608-13.265h-6.013l1.215-4.462h18.797l-1.215 4.462zm-20.119 5.869a22.748 22.748 0 0 1-1.082 2.213c-.325.532-.71 1.106-1.179 1.72a9.959 9.959 0 0 1-1.624 1.53c-.613.469-1.339.902-2.177 1.311-.818.409-1.72.722-2.67.92-.962.204-2.032.301-3.223.301-1.78 0-3.271-.253-4.477-.758-1.209-.505-2.105-1.203-2.682-2.083-.577-.878-.914-1.888-1.01-3.025a6.426 6.426 0 0 1 0-.777l.024-.517c.057-.736.18-1.47.373-2.204s.445-1.443.766-2.141c.313-.698.698-1.395 1.142-2.093.938-1.467 2.357-2.742 4.245-3.812 1.881-1.07 4.257-1.599 7.1-1.599 2.225 0 3.896.385 5.023 1.155 1.13.77 1.828 1.708 2.105 2.802.096.421.156.806.192 1.155s.024.77-.012 1.251c-.016.253-.048.493-.084.734s-.064.445-.084.613h-6.494c.084-1.167-.018-1.984-.325-2.477-.301-.493-.878-.746-1.715-.746-.589 0-1.167.108-1.744.325-.277.084-.541.241-.818.469a7.261 7.261 0 0 0-.794.806c-.613.746-1.106 1.78-1.467 3.139-.241.878-.385 1.624-.421 2.213-.072.854.036 1.503.325 1.972.409.77 1.106 1.155 2.093 1.155.998 0 1.804-.289 2.369-.878.349-.349.625-.698.866-1.07.277-.445.541-.974.77-1.575h6.687zm-28.935-.06l.036-.132-.529.111c-.048.005-.327.06-.842.156-.505.096-.95.168-1.313.216a9.207 9.207 0 0 0-1.251.245 9.883 9.883 0 0 0-1.282.397 1.39 1.39 0 0 0-.625.457c-.156.196-.277.469-.361.818-.024.096-.048.18-.048.241-.024.268.072.541.265.818.156.156.349.277.594.349.241.072.565.108.969.108.794 0 1.611-.277 2.446-.83.842-.558 1.491-1.551 1.943-2.97zm5.667 7.463h-6.867l-.048-1.173a8.573 8.573 0 0 1-1.371.746 8.74 8.74 0 0 1-1.539.493c-1.371.313-2.525.469-3.476.469-1.335 0-2.429-.144-3.259-.433-.842-.277-1.431-.71-1.78-1.275a4.28 4.28 0 0 1-.661-2.646c.018-.301.072-.625.156-.962.301-1.13.806-2.068 1.503-2.814a7.123 7.123 0 0 1 2.525-1.732c.818-.385 1.756-.673 2.814-.854.493-.096 1.022-.18 1.592-.277a57.356 57.356 0 0 1 1.783-.241c.637-.072 1.07-.12 1.299-.144a27.61 27.61 0 0 0 1.539-.216c.445-.084.746-.18.914-.301.156-.108.277-.289.361-.541l.108-.397c.036-.156.06-.253.06-.325.072-.902-.577-1.347-1.924-1.347-.589 0-1.046.036-1.407.12a1.91 1.91 0 0 0-.902.469 3.488 3.488 0 0 0-.661.83c-.18.313-.349.734-.505 1.239h-6.506c.241-.77.493-1.431.758-1.96a8.91 8.91 0 0 1 .974-1.503c.397-.481.89-.926 1.479-1.347s1.299-.806 2.117-1.155c.758-.313 1.624-.553 2.61-.722a20.754 20.754 0 0 1 3.235-.241c1.251 0 2.345.096 3.259.277s1.672.457 2.237.806c1.13.734 1.78 1.587 1.936 2.574.012.192.036.397.036.601 0 .216 0 .433-.024.685a9.88 9.88 0 0 1-.289 1.708l-2.129 7.588c-.12.457-.216.842-.289 1.167a6.776 6.776 0 0 0-.132.794.565.565 0 0 1 0 .204c.012.156.06.289.156.409.084.108.277.228.553.361l-.289 1.07zm-42.957-12.639h-6.037l-3.62 13.265h-6.747l3.608-13.265h-6.025l1.215-4.462h18.797l-1.205 4.462zm-26.398 4.185a8.174 8.174 0 0 0 .289-1.575c.036-.481.012-.921-.088-1.316-.144-.698-.445-1.203-.914-1.515-.457-.313-1.01-.469-1.672-.469a3.97 3.97 0 0 0-1.467.284c-.481.18-.95.469-1.419.848s-.878.878-1.215 1.491c-.349.613-.637 1.359-.878 2.237a8.18 8.18 0 0 0-.18.818c-.06.284-.096.547-.108.794-.06.746.024 1.402.228 1.96.144.428.421.746.83.962.409.212.926.32 1.563.32 1.203 0 2.237-.409 3.067-1.251.902-.962 1.539-2.165 1.924-3.596zm6.9.064c-.758 2.79-1.972 4.883-3.608 6.29-1.648 1.407-3.223 2.321-4.69 2.706-1.407.361-2.55.529-3.403.529a8.331 8.331 0 0 1-3.139-.601c-.265-.108-.505-.241-.734-.385s-.445-.313-.649-.493l-1.936 7.095h-6.759l6.578-24.196h6.422l-.373 1.251c1.84-1.227 3.8-1.828 5.893-1.828 2.814 0 4.774.902 5.905 2.694.758 1.203 1.07 2.682.938 4.426-.06.758-.204 1.599-.445 2.501zm-28.959.132c.204-.734.325-1.383.373-1.948.072-1.034-.108-1.804-.541-2.321-.445-.529-1.167-.782-2.177-.782-1.263 0-2.297.421-3.115 1.263s-1.455 2.105-1.912 3.788a10.791 10.791 0 0 0-.373 1.972c-.072 1.034.096 1.816.529 2.333s1.142.77 2.141.77c1.263 0 2.309-.433 3.139-1.275.83-.854 1.479-2.129 1.936-3.8zm6.963 0c-.493 1.804-1.239 3.331-2.225 4.582-.505.625-1.034 1.191-1.587 1.672s-1.167.914-1.84 1.323c-1.263.71-2.55 1.215-3.86 1.503-.698.144-1.335.265-1.924.325-.601.072-1.203.108-1.852.108-1.359 0-2.622-.168-3.812-.529-1.191-.349-2.177-.902-2.982-1.672s-1.335-1.78-1.575-3.031a7.585 7.585 0 0 1-.096-2.032c.048-.649.18-1.407.409-2.285.481-1.768 1.215-3.295 2.225-4.594.517-.649 1.046-1.191 1.587-1.672s1.142-.914 1.816-1.323c.613-.361 1.251-.649 1.9-.902s1.299-.445 1.948-.589a16.438 16.438 0 0 1 3.752-.445c1.227 0 2.417.144 3.56.421s2.153.782 3.019 1.503c.445.385.818.818 1.106 1.299s.517 1.034.673 1.684c.168.637.216 1.383.156 2.225-.048.685-.192 1.479-.433 2.357zm-25.952 8.779h-6.747l3.608-13.265h-5.736l-3.62 13.265h-6.747l4.822-17.726h19.23l-4.81 17.726zm-18.484-7.396a22.748 22.748 0 0 1-1.082 2.213c-.325.529-.71 1.118-1.179 1.72a10.503 10.503 0 0 1-1.636 1.539c-.625.469-1.347.902-2.177 1.311-.83.421-1.72.722-2.682.926-.95.204-2.032.313-3.223.313-1.768 0-3.259-.253-4.474-.758s-2.105-1.203-2.682-2.081-.914-1.888-.998-3.019a8.147 8.147 0 0 1 0-.77c.024-.301.024-.469.024-.517.06-.734.192-1.467.373-2.201.192-.734.457-1.443.77-2.141s.698-1.395 1.155-2.093c.938-1.479 2.357-2.742 4.245-3.812s4.257-1.599 7.107-1.599c2.213 0 3.884.385 5.015 1.155 1.118.77 1.816 1.708 2.093 2.814.096.421.156.794.192 1.155.024.349.024.758-.012 1.251a7.209 7.209 0 0 1-.096.734l-.084.601h-6.494c.096-1.167-.012-1.996-.325-2.489-.301-.493-.866-.746-1.708-.746-.589 0-1.167.108-1.744.325-.265.072-.541.241-.818.457a8.178 8.178 0 0 0-.794.794c-.613.734-1.094 1.792-1.467 3.139-.228.878-.373 1.611-.409 2.213-.06.854.048 1.503.325 1.972.409.77 1.118 1.155 2.105 1.155 1.01 0 1.804-.301 2.369-.878.349-.337.625-.698.866-1.082.289-.433.541-.962.77-1.563h6.687zm-163.315-31.388H121.8a2.455 2.455 0 0 0-2.453 2.453v37.978a2.455 2.455 0 0 0 2.453 2.453h3.632a2.448 2.448 0 0 0 2.441-2.465v-37.917a2.448 2.448 0 0 0-2.453-2.453zm8.479 1.949c-.902.099-1.407.818-1.407 1.563v1.804a1.35 1.35 0 0 0 1.359 1.353h25.05a2.066 2.066 0 0 0 2.068-2.059v-3.055c0-1.142-.938-2.177-2.081-2.068 0 0-24.221 2.381-25.002 2.465zm-18.027 9.846l-5.52.004v-9.344a2.399 2.399 0 0 0-2.393-2.398h-3.536a2.391 2.391 0 0 0-2.393 2.393v9.344l-1.78-.004c-.95 0-1.732.76-1.732 1.711v2.55c0 .95.77 1.716 1.72 1.716h1.792v15.201c0 5.259 3.921 9.982 10.15 9.982h3.331c1.034 0 1.864-.83 1.864-1.864v-2.754a1.868 1.868 0 0 0-1.876-1.864l-.505.012c-2.982 0-4.654-1.883-4.654-4.646l-.012-14.056h5.532c.95 0 1.72-.77 1.72-1.72v-2.55c0-.95-.782-1.708-1.732-1.708zm-69.27 11.639c.325-3.578 3.476-6.23 7.192-6.23s6.927 2.652 7.252 6.23H46.627zm7.203-12.73c-10.078 0-15.73 7.889-15.73 16.199 0 8.851 6.049 16.656 15.79 16.656 6.662 0 13.241-3.512 14.479-9.272.168-.77-.361-1.792-1.455-1.804h-4.725c-.866 0-1.575.421-2.008 1.046-1.359 2.008-3.359 3.067-6.314 3.067-4.173 0-7.059-3.283-7.278-6.927h20.29c1.864 0 2.694-1.01 2.694-2.73 0-8.094-4.798-16.187-15.694-16.187zm85.146 12.772c.325-3.572 3.488-6.23 7.204-6.23 3.722 0 6.927 2.658 7.258 6.23h-14.431zm7.204-12.724c-10.078 0-15.723 7.889-15.723 16.199 0 8.851 6.049 16.656 15.79 16.656 6.662 0 13.241-3.512 14.479-9.284.168-.773-.361-1.798-1.455-1.804h-4.762c-.866 0-1.575.421-2.006 1.041-1.364 1.996-3.36 3.063-6.314 3.063-4.173 0-7.064-3.286-7.282-6.927h20.26c1.864 0 2.694-1.016 2.694-2.737 0-8.094-4.798-16.187-15.694-16.187z"/><path fill="#C7C8CA" d="M95.3 387.559a1.843 1.843 0 0 0 1.845-1.84v-2.73c0-1.019-.83-1.838-1.847-1.838H29.695a2.698 2.698 0 0 0-2.696 2.701l.225 25.767s-14.137-25.534-14.876-26.84c-.691-1.222-2.18-2.351-4.24-2.351h-5.4a2.706 2.706 0 0 0-2.706 2.701v37.788a2.696 2.696 0 0 0 2.694 2.701h3.451a2.7 2.7 0 0 0 2.694-2.706l-.216-26.481s14.275 25.796 14.876 26.806c.818 1.383 2.213 2.393 4.233 2.393h4.955a2.69 2.69 0 0 0 2.694-2.694v-33.36h59.89z"/><path fill="#C7C8CA" d="M90.838 405.152c-1.916-.486-6.521-1.656-7.521-1.919-1.792-.469-3.451-1.046-3.451-2.574 0-2.321 2.141-3.103 4.81-3.103 2.85 0 4.979 1.034 5.748 2.814.373.854 1.082 1.022 2.068 1.022h3.921c.649 0 1.395-.565 1.395-1.407 0-4.558-5.436-8.635-13.145-8.635-7.973 0-13.205 3.788-13.205 9.837 0 4.63 3.656 7.372 8.142 8.551 2.044.529 5.544 1.395 7.252 1.84 1.84.481 3.476 1.034 3.476 2.61 0 2.477-2.622 3.319-5.472 3.319-2.706 0-5.412-1.203-6.181-3.139-.457-1.118-1.239-1.275-2.429-1.275h-3.969c-.698 0-1.503.589-1.503 1.503v.505c0 4.414 5.917 9.032 14.083 9.032 5.797 0 13.866-2.405 13.866-10.174 0-4.498-3.007-7.613-7.901-8.863zM825.231 274.41h-15.802c-.631 0-1.498.136-1.498.95 0 .452.317.782.616 1.068l4.18 4.267c1.13 1.148 1.848 2.564 1.848 4.197 0 .966-.192 2.131-.806 2.898l-5.556 6.747c.072-.453.12-.934.12-1.402 0-2.012-1.058-3.577-2.477-4.931l-1.78-1.662-3.632-3.548c-1.01-.981-1.696-2.546-1.696-3.963 0-2.366 1.587-4.546 3.271-6.061l10.162-9.112c1.684-1.515 3.945-1.575 6.085-1.575h46l-4.137 7.877c-1.503 2.85-4.221 4.269-7.36 4.269h-13.493l-15.153 31.833c-1.13 2.405-3.464 3.283-6.037 3.283h-8.803l15.971-35.104z"/><path fill="#C7C8CA" d="M860.72 298.352c-4.647 3.349-9.544 6.496-14.84 8.712-2.946 1.215-6.612 2.646-9.859 2.646-3.283 0-5.631-1.946-5.631-5.426 0-5.58 4.714-13.773 8.078-17.938 5.063-6.262 12.074-9.027 20.004-9.027 2.874 0 5.736.232 8.587.533l-3.656 6.711c-.71 1.335-2.056 3.055-3.764 2.934l-1.66-.132a36 36 0 0 0-3.007-.144c-1.84 0-4.173.216-5.556 1.587-1.479 1.467-4.089 5.376-4.089 7.456 0 1.648 1.551 2.55 3.031 2.55 5.207 0 12.158-5.111 16.175-8.19l.613-1.359 9.404-19.17c1.624-2.994 2.97-5.316 6.53-6.097 2.213-.493 4.582-.649 6.843-.649 2.381 0 5.628.818 5.628 3.788s-3.211 6.097-5.159 7.985c-2.237 2.177-4.498 4.329-6.891 6.326l-4.257 8.863.83-.649 3.079-2.814c3.464-3.127 7.48-5.76 11.593-7.973 1.912-1.046 3.981-1.696 6.169-1.696 2.237 0 3.74.818 3.74 3.307 0 2.598-2.634 7.192-3.812 9.452l-3.271 6.193a2.381 2.381 0 0 0-.253 1.07c0 .613.601.83 1.13.83 1.082 0 1.9-.734 2.706-1.359l6.759-5.364 3.884-8.262.854-1.912c1.215-2.73 3.981-3.427 6.699-3.427h8.478l-9.092 18.652c-.132.289-.253.601-.253.938 0 .613.517 1.118 1.13 1.118.806 0 1.768-.565 2.405-1.022l9.416-7.047 10.463-21.334c1.624-3.331 5.111-4.51 8.623-4.51 2.501 0 7.613.084 7.613 3.524 0 3.764-5.532 9.08-8.202 11.425l-1.034.902-7.396 15.502c-.216.493-.445 1.022-.445 1.539 0 .998 1.203 1.419 2.032 1.419 3.103 0 6.398-4.69 7.564-7.18-.385.036-.77.084-1.142.084-1.431 0-2.67-.77-2.67-2.309 0-2.501 2.91-5.195 4.558-6.626 2.814-2.453 6.314-4.414 10.126-4.414 1.828 0 3.608.782 3.608 2.85 0 .337-.06.685-.12 1.022h6.831c4.149-2.562 8.514-4.834 13.529-4.834 2.898 0 6.193.854 7.6 3.632 3.379-1.094 7.035-1.046 10.559-1.335 7.853-.625 16.007-1.852 22.284-6.963-1.395 4.101-6.771 9.116-10.234 11.629-7.444 5.412-15.033 3.884-23.631 4.678-5.664.529-11.052 2.886-14.924 7.107l-.517.565c1.383-2.682 3.079-5.195 4.871-7.625l2.55-3.476c.962-1.299 2.141-3.079 2.141-4.774 0-.842-.649-1.599-1.491-1.599-1.419 0-2.117 1.599-2.477 2.73-.445 1.299-.698 2.658-1.142 3.981-.589 1.732-1.575 3.331-2.574 4.883l-2.85 4.462c-1.708 2.646-6.254 9.272-6.254 12.483 0 1.034.806 1.804 1.828 1.804 3.464 0-.12-7.408 6.566-13.493 2.898-2.646 6.65-4.63 10.463-5.544 1.924-.457 3.896-.565 5.869-.541-1.203 5.352-3.079 9.116-6.891 13.132-4.305 4.546-10.138 8.599-16.632 8.599-2.562 0-5.039-.842-6.891-2.646-2.129-2.044-2.826-4.69-2.826-7.576 0-3.524 1.058-6.662 2.862-9.645h-2.369c-3.512 5.087-7.949 9.08-13.12 12.411-5.087 3.271-11.822 6.013-17.991 6.013-2.778 0-5.448-1.094-5.448-4.329 0-1.419.517-2.778 1.13-4.029l1.72-3.439-17.173 10.379c-1.383.818-3.079 1.191-4.678 1.191-2.477 0-3.908-1.96-3.908-4.329 0-1.203.517-2.345 1.034-3.415l1.563-3.247-15.718 9.801c-1.203.734-2.934 1.046-4.305 1.046-2.465 0-4.522-1.455-4.522-4.053 0-1.792.794-3.476 1.636-5.027l3.56-6.735c.289-.529.637-1.13.637-1.732 0-.553-.421-.95-.986-.95-2.417 0-7.733 6.578-8.959 8.647l-4.017 6.807c-1.179 1.984-2.694 2.802-5.039 2.802h-9.08l5.304-11.184z"/><path fill="#C7C8CA" d="M913.815 274.619l2.798-6.446c1.431-3.347 4.065-4.813 7.593-4.813h4.534c1.672 0 2.862.337 2.862 2.249 0 .89-.228 1.792-.661 2.574l-1.479 2.706c-.77 1.383-2.093 2.67-3.548 3.283-1.359.589-2.874.469-4.329.469h-7.757zM260.366 507.05l-12.597 46.014-14.585 4.068 10.487-38.207-23.715 8.082 1.869-6.843 38.544-13.108zm-36.944 52.826l9.671-35.287 7.384-2.501-9.795 35.738-7.261 2.05zm56.679-66.898h-80.667v80.669h80.667v-80.669zM1015.789 537.078h-2.219l-1.046 3.756h2.213c1.575 0 2.598.361 2.489 2.013-.12 1.794-1.972 2.292-3.151 2.292h-4.702l3.235-11.814h4.077c1.239 0 1.996.634 1.936 1.628-.108 1.739-1.96 2.125-2.874 2.125zm7.871-3.422c.12-1.972-.649-4.089-4.871-4.089h-27.238l-1.037 3.752h4.955l-2.279 8.298h-8.045l8.563-31.136h-12.339c-2.538 0-6.169.409-9.705 2.032-2.862 1.323-5.733 3.199-8.488 6.614s-4.549 7.889-5.4 11.136c-1.102 4.185-1.624 9.477-1.624 9.477h9.26s.628-5.953 2.501-11.473c1.046-3.067 3.747-7.492 7.168-9.152 3.728-1.804 7.35-1.744 7.35-1.744l-6.662 24.221h-25.976l2.381 7.264h44.328l4.281-15.574h6.8l-4.281 15.562h9.693c5.905 0 8.839-2.598 9.056-6.157.168-2.574-1.359-3.62-2.946-4.005l.036-.06c3.331-.722 4.438-3.319 4.546-5.027z"/><path fill="#C7C8CA" d="M1007.246 551.561c-5.632 7.716-14.742 12.733-25.026 12.733-17.105 0-30.972-13.866-30.972-30.97 0-17.107 13.866-30.97 30.973-30.97 14.852 0 27.263 10.454 30.27 24.409h9.368c-3.115-19.085-19.675-33.649-39.638-33.649-22.188 0-40.167 17.979-40.167 40.167s17.991 40.179 40.179 40.179c15.61 0 29.127-8.911 35.79-21.924h-10.751z"/><path fill="#C7C8CA" d="M964.628 559.979l-3.567 2.901 1.633-4.287-1.792-1.282-2.029 6.735 1.785 1.275 5.773-4.077zm3.414 9.25l-2.008-.854 2.622-6.133 2.008.854zm6.927-.349l1.094-2.237.265 2.477-1.347-.253zm.385-4.402l-3.548 6.121 2.105.385.409-.83 2.141.397.096.914 2.141.385-1.142-6.987-2.189-.397zM984.228 566.921c-.019-.238.18-.397.659-.433.417-.036.806.052.926.498l2.068-.172c-.253-1.142-1.174-2.02-3.019-1.864-1.66.144-2.819.95-2.701 2.369.21 2.538 3.973 1.527 4.056 2.538.024.313-.321.517-.866.565-.433.036-1.002-.228-1.034-.613l-2.085.18c.156 1.203 1.383 2.129 3.139 1.984 1.828-.144 3.055-.998 2.922-2.538-.192-2.417-3.969-1.479-4.053-2.477zM994.082 567.652l-.185-2.477 1.482 2.002-1.296.475zm-1.906-3.983l.048 7.083 2.008-.738-.072-.914 2.044-.746.541.734 2.044-.749-4.546-5.436-2.093.758zm9.91-3.394l1.611-1.114-.89-1.281-5.039 3.467.878 1.278 1.611-1.118 2.898 4.209 1.804-1.239zM23.597 509.148c3.901.072 7.613.914 11.09 2.649 2.307 1.148 4.51 2.504 6.321 4.374 1.287 1.331 2.278 2.884 2.303 4.82.034 2.631-2.369 5.029-5.018 5.089-1.864.042-3.287-.719-4.598-1.883-2.962-2.64-6.314-4.377-10.387-4.157-2.747.144-5.2 1.118-7.365 2.908-1.955 1.616-3.348 3.584-4.197 5.931-.677 1.87-.861 3.788-.661 5.818.34 3.448 1.835 6.222 4.329 8.512 1.846 1.693 3.999 2.792 6.511 3.151 2.54.363 5.075.409 7.403-.776 1.447-.734 2.742-1.782 4.059-2.754 1.179-.863 2.153-2 3.668-2.343 2.129-.483 3.957.077 5.4 1.632 1.383 1.486 1.551 3.283.95 5.198-.613 1.972-2.044 3.367-3.56 4.57-2.574 2.044-5.436 3.704-8.671 4.522-1.78.445-3.632.698-5.46.89-3.439.349-6.771-.241-10.006-1.431-2.61-.974-4.895-2.441-7.035-4.221-2.032-1.696-3.716-3.68-5.111-5.905-1.672-2.658-2.778-5.544-3.163-8.671-.168-1.371-.385-2.754-.349-4.137.144-5.544 1.792-10.547 5.424-14.852 2.393-2.826 5.135-5.147 8.454-6.759 2.213-1.07 4.546-1.78 7.023-1.948.902-.06 1.804-.168 2.706-.265zm84.111 37.339c3.295.192 5.965-1.046 8.37-3.079 1.094-.926 2.201-1.876 3.439-2.574 3.283-1.816 7.913.71 7.613 4.955-.108 1.624-.854 3.055-1.972 4.221-3.512 3.644-7.781 5.917-12.736 6.879-1.491.289-3.031.553-4.534.517-5.58-.12-10.727-1.648-15.129-5.219-2.922-2.369-5.34-5.207-6.975-8.623-1.227-2.574-1.9-5.291-2.177-8.154-.361-3.632.156-7.107 1.323-10.523 1.022-2.994 2.706-5.58 4.859-7.889 2.129-2.285 4.486-4.281 7.336-5.628a22.581 22.581 0 0 1 7.36-2.081c3.776-.397 7.42.024 10.98 1.299a26.199 26.199 0 0 1 8.094 4.666c1.311 1.106 2.333 2.357 2.922 3.981 1.287 3.548-1.876 6.795-4.907 6.747-1.768-.024-3.103-.77-4.329-1.852-2.093-1.852-4.39-3.283-7.156-3.896-3.921-.866-7.384.048-10.523 2.501-2.261 1.78-3.872 4.005-4.594 6.783-1.227 4.774-.313 9.056 3.079 12.748 2.117 2.297 4.738 3.608 7.769 4.125.649.108 1.347.012 1.924.012zm-37.113-27.322v1.116c0 10.391.024 20.786-.02 31.175-.012 2.922-1.378 4.991-4.005 5.724-3.075.854-6.16-.782-6.762-4.257a13.186 13.186 0 0 1-.18-2.237c-.012-10.114-.006-20.228-.006-30.342v-1.239h-.986c-2.742 0-5.484-.048-8.226.012-2.093.048-3.952-1.455-4.519-2.97-.928-2.465-.072-4.642 1.393-5.797.902-.71 1.976-1.118 3.153-1.118 9.719 0 19.44-.036 29.163.024 2.862.024 4.96 1.948 5.043 4.895.078 2.802-1.876 4.883-4.699 4.955-3.014.072-6.032.024-9.05.024-.06 0-.113.024-.301.072zM9.418 262.048c.16-.884.441-1.326.884-1.326.402 0 .685.243 1.369 1.569l13.8 28.567 13.801-28.929c.361-.806.643-1.203 1.127-1.203.445 0 .77.529.89 1.575l4.63 31.304c.445 3.223.974 4.666 2.501 5.147 1.455.445 1.455.493 2.093.493.481 0 .806.084.806.361 0 .409-.601.565-1.287.565-1.287 0-3.945-.241-5.953-.241-4.666 0-6.518.613-6.518-.156 0-.277.168-.517.529-.565 1.972-.192 2.381-.277 2.02-2.61l-3.019-22.32h-.204l-11.064 23.018c-1.167 2.369-1.407 2.862-1.888 2.862-.445 0-.962-.998-1.768-2.525-1.203-2.333-5.183-10.09-5.833-11.497-.445-1.082-3.451-7.444-5.267-11.268h-.242l-2.616 20.192c-.12.89-.161 1.575-.161 2.381 0 .962.649 1.407 1.539 1.611a9.593 9.593 0 0 0 2.141.241c.409 0 .77.12.77.373 0 .445-.481.565-1.251.565-2.093 0-4.377-.168-5.304-.168-.962 0-3.379.168-5.027.168-.481 0-.878-.12-.878-.565 0-.241.289-.361.806-.361.409 0 .77 0 1.527-.12 1.419-.325 1.816-2.297 2.056-4.017l5.027-33.024zm159.451 0c.161-.884.481-1.326.884-1.326s.685.243 1.369 1.569l13.842 28.567 13.77-28.929c.361-.806.685-1.203 1.13-1.203s.77.529.926 1.575l4.594 31.304c.481 3.223.974 4.666 2.501 5.147 1.455.445 1.455.493 2.093.493.481 0 .842.084.842.361 0 .409-.637.565-1.323.565-1.287 0-3.896-.241-5.953-.241-4.666 0-6.518.613-6.518-.156 0-.277.168-.517.565-.565 1.936-.192 2.333-.277 1.972-2.61l-3.019-22.32h-.204l-11.064 23.018c-1.167 2.369-1.407 2.862-1.852 2.862-.481 0-.962-.998-1.804-2.525-1.203-2.333-5.183-10.09-5.797-11.497-.481-1.082-3.5-7.444-5.267-11.268h-.204l-2.658 20.204c-.072.89-.156 1.575-.156 2.381 0 .962.685 1.407 1.527 1.611a9.593 9.593 0 0 0 2.141.241c.397 0 .77.12.77.373 0 .445-.433.565-1.203.565-2.129 0-4.426-.156-5.352-.156-.962 0-3.379.156-4.991.156-.517 0-.914-.12-.914-.565 0-.241.289-.361.806-.361.409 0 .77 0 1.527-.12 1.407-.313 1.816-2.285 2.093-4.017l4.991-33.024zM66.751 286.915c-.241 0-.361.12-.443.403l-2.736 7.242c-.517 1.287-.758 2.494-.758 3.098 0 .926.445 1.575 2.008 1.575h.77c.601 0 .77.12.77.409 0 .409-.313.529-.878.529-1.611 0-3.776-.156-5.352-.156-.565 0-2.574.168-5.231.168-.637 0-.962-.12-.962-.517 0-.289.204-.397.613-.397.481 0 .397-.036.806-.084 2.333-.313 3.307-2.044 4.353-4.582l12.712-31.821c0-.036.048-.12.084-.156v8.575c-.12.048-.204.241-.241.445L67.6 284.081c-.036.204 0 .361.204.361h4.714v2.525h-5.712zm5.713-24.341c.524-1.329.847-1.852 1.329-1.852.433 0 .758.441 1.239 1.609 1.239 2.817 9.332 23.458 12.591 31.181 1.924 4.546 3.379 5.27 4.462 5.513.758.161.397.202.998.202.397 0 .673.079.673.4 0 .397-.325.517-1.251.517-1.816 0-3.139-.168-5.508-.168-5.4 0-7.48.361-7.48-.361 0-.289.192-.445.722-.445 1.046 0 2.694-.289 1.972-2.02l-4.029-10.739c.241.601.072.481-.168.481h-5.592v-2.538h4.63c.241 0 .277-.168.241-.289l-4.546-12.507c-.048-.241-.12-.481-.289-.481 0 0-.036 0-.036.036v-8.563zm70.131 13.96c0-7.726 0-9.134-.12-10.744-.081-1.728-.604-2.574-1.732-2.856a8.943 8.943 0 0 0-1.809-.201c-.523 0-.806-.081-.806-.481 0-.325.403-.404 1.207-.404 1.933 0 5.111.12 6.599.12 1.248 0 4.264-.12 6.157-.12.683 0 1.086.081 1.086.403 0 .397-.325.481-.806.481-.523 0-.926.072-1.53.156-1.366.241-1.768 1.118-1.89 2.898-.079 1.611-.079 3.019-.079 10.739v8.935c0 4.907 0 8.887.201 11.1.161 1.371.481 2.249 2.012 2.453.724.12 1.852.204 2.574.204.565 0 .845.156.845.397 0 .361-.403.517-.964.517-3.331 0-6.554-.168-7.925-.168-1.167 0-4.341.156-6.398.156-.637 0-.998-.168-.998-.529 0-.241.204-.409.806-.409.77 0 1.371-.084 1.852-.204 1.01-.192 1.335-1.046 1.455-2.538.289-2.129.289-6.121.289-11.028v-8.923zm-9.052 22.694a6.872 6.872 0 0 1-1.933-.283c-1.366-.397-2.132-.998-3.055-2.129-1.169-1.407-8.773-12.916-11.912-17.534l8.695-12.267c1.527-2.213 2.538-3.656 3.704-3.945.722-.192 1.335-.313 1.852-.313.481 0 .806-.12.806-.445s-.361-.445-.926-.445c-1.852 0-3.945.12-4.943.12-.962 0-3.091-.12-5.063-.12-.722 0-1.082.12-1.082.445 0 .361.325.445.613.445.409 0 1.13 0 1.648.168.481.168.842.565.842.926 0 .409-.156 1.215-.565 1.936-.601 1.082-4.786 7.24-7.276 10.908-2.129-3.331-5.111-7.757-7.24-11.425-.313-.565-.565-1.167-.601-1.443 0-.313.12-.685.565-.842a5.948 5.948 0 0 1 1.335-.192c.481 0 .77-.072.77-.433-.036-.361-.361-.445-1.046-.445-1.852 0-4.666.12-5.388.12-2.369 0-6.47-.12-7.721-.12-.637 0-.998.084-.962.409 0 .361.241.481.529.481.529 0 1.335.12 2.129.361 1.816.565 3.103 1.78 4.426 3.824l9.705 14.852-9.501 13.445c-1.732 2.417-2.658 3.223-4.137 3.776-.758.289-.685.241-.998.241-.397 0-.722.168-.722.481 0 .289.241.445.77.445h.842c.842 0 2.417-.156 3.379-.156 1.287 0 4.462.168 4.786.168h.926c.649 0 1.01-.12 1.01-.445s-.313-.481-.601-.481c-.397 0-.878-.036-1.167-.072-.481-.12-.926-.409-.962-.89-.084-.517.204-1.287.685-2.129l7.528-11.665c2.417 3.704 5.436 8.49 8.057 12.712.637 1.13.565 1.972-1.732 1.972-.445 0-.722.084-.722.409.036.842.926.481 7.071.481 3.908 0 4.714.12 5.917.12h1.527c.517 0 .926-.168.926-.529-.036-.277-.325-.397-.685-.397zm245.871 241.465c-2.61 0-5.231 0-7.841-.06l8.262-20.589 8.406 20.589c-3.103 0-5.857.06-8.815.06zm13.024-1.563l-5.123-11.978-3.764-9.2h-6.446l-10.848 25.531c-2.201 5.34-3.307 7.865-5.58 12.748h5.051c1.347-4.101 2.044-6.013 3.908-10.691l.83-1.936 1.383-.048h17.69l.553 1.299c2.02 4.967 2.682 6.891 4.209 11.401h5.532c-2.646-5.76-3.993-8.839-7.408-17.113zm73.624-20.95h-16.355l-7.552-.18-.505 3.56 15.261-.541c0 5.989.012 12.026-.048 18.063-.06 5.496-.192 11.653-.325 17.161h5.087c-.313-14.816-.397-19.615-.228-35.26 7.444 0 9.645.433 14.636.589l.325-3.548-10.306.156zm90.364 0h-16.333l-7.552-.18-.505 3.56 15.249-.541c.007 5.989.012 12.026-.053 18.063-.06 5.496-.204 11.653-.325 17.161h5.075c-.319-14.816-.399-19.615-.241-35.26 7.444 0 9.645.433 14.636.589l.325-3.548-10.309.156zm-67.274-.12l-5.135-.06c.337 9.092.349 22.308.265 29.271a373.4 373.4 0 0 1-.253 8.971h5.099c-.204-9.873-.349-16.163-.228-25.243.06-4.089.18-8.815.241-12.94zm29.632 17.546l-4.883-1.611c-4.822-1.515-9.212-2.826-9.212-6.927 0-2.044 1.251-6.975 11.016-6.843 4.798.06 9.044 2.008 11.473 3.163l.505-3.692c-1.912-.794-6.037-2.321-11.834-2.321-3.235 0-7.228.385-10.463 2.105-3.235 1.78-5.075 4.738-5.087 7.817-.024 6.217 5.785 8.238 10.126 9.849l5.508 1.792c5.171 1.768 8.947 3.235 8.947 7.432 0 4.474-4.534 7.781-11.617 7.649-5.388-.108-9.152-1.924-12.363-4.113l-.337 4.377c3.776 2.081 9.994 2.898 12.724 2.898 10.884 0 16.079-5.52 16.079-10.968 0-6.518-6.41-9.08-10.535-10.583zm115.991-5.76l8.25-11.749-5.171.048c-3.704 6.278-5.255 8.659-8.106 13l-4.329 6.518-7.372-11.966c-2.056-3.307-3.115-5.075-4.534-7.613h-5.7l7.901 11.822 7.083 10.932c.072 1.888.144 3.5.144 5.712 0 3.031-.096 6.662-.241 9.729h5.027l-.313-15.658 7.384-10.775zm-201.161 18.326c-1.58-1.567-3.091-3.127-4.678-4.742l-5.031-5.171c3.033-.327 6.822-.809 10.057-3.451 1.996-1.563 3.654-4.091 3.654-7.006 0-.914-.21-7.059-7.988-9.212-2.895-.758-6.133-.806-11.918-.758l-10.34.024c.453 9.452.629 20.084.629 29.512 0 2.922-.024 5.34-.144 8.755h5.063c-.397-7.18-.505-17.366-.505-17.366l-.06-2.814v-15.081c3.031-.048 5.508-.156 8.13-.156 3.86 0 12.603 0 12.603 7.168 0 4.582-3.776 6.254-5.989 6.951-2.586.818-5.279 1.022-11.028 1.094 0 0 16.331 16.897 19.374 20.216.962-.036 2.297.048 3.031 0h3.151c-1.708-1.672-7.011-6.939-7.961-7.937zm165.588.025c-1.575-1.563-3.091-3.127-4.678-4.738l-5.027-5.171c3.031-.325 6.819-.806 10.054-3.451 1.996-1.563 3.656-4.089 3.656-6.999 0-.914-.216-7.059-7.985-9.212-2.898-.758-6.133-.806-11.918-.758l-10.342.024c.457 9.452.625 20.084.625 29.512 0 2.922-.024 5.34-.144 8.755h5.051c-.397-7.18-.505-17.366-.505-17.366l-.072-2.802v-15.118c3.043-.052 5.52-.165 8.13-.165 3.86 0 12.603 0 12.603 7.168 0 4.582-3.788 6.249-5.989 6.953-2.586.811-5.267 1.015-11.028 1.094 0 0 16.331 16.891 19.374 20.216.962-.041 2.297.043 3.031 0h3.151c-1.708-1.672-7.011-6.949-7.961-7.944zm10.247 145.85c0-3.235 2.634-5.857 5.869-5.857s5.869 2.622 5.869 5.857-2.622 5.857-5.857 5.857-5.869-2.634-5.869-5.869zM422.718 656.07c0-3.247 2.629-5.869 5.869-5.869s5.869 2.622 5.869 5.857-2.629 5.869-5.869 5.869-5.869-2.634-5.869-5.869zm167.884 24.702l18.412 18.436h-12.086l-14.151-14.503v14.496h-8.968v-48.309h8.967v25.68l11.525-10.84h12.639l-16.363 15.045zm-20.179 11.593c-3.94 5.247-8.911 7.516-15.191 7.516-10.347 0-17.943-7.733-17.943-17.39 0-9.733 7.799-17.464 18.015-17.464 5.803 0 10.98 2.699 14.083 6.699l-6.35 5.587c-1.786-2.345-4.479-3.995-7.728-3.995-5.177 0-9.044 4.077-9.044 9.184 0 5.243 3.8 9.104 9.248 9.104 3.656 0 6.554-2.213 7.997-4.426l6.907 5.171zm-53.24-.758c5.243 0 8.831-4.077 8.831-9.112 0-5.039-3.584-9.182-8.833-9.182-5.243 0-8.832 4.139-8.832 9.181 0 5.035 3.584 9.107 8.832 9.107zm-.002-26.58c10.145 0 17.811 7.801 17.811 17.462s-7.661 17.39-17.806 17.39c-10.142 0-17.806-7.724-17.806-17.39s7.661-17.462 17.803-17.462zm-19.901 34.169c-1.171.409-3.868.685-5.592.685-5.384 0-9.314-1.792-11.597-4.834-1.725-2.275-2.485-5.239-2.485-10.006v-11.734h-9.308v-7.592h9.32v-9.32h8.971v9.32h11.052v7.588h-11.052v12.767c0 2.081.349 3.317 1.106 4.216.902 1.034 2.345 1.648 4.558 1.648 1.311 0 3.043-.204 3.668-.344l1.371 7.592zm-55.621-12.909c2.761 3.039 6.97 5.316 11.389 5.316 4.141 0 7.039-2.553 7.039-6.073 0-6.205-8.971-6.968-15.456-10.763-3.8-2.213-6.831-5.52-6.831-10.98 0-8.623 7.949-13.589 15.947-13.589 4.907 0 9.465 1.169 14.01 4.558l-4.822 6.893c-1.936-1.795-5.171-3.172-8.346-3.172-3.512 0-7.456 1.51-7.456 5.237 0 7.805 22.296 5.385 22.296 21.678 0 8.551-7.661 14.491-16.355 14.491-6.482 0-12.483-2.682-17.462-7.24l6.085-6.35zm-8.622 12.911h-8.971v-33.481h8.971v33.473zM675.717 695.754l9.456-42.577h16.885l.772 23.784 11.365-23.776h16.926l-9.497 42.584h-12.259l5.075-22.886-11.406 22.898h-8.815l-.445-22.886-5.688 22.898zm56.852-35.594h11.401l1.539-6.939H734.06zm3.476 35.682l-11.485-.036 7.023-31.532h11.485z"/><path fill="#C7C8CA" d="M779.583 664.215h10.268l-.89 3.896c1.419-1.744 3.124-2.838 5.275-3.572a16.66 16.66 0 0 1 5.359-.854l-2.639 10.27c-.649 0-8.603-1.542-11.081 10.593l-2.557 11.256H772.48l7.103-31.58zm-6.007 19.888c0 .244-3.611 12.906-19.482 12.585-21.269-.449-15.748-34.543 8.403-33.324 13.717.691 13.029 12.096 12.904 12.584h-11.849c.168-.457.577-5.159-3.199-5.087-7.023.204-12.014 17.618-4.257 17.775 3.572.12 5.243-4.017 5.568-4.546h11.942zm108.614-13.717c-7.673-1.539-13.395 16.885-6.088 18.384 8.13 1.708 13.565-16.873 6.097-18.376zm-6.773 26.43c-23.09-.974-16.151-34.984 7.552-33.853 22.284 1.094 15.959 34.779-7.54 33.853z"/><path fill="#C7C8CA" d="M918.68 659.548c-3.165 0-3.776 1.219-4.303 3.613l-.202 1.058h6.687l1.66-7.637h10.463l-1.624 7.637h5.4l-1.587 7.264h-5.4l-2.97 13.84c-.12.773-.409 1.461-.12 2.314.445 1.259 4.943.73 4.943.73l-1.744 7.225s-9.176 1.055-12.255-1.097c-1.383-.926-2.886-2.874-1.948-7.059l3.536-15.911-6.302-.036-5.328 24.269h-11.28l5.279-24.269h-5.809l1.624-7.264h5.64c1.01-4.053 1.912-6.819 4.426-8.923 3.451-2.802 12.411-1.708 12.411-1.708l-1.263 5.977zm-104.435 10.797c-7.588-1.5-13.273 16.845-6.008 18.388 8.033 1.66 13.433-16.885 6.001-18.388zm3.12 14.612l21.43-.041s-1.828 4.75 4.907 4.791c4.666 0 6.494-5.318.204-6.415-2.886-.529-14.046-2.393-12.784-10.999 1.046-7.063 8.394-9.537 16.44-9.416 16.44.202 13.349 9.861 13.553 10.513h-10.968s1.179-4.059-3.776-4.059c-4.51 0-5.604 4.059-.409 5.153 6.326 1.381 13.589 1.705 13.998 9.861.12 2.273-1.215 12.91-17.787 12.584-15.177-.325-16.235-7.468-15.826-10.796-2.766 5.797-9.657 10.956-18.881 10.631-23.102-.734-16.079-34.948 7.588-33.769 10.751.529 14.852 8.683 13.553 16.716-.204 1.419-.325 1.624-.734 1.744l-10.559 3.488zM572.118 419.443c-3.839 0-6.951-5.809-6.951-12.976s3.112-12.979 6.951-12.979c3.84 0 6.951 5.809 6.951 12.976s-3.111 12.979-6.951 12.979zm0-33.166c-10.722 0-19.416 9.039-19.416 20.188s8.695 20.188 19.416 20.188 19.417-9.039 19.417-20.188-8.695-20.188-19.417-20.188zm33.63 5.355a7.107 7.107 0 1 1-14.214 0 7.107 7.107 0 0 1 14.214 0zM680.216 387.307h11.329v38.523h-11.329zm43.566 38.524h8.759v-38.524h-6.59v22.172l-17.919-22.172h-8.76v38.523h6.59v-22.176zm-48.406-38.533h-34.599v6.999h11.641v31.52h11.329v-31.52h11.641zM637.861 392.305c-1.993-2.147-6.771-6.154-14.643-6.154-10.739 0-15.85 5.635-15.85 11.533 0 4.327 3.019 8.391 9.97 11.143s9.044 4.726 8.262 7.348-6.939 3.68-13.89-2.093l-5.147 4.63s5.219 7.829 16.488 7.829 16.62-5.905 16.62-12.074c0-4.534-3.151-8.791-10.439-11.677s-9.477-4.943-8.647-7.685c.83-2.742 7.288-3.848 14.564 2.201l2.766-4.955zm-227.77-109.633c-1.138 0-2.129 1.774-2.129 3.794 0 1.222.293 1.651 1.136 1.651h1.836c.77 0 1.135-.553 1.135-1.775 0-2.141-.806-3.668-1.979-3.668zm-.075-5.38c2.459 0 4.404 1.038 6.018 3.241 1.652 2.201 2.754 5.688 2.754 8.563 0 2.754-.661 4.594-1.726 4.594h-8.404c-.409 0-.553.253-.553.794 0 3.127 2.309 5.388 3.957 5.388 1.13 0 2.718-.794 3.632-1.888.553-.601.661-.734.95-.734.806 0 1.395 1.84 1.395 2.994 0 1.407-.553 2.754-1.624 4.101-1.912 2.381-4.149 3.548-6.723 3.548-5.183 0-9.284-6.542-9.284-14.672 0-8.863 4.257-15.898 9.573-15.898zm33.206.006l4.317-5.412a5.463 5.463 0 0 0-4.318-8.803c-3.007 0-5.46 2.453-5.46 5.472 0 1.263.421 2.417 1.142 3.343l4.317 5.412zm-146.634 11.22c0 6.121-.301 8.803-1.142 11.196-2.201 6.362-7.047 8.202-11.16 8.202-3.56 0-6.831-1.648-9.032-4.582-2.309-3.055-2.97-6.242-2.97-14.131 0-3.728.144-7.516.144-11.256 0-3.548-.144-4.281-1.215-5.376-.782-.854-1.179-1.9-1.179-2.874 0-2.754 2.129-3.981 6.783-3.981 4.847 0 6.903 1.167 6.903 3.981 0 1.78-.842 2.321-1.66 2.934-.77.613-.986 1.78-.986 5.147 0 1.72 0 3.127-.036 4.221l-.108 6.542c0 6.121 1.503 10.583 5.496 10.583 3.884 0 5.063-4.101 5.063-9.789v-6.602l-.036-5.195c-.072-4.041-.265-4.895-1.359-5.7-1.251-.914-1.611-1.587-1.611-2.622 0-2.441 1.611-3.488 5.279-3.488 3.812 0 5.352.986 5.352 3.367 0 1.167-.108 1.407-1.323 2.574-1.022.986-1.215 1.72-1.251 4.714v12.17z"/><path fill="#C7C8CA" d="M319.152 298.819c0 1.102.221 2.02.55 2.631.433.796 1.022 1.467 1.022 2.691 0 2.691-1.575 3.548-6.65 3.548-3.055 0-4.365-.918-4.365-3.121 0-1.04.433-1.59.806-2.321.433-.737.734-3.856.734-8.199 0-5.628-.661-7.829-2.357-7.829-1.539 0-2.056 1.467-2.056 5.929v5.929c0 1.828.108 2.694.517 3.668.289.734.698 1.467.698 2.441 0 2.381-1.876 3.488-6.025 3.488-3.343 0-4.991-1.106-4.991-3.307 0-1.167.036-1.287.878-2.273.734-.914.95-3.427.95-12.11 0-5.207-2.056-3.488-2.056-6.121 0-3.367 7.156-6.362 8.731-6.362.661 0 1.239.974 1.239 2.201 0 .12 0 .361-.036.734 0 .794.072 1.888.698 1.888.806 0 1.684-4.895 5.388-4.895 1.467 0 2.862.734 3.896 2.02 1.539 1.96 1.972 3.848 2.129 8.875l.253 10.451zm17.57-1.956c.845 0 1.579 1.467 1.579 3.24 0 4.101-3.815 7.769-8.036 7.769-5.322 0-9.504-6.606-9.504-14.984 0-8.991 4.329-15.595 10.201-15.595 4.479 0 8 3.973 8 8.928 0 3.242-1.467 5.748-3.413 5.748-3.704 0-2.09-7.156-4.77-7.156-1.359 0-2.385 2.141-2.385 4.955 0 4.649 2.129 8.623 4.66 8.623.808 0 1.907-.366 2.385-.734.405-.368.809-.794 1.284-.794zm13.014-3.913v4.771c0 2.934.18 3.668.99 4.279.918.613 1.102 1.046 1.102 2.093 0 2.754-1.467 3.608-6.02 3.608-4.365 0-6.166-1.094-6.166-3.728 0-1.215.577-1.648 1.167-2.081.95-.673 1.179-3.415 1.179-13.878 0-9.717-.192-11.124-1.503-12.411-.998-.974-1.323-1.708-1.323-2.934 0-4.702 7.516-6.362 9.573-6.362.986 0 1.431.926 1.431 2.946 0 .493-.036 1.96-.18 4.402-.18 3.247-.265 6.554-.265 9.789v9.535z"/><path fill="#C7C8CA" d="M360.238 282.672c-1.136 0-2.129 1.774-2.129 3.794 0 1.222.293 1.651 1.136 1.651h1.84c.77 0 1.142-.553 1.142-1.775 0-2.141-.806-3.668-1.972-3.668zm-.054-5.38c2.465 0 4.402 1.038 6.025 3.241 1.66 2.201 2.754 5.688 2.754 8.563 0 2.754-.661 4.594-1.72 4.594h-8.406c-.397 0-.553.253-.553.794 0 3.127 2.321 5.388 3.969 5.388 1.142 0 2.718-.794 3.632-1.888.553-.601.661-.734.962-.734.806 0 1.395 1.84 1.395 2.994 0 1.407-.553 2.754-1.611 4.101-1.9 2.381-4.149 3.548-6.711 3.548-5.171 0-9.284-6.542-9.284-14.672 0-8.863 4.257-15.898 9.585-15.898zm17.233 18.875c.325-5.989.481-11.918.481-17.919 0-4.834-.216-5.688-1.575-6.662-.806-.541-1.179-1.347-1.179-2.441 0-1.768 1.034-2.994 2.501-2.994 1.684 0 3.343.253 5.027.253 2.465 0 4.919-.253 7.372-.253 3.704 0 8.262 1.407 8.262 9.296 0 5.688-2.574 7.528-2.574 8.803 0 .553.192.866.782 1.227 2.309 1.587 3.896 5.195 3.896 8.935 0 7.961-3.668 13.036-9.356 13.036-1.07 0-2.093-.06-3.151-.18-.95-.06-1.936-.12-2.898-.192-2.489.06-4.991.373-7.48.373-1.467 0-2.453-1.287-2.453-3.115 0-.794.265-1.527.698-2.081 1.539-1.708 1.503-2.994 1.696-6.049zm8.864-1.431c0 5.255.325 6.482 1.756 6.482 1.768 0 2.682-1.768 2.682-5.255 0-4.341-1.058-6.662-3.007-6.662-1.094 0-1.431.613-1.431 2.634v2.814zm0-20.06v6.181c0 1.96.253 2.634.986 2.634 1.804 0 2.61-1.708 2.61-5.568 0-3.848-.914-5.929-2.538-5.929-1.203 0-1.058 2.056-1.058 2.694zm55.801 24.233c0 1.106.228 2.02.553 2.634.445.794 1.022 1.467 1.022 2.694 0 2.694-1.575 3.548-6.638 3.548-3.043 0-4.365-.914-4.365-3.115 0-1.034.433-1.587.806-2.321.445-.734.734-3.848.734-8.202 0-5.628-.661-7.829-2.345-7.829-1.539 0-2.056 1.467-2.056 5.929v5.941c0 1.828.12 2.694.517 3.668.301.734.698 1.467.698 2.441 0 2.381-1.864 3.488-6.013 3.488-3.343 0-4.991-1.106-4.991-3.307 0-1.155.036-1.275.878-2.261.734-.914.962-3.427.962-12.11 0-5.195-2.056-3.488-2.056-6.109 0-3.355 7.156-6.362 8.743-6.362.661 0 1.251.986 1.251 2.201 0 .132 0 .373-.036.746 0 .794.072 1.888.698 1.888.806 0 1.696-4.883 5.4-4.883 1.467 0 2.862.734 3.896 2.02 1.539 1.96 1.984 3.848 2.129 8.875l.265 10.463zm6.71 8.442c-.18 0-.325 0-.553.06-.289.12-.433.12-.433.12-.108.06-.228.06-.337.06-.806 0-1.13-.241-1.648-1.335-.95-1.96-1.648-4.955-1.648-6.975 0-1.708.481-2.754 1.287-2.754 1.936 0 2.706 5.821 4.955 5.821.806 0 1.311-.734 1.311-2.02 0-2.814-6.819-4.341-6.819-12.904 0-5.748 2.646-9.909 6.314-9.909 1.251 0 2.417.794 3.668.794.661 0 1.215-.794 1.876-.794 1.587 0 3.235 5.135 3.235 7.588 0 1.72-.734 2.934-1.756 2.934-1.948 0-2.898-4.642-4.594-4.642-.661 0-1.239.974-1.239 2.02 0 3.548 7.673 4.522 7.673 13.457 0 5.195-2.97 9.236-6.831 9.236-.842 0-1.648-.18-2.489-.361-.625-.12-1.287-.361-1.948-.361zM727.078 556.035h16.864v-26.246h23.097v-7.958h-39.963zm69.89-11.639h-5.343l5.224-12.291.12.237 5.279 12.05h-5.291zm0-22.565h-8.551l-18.406 34.202h16.506l1.9-4.51h16.745l2.016 4.51h16.687l-18.348-34.202h-8.551zM872.14 541.132c-1.366-1.07-3.504-2.018-6.353-2.734 2.316-.712 4.097-1.78 5.46-3.083 1.369-1.371 2.023-2.862 2.023-4.582 0-2.91-2.02-5.231-6.115-7.011-4.097-1.84-9.383-2.79-15.856-2.79-6.055 0-11.16.878-15.261 2.73-4.63 2.02-6.945 4.871-6.945 8.611h13.955c.356-1.191 1.187-2.02 2.494-2.562 1.366-.601 2.967-.83 4.868-.83 2.197 0 3.921.228 5.227.83 1.305.529 1.958 1.299 1.958 2.321 0 1.299-.712 2.249-2.137 2.79-1.187.409-3.205.649-6.116.649h-1.425v6.23h1.425c3.031 0 5.406.228 7.068.71 1.723.529 2.553 1.479 2.553 2.91 0 .998-.772 1.9-2.197 2.55-1.484.71-3.622 1.07-6.353 1.07-2.91 0-5.106-.421-6.59-1.251-1.426-.782-2.376-2.02-2.672-3.692h-14.193c.536 4.462 2.91 7.721 6.949 9.861 3.981 2.02 9.681 3.031 17.221 3.031 7.6 0 13.421-.95 17.462-2.79s6.061-4.402 6.061-7.673c0-2.201-.83-3.981-2.489-5.352zM302.363 712.351c-1.251 0-2.357-.325-3.139-.95-1.251-1.106-1.094-2.67-1.094-2.67v-2.525c.794 0 2.044.156 2.994.782.794.625 1.263 1.732 1.263 2.982v2.357zm-.313-10.535l-.313.156-3.62 2.826v-5.809l-.313-.469c-.625-.156-1.251-.313-1.888-.782-.469-.481-.938-.95-1.094-1.575l-.469-1.575-.469 1.575c-.313.637-.625 1.106-1.094 1.575-.625.469-1.251.637-1.888.782v.794c.637.156 1.263.469 1.888.938.469.313.794.782.95 1.407v9.116c0 .625-.313 1.732-2.357 1.732l-.156.938c3.139.469 4.871.938 6.602 3.295l.469.469.469-.325 7.865-6.446.156-.156v-4.714c0-1.263-.469-2.201-1.251-2.982-1.419-.95-3.295-.782-3.464-.782zm65.879 10.511c-.313.156-.77.313-1.094.313-.938 0-.938-1.263-1.094-1.888-.469-2.982-1.575-5.34-3.295-6.759-.625-.313-1.563-.469-2.357-.313s-4.245 2.982-4.245 2.982v-5.183c.313-.156 1.419-.95 1.888-.95.95 0 2.044 1.732 2.357 2.201.481.469 1.263.625 2.056.156s2.682-1.888 2.682-1.888c.313-.156.625-.469.625-.794 0-.782-.95-2.044-3.464-4.089a77.423 77.423 0 0 1-6.133 4.714v-6.121c0-2.67.469-4.871 3.464-4.871h.782v-.625h-.156c-5.027 0-9.272 1.263-9.897 5.027-.469-1.263-1.263-2.67-2.044-3.464l-.313.469c.938.782 2.357 3.933 2.357 6.446v13.349c0 1.575-.313 2.201-2.044 2.201v.469c2.044.625 3.62 1.888 4.871 3.62 1.563-1.575 3.295-2.826 5.183-3.933l-.313-.469c-.156.156-.625.313-.938.313-.782 0-.938-.625-.938-1.575v-4.402l1.563-1.106c1.575 1.575 2.357 3.776 2.513 5.977.156 2.357.481 3.933 2.682 5.183 1.732-1.563 3.62-3.307 5.496-4.714l-.156-.313zm-41.021.782c-.469-.156-1.094-.469-1.563-.782s-.782-.625-.95-1.106v-10.379c.325-.156.637-.325.95-.325.469-.156.782-.481.782-.794s-.313-.625-.782-.625c-.625-.156-1.251-.313-1.72-.782-.469-.325-.782-.625-.95-1.106-.156-.313-.469-.637-.938-.637s-.938.156-1.094.469c-.156.625-.469.938-.95 1.263-.469.469-1.094.625-1.732.782-.469 0-.782.313-.782.625s.325.625.794.782c.313 0 .637.156.95.313v3.933c-1.094-.469-2.357-.469-3.62-.313v-4.714c0-.313-.313-.625-.782-.625-.625-.156-1.251-.325-1.732-.794-.469-.325-.782-.637-.938-1.106-.156-.313-.469-.637-.938-.637s-.938.156-1.094.469c-.156.625-.469.938-.938 1.263-.469.469-1.094.625-1.72.782-.469 0-.782.313-.782.625s.325.625.794.782c.625 0 1.263.313 1.732.625s.625.625.938 1.263v10.222l-.938.469c-.469 0-.782.313-.782.625s.313.625.782.794c.637 0 1.263.313 1.732.625s.782.794.938 1.263c.156.313.637.469.95.469.469 0 .938-.156 1.094-.469.156-.469.469-.95.938-1.263s1.094-.625 1.732-.625c.469-.156.782-.481.782-.782 0-.325-.325-.637-.794-.637-.313-.156-.625-.325-.938-.469v-5.027c.156.156.313.469.625.469.469 0 .95-.156 1.106-.481.156-.313.625-.782 1.888-.637v6.747c0 .313.313.637.782.794.637 0 1.106.325 1.575.625.625.325.95.794 1.106 1.263.156.313.469.481.95.481s.938-.156.938-.481c.144-.469.469-.95 1.094-1.263.469-.313 1.094-.625 1.563-.625.481-.168.794-.481.794-.794s-.313-.625-.782-.625zm12.495-11.557c0-.637-.313-1.106-1.094-1.263v-.313c1.876-.625 3.139-2.032 3.764-3.608 1.263 1.732 2.838 3.139 4.714 3.608v.325h-.469c-1.094 0-1.419.782-1.419 2.044v8.334c0 1.407.637 1.888 1.419 1.888.313 0 .782-.481 1.106-.794l.313.469-4.871 4.558c-1.888-1.106-3.451-2.044-3.451-4.558l-6.133 4.558c-.938-1.575-2.513-2.994-4.402-3.776v-.313c1.407 0 2.044-.625 2.044-2.044v-8.322c0-1.263-.625-1.732-1.263-1.732-.469 0-.782.313-1.407.625l-.156-.313 5.352-4.558c2.994 1.888 2.994 3.921 2.994 5.34v9.585c0 .625.313 1.407.95 1.407.313 0 .625-.156.95-.313l1.106-.782v-10.066zm-60.697 9.934c-.156.782.156 1.251.944 1.251v.469c-1.888.481-3.146 1.888-3.933 3.464-1.102-1.732-2.67-3.139-4.558-3.62v-.361h.625c.946 0 1.263-.628 1.263-2.044l.156-6.442 5.658-3.305 6.121-4.242c1.102 1.413 2.513 2.826 4.402 3.611v.481c-1.412 0-2.044.469-2.044 1.888l-.156 8.49c-.156 1.106.469 1.732 1.106 1.732.469 0 .782-.313 1.412-.625l.156.313-5.496 4.402c-2.833-1.888-2.833-4.089-2.833-5.34l.156-9.585c0-.625-.156-1.575-.787-1.575-.469 0-.625.156-.946.325l-1.098.794-.156 10.054zm-12.262-6.289l-3.608-6.29c0 2.357-.156 4.871-.156 6.759 0 .95.156 1.419.156 1.732l3.62-2.201zm4.727-2.201l-8.166 5.183c.469 2.201 2.513 4.089 5.027 4.089 1.263 0 2.513-.938 3.302-1.575l.313.481c-2.357 1.888-4.871 3.451-7.228 5.652-4.558-1.732-7.071-3.933-7.071-9.116 0-5.977.469-7.389 3.927-8.803l5.821-2.513 4.089 6.602zm-39.133 2.044s2.982-1.888 5.496-4.245l5.027-4.402c1.888 1.1 3.464 2.04 3.464 4.558l6.133-4.558c.942 1.415 2.513 2.826 4.402 3.608v.476c-1.575 0-2.044.481-2.044 1.888v8.803c0 .95.469 1.419 1.256 1.419.469 0 .789-.313 1.415-.625l.156.313-5.34 4.558c-2.982-1.888-3.139-4.089-3.139-5.34v-9.585c0-.635-.156-1.575-.782-1.575-.313 0-.625.156-.938.469l-1.1.782v9.905c0 .782.313 1.251 1.094 1.251v.481c-1.888.477-3.151 2.044-3.933 3.62-1.103-1.732-2.67-3.142-4.245-3.62v-.469h.471c.782 0 1.094-.782 1.094-2.038v-9.272c0-.94-.629-1.098-.788-1.098-.469 0-.782.156-1.094.319l-1.106.782v10.066c0 .782.313 1.251 1.099 1.251v.469c-1.888.469-3.139 2.044-3.776 3.62-1.251-1.732-2.826-3.151-4.871-3.62v-.481h.625c1.106 0 1.419-2.044 1.419-2.044v-5.664zm66.636-22.945c-1.251.156-3.139 0-4.402-1.263-1.094-.938-1.732-2.826-1.732-5.34v-18.123c2.201 0 3.62.156 4.714 1.1.95.944 1.419 2.987 1.419 6.29v17.447zm4.089-28.767c-1.094-1.098-2.826-2.357-4.558-2.357h-.156l-.313.156-5.817 4.558c-.938-.16-1.72-.629-2.513-1.419-.782-.784-1.251-1.567-1.407-2.67l-.788-2.673-.782 2.67c-.317 1.094-.794 2.032-1.575 2.67-.625.782-1.575 1.251-2.513 1.575v1.443c.938.156 1.888.782 2.513 1.413.782.782 1.258 1.575 1.575 2.67v16.043c0 2.201-.161 3.455-3.307 3.455l-.156 1.407 1.094.156c.794.313 1.575.469 2.364.625l2.201 14.768 2.682-1.732c.156-2.982.625-5.34.938-5.821l.313-.313v-2.826c.156.313.325.625.481.938l.474 1.888.938-1.732c.787-1.575 2.986-3.307 5.343-4.558h.313v-.313c1.407-.637 2.826-1.106 3.921-1.106h.782v-24.876c0-1.253-.625-2.67-2.044-3.927zm62.537 28.093c-.782-.782-1.263-1.569-1.419-2.67v-22.005l-.469.469-.156-1.253c-.938-.317-1.722-.787-2.67-1.575-.637-.785-1.106-1.568-1.419-2.667l-.637-2.673-.794 2.67c-.313 1.094-.785 2.032-1.575 2.67-.782.782-1.732 1.251-2.67 1.575v1.408c.945.156 1.888.784 2.67 1.414.635.785 1.106 1.575 1.419 2.672v3.933l-6.278 6.284v-14.928l-.469.469v-1.251c-.95-.317-1.888-.787-2.682-1.575-.782-.785-1.256-1.568-1.569-2.667l-.625-2.673-.782 2.67c-.313 1.094-.791 2.032-1.575 2.67a6.31 6.31 0 0 1-2.513 1.575v1.408c.938.156 1.732.784 2.513 1.414.625.788 1.097 1.575 1.419 2.675v22.789h.625c.94.319 1.888.788 2.67 1.571.625.791 1.263 1.575 1.575 2.678l.782 2.673.633-2.675c.156-1.099.77-1.886 1.407-2.673.926-.782 1.72-1.251 2.658-1.575v-1.419c-.946-.156-1.732-.625-2.67-1.419-.637-.782-1.103-1.575-1.419-2.67v-3.933l6.278-6.29v15.706h.625c.938.313 1.876.782 2.513 1.563.782.782 1.251 1.575 1.575 2.67l.782 2.67.782-2.682c.156-1.106.637-1.888 1.419-2.682.794-.782 1.732-1.251 2.67-1.575v-1.419c-.926-.156-1.876-.625-2.658-1.419zm-12.133-26.627l.938-1.106c-.782-.938-.301-2.357.164-4.245.938-2.826 2.201-6.759-3.295-8.803l-.794 1.263c1.094.782.938 1.72.156 3.764-.95 2.513-2.201 5.809 2.826 9.116zm-13.234 26.614c-.788-.782-1.263-1.575-1.419-2.67v-20.432c.481-.481 1.103-.794 1.732-.95v-1.419c-.934-.325-1.732-.794-2.665-1.575-.633-.794-1.106-1.575-1.419-2.67l-.63-2.67-.787 2.67c-.313 1.094-.785 2.032-1.575 2.67-.782.782-1.72 1.251-2.67 1.575v1.432a5.66 5.66 0 0 1 1.732.784v26.093h.625c.95.313 1.888.782 2.525 1.563.791.782 1.263 1.575 1.575 2.67l.789 2.67.776-2.682c.156-1.106.625-1.888 1.407-2.67s1.732-1.251 2.67-1.575v-1.419c-.938-.156-1.888-.625-2.67-1.419zm-16.347-.806c-1.888-.156-3.307-.794-4.414-1.888-1.732-1.888-1.575-4.726-1.575-4.883v-4.245c.938 0 2.826-.481 4.089.782 1.251 1.094 1.888 3.608 1.888 5.965v4.245zm-.481-18.869h-.156l-.313.156-5.039 5.027v-10.21l-.469.469v-1.251c-.938-.313-1.876-.782-2.67-1.575-.782-.794-1.251-1.575-1.407-2.67l-.782-2.682-.794 2.682c-.313 1.106-.782 2.044-1.563 2.67-.625.782-1.575 1.263-2.513 1.575v1.443c.938.156 1.888.782 2.513 1.407.782.782 1.094 1.575 1.563 2.67v16.369c0 1.103-.469 3.146-3.608 3.146v1.412c4.402.787 6.759 1.886 9.272 5.971l.625.789.637-.625 11.16-11.317.325-.156v-8.647c0-2.189-.625-3.921-2.044-5.183-1.888-1.732-4.546-1.407-4.702-1.407zm-54.033 17.657c-.782.794-3.451 3.464-3.451 3.464-.156.168-.938.637-1.419.481-.313-.156-1.094-.782-1.094-4.233v-20.12c.95 0 2.513 0 3.933 1.263 1.263 1.106 2.044 3.151 2.044 5.352v13.83zm6.29.637v-19.338s0-1.575.938-2.513c.481-.469 1.263-.782 2.357-.782v-1.407c-3.139 0-6.915-1.251-8.478-2.826-.481-.469-.637-.938-.637-1.251v-1.876l-1.407 1.263-6.121 6.133h-.313v.469l-4.558 4.414-.156.313v21.201c0 1.251.637 2.67 1.575 3.764 1.094.938 2.513 1.575 3.764 1.575h.313l.313-.168 6.133-6.128v.946c0 1.263.625 2.67 1.72 3.776 1.094.95 2.513 1.575 3.764 1.575h.313l.156-.156 4.871-4.714 1.251-1.419h-1.888c-2.357 0-3.776-.938-3.933-2.826zm-48.129-24.016c-.938-.313-1.888-.782-2.67-1.575-.782-.782-1.251-1.563-1.419-2.67l-.782-2.67-.782 2.67c-.313 1.106-.782 2.044-1.575 2.67-.637.794-1.575 1.263-2.525 1.575v1.358c.95.156 1.888.782 2.513 1.413.782.787 1.251 1.575 1.563 2.673v20.589c-.625.316-1.263.63-1.888.785v1.419c1.106.325 1.888.794 2.67 1.575.794.794 1.263 1.575 1.575 2.67l.794 2.682.625-2.67c.313-1.094.782-1.888 1.575-2.67.782-.782 1.732-1.251 2.67-1.563v-1.419c-.625-.156-1.263-.469-1.888-.782v-25.304l-.469-.79zm27.66 25.471l-.469.481c-.625.637-1.419.794-2.044.481s-.938-.938-.938-1.72v-21.406c0-.625.156-1.407 1.732-1.575l-.156-1.563c-2.982-.156-5.809-1.888-7.853-4.714l-1.419-2.032v2.513c0 1.732-.625 3.933-2.513 4.558v-.338c-3.139-.156-5.965-1.888-8.009-4.714l-1.263-2.044v2.513c0 1.88-.794 4.24-3.151 4.714l.156 1.563c1.888 0 2.994.313 3.62.95.469.476.794 1.575.794 2.991v19.963c-.469.313-1.106.63-1.732.782v1.419c.938.317 1.888.787 2.513 1.569.782.787 1.251 1.575 1.563 2.673l.782 2.67.794-2.673c.156-1.106.625-1.888 1.407-2.682.782-.782 1.732-1.251 2.67-1.575v-1.419a5.571 5.571 0 0 1-1.732-.794v-22.789c0-.637.156-1.263 1.251-1.575v.469c1.732 0 2.838.313 3.464.938.637.469.938 1.575.938 2.982v19.807c0 1.732.469 2.982 1.419 3.933 1.575 1.563 3.933 1.563 3.933 1.563h.313l.313-.156 4.245-4.245.469-.629-1.094-.95zm-42.127 19.026l-4.089.625c-6.915.313-12.88-2.201-16.969-5.652 3.776-.156 6.915-1.575 9.428-4.089 7.228-7.697 6.133-22.164 6.133-22.946v-24.678c.313.313 5.496 3.62 5.496 3.62v-.156c4.402 1.575 10.535.625 16.824-8.959l-1.876-1.419c-1.106 1.419-2.201 2.201-3.307 2.044-2.357-.144-4.714-3.608-5.496-4.859l-.481-1.106-1.094.637-10.066 5.34-.782.469-1.407-2.189c-.156 0-.156 1.876-.156 2.982l-12.724 6.759-1.263.625.95 1.094 2.032 2.513v18.857c.156 8.178.313 20.432-2.044 22.946-.156.156-.481.156-.481.156v1.888a12.094 12.094 0 0 1-2.044-2.032c-6.29-7.709-9.116-19.963-7.384-31.28 1.251-7.865 5.183-18.869 17.45-26.878l-.95-2.044c-14.455 5.508-24.209 15.093-27.973 27.816-4.714 15.405.156 31.905 7.071 41.49 6.29 8.803 16.812 13.517 27.191 12.255 6.915-.782 19.482-5.183 27.191-24.665l-1.888-1.094c-5.027 6.458-10.835 10.379-17.281 11.954z"/></svg>