<svg xmlns="http://www.w3.org/2000/svg" viewBox="0 0 1024 256"><path fill="#B1B3B6" d="M634.637 136.768c-1.03 1.288-2.413 1.816-3.911 2.156-1.008.229-1.456.933-1.481 1.966-.012.495.164.653.626.58.906-.139 1.807-.344 2.718-.395 2.438-.15 3.073-2.664 2.048-4.305zm1.733 19.008c-.17.289-.249.38-.284.484-.508 1.417-1.068 2.815-1.502 4.257-1.127 3.776-1.846 7.644-2.281 11.557-.182 1.627-.119 3.277.441 4.849.076.214.299.374.456.558.173-.166.419-.299.504-.504.363-.864.837-1.731.996-2.645.619-3.468 1.278-6.935 1.627-10.435.253-2.603.046-5.253.046-8.126zm-34.112-11.145c.543-.119 1.652-.235 2.668-.599 1.755-.634 3.102-1.816 4.118-3.414 1.374-2.165 2.752-4.31 3.299-6.868.124-.599.039-1.079-.359-1.561-1.271-1.541-2.594-3.048-3.743-4.679-1.641-2.326-3.563-4.531-3.899-7.539a1.017 1.017 0 0 0-.132-.36c-.818-1.612-1.658-3.214-2.455-4.842-.384-.779-.777-1.006-1.623-.74-.241.076-.508.156-.692.317-1.167 1.023-2.501 1.929-3.443 3.138-2.411 3.093-3.6 6.802-4.627 10.514-.458 1.641-.667 3.453-.514 5.141.26 2.798 1.697 5.231 3.195 7.56 1.773 2.745 4.464 3.855 8.201 3.935zm106.171-6.072c-.48.604-.864 1.113-1.275 1.592-1.396 1.646-2.954 3.083-5.095 3.663-2.005.547-3.957.295-5.829-.595-2.114-1.008-3.903-2.431-5.419-4.211-2.413-2.838-4.566-5.859-6.336-9.14-.423-.787-.694-1.652-1.108-2.44-.351-.66-.804-1.262-1.242-1.941-1.492 2.47-2.915 4.77-4.297 7.101-2.362 3.988-5.05 7.735-8.436 10.907-2.371 2.221-5.019 4.07-8.328 4.665-2.304.414-4.603.253-6.811-.508-1.288-.444-2.292-1.389-3.044-2.501-.813-1.203-1.483-2.506-2.175-3.787-.961-1.788-1.396-1.96-3.277-1.151-2.895 1.242-2.993 1.507-2.709 4.98.236 2.86.396 5.727.472 8.594.07 2.764.119 5.536-.046 8.294-.477 8.01-1.943 15.764-6.037 22.844-1.133 1.96-2.725 3.063-4.839 3.344-2.041.266-3.28-.495-4.066-2.111-1.843-3.801-2.053-7.814-1.946-11.916.117-4.552.806-9.022 2.156-13.36.862-2.773 2.006-5.458 3.059-8.174.782-2.012 1.653-3.991 2.407-6.013.142-.384.046-1.023-.204-1.323-.169-.2-.831-.085-1.23.03-3.035.888-6.05 1.851-9.092 2.71-1.223.348-2.399-.848-2.097-2.156.27-1.157.737-2.28 1.232-3.358 1.076-2.365 1.008-2.674-1.257-3.903-.584-.32-1.184-.609-1.776-.912l-1.861-.964c-.458.674-.943 1.356-1.389 2.062-2.175 3.433-4.885 6.343-8.497 8.262-2.649 1.413-5.51 2.246-8.503 2.659-1.914.26-3.782.051-5.652-.224-2.695-.399-4.712-1.936-6.316-4.023-2.257-2.93-4.038-6.102-4.347-9.896-.17-2.169.263-4.277.852-6.349 1.383-4.89 3.77-9.237 7.213-12.955 2.163-2.332 4.658-4.317 7.383-5.986 1.023-.628.972-.779.813-1.941-.2-1.483-.27-2.993-.287-4.488a2.181 2.181 0 0 1 1.106-1.921c.983-.582 1.96-1.235 3.025-1.606 1.797-.629 3.275.326 4.67 1.32 3.438 2.45 5.874 5.812 7.724 9.48 1.658 3.294 2.888 6.841 3.429 10.532.351 2.345.429 4.731.66 7.096.031.334.144.709.348.964 1.676 2.076 3.903 3.362 6.339 4.305.258.105.755-.081.987-.299.949-.864 1.797-1.831 2.753-2.679.76-.68 1.566-1.347 2.452-1.831 2.141-1.178 4.552-.239 5.428 2.026.514 1.341.798 1.538 2.206 1.517 1.839-.024 2.616.698 2.734 2.535.117 1.761.17 1.776 1.751.997 1.788-.874 3.577-1.761 5.423-2.506.855-.348 1.827-.473 2.758-.543 1.232-.09 2.133.495 2.71 1.627 1.045 2.021 2.13 4.023 3.214 6.027.209.374.468.737.752 1.062.874 1.008 1.977 1.242 3.186.67 1.936-.918 3.495-2.3 4.829-3.962 4.8-5.982 8.432-12.629 11.149-19.777.689-1.812.997-3.709.595-5.713-.609-3-1.028-6.039-1.532-9.067-.419-2.496.372-4.223 2.622-5.305a19.18 19.18 0 0 1 3.67-1.293c1.68-.414 2.963.643 3.069 2.284.27 4.291.67 8.575 1.033 12.858.299 3.563 1.344 6.965 2.496 10.317 1.761 5.118 4.153 9.911 8.058 13.792.414.414.888.77 1.368 1.113.615.438 1.274.38 1.697-.224.459-.66.976-1.383 1.1-2.141.253-1.532.293-3.096.353-4.651.031-.764.227-1.422.957-1.677 1.413-.499 2.833-1.048 4.297-1.293 1.556-.26 2.827.558 3.797 1.755 1.782 2.215 3.532 4.461 5.313 6.676.414.523.855 1.028 1.323 1.492.603.604 1.003.484 1.25-.314.66-2.111.626-4.291.66-6.467.012-.844.034-1.697.173-2.52.324-1.861 1.519-3.015 3.277-3.501 3.087-.848 6.223-1.166 9.415-.575.64.119.748.365.514.937-.49 1.199-1.29 2.192-2.47 2.61-2.024.713-2.591 2.15-2.815 4.118-.374 3.368-1.481 6.548-2.784 9.684-1.113 2.685-3.032 4.081-5.784 4.691-2.827.623-5.014-.309-6.846-2.392-1.048-1.193-2.078-2.407-3.148-3.577-.635-.7-1.335-1.332-2.051-2.036zM731.068 201.65c.061 2.888.694 5.679 1.639 8.385.67 1.921 1.436 3.824 2.345 5.645.685 1.374 1.6 1.341 2.44.009a23.632 23.632 0 0 0 2.927-6.806c1.598-6.259 3.237-12.51 4.664-18.807.852-3.758 1.327-7.6 1.991-11.402.45-2.569.952-5.123 1.39-7.69.53-3.096.961-6.217 1.546-9.303 1.037-5.423 2.156-10.825 3.244-16.237.061-.299.227-.575.256-.874.034-.314.076-.709-.076-.952-.253-.399-.677-.599-1.2-.353-.321.151-.67.244-1.015.344-1.966.599-3.389-.27-4.544-1.741a191.884 191.884 0 0 1-4.008-5.25c-.65-.884-1.368-1.641-2.396-2.087-1.561-.674-1.929-1.803-1.776-3.453.034-.399.53-.862.93-1.099.921-.543 1.914-.961 2.872-1.441 2.44-1.242 4.008-.983 6.035 1.592 1.371 1.751 2.616 3.603 3.917 5.413.119.166.253.324.395.471.797.818 1.488.694 1.936-.36.241-.565.465-1.138.67-1.712.901-2.535 2.985-3.501 5.379-4.006.584-.119 1.223-.076 1.824-.009 2.165.239 2.884 1.142 2.419 3.358-1.028 4.899-2.289 9.745-3.38 14.631a1925.035 1925.035 0 0 0-4.25 19.61c-1.637 7.698-3.178 15.41-4.86 23.095-1.162 5.284-2.345 10.574-3.801 15.785-1.087 3.903-2.484 7.729-4.008 11.487-.777 1.912-1.909 3.787-3.274 5.335-1.414 1.612-3.431 2.55-5.628 2.888-.356.051-.711.09-1.066.15-2.084.32-3.538-.719-4.712-2.26-2.157-2.845-3.31-6.137-4.208-9.545-.945-3.577-1.396-7.225-1.663-10.902-.015-.204-.042-.429.027-.609.604-1.566 2.586-3.938 5.087-3.828 1.568.07 1.977.434 1.943 1.991-.003.182 0 .36 0 .541z"/><path fill="#B1B3B6" d="M649.64 101.265c-1.302.069-1.882-1.03-2.087-1.87-.15-.613-.176-1.262-.365-1.861-.402-1.29-.051-2.326.969-3.141 1.566-1.259 3.259-2.281 5.35-2.138.777.051 1.604.344 2.28.746.964.582 1.208 1.271.698 2.293a31.53 31.53 0 0 1-2.601 4.32c-.348.483-1.139.688-1.77.918-.804.297-1.646.495-2.474.733zM358.221 50.879c-.484 1.766-.925 4.153-3.09 4.634-1.057.133-2.163-.044-2.824-.969-1.588-2.296-1.631-5.253-1.809-8.123-.266-6.093-.662-12.668 1.238-18.142.441-.929 1.413-1.809 2.47-1.9 1.278-.132 2.384.445 2.957 1.502 1.238 2.25 1.283 5.032 1.59 7.678.351 5.121.266 10.372-.53 15.316zm3.797-26.703c-2.384-3.093-6.268-4.374-10.065-3.31-3.663.837-6.222 4.634-7.107 8.031-1.766 6.446-1.677 14.214-.75 21.014.75 4.192 2.25 9.005 6.709 10.725 3.268 1.283 7.593.84 10.109-1.762 4.15-4.374 4.546-10.418 4.856-16.333.133-6.095-.221-12.01-2.869-17.039l-.884-1.323zM283.488 53.268c-.396 1.06-1.368 2.338-2.603 2.425-.884.221-1.766-.132-2.384-.706-1.323-1.278-1.413-3-1.766-4.634-.75-6.4-.662-13.199.353-19.464.441-1.724.837-4.062 3-4.503 1.414-.353 2.649.619 3.268 1.809 1.588 3.751 1.456 8.209 1.501 12.532-.133 4.329-.044 8.701-1.368 12.539zm-3.178-32.669c-3.663.088-7.019 2.603-8.431 5.915-1.766 4.285-2.384 9.092-2.43 14.039.175 6.265.132 12.671 3.752 17.48 2.029 2.737 5.075 3.665 8.387 3.311 3.223-.221 6.222-2.606 7.546-5.521 2.116-4.631 2.559-10.065 2.559-15.495-.132-5.385-.441-10.723-2.957-15.139-1.809-3.047-4.941-4.77-8.431-4.591zM309.178 41.921c-3.003-3.22-8.077-4.854-9.137-9.4-.221-2.206-.396-4.987 1.809-6.09.575-.309 1.413-.176 1.987.044 1.015.615 1.501 1.722 1.677 2.869.353 1.459.132 3.244.263 4.79h6.268c.221-3.178-.044-6.377-1.413-9.072-.794-1.502-2.25-2.872-3.84-3.577-2.957-1.456-7.196-1.015-9.756 1.06-3.488 2.915-4.413 7.681-3.443 11.964 1.147 4.99 6.534 7.681 10.065 11.122 1.943 1.677 2.606 4.018 2.296 6.534-.176 1.549-.884 3.311-2.562 3.709-.925.175-1.809 0-2.425-.575-2.031-2.116-1.59-5.472-1.59-8.431 0 0-4.371-.044-6.49 0-.307 3.971 0 8.123 2.43 11.255 2.43 2.824 6.093 3.621 9.711 2.959 3.356-.572 6.4-3.531 7.107-6.842 1.15-4.285.444-9.225-2.957-12.317zM403.773 51.675c-.441 1.456-.969 3.263-2.601 3.84-1.323.395-2.562-.09-3.358-1.106-1.057-1.323-1.057-3.047-1.413-4.678-.882-6.005-.66-12.448.044-18.54.311-1.722.84-3.531 2.474-4.503 1.06-.484 2.47-.266 3.31.619 1.634 2.163 1.722 4.987 2.078 7.724.441 5.472.351 11.3-.534 16.643zm-4.944-30.943c-3.353.175-6.356 2.912-7.546 5.915-2.25 5.521-2.385 12.094-2.116 18.452.529 6.047 1.147 13.063 7.549 15.758 3.31 1.15 7.458.619 9.974-1.985 3.665-4.06 4.281-9.403 4.678-14.831.132-6.095-.088-12.317-2.381-17.524-1.722-3.842-5.829-6.534-10.155-5.784zM267.906 44.7h-6.577c-.221 3.443.044 7.019-1.456 9.889-.529.969-1.544 1.278-2.559 1.147-1.238-.309-1.854-1.634-2.253-2.737-1.588-6.223-1.501-13.771-.925-20.346.263-2.08.484-4.153 1.987-5.696.615-.396 1.544-.575 2.25-.266 1.413.662 1.854 2.165 2.116 3.531.353 1.943.353 4.105.575 6.093h6.531c.044-4.062-.529-7.99-2.384-11.3-2.029-3.489-6.002-4.991-9.931-4.018-4.591.929-6.666 5.784-7.458 9.799 0 .441-.309.969-.09 1.323-.044.044-.175 0-.175.132-.575 3.488-.575 7.196-.53 10.726.399 5.472.619 11.034 3.84 15.362 2.384 3.047 6.446 3.752 10.021 2.694 5.737-2.116 6.842-8.387 7.152-13.861-.09-.84.175-1.677-.133-2.474zM327.983 44.171l-.132.266c-1.59-7.551-3.178-15.272-4.639-22.869h-9.049v38.893h5.982v-26.75l3.331 16.643c.706 3.353 2.03 10.109 2.03 10.109h4.769l5.385-25.606v25.626h5.85V21.527h-8.762l-4.769 22.648z"/><path fill="#B1B3B6" d="M380.203 39.845c-1.413 1.719-3.6 1.631-5.713 1.631V27.22c.088-.133-.066-.356.197-.309 2.431-.221 5.032.175 6.137 2.559 1.413 3.044 1.544 7.636-.619 10.372zm-1.059-18.317l-11.477.044v38.913h6.687V46.821h3.818c2.737-.088 5.21-.925 7.065-3.087 3.84-3.977 4.103-10.684 2.292-15.715-1.368-3.314-4.678-6.361-8.385-6.49zM420.525 21.528h-6.618V60.46h13.372v-5.21h-6.753zM428.913 21.528h6.531v38.977h-6.531V21.528zM454.338 21.528h-17.766v5.603h5.737v33.367h6.368V27.06h5.661zM460.362 44.238l2.03-14.103.044-.176c.748 4.724 2.116 14.28 2.116 14.28h-4.193zm-2.557-22.71l-6.356 39h6.443l1.766-10.88h5.784l1.854 10.859h6.134l-6.531-38.977h-9.092zM488.285 21.528V45.32c-.044-.044-6.202-23.792-6.202-23.792H474.8v38.956h5.518V35.922c.266.789 6.446 24.586 6.446 24.586h6.996V21.531h-5.472zM5.972 60.605H1.299v.891h25.886V45.153h-.787s-.031 9.417-3.132 12.52c-2.634 2.634-5.413 2.885-9.965 2.885V30.491s3.144-.221 4.664 1.298c2.404 2.404 2.637 5.477 2.637 9.721h.831V18.473h-.831c0 4.244-.235 7.318-2.637 9.721-1.519 1.521-4.664 1.297-4.664 1.297V.935c4.552 0 6.717.249 9.351 2.884 3.1 3.1 3.132 12.522 3.132 12.522h.787V0H1.299v.884h4.673v59.719zM74.841.921v59.638c4.552 0 7.33-.251 9.965-2.885 3.1-3.098 3.132-12.52 3.132-12.52h.787v16.343H62.839v-.891h4.673V.891h-4.673V.003h16.269v.921h-4.266zM135.88.921v59.638c4.552 0 7.33-.251 9.965-2.885 3.1-3.098 3.129-12.52 3.129-12.52h.787v16.343h-25.882v-.891h4.673V.891h-4.673V.003h16.268v.921h-4.264zM189.711 60.605h-4.673v.891h25.886V45.153h-.787s-.031 9.417-3.132 12.52c-2.637 2.634-5.413 2.885-9.965 2.885V30.491s3.144-.221 4.661 1.298c2.407 2.404 2.643 5.477 2.643 9.721h.827V18.473h-.827c0 4.244-.236 7.318-2.643 9.721-1.517 1.521-4.661 1.297-4.661 1.297V.935c4.552 0 6.717.249 9.351 2.884 3.1 3.1 3.132 12.522 3.132 12.522h.787V0h-25.272v.884h4.673v59.719zM856.309 49.179c-.051.336-.097.572-.144.816-.287 1.293-.626 2.062-1.057 2.347-.384.287-1.199.433-2.444.433h-4.934V35.426c0-.816.094-1.344.336-1.534.193-.193.575-.287 1.2-.287h1.773v-6.806h-16.822v6.806h1.436c.864 0 1.344.193 1.54.526.142.435.187.911.187 1.39V52.01c0 .477-.051.96-.239 1.439-.146.336-.623.526-1.488.526l-1.436-.051v6.806h27.033l.239-12.512h-5.032c-.051.384-.102.674-.146.96zm-35.807-9.105c-.48.526-.957.911-1.534 1.1-.334.051-.719.144-1.052.193-.338 0-.575.051-.816.051h-.721v-7.285h1.008c1.389 0 2.394.338 2.973 1.06.572.667.86 1.483.86 2.444-.003 1.1-.239 1.914-.719 2.444zm7.812-10.975c-2.972-1.341-6.229-2.109-9.823-2.253-.48-.051-.96-.051-1.439-.051h-14.185v6.806h1.389c.721 0 1.151.094 1.39.338.241.239.383.762.383 1.577v16.489c0 .816-.144 1.341-.383 1.578s-.67.383-1.39.383l-1.389-.051v6.806h17.205v-6.757h-1.916c-.764 0-1.247-.19-1.436-.48-.244-.287-.338-.764-.338-1.483v-3.21h3.64c3.836 0 6.662-.674 8.484-2.063 1.773-1.344 2.972-2.876 3.594-4.507.244-.719.434-1.436.529-2.105a13.18 13.18 0 0 0 .144-1.873c0-4.744-1.488-7.76-4.456-9.152zm48.169 15.388l2.827-8.916h.383l2.492 8.916h-5.699zm19.076 8.958c-.336-.336-.623-.961-.911-1.821-.051-.097-.051-.193-.097-.287 0-.097-.051-.193-.051-.287l-6.902-24.251h-13.036l-2.685 9.059-4.509 14.332c-.046.144-.091.287-.19.477-.051.146-.094.338-.144.48-.193.526-.48 1.006-.816 1.486-.094.144-.19.287-.287.433-.477.575-1.15.911-2.012.911h-.721v6.757h12.559v-6.757h-.48c-.48 0-.767-.051-.96-.094s-.336-.094-.38-.193a.54.54 0 0 1-.15-.383c0-.19.051-.383.097-.575l.19-.622h10.304l.193 1.099c0 .051 0 .097.051.097v.094c0 .287-.097.434-.336.48-.241.051-.48.094-.767.094h-1.389v6.757h15.768v-6.757h-.721c-.713 0-1.242-.19-1.625-.526zm115.739-26.646v6.806h.719c.284 0 .526 0 .764.051.244.046.336.239.336.473v.193c-.051.051-.051.146-.051.193 0 .051-.044.051-.044.094 0 .051 0 .051-.051.094 0 .051-.046.15-.046.193 0 .051-.051.094-.051.094l-2.586 4.172h-.284l-2.444-3.02c-.384-.477-.483-.957-.575-1.247a1.639 1.639 0 0 1-.193-.767c0-.239.094-.38.284-.433.193-.094.384-.094.626-.094h.813v-6.806h-16.532v6.806h.48c.86 0 1.483.146 1.867.477.383.336.719.77 1.006 1.344.051.094.097.146.097.241.051.051.091.144.146.19l7.953 12.079v4.455c0 .723-.142 1.153-.383 1.347a1.614 1.614 0 0 1-.816.239h-2.156v6.757h16.918v-6.757h-2.161c-.284 0-.526-.094-.714-.239-.241-.097-.338-.53-.338-1.199v-4.934l5.56-10.018c.239-.473.384-1.003.529-1.386a7.35 7.35 0 0 1 .433-1.057c.241-.529.529-.96.862-1.198.336-.244.816-.338 1.439-.338h1.293v-6.806H1011.3zm-31.449 18.548c0 2.347-.244 4.311-.721 5.893s-1.534 2.35-3.164 2.35c-1.627 0-2.682-.764-3.16-2.35-.48-1.577-.667-3.546-.667-5.893V42.23c0-3.353.283-5.51.86-6.516.575-1.008 1.247-1.631 1.966-1.773.194-.051.338-.051.53-.051h1.003c.146 0 .338 0 .48.051.719.142 1.389.762 1.967 1.773.622 1.006.911 3.163.911 6.516v3.117zm11.5-7.86a21.366 21.366 0 0 0-1.054-2.733 14.898 14.898 0 0 0-1.578-2.589c-.767-1.1-1.578-1.963-2.494-2.685a15.493 15.493 0 0 0-2.682-1.821c-1.439-.719-2.83-1.199-4.172-1.389-1.39-.241-2.492-.336-3.404-.336-.909 0-2.057.094-3.399.336-1.393.239-2.784.719-4.266 1.436a27.043 27.043 0 0 0-2.637 1.821 14.601 14.601 0 0 0-2.444 2.634c-.623.816-1.153 1.68-1.534 2.589-.434.911-.816 1.821-1.1 2.733-.341 1.1-.577 2.157-.674 3.209a23.407 23.407 0 0 0-.193 3.069c0 .862.051 2.014.193 3.402a22.601 22.601 0 0 0 1.054 4.41c.241.674.529 1.344.862 2.014.336.719.721 1.389 1.199 2.012a12.932 12.932 0 0 0 5.321 4.311c2.156.911 4.362 1.483 6.66 1.578h1.92c2.296-.097 4.503-.67 6.658-1.578a13.011 13.011 0 0 0 5.323-4.311c.477-.623.86-1.293 1.199-2.012.334-.67.622-1.341.86-2.014.53-1.534.912-2.972 1.06-4.41.142-1.389.239-2.54.239-3.402 0-.957-.097-1.966-.19-3.069a21.414 21.414 0 0 0-.723-3.209zm-45.481 14.951c-.434.433-.909.721-1.436.816-.287.051-.529.094-.767.094h-2.827v-6.373h2.634c.912 0 1.677.287 2.256.862.526.529.813 1.389.813 2.489-.003.961-.194 1.68-.674 2.111zm-5.033-18.259h1.247c1.151 0 2.157.144 2.923.433.81.338 1.244 1.153 1.244 2.494 0 .762-.239 1.483-.667 2.156-.48.623-1.297.911-2.541.911h-2.204v-5.99zm9.635 9.01h-.575v-.433h.241c1.773 0 3.402-.674 4.839-1.967 1.486-1.293 2.204-3.069 2.204-5.418 0-3.5-1.402-6.694-3.648-7.775-2.328-1.12-4.744-.75-7.564-.755-.674-.051-1.297-.051-1.966-.051h-16.632v6.806h1.486c.48 0 .862.051 1.151.244.336.142.477.719.477 1.676v16.489c0 .96-.144 1.534-.477 1.727-.289.144-.67.239-1.151.239-.046 0-.094-.051-.094-.051l-1.39.051v6.757h13.082s8.754.066 12.164-.263c3.648-.356 5.621-4.337 5.621-8.94 0-2.156-.67-4.12-1.916-5.798-1.251-1.677-3.214-2.54-5.85-2.54zm-38.241-9.586h.767c.287 0 .529 0 .764.051.193.046.338.239.338.473 0 .051 0 .146-.051.193 0 .051 0 .146-.051.193v.094c0 .051-.051.051-.051.094-.051.051-.051.15-.051.193-.051.051-.051.094-.051.094l-2.634 4.311h-.287l-2.394-3.163c-.383-.477-.48-.957-.575-1.247a1.639 1.639 0 0 1-.193-.767c0-.239.094-.38.287-.433.144-.094.383-.094.623-.094h.767v-6.806h-16.438v6.806h.433c.862 0 1.486.146 1.867.477.384.336.767.77 1.057 1.344.051.094.051.146.094.241.051.051.097.144.146.19l3.21 5.083 4.649 7.092.051 4.36c0 .723-.144 1.153-.384 1.347-.287.144-.526.239-.813.239h-2.201v6.757h16.963v-6.757h-2.204c-.241 0-.48-.094-.719-.239-.19-.097-.287-.53-.287-1.199v-4.649l5.557-10.306c.241-.473.336-1.003.53-1.386a7.88 7.88 0 0 1 .429-1.057c.241-.529.53-.96.862-1.198.289-.244.816-.338 1.439-.338h1.293V26.79h-12.749v6.806zM543.69 30.097h-4.763l-.003 29.577h5.625c5.824 0 9.171-5.472 9.269-14.163.124-10.236-3.914-15.413-10.131-15.413zM542.297 2.51l-3.373-.019v26.678h5.358c4.63 0 8.424-4.863 8.397-13.35-.03-9.47-4.225-13.308-10.381-13.308zm3.906 57.709h-20.31c-.136 0-.136-.547 0-.547h5.808l.012-57.173-5.82.009v-.584h17.398c7.409 0 16.659 1.436 16.99 13.565.324 11.955-9.787 14.151-14.417 14.151 7.41 0 16.467 5.529 16.467 15.373-.003 7.856-6.539 15.208-16.13 15.208zM577.552 12.994l-7.863 29.363h14.982l-7.119-29.363zm5.77 47.139v-.419l6.377.003-4.678-16.728h-15.329l-3.259 12.018c-.728 2.976-1.062 4.71-1.062 4.71h6.205v.419h-12.687v-.419h5.832s.324-1.481 1.118-4.71L580.525 0l16.891 59.724 5.863.005v.405H583.32zM607.468 60.133L632.4 2.085h-12.055c-8.865.136-11.36 10.976-11.514 22.463-.019 1.538-.144 3.565-.214 5.838 0 0-.405.024-.405-.042l.031-28.845h31.685l-24.569 58.223 10.977.015c10.596-.348 12.698-8.01 13.072-29.349h.484v29.731l-32.428.018zM744.41 2.088h-4.308l.005 27.253h5.359c6.02 0 8.923-3.763 9.342-13.162.459-10.327-4.71-14.09-10.399-14.09zm21.583 58.707c-1.018.504-2.238.7-3.667.7-5.99 0-8.038-4.395-7.8-16.045v-5.373c0-7.276-3.501-9.802-9.055-9.802h-5.359l.018 29.489h6.905l.006.326h-19.959l-.019-.309 5.872-.009-.03-57.737-5.824.009V1.46h18.79c9.132 0 16.682 2.489 16.69 14.387.012 10.055-8.146 13.898-14.499 13.898 9.394 0 14.967 3.938 13.879 15.875l-.212 7.445c0 4.217.547 7.333 2.961 7.32.767-.003 1.51-.185 2.017-.746.541-.599.852-1.529.924-2.121.034-.307.17-1.028.09-1.824 0 0 .031-8.594 0-8.635.024.034.465 0 .465 0l-.012 5.355c.057 4.795.051 5.385-.353 6.339-.266.623-.821 1.544-1.821 2.043zM661.233 13.006l-7.863 29.365h14.982l-7.119-29.365zm5.769 47.138v-.399l6.381.003-4.679-16.745h-15.329l-3.259 12.018c-.728 2.98-1.062 4.712-1.062 4.712h6.207v.419h-12.69v-.419h5.835s.32-1.483 1.113-4.712L664.205.014l16.891 59.73 5.869.006v.395h-19.96z"/><path fill="#B1B3B6" d="M702.424 13.021l-7.868 29.363h14.984l-7.119-29.363zm5.768 47.142v-.419l6.381.003-4.678-16.73h-15.329l-3.263 12.02c-.725 2.976-1.06 4.71-1.06 4.71h6.211v.419h-12.692v-.409l5.835-.006s.321-1.483 1.115-4.71L705.401.034l16.888 59.719 5.866.006v.405h-19.96zM33.862 106.162s.208 37.999.208 39.865 1.861 1.453 1.861 1.453h.831v3.105H22.267v-3.005h1.861c1.658 0 1.553-2.065 1.553-2.065v-29.203l-7.454 34.482h-4.041l-7.247-34.79v29.927c0 2.175 1.967 1.552 1.967 1.552h1.656v3.314H.208v-3.11h1.139c1.761 0 1.761-2.483 1.761-2.483v-38.932c0-1.967-1.761-1.552-1.761-1.552H0l.105-3.211h12.218l6.419 28.784 6.108-28.784h11.91v3.211h-1.453c-1.449.003-1.449 1.447-1.449 1.447zm12.615 10.206c-2.661 0-2.44 3.253-2.44 3.253v8.803h4.585v-8.285c.003 0 .519-3.772-2.144-3.772zm9.334 15.265H44.01s.414 9.112.414 10.768c0 1.661.309 4.866 3.727 4.97 4.349 0 3.935-4.24 3.935-4.24v-4.247h3.416c-.519 9.322-1.449 12.424-9.834 12.424s-10.46-13.145-10.046-17.29c.419-4.141-.309-21.016 10.874-21.016 11.333-.003 9.318 18.63 9.318 18.63zm21.952 14.805c0 1.242 1.138 1.351 1.138 1.351h.622v3H68.238v-3.214h1.035c1.035 0 .933-1.341.933-1.341s-.105-21.642-.105-23.505.827-4.556-2.07-4.556c-2.9 0-3.003 3.21-3.003 3.21v25.366c0 .933 1.138 1.142 1.138 1.142h.725v2.691H55.19v-3.005h1.453c1.035 0 .933-1.341.933-1.341v-27.855c0-1.453-1.453-1.037-1.453-1.037h-1.139v-3.414c1.658 0 7.973-.419 9.112-.725 1.139-.311 1.035 1.138 1.035 1.138v2.175s2.175-3.518 6.73-3.416c5.591 0 5.903 5.28 5.903 5.28v28.06zm1.861-31.057l-2.067-1.658 3.518-3.935s-3.832-1.966-3.21-5.28 7.352-4.038 8.075.622c.725 4.658-4.038 8.696-6.316 10.252zm19.674 25.469c-.622 7.249-3.832 10.868-9.319 10.454-4.552-.514-5.382-2.791-5.382-2.791s-.933 0-.831.623c.105.619 0 1.552 0 1.552h-2.794v-12.01h3.105s.311 8.693 3.728 8.898c3.416.214 6.056-1.571 3.416-7.763 0 0-8.49-8.389-9.527-12.429-1.035-4.033-1.602-10.535 3.832-13.664 4.141-2.381 9.733 1.553 9.733 1.553v-1.242h2.589v10.559h-3.003s-.309-6.002-2.175-7.146c-1.861-1.142-6.316-.519-4.763 4.761s12.01 11.392 11.39 18.643zm29.199-34.792v40.381c0 1.242 1.761 1.453 1.761 1.453h1.242v2.586h-14.805v-2.688h2.072c1.138 0 1.242-1.247 1.242-1.247V127.49h-9.01v19.158c0 1.347 1.556 1.142 1.556 1.142h1.653v2.688H99.507v-3h1.967c1.035 0 1.139-1.142 1.139-1.142v-40.172c0-1.656-1.449-1.344-1.449-1.344h-1.453v-3.211l14.392-.102v3.105h-1.861c-1.347 0-1.347 1.244-1.347 1.244v18.328h9.215v-18.328c0-1.244-1.449-1.244-1.449-1.244H116.8v-3.003h14.493v3.003h-1.966c-1.035.003-.831 1.453-.831 1.453zm12.721 10.31c-2.661 0-2.44 3.253-2.44 3.253v8.803h4.583v-8.285s.519-3.772-2.142-3.772zm-2.473 15.265s.419 9.112.419 10.768c0 1.661.309 4.866 3.728 4.97 4.347 0 3.933-4.24 3.933-4.24v-4.247h3.416c-.519 9.322-1.449 12.424-9.834 12.424s-10.457-13.145-10.046-17.29c.414-4.141-.309-21.016 10.874-21.016 11.333 0 9.319 18.634 9.319 18.634h-11.806zm20.813 2.226c-1.123 3.368-.519 9.231-.434 10.439.088 1.212 1.037 2.331 2.419 2.076 1.378-.26 1.812-1.556 1.812-1.556l.085-15.181s-2.764.86-3.882 4.223zm14.926 14.151c-.604 1.892-1.378 3.447-5.435 3.192-4.054-.26-4.573-3.453-4.573-3.453h-.689s-1.208 3.882-6.3 3.538c-5.09-.348-6.213-6.302-6.039-12.251.173-5.954 3.712-9.922 11.647-12.166v-8.457s0-1.727-2.758-1.987c-2.761-.253-3.192.694-3.025 1.042 0 0 3.712 2.331 2.761 4.827-.949 2.501-4.571 2.591-5.694 1.208-1.123-1.374-2.246-5.95 1.467-8.714 3.712-2.761 14.495-2.934 15.271 5.35v26.663s.604 1.033 1.123.166l.173-3.702h2.243s.429 2.845-.173 4.746zm12.769 2.934h-11.994v-3.277h.949c.862 0 .689-1.293.689-1.293v-40.641c0-1.293-1.12-.949-1.12-.949h-1.208v-3.195c4.658.088 9.922-.948 9.922-.948v45.987c-.085 1.037 1.208 1.037 1.208 1.037l1.553.17v3.11zm14.842-33.821h-5.433l-.175 28.214s-.085 2.161 1.297 2.161 1.12-2.246 1.12-2.246v-6.902h3.453l-.173 7.591c-.345 2.416-2.07 5.175-7.421 5.175s-6.039-4.053-6.039-4.053l.085-30.111h-2.589v-3.28h2.331c3.45-2.498 5.26-9.488 5.26-9.488h2.849v9.403h5.433v3.536zm24.246 33.388h-11.39l.085-2.758h.949c1.123-.085.864-.948.864-.948s.085-21.398.085-25.286c0-3.882-1.553-3.362-1.553-3.362-2.761.085-3.277 2.764-3.277 2.764v25.97c0 .774.774.774.774.774l.864.085v2.679h-10.958v-2.501l.777-.09c.949-.085.862-1.378.862-1.378s.088-39.602 0-40.811c-.085-1.208-1.553-.949-1.553-.949h-.948l.085-2.589c3.797-.085 9.923-1.29 9.923-1.29v15.612l.604.09c.948-1.812 2.932-3.387 6.729-3.45 5.35.085 5.35 6.643 5.35 6.643s-.085 25.804-.085 27.182 1.985 1.208 1.985 1.208l-.173 2.408zM270.264 150.976s.139-.419.193-.689c.057-.28.088-.929.088-.929l.079-17.826s-.082-1.426-.082-2.265c0-1.162-.468-1.96-.468-1.96l10.55-4.89v4.805c.193-.2 3.875-4.86 9.729-4.252s5.986 4.31 6.095 4.291c.245-.044 3.836-4.885 9.48-4.271 5.156.558 5.986 3.818 5.986 5.009v21.797s.082.514.109.599l.193.58s-10.675.051-10.659 0c0 0 .193-.253.249-.499.07-.32.109-.858.109-.858s-.054-16.945-.166-17.499c-.109-.553-.378-1.797-2.099-2.08-2.319-.388-3.202 2.374-3.202 2.374 0 1.432-.214 17.35-.214 17.35s.034.434.15.709l.204.499H285.76s.154-.299.208-.575c.057-.275.042-.589.042-.589s.109-17.175 0-17.616-.462-2.07-2.292-2.07c-1.685 0-2.791 2.017-3.008 3.069-.132.613-.166 16.582-.166 16.582l.166.647.221.558c0-.003-10.635.034-10.659-.003zM324.612 144.897c2.109 2.721 5.138.609 5.359.166 0 0-1.851-8.01-2.156-8.119 0 .003-5.978 2.474-3.205 7.953zm11.711 5.969c-1.159-.224-2.07-.638-2.374-.804-.685-.374-2.211-1.683-2.211-1.683s-.166.051-.55.275c-.387.221-3.098 1.782-4.254 2.156-2.399.774-5.08.66-6.905-.051-5.333-2.076-5.413-6.573-5.467-7.681-.057-1.103-.232-5.793 4.279-8.285 3.453-1.906 7.817-2.211 7.817-2.211s-.774-3.918-3.398-5.019c-2.949-1.242-5.713.334-5.713.334s.027-4.201 0-4.367c0 0 3.7-1.327 7.014-1.269s5.248.553 6.463 1.052c1.215.495 4.53 2.32 5.688 7.454 1.159 5.141 1.546 8.343 1.821 9.946.278 1.598.499 3.643 1.436 4.86.94 1.212 2.017.909 2.208.937 0 0 .03 4.31 0 4.476 0-.009-4.696.1-5.854-.119zM343.862 150.976h11.321s-.136-.194-.221-.334-.194-.66-.194-.66v-14.64c0-.553.287-3.11.827-3.918.553-.827 1.271-1.436 2.818-1.661 1.546-.221 3.894.28 3.894.28s2.181-6.906 2.211-7.156c0 0-.692-.798-2.845-.961-2.099-.166-3.701 1.099-4.642 1.982-.937.884-1.739 1.797-2.265 2.241v-4.062l-11.155 4.809s.193.384.387.852c.193.471.334 1.966.334 1.966l-.082 20.295-.139.553-.249.419zM364.63 150.976h11.293s-.166-.303-.275-.58a2.808 2.808 0 0 1-.119-.804c.006-.495.006-27.172.006-27.616l-10.712 4.696.057 23.016s.057.348-.057.733c-.109.388-.193.555-.193.555zM370.265 121.657c3.385 0 5.942-2.156 5.942-4.509 0-2.35-2.558-4.317-5.942-4.317-3.387 0-5.881 2.031-5.881 4.382s2.494 4.444 5.881 4.444zM388.082 136.168l7.129-2.017s.433-7.316-3.658-7.04c-4.087.278-3.532 9.032-3.473 9.055zm6.953 9.891c4.86.388 6.905-1.436 6.905-1.436v4.75c-.275.221-2.98 1.492-8.34 1.602s-7.678-1.383-8.228-1.602c-.553-.221-5.966-3.538-7.016-9.889s1.824-10.992 1.824-10.992 2.81-5.299 9.989-6.407c7.182-1.103 10.956 2.42 12.427 4.696 2.274 3.509 3.211 8.871 3.211 8.871s-16.625 4.552-16.682 4.719c-.054.166 1.049 5.301 5.911 5.688zM435.579 149.844l.054-4.835c-.16.057-1.87 1.184-4.087 1.052-3.159-.19-5.175-2.753-5.533-3.314-.384-.609-1.79-3.41-1.927-6.573-.164-3.31 1.052-6.349 2.045-7.345s2.377-1.878 4.141-1.827c1.768.057 4.335.943 4.42.943l.024-4.724s-4.216-1.193-6.654-1.298c-6.044-.253-9.692 3.344-10.384 4.091-.774.827-3.921 3.867-3.758 11.767.607 8.168 5.47 11.096 5.47 11.096s2.785 2.305 8.892 2.241c5.053-.065 7.294-1.275 7.294-1.275zM437.898 150.938l11.181.039s-.136-.28-.193-.444c0 0-.139-.471-.17-.872-.031-.348-.058-36.318-.058-36.318.034-.119-11.48 5.175-11.48 5.175.438.419.748 1.052.858 1.878l.024 29.365s-.006.314-.081.709c-.051.258-.082.462-.082.462zM480.7 150.976h11.378s-.175-.299-.221-.471c0 0-.175-.58-.175-.76 0-.353.065-27.215.005-27.609l-10.683 5.032.024 22.677-.065.565c-.046.15-.266.568-.266.568zM495.035 150.976h11.297s-.124-.139-.221-.529c-.03-.109-.109-.713-.109-.713v-14.445c0-.553.2-3.083.742-3.896.553-.827 1.271-1.436 2.815-1.656 1.549-.224 3.842.194 3.842.194l2.156-6.992s-.419-.957-2.709-1.018c-2.102-.066-3.733 1.075-4.669 1.96-.94.884-2.18 2.265-2.18 2.265s.057-4.201 0-4.223l-11.243 4.941s.194.356.387 1.052c.194.685.194 1.846.194 1.846l.042 19.195s-.012.888-.124 1.383a3.259 3.259 0 0 1-.221.634zM523.406 136.083c.384 0 6.85-1.803 7.129-2.021.27-.224.429-7.316-3.662-7.04s-3.858 9.061-3.47 9.061zm6.73 9.943c4.86.384 6.905-1.571 6.905-1.571v4.881c-.278.224-2.985 1.492-8.337 1.602-5.359.115-7.681-1.378-8.231-1.602-.558-.221-5.966-3.528-7.014-9.884-1.052-6.353 1.821-10.992 1.821-10.992s2.81-5.305 9.99-6.407c6.938-1.068 10.712 2.595 12.427 4.696s3.163 8.693 2.934 8.889c-.139.124-16.347 4.531-16.401 4.7-.061.166 1.045 5.301 5.905 5.691zM485.751 122.031c3.387 0 5.942-2.161 5.942-4.509 0-2.355-2.555-4.32-5.942-4.32s-5.881 2.03-5.881 4.38 2.496 4.449 5.881 4.449zM461.03 144.842c2.106 2.721 5.135.613 5.355.17 0 0-1.847-8.01-2.153-8.119.003 0-5.975 2.47-3.202 7.949zm11.708 5.968a9.267 9.267 0 0 1-2.377-.798c-.682-.374-2.208-1.688-2.208-1.688s-.164.057-.55.275-3.098 1.782-4.254 2.156c-2.404.774-5.076.66-6.902-.051-5.333-2.076-5.413-6.573-5.47-7.681-.057-1.103-.232-5.793 4.279-8.285 3.456-1.902 7.817-2.206 7.817-2.206s-.774-3.923-3.395-5.026c-2.949-1.242-5.718.334-5.718.334s.027-4.201 0-4.367c0 0 3.7-1.323 7.014-1.266 3.317.051 5.248.547 6.463 1.048s4.527 2.32 5.688 7.455 1.549 8.337 1.821 9.941c.278 1.598.496 3.648 1.436 4.86.94 1.217 2.014.912 2.211.943 0 0 .027 4.305 0 4.471.003-.005-4.696.109-5.857-.115zM858.809 118.234v-.009h-4.26c-.197 0-.399-.015-.399.289.009 1.987.006 3.977.009 5.963.003.348.07.414.409.414 2.214 0 4.427.005 6.639-.005.586-.005 1.172-.066 1.758-.119.77-.061 1.519-.235 2.215-.575.748-.371 1.371-.872 1.541-1.731.088-.458.109-.933.1-1.398-.018-.804-.405-1.436-1.039-1.912-.827-.623-1.797-.864-2.8-.903-1.393-.051-2.785-.015-4.174-.015zm-35.009.01v-.019c-1.461 0-2.918 0-4.38-.005-.235-.005-.278.105-.278.303.003 2.006.003 4.016-.003 6.023 0 .244.073.353.341.353a1080.8 1080.8 0 0 1 6.492-.005c1.288.005 2.562-.085 3.782-.529.665-.239 1.247-.609 1.637-1.223.419-.647.504-1.374.419-2.111-.069-.575-.266-1.103-.692-1.552-.824-.858-1.892-1.151-2.994-1.217-1.436-.088-2.883-.019-4.322-.019zm.561 22.824v-.005c.833 0 1.663.015 2.498 0 1.393-.03 2.798.09 4.181-.221.58-.129 1.127-.314 1.634-.613 1.408-.837 1.656-2.501 1.198-3.882-.284-.858-.96-1.351-1.753-1.697-1.054-.465-2.18-.584-3.298-.599-3.105-.034-6.211-.005-9.315-.019-.287 0-.36.105-.36.353 0 2.126-.003 4.252-.005 6.377 0 .221.079.309.317.309 1.634-.005 3.268-.005 4.905-.005zm35.096-.004c.988 0 1.978.005 2.969 0 1.467-.009 2.936.081 4.359-.409.697-.239 1.323-.58 1.773-1.188.523-.704.582-1.513.522-2.35-.073-.933-.519-1.637-1.305-2.136-1.217-.77-2.6-.912-3.977-.933-3.069-.051-6.134-.009-9.197-.009-.353 0-.435.066-.435.423v6.227c0 .303.079.374.387.374h4.906zm29.966-11.401c0 3.577.003 7.15 0 10.725 0 .448-.003.448.433.448 1.743 0 3.488-.009 5.228.005a14.335 14.335 0 0 0 3.198-.329 11.885 11.885 0 0 0 2.616-.912 9.227 9.227 0 0 0 2.715-1.977 9.787 9.787 0 0 0 2.039-3.183c.396-.997.674-2.026.791-3.087.085-.733.109-1.483.079-2.226a14.313 14.313 0 0 0-.272-2.292c-.142-.685-.395-1.351-.635-2.006-.423-1.142-1.088-2.141-1.916-3.029a9.907 9.907 0 0 0-3.918-2.595 12.203 12.203 0 0 0-4.008-.779c-1.972-.039-3.938-.009-5.908-.009-.399 0-.438.039-.438.434.003 3.603.003 7.21.003 10.814zm48.741 11.745a12.37 12.37 0 0 0 4.289-.898c1.782-.723 3.241-1.875 4.405-3.398.755-.979 1.362-2.051 1.697-3.248.249-.872.519-1.751.623-2.645a12.515 12.515 0 0 0-.102-3.739 13.295 13.295 0 0 0-1.068-3.334 11.04 11.04 0 0 0-2.569-3.425 10.678 10.678 0 0 0-4.229-2.365 11.4 11.4 0 0 0-7.499.368 10.214 10.214 0 0 0-3.069 1.916 11.126 11.126 0 0 0-3.035 4.566 12.698 12.698 0 0 0-.75 4.132c-.006.595.073 1.188.105 1.782.066 1.093.363 2.136.77 3.144a11.488 11.488 0 0 0 2.64 3.971c1.538 1.517 3.379 2.444 5.458 2.895.759.166 1.552.187 2.328.272zm-21.43-5.09c-.324.2-.348.553-.453.844a19.733 19.733 0 0 1-3.06 5.44c-1.534 1.951-3.395 3.543-5.515 4.815a21.166 21.166 0 0 1-3.478 1.676c-1.181.438-2.389.77-3.624 1.037-2.072.458-4.166.534-6.271.534-1.685 0-3.368.015-5.053.015-1.429 0-2.86-.015-4.289-.015-1.987 0-3.979.005-5.963.015-.245 0-.272-.115-.272-.309.005-1.082.003-2.175.005-3.259.003-.969.009-1.946.006-2.909 0-.1-.046-.2-.069-.299-.03.005-.054.005-.079.005-.26.409-.518.818-.782 1.223-.662 1.014-1.529 1.827-2.504 2.531-1.076.774-2.26 1.347-3.512 1.788-1.124.388-2.28.66-3.45.858-2.331.399-4.678.365-7.026.36-1.695 0-3.389.015-5.083.015-2.097 0-4.193-.015-6.288-.015-1.987-.005-3.977 0-5.962.009-.278 0-.317-.139-.317-.365.005-2.002.003-3.996.003-5.996a.959.959 0 0 0-.027-.26c-.006-.03-.088-.07-.112-.057-.061.034-.133.081-.16.144a8.951 8.951 0 0 1-1.885 2.531 11.202 11.202 0 0 1-3.356 2.211c-.68.289-1.368.57-2.07.809-.526.175-1.072.314-1.617.409-.972.17-1.946.303-2.927.429-.511.066-1.033.105-1.549.105-2.842.019-5.681.03-8.521.034-1.909.005-3.818 0-5.733.005-2.26 0-4.519.005-6.784.019-.28 0-.289-.151-.289-.356.003-3.414.006-6.836.006-10.255-.005-10.354-.005-20.709-.006-31.064 0-.387 0-.392.392-.392 6.573 0 13.145-.005 19.719.005 1.401.003 2.788.182 4.162.484 1.363.299 2.667.752 3.896 1.413 1.882 1.011 3.387 2.413 4.395 4.304.459.864.827 1.776.952 2.758.105.852.253 1.705.253 2.559 0 1.592-.283 3.154-.983 4.606-.682 1.402-1.663 2.569-2.878 3.543-.266.221-.253.289.057.453 1.739.929 3.283 2.087 4.396 3.748.136.2.236.429.363.638.042.061.117.109.175.156.046-.076.127-.151.129-.229.012-.499.005-1.003.005-1.502-.003-7.51-.003-15.025-.005-22.537 0-.392 0-.392.388-.392 6.534 0 13.063-.015 19.601.012 1.099.005 2.201.15 3.295.303.858.129 1.71.32 2.532.582 1.746.558 3.341 1.405 4.703 2.667.982.911 1.766 1.967 2.311 3.178.402.884.662 1.827.81 2.8a13.07 13.07 0 0 1 .082 3.129 9.847 9.847 0 0 1-.996 3.563c-.402.794-.882 1.552-1.513 2.189-.421.434-.872.837-1.32 1.247-.272.253-.268.289.051.453 1.878.961 3.495 2.221 4.607 4.056.102.16.204.329.311.49.012.024.051.034.136.085.031-.15.073-.266.073-.388.003-3.478 0-6.95-.003-10.425l-.009-9.405c0-1.413.005-2.822-.005-4.232-.003-.232.069-.307.299-.307 5.477.005 10.952.006 16.428.003 1.374 0 2.734.117 4.091.338a25.4 25.4 0 0 1 4.091 1.006 21.218 21.218 0 0 1 5.588 2.861 19.693 19.693 0 0 1 3.996 3.811 20.058 20.058 0 0 1 2.425 3.903c.345.728.603 1.498.898 2.25.03.066.061.139.181.224.081-.194.169-.388.253-.584.356-.844.677-1.703 1.066-2.531.755-1.612 1.761-3.069 2.922-4.41a21.257 21.257 0 0 1 4.739-4.078c1.164-.735 2.377-1.371 3.652-1.855.967-.363 1.966-.655 2.963-.921.798-.214 1.617-.411 2.438-.492 1.302-.124 2.618-.221 3.926-.19a26.36 26.36 0 0 1 3.784.365c1.072.181 2.116.522 3.168.816 1.198.341 2.326.849 3.419 1.432a21.233 21.233 0 0 1 5.401 4.096c1.691 1.77 3.054 3.767 4.006 6.023a27.324 27.324 0 0 1 1.145 3.248c.351 1.242.565 2.516.622 3.814.031.67.142 1.347.105 2.017-.057 1.151-.146 2.3-.321 3.438-.151.988-.429 1.966-.688 2.93-.483 1.807-1.293 3.478-2.281 5.056a21.144 21.144 0 0 1-4.225 4.885 20.561 20.561 0 0 1-3.743 2.564c-.816.434-1.668.798-2.525 1.142-.76.303-1.54.558-2.323.779-.674.19-1.368.324-2.065.434-.918.139-1.842.284-2.764.32-1.673.07-3.356.09-5.009-.2-1.164-.2-2.308-.495-3.446-.798-1.972-.529-3.787-1.413-5.494-2.506-1.088-.689-2.13-1.461-3.035-2.392-.75-.77-1.498-1.546-2.177-2.38a16.768 16.768 0 0 1-2.371-3.863c-.387-.879-.706-1.788-1.062-2.688-.027-.069-.065-.112-.102-.169z"/></svg>