<?xml version="1.0" standalone="no"?>
<!DOCTYPE svg PUBLIC "-//W3C//DTD SVG 20010904//EN"
 "http://www.w3.org/TR/2001/REC-SVG-20010904/DTD/svg10.dtd">
<svg version="1.0" xmlns="http://www.w3.org/2000/svg"
 width="133.000000pt" height="133.000000pt" viewBox="0 0 133.000000 133.000000"
 preserveAspectRatio="xMidYMid meet">
<metadata>
Created by potrace 1.11, written by Peter Selinger 2001-2013
</metadata>
<g transform="translate(0.000000,133.000000) scale(0.100000,-0.100000)"
fill="#000000" stroke="none">
<path d="M516 1299 c-27 -78 -34 -205 -15 -256 8 -22 10 -22 50 -8 23 8 57 15
77 15 l35 0 -6 49 c-9 76 -53 150 -119 200 -15 11 -19 11 -22 0z"/>
<path d="M769 1254 c-40 -52 -94 -178 -83 -195 2 -4 23 -10 47 -14 23 -4 56
-13 73 -20 30 -12 31 -12 44 23 20 56 19 131 -2 192 -10 30 -22 58 -27 63 -4
4 -28 -18 -52 -49z"/>
<path d="M255 1146 c7 -60 42 -149 74 -187 28 -33 29 -33 52 -16 13 10 43 30
65 45 l42 28 -22 37 c-37 61 -108 110 -183 127 l-33 8 5 -42z"/>
<path d="M1020 1153 c-57 -28 -165 -124 -159 -141 2 -5 30 -30 62 -56 l59 -48
24 23 c40 37 75 121 79 188 3 34 1 61 -3 61 -5 0 -33 -12 -62 -27z"/>
<path d="M570 975 c-149 -42 -245 -164 -254 -321 -7 -114 61 -253 145 -299
l26 -14 12 67 c38 203 155 373 323 465 32 18 58 35 58 39 0 4 -28 21 -63 38
-77 38 -167 47 -247 25z"/>
<path d="M105 970 c-46 -6 -47 -17 -7 -70 48 -64 103 -107 160 -124 17 -6 22
-3 22 11 0 10 15 41 33 69 l34 51 -44 28 c-24 15 -58 29 -76 31 -18 1 -32 3
-32 4 0 5 -55 4 -90 0z"/>
<path d="M1269 925 c-2 -2 -40 -5 -84 -6 -266 -8 -480 -134 -590 -348 -17 -34
-65 -161 -65 -171 0 -3 11 12 23 32 113 183 274 304 467 351 81 20 170 30 171
20 1 -5 3 -42 4 -83 10 -241 -98 -432 -302 -534 -235 -119 -573 -47 -771 162
-52 55 -53 56 -31 17 93 -166 252 -284 437 -326 77 -17 198 -15 297 5 11 2 45
14 75 25 256 97 423 344 422 621 -1 113 -33 256 -53 235z"/>
<path d="M149 749 c-48 -7 -118 -38 -137 -62 -9 -11 -4 -18 26 -34 57 -32 122
-53 170 -53 l42 0 2 50 c1 28 2 60 2 72 1 27 -37 37 -105 27z"/>
<path d="M939 711 c-146 -57 -296 -185 -400 -340 l-29 -45 32 -14 c20 -9 66
-16 118 -16 77 -1 92 2 151 31 35 18 75 44 89 58 l23 25 -29 1 c-72 2 -197 19
-190 26 3 3 58 7 123 8 65 2 121 3 124 4 10 2 51 92 45 98 -3 3 -42 7 -88 10
-77 4 -97 8 -87 17 2 2 45 6 94 10 50 3 91 5 93 6 5 0 2 96 -4 118 -7 26 -6
26 -65 3z"/>
<path d="M195 566 c-42 -18 -93 -63 -110 -97 -8 -15 -15 -30 -15 -32 0 -2 31
-5 70 -6 86 -3 154 15 145 38 -4 9 -12 37 -18 64 -13 51 -22 55 -72 33z"/>
<path d="M258 413 c-31 -32 -52 -83 -41 -94 10 -10 113 25 123 42 8 12 -34 79
-49 79 -4 0 -19 -12 -33 -27z"/>
<path d="M352 325 c-18 -38 -15 -54 8 -48 10 3 25 12 31 20 10 11 8 18 -8 34
-19 20 -19 20 -31 -6z"/>
</g>
</svg>
