<svg xmlns="http://www.w3.org/2000/svg" viewBox="0 0 1193 1024"><path fill="#fff" d="M306.199 661.126l-5.965-1.988h-5.965c-7.954 0-23.861 0-103.395 41.757l27.838-77.546-23.861-15.907C119.293 555.745 77.537 488.139 77.537 414.57c-1.988-147.138 165.034-266.441 371.824-266.441 111.349 0 212.756 35.791 280.36 91.465 17.896-1.988 33.803-1.988 51.697-1.988s35.791 1.988 53.685 1.988C755.569 140.176 612.407 72.572 449.36 72.572 200.815 72.572-.01 227.664-.01 416.559c0 89.476 45.731 174.976 127.256 238.603L51.688 869.906l89.476-51.697c57.662-33.803 129.245-71.581 153.104-81.523 33.803 9.942 67.604 15.907 103.395 17.896-19.884-25.849-35.791-53.685-47.72-83.511-15.907-1.988-29.826-3.977-43.745-9.942zm886.811-81.523c0-169.011-184.918-306.209-411.591-306.209S369.828 410.59 369.828 579.603c0 169.011 184.918 306.209 411.591 306.209 53.685 0 107.372-7.954 155.092-21.872 15.907-3.977 174.976 87.488 174.976 87.488l-51.697-145.15c81.523-55.673 133.219-137.196 133.219-226.673zm-190.884 99.418H578.605v-39.768h423.521v39.768zm0-79.536H578.605v-39.768h423.521v39.768zm0-79.534H578.605v-39.768h423.521v39.768z"/></svg>