<svg xmlns="http://www.w3.org/2000/svg" viewBox="0 0 1193 1024"><path fill="#fff" d="M82.272 414.954c0 60.236 40.156 109.316 95.931 124.933v421.648h-64.697c-17.848 0-31.232 13.385-31.232 31.232s13.385 31.232 31.232 31.232h963.766c17.848 0 31.232-13.385 31.232-31.232s-13.385-31.232-31.232-31.232h-64.697V539.887c55.773-13.385 95.931-64.697 95.931-124.933v-31.232H82.273v31.232zm642.51 129.394c71.39 0 129.394-58.003 129.394-129.394 0 60.236 40.156 109.316 95.931 124.933v421.648H468.223V544.35c71.39 0 129.394-58.003 129.394-129.394-2.23 71.39 55.773 129.394 127.163 129.394zm-290.022-4.463v421.648H242.9V539.885c55.773-13.385 95.931-64.697 95.931-124.933 0 60.236 42.389 111.546 95.931 124.933zM981.339 93.698H211.663L82.269 352.488h1028.463L981.338 93.698zm-626.893 71.39l-64.697 129.394c-2.23 6.693-8.924 8.924-13.385 8.924-2.23 0-4.461 0-6.693-2.23-8.924-4.461-11.154-13.385-6.693-22.308l62.466-127.163c4.461-8.924 13.385-11.154 22.308-6.693 6.693 4.461 8.924 13.385 6.693 20.078zm127.163 0l-64.697 129.394c-2.23 6.693-8.924 8.924-13.385 8.924-2.23 0-4.461 0-6.693-2.23-8.924-4.461-11.154-13.385-6.693-22.308l64.697-129.394c4.461-8.924 13.385-11.154 22.308-6.693 6.693 6.693 8.924 15.617 4.461 22.308zm131.627 122.701c0 8.924-6.693 15.617-15.617 15.617s-15.617-6.693-15.617-15.617V158.395c0-8.924 6.693-15.617 15.617-15.617s15.617 6.693 15.617 15.617v129.394zm182.936 13.386c-2.23 2.23-4.461 2.23-6.693 2.23-6.693 0-11.154-2.23-13.385-8.924l-71.39-127.163c-4.461-6.693-2.23-17.848 6.693-22.308 6.693-4.461 17.848-2.23 22.308 6.693l71.39 129.394c2.23 6.693 0 15.617-8.924 20.078zm129.394 0c-2.23 2.23-4.461 2.23-6.693 2.23-6.693 0-11.154-2.23-13.385-8.924l-66.927-129.394c-4.461-8.924 0-17.848 6.693-22.308s17.848 0 22.308 6.693l64.697 129.394c4.461 8.924 0 20.078-6.693 22.308zm-571.12 472.961v-73.621c-8.924-6.693-15.617-15.617-15.617-26.771 0-17.848 13.385-31.232 31.232-31.232s31.232 13.385 31.232 31.232c0 11.154-6.693 22.308-15.617 26.771v73.621c8.924 6.693 15.617 15.617 15.617 26.771 0 17.848-13.385 31.232-31.232 31.232s-31.232-13.385-31.232-31.232c0-11.154 6.693-20.078 15.617-26.771zM211.665 31.232C211.665 13.384 225.05 0 242.897 0h707.209c17.848 0 31.232 13.385 31.232 31.232s-13.385 31.232-31.232 31.232H242.897c-17.848 0-31.232-13.385-31.232-31.232zM644.468 716.13l-22.308-22.308 91.468-91.468 22.308 22.308-91.468 91.468zm0 91.468L622.16 785.29l180.706-180.706 22.308 22.308-180.706 180.706zm160.628-113.776l22.308 22.308-91.468 91.468-22.308-22.308 91.468-91.468z"/></svg>