<svg xmlns="http://www.w3.org/2000/svg" viewBox="0 0 1193 1024"><path fill="#fff" d="M1026.979 250.532c9.941 0 15.907-7.953 15.907-15.907v-71.581h49.708c9.941 0 15.907-7.953 15.907-15.907V15.906c0-9.941-7.953-15.907-15.907-15.907H961.363c-9.941 0-15.907 7.953-15.907 15.907v49.708H247.544V15.906c0-9.941-7.953-15.907-15.907-15.907H100.406c-9.941 0-15.907 7.953-15.907 15.907v131.231c0 9.941 7.953 15.907 15.907 15.907h49.708v697.912h-49.708c-9.941 0-15.907 7.953-15.907 15.907v131.231c0 9.941 7.953 15.907 15.907 15.907h131.231c9.941 0 15.907-7.953 15.907-15.907v-49.708h697.912v49.708c0 9.941 7.953 15.907 15.907 15.907h131.231c9.941 0 15.907-7.953 15.907-15.907V876.863c0-9.941-7.953-15.907-15.907-15.907h-49.708V300.24c0-9.941-7.953-15.907-15.907-15.907s-15.907 7.953-15.907 15.907v560.716h-49.708c-9.941 0-15.907 7.953-15.907 15.907v49.708H247.545v-49.708c0-9.941-7.953-15.907-15.907-15.907H181.93V163.044h49.708c9.941 0 15.907-7.953 15.907-15.907V97.429h697.912v49.708c0 9.941 7.953 15.907 15.907 15.907h49.708v71.581c0 7.953 7.953 15.907 15.907 15.907zM977.268 892.77h97.429v97.429h-97.429V892.77zm-761.539 99.417H118.3v-97.429h97.429v97.429zm0-860.956H118.3V33.802h97.429v97.429zm761.539-97.429h97.429v97.429h-97.429V33.802zM891.77 234.625c0-9.941-7.953-15.907-15.907-15.907H319.125c-9.941 0-15.907 7.953-15.907 15.907v278.37c0 9.941 7.953 15.907 15.907 15.907h556.738c9.941 0 15.907-7.953 15.907-15.907v-278.37zm-556.739 25.848l224.684 113.336-224.684 113.336V260.473zm53.686-9.941h417.554L597.494 353.927 388.717 250.532zm208.777 141.172l208.777 103.395H388.717l208.777-103.395zm35.791-17.895l224.684-113.336v224.684L633.285 373.809zm-69.593 399.659H319.124c-9.941 0-15.907 7.953-15.907 15.907s7.953 15.907 15.907 15.907h244.568c9.941 0 15.907-7.953 15.907-15.907s-5.966-15.907-15.907-15.907zm310.184 0H629.308c-9.941 0-15.907 7.953-15.907 15.907s7.953 15.907 15.907 15.907h244.568c9.941 0 15.907-7.953 15.907-15.907s-5.966-15.907-15.907-15.907zm-310.184-69.593H319.124c-9.941 0-15.907 7.953-15.907 15.907s7.953 15.907 15.907 15.907h244.568c9.941 0 15.907-7.953 15.907-15.907s-5.966-15.907-15.907-15.907zm310.184 0H629.308c-9.941 0-15.907 7.953-15.907 15.907s7.953 15.907 15.907 15.907h244.568c9.941 0 15.907-7.953 15.907-15.907s-5.966-15.907-15.907-15.907zm-310.184-69.591H319.124c-9.941 0-15.907 7.953-15.907 15.907 0 9.941 7.953 15.907 15.907 15.907h244.568c9.941 0 15.907-7.953 15.907-15.907s-5.966-15.907-15.907-15.907zm310.184 0H629.308c-9.941 0-15.907 7.953-15.907 15.907 0 9.941 7.953 15.907 15.907 15.907h244.568c9.941 0 15.907-7.953 15.907-15.907 1.988-7.953-5.966-15.907-15.907-15.907zm0-69.593H317.138c-9.941 0-15.907 7.953-15.907 15.907 0 9.941 7.953 15.907 15.907 15.907h556.738c9.941 0 15.907-7.953 15.907-15.907 1.988-7.953-5.966-15.907-15.907-15.907z"/></svg>