<svg xmlns="http://www.w3.org/2000/svg" viewBox="0 0 1193 1024"><path fill="#fff" d="M782.925.001H413.643c-33.896 0-60.654 26.76-60.654 62.44v181.965c0 33.896 26.76 62.44 60.654 62.44h369.282c33.896 0 60.654-26.76 60.654-62.44V60.656C845.363 26.76 816.819.002 782.925.002zm-19.622 224.783H435.051v-41.032h328.252v41.032zm0-103.472H435.051V80.28h328.252v41.032zM435.05 820.63H147.83c-33.896 0-62.44 26.76-62.44 60.654v82.062c0 33.896 26.76 60.654 62.44 60.654h287.22c33.896 0 62.44-26.76 62.44-60.654v-82.062c-1.784-33.896-28.544-60.654-62.44-60.654zm-41.032 123.096H188.86v-41.032h205.158v41.032zm656.505-123.096h-287.22c-33.896 0-62.44 26.76-62.44 60.654v82.062c0 33.896 26.76 60.654 62.44 60.654h287.22c33.896 0 60.654-26.76 60.654-60.654v-82.062c0-33.896-26.76-60.654-60.654-60.654zm-41.032 123.096H804.333v-41.032h205.158v41.032zM886.397 533.41H618.801V306.844h-41.032V533.41H270.924v287.22h41.032V574.442h574.441V820.63h41.032V533.41zM777.574.001H408.292c-33.896 0-62.44 26.76-62.44 62.44v181.965c0 33.896 26.76 62.44 62.44 62.44h369.282c33.896 0 60.654-26.76 60.654-62.44V60.656C840.012 26.76 811.468.002 777.574.002zM757.95 224.784H429.698v-41.032H757.95v41.032zm0-103.472H429.698V80.28H757.95v41.032zM429.698 820.63h-287.22c-33.896 0-60.654 26.76-60.654 60.654v82.062c0 33.896 26.76 60.654 60.654 60.654h287.22c33.896 0 60.654-26.76 60.654-60.654v-82.062c0-33.896-26.76-60.654-60.654-60.654zm-41.03 123.096H183.51v-41.032h205.158v41.032zm656.503-123.096h-287.22c-33.896 0-60.654 26.76-60.654 60.654v82.062c0 33.896 26.76 60.654 60.654 60.654h287.22c33.896 0 62.44-26.76 62.44-60.654v-82.062c-1.784-33.896-28.544-60.654-62.44-60.654zm-41.032 123.096H798.981v-41.032h205.158v41.032zM881.044 533.41H613.448V306.844h-41.032V533.41H265.571v287.22h41.032V574.442h574.441V820.63h41.032V533.41z"/></svg>