<svg xmlns="http://www.w3.org/2000/svg" viewBox="0 0 1193 1024"><path fill="#fff" d="M331.33 785.51l-3.335 113.407 43.361 18.346 40.026-101.733c-6.671 1.667-13.342 3.335-20.013 3.335-25.017-1.667-46.697-15.009-60.039-33.355zm465.302 31.688c-8.338 0-15.009-1.667-23.348-3.335l41.693 103.4 43.361-18.346-3.335-111.74c-13.342 18.346-35.022 30.019-58.372 30.019zM324.658 1024l23.348-71.714-21.68-11.675zm552.026-10.008c6.671-3.335 10.006-8.338 8.338-13.342l-23.348-61.706-23.348 10.006 23.348 61.706c1.667 5.004 8.338 6.671 15.009 3.335zm-448.626-266.84c0 20.263-16.426 36.69-36.69 36.69s-36.69-16.426-36.69-36.69c0-20.263 16.426-36.69 36.69-36.69s36.69 16.426 36.69 36.69zm405.265 0c0 20.263-16.426 36.69-36.69 36.69s-36.69-16.426-36.69-36.69c0-20.263 16.426-36.69 36.69-36.69s36.69 16.426 36.69 36.69zM598.17 165.108c10.006 0 20.013 1.667 30.019 3.335v-28.351h35.022V.001H539.798v140.091h35.022v26.684c8.338-1.667 16.677-1.667 23.348-1.667zM461.413 336.885c0 25.017 6.671 48.364 18.346 68.377 16.677 26.684 41.693 48.364 71.714 60.039 15.009 5.004 30.019 8.338 46.697 8.338 13.342 0 25.017-1.667 36.69-5.004 30.019-8.338 56.703-26.684 75.049-51.701 15.009-21.68 25.017-50.032 25.017-78.385 0-75.049-61.706-136.755-136.755-136.755-75.049-1.667-136.755 60.039-136.755 135.088zm136.757-61.707c33.355 0 61.706 28.351 61.706 61.706s-28.351 61.706-61.706 61.706-61.706-28.351-61.706-61.706c0-35.022 28.351-61.706 61.706-61.706zM277.961 562.032V615.4h53.368v-18.346h73.381l-31.688 80.052c6.671-1.667 13.342-3.335 20.013-3.335 26.684 0 50.032 15.009 61.706 36.69l45.03-113.407h78.385v55.035c0 8.338 6.671 16.677 16.677 16.677h3.335c8.338 0 16.677-6.671 16.677-16.677v-55.035h75.049l46.697 115.075c11.675-23.348 35.022-38.359 63.374-38.359 6.671 0 11.675 1.667 18.346 3.335l-31.688-80.052h75.049v18.346h53.368v-53.368h-53.368v18.346h-81.72l-51.701-126.749c-20.013 21.68-46.697 38.359-76.716 48.364l31.688 80.052h-68.377v-36.69c0-8.338-6.671-16.677-16.677-16.677h-3.335c-8.338 0-16.677 6.671-16.677 16.677v36.69h-71.714l33.355-83.387c-30.019-11.675-55.035-30.019-73.381-53.368l-55.035 136.755H331.33v-18.346h-53.368z"/></svg>