<svg xmlns="http://www.w3.org/2000/svg" viewBox="0 0 1193 1024"><path fill="#fff" d="M502.778 834.822l-22.562-8.678c1.735-17.355 1.735-34.712-1.735-52.067l22.562-10.413c13.885-6.942 20.827-22.562 13.885-36.447l-13.885-27.77c-6.942-13.885-22.562-20.827-36.447-13.885l-22.562 10.413c-10.413-13.885-24.298-26.034-38.182-34.712l8.678-22.562c5.207-13.885-1.735-31.24-17.355-36.447l-29.505-10.413c-13.885-5.207-31.24 1.735-36.447 17.355l-8.678 22.562c-17.355-1.735-34.712-1.735-52.067 1.735l-10.413-22.562c-6.942-13.885-22.562-20.827-36.447-13.885l-27.77 13.885c-13.885 6.942-20.827 22.562-13.885 36.447l10.413 22.562c-13.885 10.413-26.034 24.298-34.712 38.182l-22.562-8.678c-13.885-5.207-31.24 1.735-36.447 17.355l-12.15 27.77c-1.735 6.942-1.735 13.885 0 20.827 3.47 6.942 8.678 12.15 15.62 13.885l22.562 8.678c-1.735 17.355-1.735 34.712 1.735 52.067l-22.562 10.413c-13.885 6.942-20.827 22.562-13.885 36.447l13.885 27.77c6.942 13.885 22.562 20.827 36.447 13.885l22.562-10.413c10.413 13.885 24.298 26.034 38.182 34.712l-8.678 22.562c-3.47 6.942-1.735 13.885 0 20.827 3.47 6.942 8.678 12.15 15.62 13.885l29.505 10.413c6.942 1.735 13.885 1.735 20.827 0 6.942-3.47 12.15-8.678 13.885-15.62l8.678-22.562c17.355 1.735 34.712 1.735 52.067-1.735l10.413 22.562c6.942 13.885 22.562 20.827 36.447 13.885l27.77-13.885c13.885-6.942 20.827-22.562 13.885-36.447l-5.207-20.827c13.885-10.413 26.034-24.298 34.712-38.182l22.562 8.678c6.942 3.47 13.885 1.735 20.827 0 6.942-3.47 12.15-8.678 13.885-15.62l10.413-29.505c8.678-15.62 1.735-31.24-13.885-36.447zM348.31 907.718c-13.885 6.942-29.505 10.413-46.862 10.413-43.39 0-83.309-26.034-100.664-64.217-26.034-55.539-1.735-121.491 53.804-147.526 13.885-6.942 29.505-10.413 46.862-10.413 43.39 0 83.309 26.034 100.664 64.217 26.034 57.274 1.735 123.228-53.804 147.526zm432.162 6.943l-12.15-5.207c1.735-8.678 0-19.092-1.735-29.505l12.15-5.207c8.678-3.47 10.413-12.15 6.942-20.827l-6.942-15.62c-3.47-8.678-12.15-12.15-20.827-6.942l-12.15 5.207c-6.942-6.942-13.885-13.885-20.827-19.092l5.207-12.15c3.47-8.678-1.735-17.355-8.678-20.827l-15.62-5.207c-8.678-3.47-17.355 1.735-20.827 8.678l-5.207 12.15c-8.678-1.735-19.092 0-29.505 1.735l-5.207-12.15c-3.47-8.678-12.15-12.15-20.827-6.942l-15.62 6.942c-8.678 3.47-10.413 12.15-6.942 20.827l5.207 12.15c-6.942 6.942-13.885 13.885-19.092 20.827l-12.15-5.207c-6.942-3.47-17.355 1.735-20.827 8.678l-5.207 15.62c-1.735 3.47-1.735 8.678 0 12.15s5.207 6.942 8.678 8.678l12.15 5.207c-1.735 8.678 0 19.092 1.735 29.505l-12.15 5.207c-8.678 3.47-10.413 12.15-6.942 20.827l6.942 15.62c3.47 8.678 12.15 10.413 20.827 6.942l12.15-5.207c6.942 6.942 13.885 13.885 20.827 19.092l-5.207 12.15c-1.735 3.47-1.735 8.678 0 12.15s5.207 6.942 8.678 8.678l15.62 5.207c3.47 1.735 8.678 1.735 12.15 0s6.942-5.207 8.678-8.678l5.207-12.15c8.678 1.735 19.092 0 29.505-1.735l5.207 12.15c3.47 8.678 12.15 10.413 20.827 6.942l15.62-6.942c8.678-3.47 10.413-12.15 6.942-20.827l-5.207-12.15c6.942-6.942 13.885-13.885 19.092-20.827l12.15 5.207c3.47 1.735 8.678 1.735 12.15 0s6.942-5.207 8.678-8.678l5.207-15.62c3.47-8.678 0-17.355-8.678-20.827zm-85.044 41.654c-8.678 3.47-17.355 5.207-26.034 5.207-24.298 0-46.862-13.885-55.539-36.447-13.885-31.24 0-67.689 29.505-81.574 8.678-3.47 17.355-5.207 26.034-5.207 24.298 0 46.862 13.885 55.539 36.447 13.885 31.24 1.735 67.689-29.505 81.574zm380.097-534.565l-39.919-13.885c3.47-27.77 1.735-57.274-3.47-86.779l38.182-17.355c24.298-10.413 34.712-38.182 22.562-62.482l-22.562-48.597c-10.413-24.298-38.182-34.712-62.482-22.562l-38.182 17.355c-19.092-22.562-39.919-43.39-64.217-59.01l13.885-39.919c8.678-24.298-3.47-52.067-27.77-60.746L841.22 8.678c-24.298-8.678-52.067 3.47-60.746 27.77l-13.885 39.919c-27.77-3.47-57.274-1.735-86.779 3.47l-17.355-38.182c-10.413-24.298-38.182-34.712-62.482-22.562l-48.597 22.562c-24.298 10.413-34.712 38.182-22.562 62.482l17.355 38.182c-22.562 19.092-43.39 39.919-59.01 64.217l-39.919-13.885c-24.298-8.678-52.067 3.47-60.746 27.77l-19.092 50.332c-5.207 12.15-3.47 24.298 1.735 36.447s13.885 20.827 26.034 24.298l39.919 13.885c-3.47 27.77-1.735 57.274 3.47 86.779l-38.182 17.355c-24.298 10.413-34.712 38.182-22.562 62.482l22.562 48.597c10.413 24.298 38.182 34.712 62.482 22.562l38.182-17.355c19.092 22.562 39.919 43.39 64.217 59.01l-12.15 36.447c-5.207 12.15-3.47 24.298 1.735 36.447s13.885 20.827 26.034 24.298l50.332 19.092c12.15 5.207 24.298 3.47 36.447-1.735s20.827-13.885 24.298-26.034l13.885-39.919c27.77 3.47 57.274 1.735 86.779-3.47l17.355 38.182c10.413 24.298 38.182 34.712 62.482 22.562l48.597-22.562c24.298-10.413 34.712-38.182 22.562-62.482l-17.355-38.182c22.562-19.092 43.39-39.919 59.01-64.217l39.919 13.885c12.15 5.207 24.298 3.47 36.447-1.735s20.827-13.885 24.298-26.034l19.092-50.332c6.942-20.827-5.207-48.597-29.505-57.274zM815.184 544.978c-24.298 12.15-50.332 17.355-78.102 17.355-72.894 0-138.848-43.39-170.088-109.343-43.39-93.722-1.735-204.8 91.986-248.19 24.298-12.15 50.332-17.355 78.102-17.355 72.894 0 138.848 43.39 170.088 109.343 43.39 93.722 1.735 204.8-91.986 248.19z"/></svg>