<svg xmlns="http://www.w3.org/2000/svg" viewBox="0 0 1193 1024"><path fill="#fff" d="M353.551 669.029c-57.28 0-104.685 47.405-104.685 104.685s47.405 104.685 104.685 104.685 104.685-47.405 104.685-104.685-47.405-104.685-104.685-104.685zm0 158.016c-29.629 0-53.331-23.702-53.331-53.331s23.702-53.331 53.331-53.331 53.331 23.702 53.331 53.331c-1.975 29.629-25.677 53.331-53.331 53.331zm-90.86-158.016H27.641a17.702 17.702 0 0 0-17.776 17.776v51.354a17.702 17.702 0 0 0 17.776 17.776h187.645c5.926-35.553 21.728-65.181 47.405-86.909zm639.966 0c-57.28 0-104.685 47.405-104.685 104.685s47.405 104.685 104.685 104.685 104.685-47.405 104.685-104.685-47.405-104.685-104.685-104.685zm0 158.016c-29.629 0-53.331-23.702-53.331-53.331s23.702-53.331 53.331-53.331 53.331 23.702 53.331 53.331c-1.975 29.629-25.677 53.331-53.331 53.331zm272.577-158.016h-41.479V439.905c0-27.652-7.901-53.331-23.702-75.057l-100.736-152.09c-25.677-37.529-67.156-59.255-112.586-59.255H736.74c-17.776 0-33.578 15.802-33.578 33.578v481.95h-258.75c23.702 21.728 41.479 51.354 47.405 84.934h274.552c9.876-67.156 67.156-118.512 136.289-118.512s126.413 51.354 136.289 118.512h136.289a17.702 17.702 0 0 0 17.776-17.776v-51.354c0-7.901-7.901-15.802-17.776-15.802zm-167.891-274.552H797.972a17.702 17.702 0 0 1-17.776-17.776V260.163a17.702 17.702 0 0 1 17.776-17.776H926.36c5.926 0 9.876 1.975 13.827 7.901l82.958 116.538c5.926 11.85-1.975 27.652-15.802 27.652zM624.154 635.451H33.569c-17.776 0-33.578-15.802-33.578-33.578v-152.09c0-17.776 15.802-33.578 33.578-33.578h590.585c17.776 0 33.578 15.802 33.578 33.578v152.09c0 17.776-15.802 33.578-33.578 33.578zM270.592 364.848H33.567c-17.776 0-33.578-15.802-33.578-33.578V179.18c0-17.776 15.802-33.578 33.578-33.578h237.025c17.776 0 33.578 15.802 33.578 33.578v152.09c0 19.751-15.802 33.578-33.578 33.578zm353.562 0H387.129c-17.776 0-33.578-15.802-33.578-33.578V179.18c0-17.776 15.802-33.578 33.578-33.578h237.025c17.776 0 33.578 15.802 33.578 33.578v152.09c0 19.751-15.802 33.578-33.578 33.578z"/></svg>