<?xml version="1.0" standalone="no"?>
<!DOCTYPE svg PUBLIC "-//W3C//DTD SVG 20010904//EN"
 "http://www.w3.org/TR/2001/REC-SVG-20010904/DTD/svg10.dtd">
<svg version="1.0" xmlns="http://www.w3.org/2000/svg"
 width="85.000000pt" height="85.000000pt" viewBox="0 0 85.000000 85.000000"
 preserveAspectRatio="xMidYMid meet">
<metadata>
Created by potrace 1.11, written by Peter Selinger 2001-2013
</metadata>
<g transform="translate(0.000000,85.000000) scale(0.100000,-0.100000)"
fill="#000000" stroke="none">
<path d="M116 784 c-14 -13 -16 -48 -16 -229 0 -160 -3 -216 -12 -222 -7 -4
-19 -15 -26 -25 -7 -9 80 46 194 122 207 139 207 139 233 122 14 -9 68 -45
119 -79 72 -49 92 -59 93 -46 0 10 1 65 1 123 l2 105 -225 2 c-160 1 -226 -2
-231 -10 -4 -7 -7 -41 -7 -76 1 -56 -2 -67 -23 -83 -12 -9 -27 -16 -33 -14 -9
2 -16 215 -8 241 2 6 106 9 291 8 158 0 290 -1 294 -2 8 -1 8 -591 -1 -592 -3
-1 -135 -2 -294 -3 -185 0 -287 3 -288 9 -1 6 -3 39 -4 75 -1 36 -3 69 -4 73
-1 8 -91 -52 -91 -60 0 -2 4 -1 10 2 6 4 10 -21 10 -69 0 -54 4 -79 16 -90 13
-14 60 -16 358 -16 303 0 345 2 357 16 19 23 20 688 1 715 -12 18 -33 19 -357
19 -299 0 -346 -2 -359 -16z"/>
<path d="M353 415 l-110 -73 1 -74 1 -73 223 -1 c251 -2 233 -8 236 79 l1 54
-121 81 -122 80 -109 -73z m95 -49 c3 -25 1 -27 -25 -24 -21 2 -27 8 -26 26 1
30 0 29 26 27 16 -1 23 -9 25 -29z m85 7 c5 -28 0 -33 -30 -33 -17 0 -23 6
-23 23 0 29 6 36 30 34 11 -1 20 -11 23 -24z m-83 -87 c0 -26 -35 -43 -47 -23
-17 28 -10 47 19 47 23 0 28 -4 28 -24z m85 7 c-2 -10 -4 -23 -4 -30 -1 -6 -9
-10 -18 -8 -10 2 -21 4 -24 4 -9 1 -18 39 -11 45 3 3 18 6 33 6 21 0 26 -4 24
-17z"/>
</g>
</svg>
