<svg xmlns="http://www.w3.org/2000/svg" viewBox="0 0 434.174 434.174" width="40" height="45"><path d="M217.087 119.397c-24.813 0-45 20.187-45 45s20.187 45 45 45 45-20.187 45-45-20.186-45-45-45z" fill="#191919"/><path d="M217.087 0c-91.874 0-166.62 74.745-166.62 166.619 0 38.93 13.421 74.781 35.878 103.177l130.742 164.378 130.742-164.378c22.457-28.396 35.878-64.247 35.878-103.177C383.707 74.745 308.961 0 217.087 0zm0 239.397c-41.355 0-75-33.645-75-75s33.645-75 75-75 75 33.645 75 75-33.644 75-75 75z" fill="#f96346"/></svg>