<?xml version="1.0" standalone="no"?>
<!DOCTYPE svg PUBLIC "-//W3C//DTD SVG 1.1//EN" "http://www.w3.org/Graphics/SVG/1.1/DTD/svg11.dtd" >
<svg xmlns="http://www.w3.org/2000/svg" xmlns:xlink="http://www.w3.org/1999/xlink" version="1.1">
<metadata>
Created by FontForge 20150824 at Tue Nov  1 03:17:13 2016
 By Everything Fonts
Copyright (c) 2011 by AndrijType. All rights reserved.
</metadata>
<defs>
<font id="BanderaProMediumItalic" horiz-adv-x="535" >
  <font-face 
    font-family="BanderaProMediumItalic"
    font-weight="500"
    font-style="italic"
    font-stretch="normal"
    units-per-em="1000"
    panose-1="2 6 6 4 4 2 0 2 0 4"
    ascent="750"
    descent="-250"
    x-height="500"
    cap-height="650"
    bbox="-139 -319 1828 947"
    underline-thickness="30"
    underline-position="-150"
    slope="-10"
    unicode-range="U+0020-FB06"
  />
<missing-glyph horiz-adv-x="649" 
d="M180 434l-60 70l82 72l60 -70zM545 433l-61 73l78 70l64 -72zM126 65l-62 72l80 70l63 -72zM486 65l-59 70l83 73l60 -71zM118 279l11 82h180l28 182h86l-28 -182h177l-12 -82h-178l-27 -182h-86l27 182h-178z" />
    <glyph glyph-name="arrowleft" unicode="&#x3c;&#x2d;&#x2d;" horiz-adv-x="751" 
d="M88 277l339 244l39 -59l-209 -149l459 3l-11 -79l-460 3l164 -149l-55 -58z" />
    <glyph glyph-name="arrowright" unicode="&#x2d;&#x2d;&#x3e;" horiz-adv-x="736" 
d="M62 237l11 79l459 -3l-162 149l55 59l265 -244l-339 -244l-39 58l209 149z" />
    <glyph glyph-name="ff" unicode="ff" horiz-adv-x="694" 
d="M262 560l-10 -60h217q0 97 27 161q-72 24 -104 24q-64 0 -91 -28t-39 -97zM729 604l2 56q-25 25 -57 25q-47 0 -73 -41.5t-27 -143.5h163l-12 -84h-163l-103 -666h-106l103 666h-217l-70 -447q-18 -116 -77.5 -175.5t-128.5 -59.5q-35 0 -59.5 5t-31.5 11l-7 5l40 85
q26 -11 59 -11q31 0 58 36.5t38 103.5l70 447h-57l6 79l64 5l11 71q15 97 66 145.5t160 48.5q50 0 162 -40q46 40 118 40q41 0 89 -31l11 21h62l-16 -151h-77z" />
    <glyph glyph-name="fi" unicode="fi" horiz-adv-x="638" 
d="M432 421l6 79h169l-59 -382v-7q0 -32 21 -32l45 2l-4 -74q-60 -14 -116 -14q-32 0 -47.5 13.5t-15.5 44.5q0 7 2 25l52 341zM73 416l6 79l64 5l11 71q15 97 66 145.5t160 48.5q46 0 140 -32l6 22h77l-19 -162h-75l3 63q-85 29 -120 29q-64 0 -91 -28t-39 -97l-10 -60h159
l-11 -84h-161l-70 -447q-18 -116 -77.5 -175.5t-128.5 -59.5q-35 0 -59.5 5t-31.5 11l-7 5l40 85q26 -11 59 -11q31 0 58 36.5t38 103.5l70 447h-57z" />
    <glyph glyph-name="fl" unicode="fl" horiz-adv-x="643" 
d="M73 416l6 79l64 5l11 71q15 97 66 145.5t160 48.5q44 0 158 -38l4 23h109l-98 -632q-1 -39 21 -39l45 2l-4 -74q-60 -14 -116 -14q-32 0 -47.5 13.5t-15.5 44.5q0 7 2 25l88 574q-97 35 -134 35q-64 0 -91 -28t-39 -97l-10 -60h159l-11 -84h-161l-70 -447
q-18 -116 -77.5 -175.5t-128.5 -59.5q-35 0 -59.5 5t-31.5 11l-7 5l40 85q26 -11 59 -11q31 0 58 36.5t38 103.5l70 447h-57z" />
    <glyph glyph-name="ffi" unicode="ffi" horiz-adv-x="1016" 
d="M810 421l6 79h169l-59 -382v-7q0 -32 21 -32l45 2l-4 -74q-60 -14 -116 -14q-32 0 -47.5 13.5t-15.5 44.5q0 7 2 25l52 341zM84 416l5 79l65 5l11 71q15 97 66 145.5t159 48.5q28 0 78 -13.5t86 -26.5l36 -13l-2 -5q55 58 169 58q45 0 141 -32l6 22h77l-19 -162h-75l3 63
q-85 29 -120 29q-65 0 -91.5 -28t-38.5 -97l-10 -60h159l-12 -84h-160l-70 -447q-18 -116 -77.5 -175.5t-128.5 -59.5q-35 0 -59.5 5t-31.5 11l-7 5l39 85q27 -11 60 -11q31 0 58 36.5t38 103.5l70 447h-57l6 79l64 5l11 71q6 43 19 75q-106 39 -148 39q-65 0 -92 -28
t-39 -97l-10 -60h160l-12 -84h-161l-69 -447q-18 -116 -78 -175.5t-129 -59.5q-35 0 -59 5t-31 11l-7 5l39 85q27 -11 60 -11q31 0 58 37t38 103l70 447h-57z" />
    <glyph glyph-name="ffl" unicode="ffl" horiz-adv-x="1021" 
d="M84 416l5 79l65 5l11 71q15 97 66 145.5t159 48.5q67 0 200 -56q54 56 167 56q45 0 159 -38l4 23h109l-98 -632q-1 -39 20 -39l46 2l-5 -74q-59 -14 -116 -14q-62 0 -62 58q0 7 2 25l88 574q-97 35 -134 35q-65 0 -91.5 -28t-38.5 -97l-10 -60h159l-12 -84h-160l-70 -447
q-18 -116 -77.5 -175.5t-128.5 -59.5q-35 0 -59.5 5t-31.5 11l-7 5l39 85q27 -11 60 -11q31 0 58 36.5t38 103.5l70 447h-57l6 79l64 5l11 71q6 42 18 72q-100 42 -147 42q-65 0 -92 -28t-39 -97l-10 -60h160l-12 -84h-161l-69 -447q-18 -116 -78 -175.5t-129 -59.5
q-35 0 -59 5t-31 11l-7 5l39 85q27 -11 60 -11q31 0 58 37t38 103l70 447h-57z" />
    <glyph glyph-name="ft" unicode="ft" horiz-adv-x="700" 
d="M643 79l-9 -71q-34 -24 -115 -24q-116 0 -116 108q0 22 4 45l42 279h-213l-103 -666h-106l103 666h-57l6 79l64 5q0 138 51 201.5t128 63.5q45 0 84 -35l13 25h62l-16 -141h-78l2 46q-17 25 -52 25q-86 0 -89 -185h214l49 162h86l-26 -162h142l-12 -84h-143l-39 -254
q-3 -20 -3 -35q0 -58 50 -58q19 0 38.5 2.5t29.5 4.5z" />
    <glyph glyph-name="tt" unicode="tt" horiz-adv-x="691" 
d="M75 416l5 79l65 4l38 163h96l-26 -162h202l38 162h96l-26 -162h142l-12 -84h-143l-39 -254q-3 -20 -3 -34q0 -27 12 -39t38 -12q19 0 38.5 2.5t29.5 4.5l9 2l-9 -71q-34 -24 -115 -24q-59 0 -87.5 23.5t-28.5 77.5q0 22 4 45l43 279h-202l-39 -254q-3 -19 -3 -34
q0 -27 12 -39t38 -12q19 0 38.5 2.5t29.5 4.5l9 2l-9 -71q-34 -24 -115 -24q-59 0 -87.5 23.5t-28.5 77.5q0 22 4 45l43 279h-57z" />
    <glyph glyph-name="afii10056_afii10056" unicode="&#x407;&#x407;" horiz-adv-x="700" 
d="M452 576l6 74h270l-11 -79l-75 -4l-76 -489l76 -4l-11 -74h-263l6 79l79 4l76 489zM98 576l6 74h270l-11 -79l-75 -4l-76 -489l76 -4l-11 -74h-263l6 79l79 4l76 489zM521 730q-26 0 -37.5 14t-11.5 31q0 23 18 41.5t45 18.5q17 0 33 -10.5t16 -34.5t-17.5 -42t-45.5 -18
zM697 730q-26 0 -37 14t-11 31q0 24 17.5 42t45.5 18q22 0 35.5 -12.5t13.5 -32.5q0 -21 -17 -40.5t-47 -19.5zM160 730q-26 0 -37.5 14t-11.5 31q0 24 18.5 42t45.5 18q22 0 35 -12.5t13 -32.5q0 -24 -17.5 -42t-45.5 -18zM337 730q-26 0 -37.5 14.5t-11.5 31.5
q0 22 17 40.5t46 18.5q22 0 38 -13q11 -14 11 -32q0 -25 -17.5 -42.5t-45.5 -17.5z" />
    <glyph glyph-name="quoteright_afii10104" unicode="&#x27;&#x457;" horiz-adv-x="372" 
d="M166 421l6 79h169l-59 -382v-7q0 -32 21 -32l45 2l-4 -74q-60 -14 -116 -14q-32 0 -47.5 13.5t-15.5 44.5q0 7 2 25l52 341zM385 594q-21 0 -35 12.5t-14 32.5q0 24 17.5 42.5t46.5 18.5q23 0 36 -12t13 -33q0 -24 -18 -42.5t-46 -18.5zM192 753q23 0 37 -12t14 -32
q0 -1 0.5 -4t0.5 -5q0 -51 -52 -123.5t-114 -111.5l-33 35q43 29 77 71t44 78q-38 7 -38 45q0 24 18 41.5t46 17.5z" />
    <glyph glyph-name="afii10104_afii10104" unicode="&#x457;&#x457;" horiz-adv-x="556" 
d="M349 421l6 79h169l-59 -382v-7q0 -32 21 -32l45 2l-4 -74q-60 -14 -116 -14q-32 0 -47.5 13.5t-15.5 44.5q0 7 2 25l52 341zM67 421l6 79h169l-59 -382v-7q0 -32 21 -32l45 2l-4 -74q-60 -14 -116 -14q-32 0 -47.5 13.5t-15.5 44.5q0 7 2 25l52 341zM413 594
q-18 0 -33 10.5t-15 34.5t17 42.5t46 18.5q23 0 36.5 -12.5t13.5 -32.5q0 -25 -19 -43t-46 -18zM570 594q-18 0 -33 10.5t-15 34.5t17 42.5t46 18.5q49 0 49 -44q0 -24 -18 -43t-46 -19zM99 594q-22 0 -35.5 13t-13.5 33q0 25 17 42.5t46 17.5q23 0 36.5 -12.5t13.5 -32.5
q0 -24 -18 -42.5t-46 -18.5zM254 594q-21 0 -34.5 12.5t-13.5 33.5q0 24 17.5 42t46.5 18q26 0 37.5 -13.5t11.5 -30.5q0 -26 -19.5 -44t-45.5 -18z" />
    <glyph glyph-name="afii10103_afii10104" unicode="&#x456;&#x457;" horiz-adv-x="556" 
d="M349 421l6 79h169l-59 -382v-7q0 -32 21 -32l45 2l-4 -74q-60 -14 -116 -14q-32 0 -47.5 13.5t-15.5 44.5q0 7 2 25l52 341zM220 708q56 0 56 -51q0 -27 -19.5 -48.5t-53.5 -21.5q-25 0 -41.5 14t-16.5 37q0 27 20.5 48.5t54.5 21.5zM67 421l6 79h169l-59 -382v-7
q0 -32 21 -32l45 2l-4 -74q-60 -14 -116 -14q-32 0 -47.5 13.5t-15.5 44.5q0 7 2 25l52 341zM406 594q-22 0 -35.5 12.5t-13.5 32.5q0 24 17 42.5t46 18.5q23 0 36.5 -12.5t13.5 -32.5q0 -24 -18 -42.5t-46 -18.5zM581 594q-22 0 -35.5 13t-13.5 33q0 24 17.5 42t46.5 18
q24 0 36.5 -12t12.5 -33q0 -24 -18 -42.5t-46 -18.5z" />
    <glyph glyph-name=".notdef" horiz-adv-x="649" 
d="M180 434l-60 70l82 72l60 -70zM545 433l-61 73l78 70l64 -72zM126 65l-62 72l80 70l63 -72zM486 65l-59 70l83 73l60 -71zM118 279l11 82h180l28 182h86l-28 -182h177l-12 -82h-178l-27 -182h-86l27 182h-178z" />
    <glyph glyph-name=".null" horiz-adv-x="0" 
 />
    <glyph glyph-name="nonmarkingreturn" horiz-adv-x="333" 
 />
    <glyph glyph-name="space" unicode=" " horiz-adv-x="279" 
 />
    <glyph glyph-name="exclam" unicode="!" horiz-adv-x="338" 
d="M140 -12q-27 0 -42.5 14.5t-15.5 38.5q0 30 22.5 49.5t53.5 19.5q26 0 42 -14.5t16 -38.5q0 -27 -21.5 -48t-54.5 -21zM132 220l54 443l14 87h115l-14 -87l-83 -443h-86z" />
    <glyph glyph-name="quotedbl" unicode="&#x22;" horiz-adv-x="382" 
d="M271 511l35 237l101 -1l-59 -236h-77zM86 511l35 237l101 -1l-59 -236h-77z" />
    <glyph glyph-name="numbersign" unicode="#" horiz-adv-x="565" 
d="M274 375l-40 -102h93l40 102h-93zM80 375l10 70h144l54 136l61 -17l-47 -119h93l49 126l60 -17l-43 -109h89l-11 -70h-105l-40 -102h130l-10 -69h-147l-53 -137l-60 18l46 119h-94l-50 -127l-60 18l43 109h-85l10 69h102l40 102h-126z" />
    <glyph glyph-name="dollar" unicode="$" horiz-adv-x="480" 
d="M169 -50l9 101q-38 2 -71.5 8t-47.5 11l-14 6l10 137l68 5l-3 -78q46 -13 95 -13q60 0 92 24.5t32 60.5q0 24 -25 42t-60.5 31t-71 29t-60.5 45.5t-25 71.5q0 66 43 104t113 46l21 119h79l-13 -126q36 -10 68 -33l16 31h55l-16 -146h-67l-3 48q-44 33 -95 33
q-39 0 -64.5 -17t-25.5 -47q0 -26 25.5 -44t61.5 -30.5t72 -27t61.5 -42.5t25.5 -68q0 -69 -46 -116.5t-142 -59.5l-18 -105h-79z" />
    <glyph glyph-name="percent" unicode="%" horiz-adv-x="948" 
d="M690 61q55 0 88.5 39t33.5 108q0 42 -21.5 66t-62.5 24q-56 0 -88.5 -39.5t-32.5 -110.5q0 -40 21.5 -63.5t61.5 -23.5zM680 -16q-79 0 -121 43.5t-42 117.5q0 101 61 164.5t161 63.5q76 0 119 -44t43 -119q0 -99 -60 -162.5t-161 -63.5zM259 353q55 0 88.5 39t33.5 108
q0 42 -21.5 66t-62.5 24q-56 0 -88.5 -39.5t-32.5 -110.5q0 -40 21.5 -63.5t61.5 -23.5zM249 276q-79 0 -121 43.5t-42 117.5q0 101 61 164.5t161 63.5q76 0 119 -44t43 -119q0 -99 -60 -162.5t-161 -63.5zM240 10l417 629l80 -15l-418 -628z" />
    <glyph glyph-name="ampersand" unicode="&#x26;" horiz-adv-x="706" 
d="M420 145q0 33 26 148h-153q-57 -3 -96.5 -31.5t-39.5 -88.5q0 -45 30.5 -75.5t91.5 -30.5q97 0 141 78zM414 498l5 60q-26 24 -63 24q-56 0 -88 -31.5t-32 -89.5q0 -41 25.5 -66t58.5 -26h149l47 131h63l-21 -131h141l-11 -76h-142l-22 -143q-3 -17 -3 -28q0 -56 55 -56
q17 0 35.5 2t28.5 4l10 2l-11 -74q-28 -16 -102 -16q-93 0 -114 63q-71 -63 -178 -63q-102 0 -152 49t-50 125q0 73 45.5 117.5t115.5 64.5q-72 50 -72 133q0 86 56 139t146 53q61 0 105 -38l15 28h61l-24 -157h-77z" />
    <glyph glyph-name="quotesingle" unicode="'" horiz-adv-x="198" 
d="M86 511l35 237l101 -1l-59 -236h-77z" />
    <glyph glyph-name="parenleft" unicode="(" horiz-adv-x="372" 
d="M407 703q-8 -9 -21.5 -25.5t-48 -73t-61 -118t-48 -157.5t-21.5 -194q0 -53 7 -102t16.5 -81.5t19.5 -57.5t17 -36l7 -12l-83 -33q-4 4 -10 12t-22 37.5t-28.5 63.5t-22.5 90.5t-10 118.5q0 68 11 137q14 89 42 169.5t58.5 132t58.5 90t46 55.5l18 17z" />
    <glyph glyph-name="parenright" unicode=")" horiz-adv-x="372" 
d="M-10 -154q8 9 21.5 25.5t48 73t61 117.5t48 157t21.5 194q0 84 -17 156.5t-34 102.5l-17 31l85 33q4 -4 10 -12t22 -37.5t28 -63t22 -90t10 -118.5q0 -69 -11 -138q-14 -89 -42 -169.5t-58.5 -132t-59 -90t-46.5 -55.5l-18 -17z" />
    <glyph glyph-name="asterisk" unicode="*" horiz-adv-x="455" 
d="M65 516l46 96l142 -78l3 175h101l-52 -174l167 77l18 -96l-175 -30l100 -128l-90 -59l-57 153l-105 -153l-73 60l140 125z" />
    <glyph glyph-name="plus" unicode="+" horiz-adv-x="485" 
d="M42 236l6 81h172l26 167h85l-26 -167h164l-11 -81h-165l-25 -167h-86l26 167h-166z" />
    <glyph glyph-name="comma" unicode="," horiz-adv-x="273" 
d="M53 62q0 24 17.5 41.5t47.5 17.5q57 0 57 -67q0 -54 -38 -119.5t-93 -100.5l-48 34q39 35 61.5 75.5t24.5 75.5q-29 10 -29 43z" />
    <glyph glyph-name="hyphen" unicode="-" horiz-adv-x="353" 
d="M42 236l7 81h288l-12 -81h-283z" />
    <glyph glyph-name="period" unicode="." horiz-adv-x="298" 
d="M116 -12q-27 0 -42.5 14.5t-15.5 38.5q0 30 22.5 49.5t53.5 19.5q26 0 42 -14.5t16 -38.5q0 -27 -21.5 -48t-54.5 -21z" />
    <glyph glyph-name="slash" unicode="/" horiz-adv-x="494" 
d="M-78 -250l585 1000h100l-584 -1000h-101z" />
    <glyph glyph-name="zero" unicode="0" horiz-adv-x="650" 
d="M497 334q9 58 9 102q0 77 -29 112.5t-91 35.5q-203 0 -203 -348q0 -82 30.5 -126.5t90.5 -44.5q151 0 193 269zM615 334q-25 -162 -106 -256t-216 -94q-112 0 -167.5 72t-55.5 197q0 187 80 299.5t247 112.5q226 0 226 -236q0 -41 -8 -95z" />
    <glyph glyph-name="one" unicode="1" horiz-adv-x="434" 
d="M130 502l-18 76l181 72h92l-89 -573l55 -3l-15 -74h-248l7 79l93 4l74 472z" />
    <glyph glyph-name="two" unicode="2" horiz-adv-x="548" 
d="M102 484l31 171h61l5 -36q81 46 159 46q86 0 130 -41.5t44 -113.5q0 -58 -35.5 -120.5t-95 -118.5t-115 -97.5t-118.5 -80.5h238l20 65l74 -5l-29 -153h-457l12 90q5 2 43.5 26.5t96.5 69t112.5 94.5t93.5 110.5t39 109.5q0 78 -101 78q-60 0 -118 -39l-13 -55h-77z" />
    <glyph glyph-name="three" unicode="3" horiz-adv-x="551" 
d="M110 489l30 166l86 -5h319l-8 -63l-216 -208h6q79 0 128.5 -43t49.5 -116q0 -109 -81.5 -172.5t-213.5 -63.5q-51 0 -95 8t-63 16l-19 7l15 138l73 5l-1 -77q39 -12 93 -12q88 0 134 39.5t46 106.5q0 40 -27.5 64t-79.5 24q-37 0 -69 -24l-41 52l227 228h-201l-18 -70
h-74z" />
    <glyph glyph-name="four" unicode="4" horiz-adv-x="586" 
d="M35 174l4 66q140 191 241 422l100 -12q-85 -192 -225 -395h215l28 173l34 126h93l-47 -299h78l-9 -74l-81 -7l-16 -102l56 -3l-14 -69h-225l5 73l70 5l15 96h-322z" />
    <glyph glyph-name="five" unicode="5" horiz-adv-x="543" 
d="M33 15l15 137l73 5l-2 -76q36 -12 93 -12q81 0 129.5 44.5t48.5 111.5q0 46 -35.5 75t-95.5 29q-37 0 -63 -9t-33 -17l-53 7l87 340h267l12 34l73 -5l-23 -125l-92 5h-171l-42 -159q27 6 59 6q104 0 163 -45t59 -126q0 -116 -83 -183.5t-210 -67.5q-57 0 -101 8t-60 16z
" />
    <glyph glyph-name="six" unicode="6" horiz-adv-x="596" 
d="M287 60q53 0 90.5 35t52 76t14.5 78q0 46 -28.5 72.5t-86.5 26.5q-55 0 -92 -23t-52 -48q-8 -21 -10 -42q-4 -23 -4 -49q0 -60 29 -93t87 -33zM556 260q0 -68 -30.5 -129.5t-96 -104t-153.5 -42.5q-103 0 -159 60t-56 169q0 59 21 126q41 163 116 244.5t168 81.5
q58 0 109 -42l16 32h62l-18 -157h-78l2 53q-39 32 -86 32q-138 0 -186 -213q79 49 165 49q96 0 150 -40t54 -119z" />
    <glyph glyph-name="seven" unicode="7" horiz-adv-x="494" 
d="M73 483l31 172l86 -5h356l-12 -88q-89 -120 -177 -271.5t-145 -290.5h-125q105 246 322 554h-245l-18 -71h-73z" />
    <glyph glyph-name="eight" unicode="8" horiz-adv-x="590" 
d="M220 469q0 -36 20 -60.5t42 -33t46 -11.5q21 4 40.5 12t42.5 23.5t37 44t14 66.5q0 84 -104 84q-67 0 -102.5 -32.5t-35.5 -92.5zM422 192q0 87 -114 103q-17 -2 -33.5 -6.5t-38 -15t-37.5 -25.5t-27 -41t-11 -58q0 -46 29 -70t82 -24q70 0 110 36t40 101zM576 514
q0 -127 -151 -181q116 -38 116 -142q0 -105 -73.5 -156t-204.5 -51q-222 0 -222 157q0 130 162 191q-97 42 -97 138q0 91 72 143t189 52q97 0 153 -39.5t56 -111.5z" />
    <glyph glyph-name="nine" unicode="9" horiz-adv-x="596" 
d="M306 292q89 0 141 62q22 59 22 122q0 113 -113 113q-76 0 -119.5 -53.5t-43.5 -126.5q0 -49 28 -83t85 -34zM63 4l16 148l74 5l-2 -83q48 -8 89 -8q73 0 129 54.5t79 157.5q-68 -57 -165 -57q-94 0 -148 49.5t-54 135.5q0 110 79 184.5t207 74.5q210 0 210 -207
q0 -56 -21 -140q-36 -166 -121 -250t-201 -84q-47 0 -89.5 5t-62.5 10z" />
    <glyph glyph-name="colon" unicode=":" horiz-adv-x="300" 
d="M116 -12q-27 0 -42.5 14.5t-15.5 38.5q0 30 22.5 49.5t53.5 19.5q26 0 42 -14.5t16 -38.5q0 -27 -21.5 -48t-54.5 -21zM173 355q-27 0 -42.5 14.5t-15.5 38.5q0 30 22.5 49.5t53.5 19.5q26 0 42 -14.5t16 -38.5q0 -27 -21.5 -48t-54.5 -21z" />
    <glyph glyph-name="semicolon" unicode=";" horiz-adv-x="298" 
d="M173 355q-27 0 -42.5 14.5t-15.5 38.5q0 30 22.5 49.5t53.5 19.5q26 0 42 -14.5t16 -38.5q0 -27 -21.5 -48t-54.5 -21zM68 62q0 24 17.5 41.5t47.5 17.5q57 0 57 -67q0 -54 -38 -119.5t-93 -100.5l-48 34q39 35 61.5 75.5t24.5 75.5q-29 10 -29 43z" />
    <glyph glyph-name="less" unicode="&#x3c;" horiz-adv-x="424" 
d="M81 317l309 210l41 -50l-243 -161l193 -160l-55 -50z" />
    <glyph glyph-name="equal" unicode="=" horiz-adv-x="560" 
d="M57 339l6 81h496l-11 -81h-491zM27 133l6 81h496l-11 -81h-491z" />
    <glyph glyph-name="greater" unicode="&#x3e;" horiz-adv-x="425" 
d="M81 477l55 50l245 -210l-309 -211l-41 50l242 161z" />
    <glyph glyph-name="question" unicode="?" horiz-adv-x="483" 
d="M146 -12q-27 0 -42.5 14.5t-15.5 38.5q0 30 22.5 49.5t53.5 19.5q26 0 42 -14.5t16 -38.5q0 -27 -21.5 -48t-54.5 -21zM102 589l29 166h62l5 -33q71 43 137 43q76 0 122 -40.5t46 -105.5q0 -62 -30 -105.5t-72.5 -68.5t-85.5 -49t-73 -62.5t-30 -93.5q0 -14 1 -22l-62 -5
q-4 24 -4 50q0 50 18 88t45.5 59t59 42.5t59 38t45.5 45t18 64.5q0 34 -25 57t-76 23q-58 0 -99 -34l-14 -57h-76z" />
    <glyph glyph-name="at" unicode="@" horiz-adv-x="969" 
d="M471 48q30 0 54.5 14t34.5 26t17 25l29 189q-16 44 -84 44q-73 0 -112 -47.5t-39 -138.5q0 -52 26 -82t74 -30zM726 -77l20 -68q-3 -4 -10 -10.5t-33 -24t-57 -30.5t-83 -23.5t-110 -10.5q-193 0 -297.5 99t-104.5 266q0 243 133 379t391 136q171 0 266.5 -78.5
t95.5 -215.5q0 -176 -73.5 -266.5t-186.5 -90.5q-90 0 -104 47q-50 -48 -129 -48q-75 0 -118.5 46t-43.5 130q0 113 67 180.5t173 67.5q68 0 108 -36l20 21h47l-46 -295q-1 -5 -1 -14q0 -36 41 -36q27 0 52.5 13t50.5 43t40 89t15 140q0 110 -72 169.5t-207 59.5
q-202 0 -311 -105t-109 -321q0 -140 84 -220t227 -80q47 0 91.5 9t74.5 22t53.5 25.5t34.5 21.5z" />
    <glyph glyph-name="A" unicode="A" horiz-adv-x="705" 
d="M404 560l-153 -297h212zM-33 0l7 79l75 4l300 567h150l124 -573l71 -3l-10 -74h-249l9 64l63 3l-29 124h-265l-65 -120l64 -4l-9 -67h-236z" />
    <glyph glyph-name="B" unicode="B" horiz-adv-x="636" 
d="M245 370h135q39 0 76.5 33.5t37.5 93.5q0 72 -114 72h-105zM376 297h-143l-33 -215h105q177 0 177 138q0 77 -106 77zM98 576l6 74h293q104 0 155 -37t51 -100q0 -100 -105 -165q94 -34 94 -126q0 -97 -71.5 -159.5t-220.5 -62.5h-286l6 79l79 4l76 489z" />
    <glyph glyph-name="C" unicode="C" horiz-adv-x="659" 
d="M546 417l10 119q-57 39 -128 39q-108 0 -177.5 -76t-69.5 -219q0 -97 58 -151t148 -54q56 0 106 22t72 44l22 22l44 -60q-3 -5 -9.5 -13t-30 -28.5t-50.5 -36t-72.5 -28.5t-95.5 -13q-141 0 -225.5 81.5t-84.5 217.5q0 167 100 274.5t255 107.5q84 0 154 -53l22 43h66
l-30 -238h-84z" />
    <glyph glyph-name="D" unicode="D" horiz-adv-x="749" 
d="M406 560h-119l-73 -470h129q126 0 198 76t72 222q0 86 -54 129t-153 43zM98 576l6 74h314q149 0 231 -65t82 -193q0 -181 -105 -286.5t-297 -105.5h-315l6 79l79 4l76 489z" />
    <glyph glyph-name="E" unicode="E" horiz-adv-x="605" 
d="M501 491l4 73h-218l-31 -195l279 1l-12 -83h-280l-31 -201h244l22 82l82 -5l-31 -163h-515l6 79l79 4l76 489l-77 4l6 74h407l98 5l-19 -164h-89z" />
    <glyph glyph-name="F" unicode="F" horiz-adv-x="558" 
d="M511 491l4 73h-228l-31 -202l271 1l-12 -84h-272l-31 -201l95 -4l-15 -74h-278l6 79l79 4l76 489l-77 4l6 74h417l98 5l-20 -164h-88z" />
    <glyph glyph-name="G" unicode="G" horiz-adv-x="713" 
d="M551 447l6 91q-46 37 -120 37q-256 0 -256 -290q0 -98 50.5 -154t134.5 -56q42 0 75 10t51.5 26t27 28t13.5 23v1l12 83h-139l11 73h236l-49 -319h-66l-4 51q-69 -67 -198 -67q-126 0 -200 79.5t-74 208.5q0 181 101.5 287t267.5 106q74 0 144 -50l18 40h67l-25 -208h-84
z" />
    <glyph glyph-name="H" unicode="H" horiz-adv-x="773" 
d="M442 0l5 79l78 4l31 199h-312l-31 -199l75 -4l-11 -79h-263l6 79l79 4l76 489l-77 4l6 74h270l-11 -79l-75 -4l-31 -202h312l31 202l-75 4l6 79h271l-13 -79l-75 -4l-75 -489l76 -4l-10 -74h-263z" />
    <glyph glyph-name="I" unicode="I" horiz-adv-x="346" 
d="M98 576l6 74h270l-11 -79l-75 -4l-76 -489l76 -4l-11 -74h-263l6 79l79 4l76 489z" />
    <glyph glyph-name="J" unicode="J" horiz-adv-x="458" 
d="M215 576l6 74h270l-11 -79l-60 -4l-57 -372q-19 -117 -74 -164t-149 -47q-44 0 -80 6t-50 12l-14 7l12 154l80 5l-5 -91q22 -8 56 -8q89 0 109 126l59 377z" />
    <glyph glyph-name="K" unicode="K" horiz-adv-x="721" 
d="M98 576l6 74h260l-10 -69l-65 -4l-37 -243l85 46l205 200l-31 3l9 67h246l-11 -79l-111 -4l-225 -221l178 -265l108 -2l-12 -79h-180l-36 35l-155 240l-87 -51l-22 -141l75 -4l-11 -79h-263l6 79l79 4l76 489z" />
    <glyph glyph-name="L" unicode="L" horiz-adv-x="560" 
d="M98 576l6 74h270l-11 -79l-75 -4l-74 -481h230l24 88l82 -5l-32 -169h-504l6 79l79 4l76 489z" />
    <glyph glyph-name="M" unicode="M" horiz-adv-x="1010" 
d="M99 576l6 74h230l158 -532h3l323 532h219l-11 -79l-75 -4l-75 -484l76 -4l-11 -79h-249l5 69l69 4l67 422h-3l-305 -495h-107l-148 495h-2l-69 -424l67 -4l-9 -67h-244l6 79l79 4l77 489z" />
    <glyph glyph-name="N" unicode="N" horiz-adv-x="790" 
d="M539 -5l-274 493h-2l-2 -43l-59 -364l77 -4l-11 -77h-254l6 79l79 4l76 489l-77 4l6 74h201l270 -502h1l1 33l62 387l-77 5l5 77h262l-11 -79l-74 -4l-89 -572h-116z" />
    <glyph glyph-name="O" unicode="O" horiz-adv-x="753" 
d="M356 74q65 0 116.5 30.5t82 79t46 103t15.5 108.5q0 87 -46.5 133.5t-133.5 46.5q-120 0 -188 -77.5t-68 -216.5q0 -92 46 -149.5t130 -57.5zM735 405q0 -72 -23.5 -143.5t-69 -135t-123.5 -103t-176 -39.5q-133 0 -206.5 81.5t-73.5 213.5q0 178 103 282t282 104
q138 0 212.5 -68.5t74.5 -191.5z" />
    <glyph glyph-name="P" unicode="P" horiz-adv-x="592" 
d="M351 568h-72l-42 -273h70q76 0 127 42t51 129q0 102 -134 102zM98 576l6 74h278q222 0 222 -166q0 -67 -26 -120.5t-69 -84.5t-92 -47t-100 -16h-92l-22 -144l91 -3l-9 -69h-271l6 79l79 4l76 489z" />
    <glyph glyph-name="Q" unicode="Q" horiz-adv-x="753" 
d="M356 74q117 0 188.5 89.5t71.5 224.5q0 88 -47 137.5t-133 49.5q-120 0 -188 -77.5t-68 -216.5q0 -92 46 -149.5t130 -57.5zM609 -152q-36 -13 -77 -13q-71 0 -133 40t-92 111q-117 11 -180.5 90.5t-63.5 202.5q0 178 103 282t282 104q138 0 212.5 -70.5t74.5 -197.5
q0 -158 -87 -270.5t-234 -136.5q58 -67 136 -67q28 0 61 11z" />
    <glyph glyph-name="R" unicode="R" horiz-adv-x="638" 
d="M352 568h-72l-41 -261h79q78 0 123 41.5t45 124.5q0 95 -134 95zM98 576l6 74h279q107 0 164.5 -41.5t57.5 -122.5q0 -86 -46 -147.5t-119 -91.5l92 -166l98 -2l-11 -79h-166l-30 33l-97 191h-100l-23 -152l66 -3l-9 -69h-246l6 79l79 8l76 485z" />
    <glyph glyph-name="S" unicode="S" horiz-adv-x="573" 
d="M465 486l2 62q-39 36 -97 36q-65 0 -103 -28.5t-38 -78.5q0 -33 31.5 -57.5t76 -42t89 -37.5t76 -55.5t31.5 -85.5q0 -99 -73.5 -157t-202.5 -58q-64 0 -117.5 10t-75.5 20l-22 10l21 160l78 5l-2 -103q57 -19 118 -19q79 0 120 32t41 81q0 31 -31 54.5t-76 41
t-89.5 38.5t-75.5 59t-31 91q0 91 68.5 146t175.5 55q67 0 125 -49l21 39h67l-19 -169h-88z" />
    <glyph glyph-name="T" unicode="T" horiz-adv-x="562" 
d="M122 0l6 79l78 4l74 481h-132l-22 -83h-82l30 174l97 -5h361l98 5l-21 -174h-83l3 83h-134l-74 -481l75 -4l-11 -79h-263z" />
    <glyph glyph-name="U" unicode="U" horiz-adv-x="738" 
d="M515 573l6 77h265l-10 -74l-76 -5l-52 -339q-16 -108 -94.5 -178t-216.5 -70q-122 0 -181 56t-59 146q0 14 4 46l53 340l-76 4l5 74h270l-10 -74l-75 -4l-50 -317q-3 -21 -3 -41q0 -61 34 -97t104 -36q82 0 130 48t61 126l49 313z" />
    <glyph glyph-name="V" unicode="V" horiz-adv-x="675" 
d="M508 573l5 77h247l-10 -74l-68 -4l-298 -572h-149l-120 572l-70 4l6 74h253l-11 -74l-61 -4l93 -487h2l245 484z" />
    <glyph glyph-name="W" unicode="W" horiz-adv-x="1024" 
d="M651 0l-82 512l-243 -512h-120l-91 572l-70 4l6 74h252l-10 -74l-62 -4l60 -445h1l239 523h119l80 -521h1l192 439l-67 5l6 77h247l-10 -74l-65 -4l-264 -572h-119z" />
    <glyph glyph-name="X" unicode="X" horiz-adv-x="700" 
d="M65 576l5 74h263l-10 -74l-31 -2l92 -171l146 168l-30 2l11 77h249l-11 -79l-101 -4l-210 -239l142 -246l103 -3l-11 -79h-263l10 74l31 1l-94 173l-147 -170l32 -1l-10 -77h-257l6 79l106 4l215 241l-139 249z" />
    <glyph glyph-name="Y" unicode="Y" horiz-adv-x="643" 
d="M168 0l6 79l79 4l27 178l-154 312l-92 3l5 74h267l-9 -74l-45 -3l104 -215l168 213l-40 2l12 77h244l-12 -79l-91 -3l-242 -305l-28 -180l76 -4l-12 -79h-263z" />
    <glyph glyph-name="Z" unicode="Z" horiz-adv-x="616" 
d="M98 491l26 155l1 4l1 5l97 -5h413l-10 -76l-455 -488h296l22 82l82 -5l-31 -163h-526l11 75l454 489h-277l-17 -73h-87z" />
    <glyph glyph-name="bracketleft" unicode="[" horiz-adv-x="402" 
d="M55 -81l120 786h298l-11 -76h-201l-99 -634h201l-11 -76h-297z" />
    <glyph glyph-name="backslash" unicode="\" horiz-adv-x="494" 
d="M334 -250l-275 1000h100l275 -1000h-100z" />
    <glyph glyph-name="bracketright" unicode="]" horiz-adv-x="402" 
d="M77 629l10 76h297l-121 -786h-297l11 76h202l97 634h-199z" />
    <glyph glyph-name="asciicircum" unicode="^" horiz-adv-x="392" 
d="M85 525l187 167l136 -167l-51 -43l-98 124l-137 -124z" />
    <glyph glyph-name="underscore" unicode="_" horiz-adv-x="739" 
d="M-19 -164l6 81h674l-12 -81h-668z" />
    <glyph glyph-name="grave" unicode="`" horiz-adv-x="249" 
d="M225 579l-76 -7l-102 139l104 12z" />
    <glyph glyph-name="a" unicode="a" horiz-adv-x="607" 
d="M276 66q34 0 65.5 15.5t45 28t20.5 22.5l41 261q-37 42 -104 42q-192 0 -192 -235q0 -64 32.5 -99t91.5 -35zM572 500l-56 -360q-3 -18 -3 -29q0 -32 20 -32l46 2l-4 -74q-60 -14 -116 -14q-30 0 -43.5 12t-13.5 39v9h-1q-2 -3 -6 -7.5t-19.5 -16.5t-33 -21t-47.5 -16.5
t-63 -7.5q-88 0 -140 60.5t-52 158.5q0 138 77.5 225.5t206.5 87.5q45 0 80 -12t47 -24l12 -12h1l23 32h85z" />
    <glyph glyph-name="b" unicode="b" horiz-adv-x="595" 
d="M346 434q-40 0 -72 -16t-44 -32l-13 -16l-41 -265q27 -40 104 -40q66 0 111.5 37t64 91.5t18.5 122.5q0 118 -128 118zM99 671l6 79h171l-46 -293h3l6 6t18 14.5t31 18t44.5 14t58.5 6.5q91 0 143 -52.5t52 -147.5q0 -88 -33.5 -163t-99 -122t-149.5 -47q-44 0 -81 12.5
t-49 22t-19 17.5l-20 -36h-84l103 667z" />
    <glyph glyph-name="c" unicode="c" horiz-adv-x="489" 
d="M393 322l5 83q-24 33 -81 33q-81 0 -122 -52.5t-41 -171.5q0 -71 40 -111t99 -40q36 0 66.5 15t42.5 30l12 15l53 -37q-2 -4 -6 -11t-20 -24.5t-36 -31t-55.5 -24.5t-76.5 -11q-104 0 -168 61t-64 164q0 143 67.5 225t187.5 82q68 0 119 -44l16 33h68l-23 -183h-83z" />
    <glyph glyph-name="d" unicode="d" horiz-adv-x="603" 
d="M276 66q35 0 67.5 15t45 27t18.5 20l41 266q-32 41 -104 41q-192 0 -192 -235q0 -64 32.5 -99t91.5 -35zM436 671l6 79h169l-95 -610q-3 -18 -3 -29q0 -32 20 -32l46 2l-4 -74q-60 -14 -116 -14q-30 0 -44 12.5t-13 42.5h-1q-2 -3 -6 -7t-19.5 -15t-33 -19.5t-47.5 -15.5
t-63 -7q-88 0 -140 60.5t-52 158.5q0 138 74.5 225.5t203.5 87.5q45 0 80 -11t47 -21l12 -11h3l30 194z" />
    <glyph glyph-name="e" unicode="e" horiz-adv-x="517" 
d="M319 438q-62 0 -105.5 -41t-59.5 -117q150 0 207.5 18t57.5 66q0 33 -25.5 53.5t-74.5 20.5zM423 126l55 -39q-2 -4 -6.5 -11t-22.5 -25t-39.5 -31.5t-59 -24.5t-80.5 -11q-103 0 -166 57t-63 160q0 135 82.5 225t207.5 90q82 0 133.5 -40.5t51.5 -106.5
q0 -87 -84.5 -121t-284.5 -35v-12q0 -65 39 -100.5t99 -35.5q42 0 76.5 15t48.5 30z" />
    <glyph glyph-name="f" unicode="f" horiz-adv-x="366" 
d="M403 604l2 56q-25 25 -57 25q-47 0 -73 -41.5t-27 -143.5h163l-12 -84h-163l-103 -666h-106l103 666h-57l6 79l64 5q0 265 191 265q41 0 89 -31l11 21h62l-16 -151h-77z" />
    <glyph glyph-name="g" unicode="g" horiz-adv-x="597" 
d="M284 63q69 0 118 39l43 275q-4 9 -12.5 20t-35.5 25.5t-62 14.5q-181 0 -181 -227q0 -147 130 -147zM39 -228l18 137l73 5l-4 -87q52 -18 101 -18q76 0 120 49t44 143q0 3 -0.5 11t-0.5 12v3h-1q-6 -5 -18 -12t-52 -19t-84 -12q-93 0 -143 61.5t-50 163.5q0 139 76.5 223
t195.5 84q32 0 59 -6.5t42 -16t25 -19t14 -16.5l3 -6h3l18 48h94l-72 -468q0 -4 0.5 -11t0.5 -10q0 -133 -80 -205t-200 -72q-56 0 -101.5 9.5t-63.5 18.5z" />
    <glyph glyph-name="h" unicode="h" horiz-adv-x="600" 
d="M400 76l42 260q2 16 2 21q0 68 -95 68q-74 0 -131 -43l-59 -382h-109l103 667l-53 4l5 79h170l-44 -286h2l3 3q4 3 11.5 7.5t17.5 10t24 11t30 10t37 7.5t43 3q157 0 157 -126q0 -16 -3 -36l-38 -242q1 -33 21 -33l46 2l-5 -74q-59 -14 -116 -14q-63 0 -63 59q0 6 2 24z
" />
    <glyph glyph-name="i" unicode="i" horiz-adv-x="273" 
d="M219 708q56 0 56 -51q0 -27 -19.5 -48.5t-53.5 -21.5q-25 0 -41.5 14t-16.5 37q0 27 20.5 48.5t54.5 21.5zM67 421l6 79h169l-59 -382v-7q0 -32 21 -32l45 2l-4 -74q-60 -14 -116 -14q-32 0 -47.5 13.5t-15.5 44.5q0 7 2 25l52 341z" />
    <glyph glyph-name="j" unicode="j" horiz-adv-x="271" 
d="M224 708q56 0 56 -51q0 -27 -19.5 -48.5t-53.5 -21.5q-25 0 -41.5 14t-16.5 37q0 27 20.5 48.5t54.5 21.5zM73 421l6 79h168l-82 -531q-18 -116 -77.5 -175.5t-128.5 -59.5q-35 0 -58 5t-29 11l-6 5l35 85q26 -11 59 -11q31 0 58 36.5t38 103.5l69 448z" />
    <glyph glyph-name="k" unicode="k" horiz-adv-x="550" 
d="M355 438q-61 0 -140 -74l-21 -138q39 3 74.5 10t75.5 22t64 43.5t24 67.5q0 69 -77 69zM418 -7q-34 0 -65.5 44t-75.5 134q-33 -7 -94 -13l-24 -158h-109l103 667l-53 4l5 79h170l-45 -292q80 58 158 58q71 0 111 -34t40 -94q0 -123 -156 -186q65 -123 90 -123l49 2
l-5 -74q-44 -14 -99 -14z" />
    <glyph glyph-name="l" unicode="l" horiz-adv-x="267" 
d="M99 671l7 79h170l-99 -632q-1 -39 21 -39l45 2l-4 -74q-59 -14 -116 -14q-63 0 -63 58q0 7 2 25l92 591z" />
    <glyph glyph-name="m" unicode="m" horiz-adv-x="849" 
d="M651 76h1l42 272q2 10 2 26q0 30 -16 41.5t-52 11.5q-66 0 -113 -43q0 -6 -2 -18l-56 -366h-109l55 348q2 18 2 25q0 31 -15.5 42.5t-50.5 11.5q-66 0 -115 -43l-59 -384h-109l64 417l-53 4l6 79h156l2 -44q60 60 156 60t120 -59q66 59 171 59q67 0 99 -26t32 -83
q0 -11 -4 -43l-39 -252q0 -33 20 -33l46 2l-5 -74q-59 -14 -116 -14q-62 0 -62 58q0 7 2 25z" />
    <glyph glyph-name="n" unicode="n" horiz-adv-x="606" 
d="M404 52q0 18 22.5 155t22.5 152q0 66 -94 66q-77 0 -132 -44l-58 -381h-109l64 417l-53 4l6 79h156l3 -40q64 56 174 56q156 0 156 -123q0 -17 -3 -38l-38 -243q1 -33 21 -33l46 2l-4 -74q-60 -14 -116 -14q-64 0 -64 59z" />
    <glyph glyph-name="o" unicode="o" horiz-adv-x="571" 
d="M270 61q86 0 132.5 64t46.5 181q0 63 -30 97.5t-89 34.5q-87 0 -132.5 -61t-45.5 -179q0 -64 30 -100.5t88 -36.5zM259 -16q-107 0 -162.5 58.5t-55.5 161.5q0 144 78.5 228t221.5 84q107 0 163.5 -56t56.5 -156q0 -142 -82 -231t-220 -89z" />
    <glyph glyph-name="p" unicode="p" horiz-adv-x="598" 
d="M220 370l-41 -265q34 -40 105 -40q93 0 143.5 67t50.5 186q0 62 -32 89t-95 27q-38 0 -70.5 -16t-46.5 -32zM67 421l6 79h155l1 -53q2 3 6.5 7.5t20 16.5t34 21t48.5 16.5t63 7.5q89 0 139 -52t50 -145q0 -138 -77 -236.5t-203 -98.5q-45 0 -80 10.5t-48 21.5l-12 11h-3
l-43 -277h-108l104 667z" />
    <glyph glyph-name="q" unicode="q" horiz-adv-x="598" 
d="M277 66q36 0 67.5 14.5t43 25.5t19.5 22l40 266q-32 41 -102 41q-98 0 -145 -58t-47 -178q0 -65 32 -99t92 -34zM360 -174l34 222h-2q-2 -3 -6 -7t-18 -15t-31 -19.5t-45.5 -15.5t-59.5 -7q-88 0 -139.5 60.5t-51.5 158.5q0 138 77.5 225.5t206.5 87.5q43 0 77.5 -12
t47.5 -24l13 -12l25 32h84l-97 -630v-7q0 -34 19 -34l46 2l-4 -74q-60 -14 -116 -14q-62 0 -62 58q0 7 2 25z" />
    <glyph glyph-name="r" unicode="r" horiz-adv-x="436" 
d="M363 332l-2 96q-8 1 -23 1q-33 0 -61.5 -16.5t-40 -30.5t-16.5 -25l-55 -357h-109l64 417l-64 4l6 79h156v-69h2l6 9t17.5 20.5t29.5 26t43 20.5t56 9q20 0 41.5 -4t32.5 -8l11 -4l-19 -168h-75z" />
    <glyph glyph-name="s" unicode="s" horiz-adv-x="480" 
d="M385 359l-3 48q-44 33 -95 33q-39 0 -64.5 -17t-25.5 -47q0 -26 25.5 -44t61.5 -30.5t72 -27t61.5 -42.5t25.5 -68q0 -79 -60.5 -129.5t-188.5 -50.5q-46 0 -86 6t-57 12l-17 7l10 137l68 5l-3 -78q46 -13 95 -13q60 0 92 24.5t32 60.5q0 24 -25 42t-60.5 31t-71 29
t-60.5 45.5t-25 71.5q0 73 53.5 112.5t136.5 39.5q61 0 121 -42l16 31h55l-16 -146h-67z" />
    <glyph glyph-name="t" unicode="t" horiz-adv-x="374" 
d="M67 416l5 79l65 4l38 163h96l-26 -162h142l-12 -84h-143l-39 -254q-3 -19 -3 -34q0 -27 12 -39t38 -12q19 0 38.5 2.5t29.5 4.5l9 2l-9 -71q-34 -24 -115 -24q-59 0 -87.5 23.5t-28.5 77.5q0 22 4 45l43 279h-57z" />
    <glyph glyph-name="u" unicode="u" horiz-adv-x="602" 
d="M396 421l6 79h170l-59 -379v-8q0 -34 19 -34l45 2l-4 -74q-59 -14 -116 -14q-29 0 -42 11t-14 37h-4q-6 -6 -18.5 -15.5t-58 -25.5t-98.5 -16q-75 0 -114.5 37t-39.5 105q0 20 3 39l38 252l-53 4l6 79h170l-50 -314q-2 -16 -2 -24q0 -40 23.5 -63.5t69.5 -23.5
q36 0 69 11t48 22l14 11l46 298z" />
    <glyph glyph-name="v" unicode="v" horiz-adv-x="526" 
d="M386 423l6 77h178q-53 -211 -291 -500h-100l-94 417l-68 4l6 79h166l77 -386h3q113 144 178 301z" />
    <glyph glyph-name="w" unicode="w" horiz-adv-x="781" 
d="M14 421l6 79h156l38 -370h2l160 370h103l73 -370h2q92 130 146 284l-66 9l6 77h178q-51 -245 -247 -500h-104l-57 365l-171 -365h-112l-53 418z" />
    <glyph glyph-name="x" unicode="x" horiz-adv-x="566" 
d="M392 429l1 71h172l-8 -50q-1 -5 -28 -38.5t-71 -83t-84 -89.5q38 -69 71.5 -114.5t49.5 -45.5l60 2l-4 -74q-56 -14 -112 -14q-63 0 -165 212h-4q-73 -73 -117 -124l36 -4l-11 -77h-167l8 50q5 10 79 87.5t128 129.5l-87 151l-92 3l3 79h166l104 -200h1q75 73 114 123z
" />
    <glyph glyph-name="y" unicode="y" 
d="M19 421l6 79h162l98 -393h2q104 157 165 308l-61 8l6 77h165l-4 -51q-49 -154 -248 -442q-11 -116 -73 -194.5t-162 -78.5q-35 0 -63 6t-38 12l-11 6l19 151l72 5l-3 -100q17 -5 31 -5q29 0 50.5 14.5t35 43.5t21.5 60.5t14 75.5l-114 414z" />
    <glyph glyph-name="z" unicode="z" horiz-adv-x="498" 
d="M77 348l29 162l86 -10h307l-5 -72l-314 -332q15 -2 79.5 -13t102.5 -14l24 93l76 -5l-30 -172q-74 0 -181.5 17t-141.5 19l-52 -37l-54 64l357 371h-189l-17 -71h-77z" />
    <glyph glyph-name="braceleft" unicode="{" horiz-adv-x="440" 
d="M361 -89l-11 -75q-111 0 -157 30.5t-46 90.5q0 49 31.5 122t31.5 100q0 31 -30 50.5t-62 19.5l12 86q39 0 79 28t40 79q0 18 -3 60t-3 63q0 45 9.5 75.5t35 56.5t76 38.5t126.5 12.5l-10 -75q-84 0 -115 -32.5t-31 -96.5q0 -20 3 -61.5t3 -59.5q0 -82 -80 -132
q48 -35 48 -85q0 -36 -31.5 -107t-31.5 -110q0 -78 116 -78z" />
    <glyph glyph-name="bar" unicode="|" horiz-adv-x="355" 
d="M60 -250l155 1000h98l-155 -1000h-98z" />
    <glyph glyph-name="braceright" unicode="}" horiz-adv-x="440" 
d="M-11 -164l11 75q84 0 115 32.5t31 96.5q0 20 -3 61t-3 60q0 82 79 131q-47 36 -47 86q0 36 31 107t31 110q0 78 -114 78l10 75q110 0 156 -30.5t46 -90.5q0 -49 -31 -122t-31 -100q0 -31 30 -50.5t61 -19.5l-1 -5h1l-11 -81q-39 0 -79 -28t-40 -79q0 -17 3 -59.5t3 -63.5
q0 -45 -9.5 -75.5t-35.5 -56.5t-76 -38.5t-127 -12.5z" />
    <glyph glyph-name="asciitilde" unicode="~" horiz-adv-x="667" 
d="M90 278l-45 51q3 4 8 11.5t24 26t40.5 33t56.5 26t73 11.5q49 0 88.5 -13.5t61 -29t55.5 -29t74 -13.5q30 0 55.5 10t35.5 20l10 11l37 -46q-2 -4 -7 -11t-22 -24.5t-36.5 -31t-51 -24.5t-65.5 -11q-44 0 -80.5 13t-58.5 28t-58.5 28t-79.5 13q-35 0 -63.5 -12.5
t-39.5 -24.5z" />
    <glyph glyph-name="nbspace" unicode="&#xa0;" horiz-adv-x="377" 
 />
    <glyph glyph-name="exclamdown" unicode="&#xa1;" horiz-adv-x="338" 
d="M197 390q-27 0 -42.5 14.5t-15.5 38.5q0 30 22.5 49.5t53.5 19.5q26 0 42 -14.5t16 -38.5q0 -27 -21.5 -48t-54.5 -21zM40 -250l13 87l84 443h87l-56 -443l-13 -87h-115z" />
    <glyph glyph-name="cent" unicode="&#xa2;" horiz-adv-x="489" 
d="M201 -50l11 109q-77 17 -122 75t-45 143q0 133 59 214t164 91l19 118h81l-14 -124q37 -11 65 -36l16 33h68l-23 -183h-83l5 83q-24 33 -81 33q-81 0 -122 -52.5t-41 -171.5q0 -71 40 -111t99 -40q36 0 66.5 15t42.5 30l12 15l53 -37q-2 -4 -5.5 -10t-18 -22.5t-32.5 -30
t-49.5 -25t-67.5 -14.5l-16 -102h-81z" />
    <glyph glyph-name="sterling" unicode="&#xa3;" horiz-adv-x="591" 
d="M484 498l2 51q-34 29 -78 29q-94 0 -110 -107q-7 -37 -17 -121h247l-11 -83h-248q-19 -116 -59 -177h263l21 68l73 -5l-28 -153h-520l13 90h43q71 42 85 177l-100 2l7 81h100q4 75 12 125q13 88 67.5 139t139.5 51q60 0 116 -44l15 34h62l-17 -157h-78z" />
    <glyph glyph-name="currency" unicode="&#xa4;" horiz-adv-x="622" 
d="M311 195q57 0 95 39t38 102q0 45 -26 71t-69 26q-58 0 -95 -38t-37 -101q0 -46 25 -72.5t69 -26.5zM71 56l-33 50l127 100q-19 36 -19 82q0 79 50 137l-93 99l49 50l88 -110q54 35 119 35q61 0 102 -36l126 110l34 -49l-128 -100q21 -37 21 -83q0 -79 -51 -138l92 -98
l-48 -50l-88 109q-54 -35 -117 -35t-105 36z" />
    <glyph glyph-name="yen" unicode="&#xa5;" horiz-adv-x="643" 
d="M129 294l4 63h99l-106 216l-92 3l5 74h267l-9 -74l-45 -3l104 -215l168 213l-40 2l12 77h244l-12 -79l-91 -3l-168 -211h94l-8 -63h-136l-24 -31l-6 -39h155l-8 -63h-157l-12 -78l76 -4l-12 -79h-263l6 79l79 4l12 78h-155l4 63h160l6 37l-17 33h-134z" />
    <glyph glyph-name="brokenbar" unicode="&#xa6;" horiz-adv-x="355" 
d="M152 350l63 400h98l-63 -400h-98zM60 -250l62 400h98l-62 -400h-98z" />
    <glyph glyph-name="section" unicode="&#xa7;" horiz-adv-x="565" 
d="M181 313q0 -35 33 -56t94.5 -40.5t88.5 -33.5q46 29 46 83q0 31 -34 50.5t-95 39t-91 37.5q-42 -27 -42 -80zM447 503l2 54q-32 30 -79 30q-55 0 -78.5 -26.5t-23.5 -58.5q0 -28 27.5 -47t67 -32t79.5 -28.5t67.5 -45t27.5 -72.5q0 -81 -89 -139q14 -22 14 -49
q0 -175 -237 -175q-57 0 -100 6t-57 12l-15 7l18 156l77 5v-103q42 -4 77 -4q68 0 94.5 25t26.5 59q0 26 -26.5 44t-65 30t-76.5 27.5t-64.5 46.5t-26.5 76q0 82 85 136q-20 28 -20 66q0 65 50.5 113.5t145.5 48.5q57 0 120 -41l17 31h61l-17 -152h-82z" />
    <glyph glyph-name="dieresis" unicode="&#xa8;" horiz-adv-x="447" 
d="M144 594q-22 0 -35.5 13t-13.5 33q0 25 17 42.5t46 17.5q23 0 36.5 -12.5t13.5 -32.5q0 -24 -18 -42.5t-46 -18.5zM335 594q-19 0 -34 10.5t-15 35.5q0 24 17.5 42t46.5 18q23 0 36 -12t13 -33q0 -24 -18 -42.5t-46 -18.5z" />
    <glyph glyph-name="copyright" unicode="&#xa9;" horiz-adv-x="836" 
d="M505 360l2 56q-19 21 -53 21q-50 0 -80.5 -32t-30.5 -97q0 -48 27 -76.5t70 -28.5q28 0 53.5 11t37.5 22l12 12l24 -45q-6 -7 -16.5 -18t-46 -29t-75.5 -18q-72 0 -117 45.5t-45 123.5q0 88 51 140t131 52q46 0 73 -29l14 25l50 -1l-16 -134h-65zM402 43q71 0 127 23
t89.5 58.5t55.5 81.5t30 87.5t8 82.5q0 107 -64.5 168.5t-176.5 61.5q-145 0 -226.5 -89.5t-81.5 -242.5q0 -107 64 -169t175 -62zM786 382q0 -44 -8.5 -90.5t-34.5 -103.5t-67 -100.5t-114 -73.5t-168 -30q-143 0 -223.5 79.5t-80.5 210.5q0 180 102.5 285.5t286.5 105.5
q144 0 225.5 -77t81.5 -206z" />
    <glyph glyph-name="ordfeminine" unicode="&#xaa;" horiz-adv-x="453" 
d="M231 367q60 0 94 56l10 68q-82 -6 -127 -23t-45 -57q0 -44 68 -44zM327 320l-8 48q-6 -8 -16 -18.5t-43 -25.5t-73 -15q-122 0 -122 88q0 126 277 142l2 14q1 6 1 16q0 50 -72 50q-30 0 -58 -9t-41 -18l-14 -9l-26 45l5.5 5.5t17.5 13t31 16.5t46 12.5t62 5.5
q147 0 147 -103q0 -18 -2 -28l-35 -230h-79z" />
    <glyph glyph-name="guillemotleft" unicode="&#xab;" horiz-adv-x="576" 
d="M446 67l-149 183l204 177l37 -48l-144 -131l103 -130zM250 67l-149 183l204 177l37 -48l-144 -131l103 -130z" />
    <glyph glyph-name="logicalnot" unicode="&#xac;" horiz-adv-x="531" 
d="M70 276l12 81h415l-11 -81h-1l-24 -165h-86l25 165h-330z" />
    <glyph glyph-name="uni00AD" unicode="&#xad;" horiz-adv-x="373" 
d="M52 236l7 81h288l-12 -81h-283z" />
    <glyph glyph-name="registered" unicode="&#xae;" horiz-adv-x="730" 
d="M423 555h-46l-17 -113h44q36 0 59.5 18t23.5 54q0 41 -64 41zM448 285l-46 118h-48l-18 -117h-59l49 313h102q123 0 123 -79q0 -84 -86 -109l49 -126h-66zM641 443q5 33 5 57q0 95 -56.5 148.5t-156.5 53.5q-131 0 -201 -85t-70 -226q0 -97 55.5 -150t155.5 -53
q114 0 181.5 65.5t86.5 189.5zM719 502q0 -42 -9 -87.5t-34.5 -98t-63.5 -93t-102 -67.5t-145 -27q-130 0 -203 71t-73 190q0 164 96 266t256 102q127 0 202.5 -69.5t75.5 -186.5z" />
    <glyph glyph-name="macron" unicode="&#xaf;" horiz-adv-x="465" 
d="M186 625l8 57h226l-8 -57h-226z" />
    <glyph glyph-name="degree" unicode="&#xb0;" horiz-adv-x="472" 
d="M275 451q55 0 88.5 39t33.5 108q0 42 -21.5 66t-62.5 24q-56 0 -88.5 -39.5t-32.5 -110.5q0 -40 21.5 -63.5t61.5 -23.5zM265 374q-79 0 -121 43.5t-42 117.5q0 101 61 164.5t161 63.5q76 0 119 -44t43 -119q0 -99 -60 -162.5t-161 -63.5z" />
    <glyph glyph-name="plusminus" unicode="&#xb1;" horiz-adv-x="560" 
d="M26 131l6 81h496l-11 -81h-491zM119 485l6 81h172l26 167h85l-26 -167h164l-11 -81h-165l-25 -167h-86l26 167h-166z" />
    <glyph glyph-name="twosuperior" unicode="&#xb2;" horiz-adv-x="476" 
d="M123 611l25 144h56l6 -34q61 42 123 42q72 0 109 -37.5t37 -97.5q0 -143 -279 -313h170l16 50l68 -4l-24 -131h-376l12 82q7 3 51.5 32.5t102.5 74t103.5 100.5t45.5 99q0 65 -77 65q-50 0 -89 -34l-10 -38h-70z" />
    <glyph glyph-name="threesuperior" unicode="&#xb3;" horiz-adv-x="474" 
d="M279 465q-39 0 -59 -20l-39 47l178 175h-148l-14 -55h-67l25 143l79 -5h253l-9 -57l-165 -158q61 -1 100 -37t39 -95q0 -89 -67.5 -138t-175.5 -49q-40 0 -74.5 6t-49.5 12l-15 7l13 117l67 4l-1 -61q34 -8 66 -8q67 0 103.5 28.5t36.5 74.5q1 32 -19 50.5t-57 18.5z" />
    <glyph glyph-name="acute" unicode="&#xb4;" horiz-adv-x="250" 
d="M188 572l-73 5l116 145l103 -11z" />
    <glyph glyph-name="uni00B5" unicode="&#xb5;" horiz-adv-x="612" 
d="M406 421l6 79h170l-59 -379v-8q0 -34 19 -34l45 2l-4 -74q-59 -14 -116 -14q-29 0 -42 11t-14 37h-4q-6 -6 -18.5 -15.5t-58 -25.5t-98.5 -16q-39 0 -70 11l-37 -245h-109l63 399q0 6 2 16l38 252l-53 4l6 79h170l-50 -314q-2 -16 -2 -24q0 -40 23.5 -63.5t69.5 -23.5
q36 0 69 11t48 22l14 11l46 298z" />
    <glyph glyph-name="paragraph" unicode="&#xb6;" horiz-adv-x="746" 
d="M491 0l86 558h-102l-88 -558h-107l38 239q-234 0 -234 182q0 118 73.5 173.5t244.5 55.5h368l-12 -92h-71l-86 -558h-110z" />
    <glyph glyph-name="periodcentered" unicode="&#xb7;" horiz-adv-x="298" 
d="M162 288q-27 0 -42.5 14.5t-15.5 38.5q0 30 22.5 49.5t53.5 19.5q26 0 42 -14.5t16 -38.5q0 -27 -21.5 -48t-54.5 -21z" />
    <glyph glyph-name="cedilla" unicode="&#xb8;" horiz-adv-x="271" 
d="M-25 -213l24 41q29 -29 74 -29q68 0 68 54q0 13 -8.5 23t-20.5 15.5t-24 9t-20 5.5t-8 4l25 88h54l-16 -60q0 -1 22.5 -8t46 -26t23.5 -49q0 -48 -34.5 -77t-98.5 -29q-33 0 -60 9.5t-37 19.5z" />
    <glyph glyph-name="onesuperior" unicode="&#xb9;" horiz-adv-x="476" 
d="M176 606l-20 70l160 74h83l-69 -445l93 -3l-15 -72h-289l5 73l108 7l54 346z" />
    <glyph glyph-name="ordmasculine" unicode="&#xba;" horiz-adv-x="488" 
d="M180 458q0 -91 90 -91q130 0 130 164q0 88 -90 88q-130 0 -130 -161zM80 463q0 100 61.5 159t177.5 59q89 0 135 -40.5t46 -113.5q0 -100 -63 -159t-176 -59q-90 0 -135.5 40.5t-45.5 113.5z" />
    <glyph glyph-name="guillemotright" unicode="&#xbb;" horiz-adv-x="575" 
d="M289 67l-39 49l144 129l-102 132l51 50l149 -182zM91 67l-39 49l144 129l-102 132l51 50l149 -182z" />
    <glyph glyph-name="onequarter" unicode="&#xbc;" horiz-adv-x="942" 
d="M455 -120l4 60q110 157 178 326l92 -11q-61 -143 -165 -301h144l18 107l32 117h85l-36 -224h58l-9 -68l-60 -5l-12 -75l42 -4l-9 -67h-191l5 67l53 3l12 75h-241zM281 13l454 580l60 -36l-453 -580zM176 606l-20 70l160 74h83l-69 -445l93 -3l-15 -72h-289l5 73l108 7
l54 346z" />
    <glyph glyph-name="onehalf" unicode="&#xbd;" horiz-adv-x="1004" 
d="M574 116l25 144h56l6 -34q61 42 123 42q72 0 109 -37.5t37 -97.5q0 -143 -279 -313h170l16 50l68 -4l-24 -131h-376l12 82q7 3 51.5 32.5t102.5 74t103.5 100.5t45.5 99q0 65 -77 65q-50 0 -89 -34l-10 -38h-70zM281 13l454 580l60 -36l-453 -580zM176 606l-20 70l160 74
h83l-69 -445l93 -3l-15 -72h-289l5 73l108 7l54 346z" />
    <glyph glyph-name="threequarters" unicode="&#xbe;" horiz-adv-x="927" 
d="M441 -120l4 60q110 157 178 326l92 -11q-61 -143 -165 -301h144l18 107l32 117h85l-36 -224h58l-9 -68l-60 -5l-12 -75l42 -4l-9 -67h-191l5 67l53 3l12 75h-241zM267 13l454 580l60 -36l-453 -580zM279 465q-39 0 -59 -20l-39 47l178 175h-148l-14 -55h-67l25 143l79 -5
h253l-9 -57l-165 -158q61 -1 100 -37t39 -95q0 -89 -67.5 -138t-175.5 -49q-40 0 -74.5 6t-49.5 12l-15 7l13 117l67 4l-1 -61q34 -8 66 -8q67 0 103.5 28.5t36.5 74.5q1 32 -19 50.5t-57 18.5z" />
    <glyph glyph-name="questiondown" unicode="&#xbf;" horiz-adv-x="484" 
d="M335 390q-27 0 -42.5 14.5t-15.5 38.5q0 30 22.5 49.5t53.5 19.5q26 0 42 -14.5t16 -38.5q0 -27 -21.5 -48t-54.5 -21zM387 -81l-30 -166q-55 -19 -142 -19q-104 0 -160.5 40t-56.5 106q0 46 16 81t41.5 57t56.5 40t62.5 35.5t57 37t41.5 51t16 71.5q0 14 -1 22l62 5
q4 -25 4 -51q0 -49 -18 -86.5t-45.5 -58t-59 -41t-59 -37t-45.5 -44t-18 -63.5q0 -35 26.5 -57.5t85.5 -22.5q24 0 66 8l23 98z" />
    <glyph glyph-name="Agrave" unicode="&#xc0;" horiz-adv-x="705" 
d="M481 714l-76 -7l-102 139l104 12zM404 560l-153 -297h212zM-33 0l7 79l75 4l300 567h150l124 -573l71 -3l-10 -74h-249l9 64l63 3l-29 124h-265l-65 -120l64 -4l-9 -67h-236z" />
    <glyph glyph-name="Aacute" unicode="&#xc1;" horiz-adv-x="705" 
d="M454 707l-73 5l116 145l103 -11zM404 560l-153 -297h212zM-33 0l7 79l75 4l300 567h150l124 -573l71 -3l-10 -74h-249l9 64l63 3l-29 124h-265l-65 -120l64 -4l-9 -67h-236z" />
    <glyph glyph-name="Acircumflex" unicode="&#xc2;" horiz-adv-x="705" 
d="M308 723l-25 62l146 97h59l115 -97l-42 -62l-113 87zM404 560l-153 -297h212zM-33 0l7 79l75 4l300 567h150l124 -573l71 -3l-10 -74h-249l9 64l63 3l-29 124h-265l-65 -120l64 -4l-9 -67h-236z" />
    <glyph glyph-name="Atilde" unicode="&#xc3;" horiz-adv-x="705" 
d="M272 741l-5 61q1 2 3.5 5.5t12 13t20.5 16.5t30.5 12.5t41.5 5.5q41 0 94 -26t80 -26q20 0 37.5 5t25.5 10l7 5l5 -55l-2.5 -5t-8.5 -10.5t-16.5 -13t-27 -10.5t-39.5 -5q-37 0 -90.5 24.5t-83.5 24.5q-20 0 -41 -8t-32 -16zM404 560l-153 -297h212zM-33 0l7 79l75 4
l300 567h150l124 -573l71 -3l-10 -74h-249l9 64l63 3l-29 124h-265l-65 -120l64 -4l-9 -67h-236z" />
    <glyph glyph-name="Adieresis" unicode="&#xc4;" horiz-adv-x="705" 
d="M340 729q-22 0 -35.5 13t-13.5 33q0 25 17 42.5t46 17.5q23 0 36.5 -12.5t13.5 -32.5q0 -24 -18 -42.5t-46 -18.5zM531 729q-19 0 -34 10.5t-15 35.5q0 24 17.5 42t46.5 18q23 0 36 -12t13 -33q0 -24 -18 -42.5t-46 -18.5zM404 560l-153 -297h212zM-33 0l7 79l75 4
l300 567h150l124 -573l71 -3l-10 -74h-249l9 64l63 3l-29 124h-265l-65 -120l64 -4l-9 -67h-236z" />
    <glyph glyph-name="Aring" unicode="&#xc5;" horiz-adv-x="705" 
d="M440 768q29 0 48.5 20.5t19.5 51.5q0 23 -13.5 37.5t-34.5 14.5q-28 0 -48.5 -20.5t-20.5 -51.5q0 -23 13.5 -37.5t35.5 -14.5zM434 720q-44 0 -69 25.5t-25 67.5q0 54 37 90t90 36q40 0 66 -26.5t26 -67.5q0 -53 -36 -89t-89 -36zM404 560l-153 -297h212zM-33 0l7 79
l75 4l300 567h150l124 -573l71 -3l-10 -74h-249l9 64l63 3l-29 124h-265l-65 -120l64 -4l-9 -67h-236z" />
    <glyph glyph-name="AE" unicode="&#xc6;" horiz-adv-x="920" 
d="M268 263h182l46 301h-8zM824 491l4 73h-218l-31 -195l279 1l-12 -83h-280l-31 -201h244l22 82l82 -5l-30 -163h-516l3 59l79 4l20 128h-224l-98 -127l53 -3l-8 -61h-247l6 79l97 3l384 488l-81 3l6 77h507l98 5l-19 -164h-89z" />
    <glyph glyph-name="Ccedilla" unicode="&#xc7;" horiz-adv-x="659" 
d="M190 -213l24 41q29 -29 74 -29q68 0 68 54q0 13 -8.5 23t-20.5 15.5t-24 9t-20 5.5t-8 4l23 81q-109 21 -171.5 98.5t-62.5 193.5q0 167 100 274.5t255 107.5q84 0 154 -53l22 43h66l-30 -238h-84l10 119q-57 39 -128 39q-108 0 -177.5 -76t-69.5 -219q0 -97 58 -151
t148 -54q56 0 106 22t72 44l22 22l44 -60q-3 -5 -9.5 -13t-30 -28.5t-50.5 -36t-72.5 -28.5t-95.5 -13q-16 0 -24 1l-12 -47q0 -1 22.5 -8t46 -26t23.5 -49q0 -48 -34.5 -77t-98.5 -29q-33 0 -60 9.5t-37 19.5z" />
    <glyph glyph-name="Egrave" unicode="&#xc8;" horiz-adv-x="605" 
d="M455 714l-76 -7l-102 139l104 12zM501 491l4 73h-218l-31 -195l279 1l-12 -83h-280l-31 -201h244l22 82l82 -5l-31 -163h-515l6 79l79 4l76 489l-77 4l6 74h407l98 5l-19 -164h-89z" />
    <glyph glyph-name="Eacute" unicode="&#xc9;" horiz-adv-x="605" 
d="M427 707l-73 5l116 145l103 -11zM501 491l4 73h-218l-31 -195l279 1l-12 -83h-280l-31 -201h244l22 82l82 -5l-31 -163h-515l6 79l79 4l76 489l-77 4l6 74h407l98 5l-19 -164h-89z" />
    <glyph glyph-name="Ecircumflex" unicode="&#xca;" horiz-adv-x="605" 
d="M281 723l-25 62l146 97h59l115 -97l-42 -62l-113 87zM501 491l4 73h-218l-31 -195l279 1l-12 -83h-280l-31 -201h244l22 82l82 -5l-31 -163h-515l6 79l79 4l76 489l-77 4l6 74h407l98 5l-19 -164h-89z" />
    <glyph glyph-name="Edieresis" unicode="&#xcb;" horiz-adv-x="605" 
d="M312 729q-22 0 -35.5 13t-13.5 33q0 25 17 42.5t46 17.5q23 0 36.5 -12.5t13.5 -32.5q0 -24 -18 -42.5t-46 -18.5zM503 729q-19 0 -34 10.5t-15 35.5q0 24 17.5 42t46.5 18q23 0 36 -12t13 -33q0 -24 -18 -42.5t-46 -18.5zM501 491l4 73h-218l-31 -195l279 1l-12 -83
h-280l-31 -201h244l22 82l82 -5l-31 -163h-515l6 79l79 4l76 489l-77 4l6 74h407l98 5l-19 -164h-89z" />
    <glyph glyph-name="Igrave" unicode="&#xcc;" horiz-adv-x="346" 
d="M300 714l-76 -7l-102 139l104 12zM98 576l6 74h270l-11 -79l-75 -4l-76 -489l76 -4l-11 -74h-263l6 79l79 4l76 489z" />
    <glyph glyph-name="Iacute" unicode="&#xcd;" horiz-adv-x="346" 
d="M273 707l-73 5l116 145l103 -11zM98 576l6 74h270l-11 -79l-75 -4l-76 -489l76 -4l-11 -74h-263l6 79l79 4l76 489z" />
    <glyph glyph-name="Icircumflex" unicode="&#xce;" horiz-adv-x="346" 
d="M126 723l-25 62l146 97h59l115 -97l-42 -62l-113 87zM98 576l6 74h270l-11 -79l-75 -4l-76 -489l76 -4l-11 -74h-263l6 79l79 4l76 489z" />
    <glyph glyph-name="Idieresis" unicode="&#xcf;" horiz-adv-x="346" 
d="M158 729q-22 0 -35.5 13t-13.5 33q0 25 17 42.5t46 17.5q23 0 36.5 -12.5t13.5 -32.5q0 -24 -18 -42.5t-46 -18.5zM349 729q-19 0 -34 10.5t-15 35.5q0 24 17.5 42t46.5 18q23 0 36 -12t13 -33q0 -24 -18 -42.5t-46 -18.5zM98 576l6 74h270l-11 -79l-75 -4l-76 -489
l76 -4l-11 -74h-263l6 79l79 4l76 489z" />
    <glyph glyph-name="Eth" unicode="&#xd0;" horiz-adv-x="749" 
d="M406 560h-119l-32 -202h181l-10 -71h-182l-30 -197h129q126 0 198 76t72 222q0 86 -54 129t-153 43zM39 287l6 71h96l34 214l-77 4l6 74h314q149 0 231 -65t82 -193q0 -181 -105 -286.5t-297 -105.5h-315l6 79l79 4l31 204h-91z" />
    <glyph glyph-name="Ntilde" unicode="&#xd1;" horiz-adv-x="790" 
d="M321 741l-5 61q1 2 3.5 5.5t12 13t20.5 16.5t30.5 12.5t41.5 5.5q41 0 94 -26t80 -26q20 0 37.5 5t24.5 10l8 5l5 -55l-2.5 -5t-8.5 -10.5t-16.5 -13t-27 -10.5t-39.5 -5q-37 0 -90.5 24.5t-83.5 24.5q-20 0 -41 -8t-32 -16zM539 -5l-274 493h-2l-2 -43l-59 -364l77 -4
l-11 -77h-254l6 79l79 4l76 489l-77 4l6 74h201l270 -502h1l1 33l62 387l-77 5l5 77h262l-11 -79l-74 -4l-89 -572h-116z" />
    <glyph glyph-name="Ograve" unicode="&#xd2;" horiz-adv-x="753" 
d="M505 714l-76 -7l-102 139l104 12zM356 74q65 0 116.5 30.5t82 79t46 103t15.5 108.5q0 87 -46.5 133.5t-133.5 46.5q-120 0 -188 -77.5t-68 -216.5q0 -92 46 -149.5t130 -57.5zM735 405q0 -72 -23.5 -143.5t-69 -135t-123.5 -103t-176 -39.5q-133 0 -206.5 81.5
t-73.5 213.5q0 178 103 282t282 104q138 0 212.5 -68.5t74.5 -191.5z" />
    <glyph glyph-name="Oacute" unicode="&#xd3;" horiz-adv-x="753" 
d="M477 707l-73 5l116 145l103 -11zM356 74q65 0 116.5 30.5t82 79t46 103t15.5 108.5q0 87 -46.5 133.5t-133.5 46.5q-120 0 -188 -77.5t-68 -216.5q0 -92 46 -149.5t130 -57.5zM735 405q0 -72 -23.5 -143.5t-69 -135t-123.5 -103t-176 -39.5q-133 0 -206.5 81.5
t-73.5 213.5q0 178 103 282t282 104q138 0 212.5 -68.5t74.5 -191.5z" />
    <glyph glyph-name="Ocircumflex" unicode="&#xd4;" horiz-adv-x="753" 
d="M330 723l-25 62l146 97h59l115 -97l-42 -62l-113 87zM356 74q65 0 116.5 30.5t82 79t46 103t15.5 108.5q0 87 -46.5 133.5t-133.5 46.5q-120 0 -188 -77.5t-68 -216.5q0 -92 46 -149.5t130 -57.5zM735 405q0 -72 -23.5 -143.5t-69 -135t-123.5 -103t-176 -39.5
q-133 0 -206.5 81.5t-73.5 213.5q0 178 103 282t282 104q138 0 212.5 -68.5t74.5 -191.5z" />
    <glyph glyph-name="Otilde" unicode="&#xd5;" horiz-adv-x="753" 
d="M295 741l-5 61q1 2 3.5 5.5t12 13t20.5 16.5t30.5 12.5t41.5 5.5q41 0 94 -26t80 -26q20 0 37.5 5t24.5 10l8 5l5 -55l-2.5 -5t-8.5 -10.5t-16.5 -13t-27 -10.5t-39.5 -5q-37 0 -90.5 24.5t-83.5 24.5q-20 0 -41 -8t-32 -16zM356 74q65 0 116.5 30.5t82 79t46 103
t15.5 108.5q0 87 -46.5 133.5t-133.5 46.5q-120 0 -188 -77.5t-68 -216.5q0 -92 46 -149.5t130 -57.5zM735 405q0 -72 -23.5 -143.5t-69 -135t-123.5 -103t-176 -39.5q-133 0 -206.5 81.5t-73.5 213.5q0 178 103 282t282 104q138 0 212.5 -68.5t74.5 -191.5z" />
    <glyph glyph-name="Odieresis" unicode="&#xd6;" horiz-adv-x="753" 
d="M363 729q-22 0 -35.5 13t-13.5 33q0 25 17 42.5t46 17.5q23 0 36.5 -12.5t13.5 -32.5q0 -24 -18 -42.5t-46 -18.5zM554 729q-19 0 -34 10.5t-15 35.5q0 24 17.5 42t46.5 18q23 0 36 -12t13 -33q0 -24 -18 -42.5t-46 -18.5zM356 74q65 0 116.5 30.5t82 79t46 103
t15.5 108.5q0 87 -46.5 133.5t-133.5 46.5q-120 0 -188 -77.5t-68 -216.5q0 -92 46 -149.5t130 -57.5zM735 405q0 -72 -23.5 -143.5t-69 -135t-123.5 -103t-176 -39.5q-133 0 -206.5 81.5t-73.5 213.5q0 178 103 282t282 104q138 0 212.5 -68.5t74.5 -191.5z" />
    <glyph glyph-name="multiply" unicode="&#xd7;" horiz-adv-x="433" 
d="M39 204l134 115l-99 116l70 65l101 -118l137 118l51 -65l-134 -116l98 -115l-70 -64l-100 116l-135 -116z" />
    <glyph glyph-name="Oslash" unicode="&#xd8;" horiz-adv-x="753" 
d="M356 74q65 0 116.5 30.5t82 79t46 103t15.5 108.5q0 96 -57 142l-271 -452q31 -11 68 -11zM249 108l272 452q-36 15 -85 15q-120 0 -188 -77.5t-68 -216.5q0 -116 69 -173zM735 405q0 -72 -23.5 -143.5t-69 -135t-123.5 -103t-176 -39.5q-55 0 -105 16l-59 -104l-48 8
l66 114q-65 36 -99.5 104t-34.5 157q0 178 103 282t282 104q68 0 127 -19l52 81l47 -8l-58 -92q119 -65 119 -222z" />
    <glyph glyph-name="Ugrave" unicode="&#xd9;" horiz-adv-x="738" 
d="M525 714l-76 -7l-102 139l104 12zM515 573l6 77h265l-10 -74l-76 -5l-52 -339q-16 -108 -94.5 -178t-216.5 -70q-122 0 -181 56t-59 146q0 14 4 46l53 340l-76 4l5 74h270l-10 -74l-75 -4l-50 -317q-3 -21 -3 -41q0 -61 34 -97t104 -36q82 0 130 48t61 126l49 313z" />
    <glyph glyph-name="Uacute" unicode="&#xda;" horiz-adv-x="738" 
d="M450 707l-73 5l116 145l103 -11zM515 573l6 77h265l-10 -74l-76 -5l-52 -339q-16 -108 -94.5 -178t-216.5 -70q-122 0 -181 56t-59 146q0 14 4 46l53 340l-76 4l5 74h270l-10 -74l-75 -4l-50 -317q-3 -21 -3 -41q0 -61 34 -97t104 -36q82 0 130 48t61 126l49 313z" />
    <glyph glyph-name="Ucircumflex" unicode="&#xdb;" horiz-adv-x="738" 
d="M323 723l-25 62l146 97h59l115 -97l-42 -62l-113 87zM515 573l6 77h265l-10 -74l-76 -5l-52 -339q-16 -108 -94.5 -178t-216.5 -70q-122 0 -181 56t-59 146q0 14 4 46l53 340l-76 4l5 74h270l-10 -74l-75 -4l-50 -317q-3 -21 -3 -41q0 -61 34 -97t104 -36q82 0 130 48
t61 126l49 313z" />
    <glyph glyph-name="Udieresis" unicode="&#xdc;" horiz-adv-x="738" 
d="M355 729q-22 0 -35.5 13t-13.5 33q0 25 17 42.5t46 17.5q23 0 36.5 -12.5t13.5 -32.5q0 -24 -18 -42.5t-46 -18.5zM546 729q-19 0 -34 10.5t-15 35.5q0 24 17.5 42t46.5 18q23 0 36 -12t13 -33q0 -24 -18 -42.5t-46 -18.5zM515 573l6 77h265l-10 -74l-76 -5l-52 -339
q-16 -108 -94.5 -178t-216.5 -70q-122 0 -181 56t-59 146q0 14 4 46l53 340l-76 4l5 74h270l-10 -74l-75 -4l-50 -317q-3 -21 -3 -41q0 -61 34 -97t104 -36q82 0 130 48t61 126l49 313z" />
    <glyph glyph-name="Yacute" unicode="&#xdd;" horiz-adv-x="643" 
d="M443 707l-73 5l116 145l103 -11zM168 0l6 79l79 4l27 178l-154 312l-92 3l5 74h267l-9 -74l-45 -3l104 -215l168 213l-40 2l12 77h244l-12 -79l-91 -3l-242 -305l-28 -180l76 -4l-12 -79h-263z" />
    <glyph glyph-name="Thorn" unicode="&#xde;" horiz-adv-x="601" 
d="M344 455h-81l-43 -276h79q77 0 125 44t48 133q0 99 -128 99zM98 576l6 74h189l-17 -108h89q221 0 221 -176q0 -70 -26 -124t-69 -84.5t-92 -46t-101 -15.5h-91l-15 -96h-178l6 79l79 4l76 489z" />
    <glyph glyph-name="germandbls" unicode="&#xdf;" horiz-adv-x="643" 
d="M-129 -245l39 85q27 -11 60 -11q31 0 58 36.5t38 103.5l90 578q33 213 256 213q183 0 183 -126q0 -103 -114 -161q138 -41 138 -186q0 -140 -71 -221.5t-189 -81.5q-48 0 -80.5 8t-40.5 16l-9 9l25 66q22 -19 83 -19q75 0 122 58.5t47 162.5q0 69 -41 99t-133 30l2 10
l8 71q6 0 15.5 1.5t34 9t43.5 19t34.5 34.5t15.5 53q0 67 -88 67q-110 0 -132 -132l-90 -578q-18 -116 -77.5 -175.5t-128.5 -59.5q-35 0 -59.5 5t-31.5 11z" />
    <glyph glyph-name="agrave" unicode="&#xe0;" horiz-adv-x="607" 
d="M397 579l-76 -7l-102 139l104 12zM276 66q34 0 65.5 15.5t45 28t20.5 22.5l41 261q-37 42 -104 42q-192 0 -192 -235q0 -64 32.5 -99t91.5 -35zM572 500l-56 -360q-3 -18 -3 -29q0 -32 20 -32l46 2l-4 -74q-60 -14 -116 -14q-30 0 -43.5 12t-13.5 39v9h-1q-2 -3 -6 -7.5
t-19.5 -16.5t-33 -21t-47.5 -16.5t-63 -7.5q-88 0 -140 60.5t-52 158.5q0 138 77.5 225.5t206.5 87.5q45 0 80 -12t47 -24l12 -12h1l23 32h85z" />
    <glyph glyph-name="aacute" unicode="&#xe1;" horiz-adv-x="607" 
d="M370 572l-73 5l116 145l103 -11zM276 66q34 0 65.5 15.5t45 28t20.5 22.5l41 261q-37 42 -104 42q-192 0 -192 -235q0 -64 32.5 -99t91.5 -35zM572 500l-56 -360q-3 -18 -3 -29q0 -32 20 -32l46 2l-4 -74q-60 -14 -116 -14q-30 0 -43.5 12t-13.5 39v9h-1q-2 -3 -6 -7.5
t-19.5 -16.5t-33 -21t-47.5 -16.5t-63 -7.5q-88 0 -140 60.5t-52 158.5q0 138 77.5 225.5t206.5 87.5q45 0 80 -12t47 -24l12 -12h1l23 32h85z" />
    <glyph glyph-name="acircumflex" unicode="&#xe2;" horiz-adv-x="607" 
d="M223 588l-25 62l146 97h59l115 -97l-42 -62l-113 87zM276 66q34 0 65.5 15.5t45 28t20.5 22.5l41 261q-37 42 -104 42q-192 0 -192 -235q0 -64 32.5 -99t91.5 -35zM572 500l-56 -360q-3 -18 -3 -29q0 -32 20 -32l46 2l-4 -74q-60 -14 -116 -14q-30 0 -43.5 12t-13.5 39v9
h-1q-2 -3 -6 -7.5t-19.5 -16.5t-33 -21t-47.5 -16.5t-63 -7.5q-88 0 -140 60.5t-52 158.5q0 138 77.5 225.5t206.5 87.5q45 0 80 -12t47 -24l12 -12h1l23 32h85z" />
    <glyph glyph-name="atilde" unicode="&#xe3;" horiz-adv-x="607" 
d="M188 606l-5 61q1 2 3.5 5.5t12 13t20.5 16.5t30.5 12.5t41.5 5.5q41 0 94 -26t80 -26q20 0 37.5 5t25.5 10l7 5l5 -55l-2.5 -5t-8.5 -10.5t-16.5 -13t-27 -10.5t-39.5 -5q-37 0 -90.5 24.5t-83.5 24.5q-20 0 -41 -8t-32 -16zM276 66q34 0 65.5 15.5t45 28t20.5 22.5
l41 261q-37 42 -104 42q-192 0 -192 -235q0 -64 32.5 -99t91.5 -35zM572 500l-56 -360q-3 -18 -3 -29q0 -32 20 -32l46 2l-4 -74q-60 -14 -116 -14q-30 0 -43.5 12t-13.5 39v9h-1q-2 -3 -6 -7.5t-19.5 -16.5t-33 -21t-47.5 -16.5t-63 -7.5q-88 0 -140 60.5t-52 158.5
q0 138 77.5 225.5t206.5 87.5q45 0 80 -12t47 -24l12 -12h1l23 32h85z" />
    <glyph glyph-name="adieresis" unicode="&#xe4;" horiz-adv-x="607" 
d="M254 594q-22 0 -35.5 13t-13.5 33q0 25 17 42.5t46 17.5q23 0 36.5 -12.5t13.5 -32.5q0 -24 -18 -42.5t-46 -18.5zM445 594q-19 0 -34 10.5t-15 35.5q0 24 17.5 42t46.5 18q23 0 36 -12t13 -33q0 -24 -18 -42.5t-46 -18.5zM276 66q34 0 65.5 15.5t45 28t20.5 22.5l41 261
q-37 42 -104 42q-192 0 -192 -235q0 -64 32.5 -99t91.5 -35zM572 500l-56 -360q-3 -18 -3 -29q0 -32 20 -32l46 2l-4 -74q-60 -14 -116 -14q-30 0 -43.5 12t-13.5 39v9h-1q-2 -3 -6 -7.5t-19.5 -16.5t-33 -21t-47.5 -16.5t-63 -7.5q-88 0 -140 60.5t-52 158.5
q0 138 77.5 225.5t206.5 87.5q45 0 80 -12t47 -24l12 -12h1l23 32h85z" />
    <glyph glyph-name="aring" unicode="&#xe5;" horiz-adv-x="607" 
d="M356 632q29 0 48.5 20.5t19.5 51.5q0 23 -13.5 37.5t-34.5 14.5q-28 0 -48.5 -20.5t-20.5 -51.5q0 -23 13.5 -37.5t35.5 -14.5zM350 584q-44 0 -69 25.5t-25 67.5q0 54 37 90t90 36q40 0 66 -26.5t26 -67.5q0 -53 -36 -89t-89 -36zM276 66q34 0 65.5 15.5t45 28
t20.5 22.5l41 261q-37 42 -104 42q-192 0 -192 -235q0 -64 32.5 -99t91.5 -35zM572 500l-56 -360q-3 -18 -3 -29q0 -32 20 -32l46 2l-4 -74q-60 -14 -116 -14q-30 0 -43.5 12t-13.5 39v9h-1q-2 -3 -6 -7.5t-19.5 -16.5t-33 -21t-47.5 -16.5t-63 -7.5q-88 0 -140 60.5
t-52 158.5q0 138 77.5 225.5t206.5 87.5q45 0 80 -12t47 -24l12 -12h1l23 32h85z" />
    <glyph glyph-name="ae" unicode="&#xe6;" horiz-adv-x="832" 
d="M219 58q30 0 54.5 14t40.5 37t25.5 43.5t15.5 42.5v6q0 12 2 36q-44 -2 -71.5 -4.5t-60 -9.5t-50.5 -18t-30 -30t-12 -46q0 -33 22 -52t64 -19zM633 438q-62 0 -105.5 -41t-59.5 -117q150 0 207.5 18t57.5 66q0 33 -25.5 53.5t-74.5 20.5zM737 126l55 -39q-2 -4 -6.5 -11
t-22.5 -25t-39.5 -31.5t-59 -24.5t-80.5 -11q-71 0 -125 27.5t-81 80.5q-65 -108 -197 -108q-76 0 -119 35.5t-43 94.5q0 39 16 70t47.5 50.5t62.5 32.5t77.5 20t74.5 10t71 6l4 23q3 20 3 36q0 40 -20 57.5t-63 17.5q-55 0 -103 -41l-11 -46h-77l26 155h62l4 -27
q61 38 124 38q106 0 134 -76q81 76 194 76q82 0 133.5 -40.5t51.5 -106.5q0 -87 -84.5 -121t-284.5 -35v-12q0 -65 39 -100.5t99 -35.5q42 0 76.5 15t48.5 30z" />
    <glyph glyph-name="ccedilla" unicode="&#xe7;" horiz-adv-x="489" 
d="M106 -213l24 41q29 -29 74 -29q68 0 68 54q0 13 -8.5 23t-20.5 15.5t-24 9t-20 5.5t-8 4l23 80q-80 16 -126.5 74t-46.5 145q0 143 67.5 225t187.5 82q68 0 119 -44l16 33h68l-23 -183h-83l5 83q-24 33 -81 33q-81 0 -122 -52.5t-41 -171.5q0 -71 40 -111t99 -40
q36 0 66.5 15t42.5 30l12 15l53 -37q-2 -4 -6 -11t-20 -24.5t-36 -31t-55.5 -24.5t-76.5 -11h-7l-12 -46q0 -1 22.5 -8t46 -26t23.5 -49q0 -48 -34.5 -77t-98.5 -29q-33 0 -60 9.5t-37 19.5z" />
    <glyph glyph-name="egrave" unicode="&#xe8;" horiz-adv-x="517" 
d="M390 579l-76 -7l-102 139l104 12zM319 438q-62 0 -105.5 -41t-59.5 -117q150 0 207.5 18t57.5 66q0 33 -25.5 53.5t-74.5 20.5zM423 126l55 -39q-2 -4 -6.5 -11t-22.5 -25t-39.5 -31.5t-59 -24.5t-80.5 -11q-103 0 -166 57t-63 160q0 135 82.5 225t207.5 90
q82 0 133.5 -40.5t51.5 -106.5q0 -87 -84.5 -121t-284.5 -35v-12q0 -65 39 -100.5t99 -35.5q42 0 76.5 15t48.5 30z" />
    <glyph glyph-name="eacute" unicode="&#xe9;" horiz-adv-x="517" 
d="M363 572l-73 5l116 145l103 -11zM319 438q-62 0 -105.5 -41t-59.5 -117q150 0 207.5 18t57.5 66q0 33 -25.5 53.5t-74.5 20.5zM423 126l55 -39q-2 -4 -6.5 -11t-22.5 -25t-39.5 -31.5t-59 -24.5t-80.5 -11q-103 0 -166 57t-63 160q0 135 82.5 225t207.5 90
q82 0 133.5 -40.5t51.5 -106.5q0 -87 -84.5 -121t-284.5 -35v-12q0 -65 39 -100.5t99 -35.5q42 0 76.5 15t48.5 30z" />
    <glyph glyph-name="ecircumflex" unicode="&#xea;" horiz-adv-x="517" 
d="M217 588l-25 62l146 97h59l115 -97l-42 -62l-113 87zM319 438q-62 0 -105.5 -41t-59.5 -117q150 0 207.5 18t57.5 66q0 33 -25.5 53.5t-74.5 20.5zM423 126l55 -39q-2 -4 -6.5 -11t-22.5 -25t-39.5 -31.5t-59 -24.5t-80.5 -11q-103 0 -166 57t-63 160q0 135 82.5 225
t207.5 90q82 0 133.5 -40.5t51.5 -106.5q0 -87 -84.5 -121t-284.5 -35v-12q0 -65 39 -100.5t99 -35.5q42 0 76.5 15t48.5 30z" />
    <glyph glyph-name="edieresis" unicode="&#xeb;" horiz-adv-x="517" 
d="M247 594q-22 0 -35.5 13t-13.5 33q0 25 17 42.5t46 17.5q23 0 36.5 -12.5t13.5 -32.5q0 -24 -18 -42.5t-46 -18.5zM438 594q-19 0 -34 10.5t-15 35.5q0 24 17.5 42t46.5 18q23 0 36 -12t13 -33q0 -24 -18 -42.5t-46 -18.5zM319 438q-62 0 -105.5 -41t-59.5 -117
q150 0 207.5 18t57.5 66q0 33 -25.5 53.5t-74.5 20.5zM423 126l55 -39q-2 -4 -6.5 -11t-22.5 -25t-39.5 -31.5t-59 -24.5t-80.5 -11q-103 0 -166 57t-63 160q0 135 82.5 225t207.5 90q82 0 133.5 -40.5t51.5 -106.5q0 -87 -84.5 -121t-284.5 -35v-12q0 -65 39 -100.5
t99 -35.5q42 0 76.5 15t48.5 30z" />
    <glyph glyph-name="igrave" unicode="&#xec;" horiz-adv-x="273" 
d="M249 579l-76 -7l-102 139l104 12zM67 421l6 79h169l-59 -382v-7q0 -32 21 -32l45 2l-4 -74q-60 -14 -116 -14q-32 0 -47.5 13.5t-15.5 44.5q0 7 2 25l52 341z" />
    <glyph glyph-name="iacute" unicode="&#xed;" horiz-adv-x="273" 
d="M221 572l-73 5l116 145l103 -11zM67 421l6 79h169l-59 -382v-7q0 -32 21 -32l45 2l-4 -74q-60 -14 -116 -14q-32 0 -47.5 13.5t-15.5 44.5q0 7 2 25l52 341z" />
    <glyph glyph-name="icircumflex" unicode="&#xee;" horiz-adv-x="273" 
d="M75 588l-25 62l146 97h59l115 -97l-42 -62l-113 87zM67 421l6 79h169l-59 -382v-7q0 -32 21 -32l45 2l-4 -74q-60 -14 -116 -14q-32 0 -47.5 13.5t-15.5 44.5q0 7 2 25l52 341z" />
    <glyph glyph-name="idieresis" unicode="&#xef;" horiz-adv-x="273" 
d="M106 594q-22 0 -35.5 13t-13.5 33q0 25 17 42.5t46 17.5q23 0 36.5 -12.5t13.5 -32.5q0 -24 -18 -42.5t-46 -18.5zM297 594q-19 0 -34 10.5t-15 35.5q0 24 17.5 42t46.5 18q23 0 36 -12t13 -33q0 -24 -18 -42.5t-46 -18.5zM67 421l6 79h169l-59 -382v-7q0 -32 21 -32
l45 2l-4 -74q-60 -14 -116 -14q-32 0 -47.5 13.5t-15.5 44.5q0 7 2 25l52 341z" />
    <glyph glyph-name="eth" unicode="&#xf0;" horiz-adv-x="569" 
d="M271 61q74 0 124.5 69.5t50.5 183.5q0 57 -33 90.5t-90 33.5q-77 0 -124.5 -58.5t-47.5 -174.5q0 -64 32.5 -104t87.5 -40zM41 206q0 140 78.5 225t207.5 85q86 0 150 -53q-13 98 -77 170l-124 -59l-14 40l106 50q-22 20 -50 38l51 51q42 -24 73 -54l92 44l14 -39
l-75 -36q93 -110 93 -276q0 -50 -9 -105h-2q-16 -139 -96.5 -221t-198.5 -82q-100 0 -159.5 61t-59.5 161z" />
    <glyph glyph-name="ntilde" unicode="&#xf1;" horiz-adv-x="606" 
d="M194 606l-5 61q1 2 3.5 5.5t12 13t20.5 16.5t30.5 12.5t41.5 5.5q41 0 94 -26t80 -26q20 0 37.5 5t25.5 10l7 5l5 -55l-2.5 -5t-8.5 -10.5t-16.5 -13t-27 -10.5t-39.5 -5q-37 0 -90.5 24.5t-83.5 24.5q-20 0 -41 -8t-32 -16zM404 52q0 18 22.5 155t22.5 152q0 66 -94 66
q-77 0 -132 -44l-58 -381h-109l64 417l-53 4l6 79h156l3 -40q64 56 174 56q156 0 156 -123q0 -17 -3 -38l-38 -243q1 -33 21 -33l46 2l-4 -74q-60 -14 -116 -14q-64 0 -64 59z" />
    <glyph glyph-name="ograve" unicode="&#xf2;" horiz-adv-x="571" 
d="M400 579l-76 -7l-102 139l104 12zM270 61q86 0 132.5 64t46.5 181q0 63 -30 97.5t-89 34.5q-87 0 -132.5 -61t-45.5 -179q0 -64 30 -100.5t88 -36.5zM259 -16q-107 0 -162.5 58.5t-55.5 161.5q0 144 78.5 228t221.5 84q107 0 163.5 -56t56.5 -156q0 -142 -82 -231
t-220 -89z" />
    <glyph glyph-name="oacute" unicode="&#xf3;" horiz-adv-x="571" 
d="M372 572l-73 5l116 145l103 -11zM270 61q86 0 132.5 64t46.5 181q0 63 -30 97.5t-89 34.5q-87 0 -132.5 -61t-45.5 -179q0 -64 30 -100.5t88 -36.5zM259 -16q-107 0 -162.5 58.5t-55.5 161.5q0 144 78.5 228t221.5 84q107 0 163.5 -56t56.5 -156q0 -142 -82 -231
t-220 -89z" />
    <glyph glyph-name="ocircumflex" unicode="&#xf4;" horiz-adv-x="571" 
d="M225 588l-25 62l146 97h59l115 -97l-42 -62l-113 87zM270 61q86 0 132.5 64t46.5 181q0 63 -30 97.5t-89 34.5q-87 0 -132.5 -61t-45.5 -179q0 -64 30 -100.5t88 -36.5zM259 -16q-107 0 -162.5 58.5t-55.5 161.5q0 144 78.5 228t221.5 84q107 0 163.5 -56t56.5 -156
q0 -142 -82 -231t-220 -89z" />
    <glyph glyph-name="otilde" unicode="&#xf5;" horiz-adv-x="571" 
d="M190 606l-5 61q1 2 3.5 5.5t12 13t20.5 16.5t30.5 12.5t41.5 5.5q41 0 94 -26t80 -26q20 0 37.5 5t25.5 10l7 5l5 -55l-2.5 -5t-8.5 -10.5t-16.5 -13t-27 -10.5t-39.5 -5q-37 0 -90.5 24.5t-83.5 24.5q-20 0 -41 -8t-32 -16zM270 61q86 0 132.5 64t46.5 181
q0 63 -30 97.5t-89 34.5q-87 0 -132.5 -61t-45.5 -179q0 -64 30 -100.5t88 -36.5zM259 -16q-107 0 -162.5 58.5t-55.5 161.5q0 144 78.5 228t221.5 84q107 0 163.5 -56t56.5 -156q0 -142 -82 -231t-220 -89z" />
    <glyph glyph-name="odieresis" unicode="&#xf6;" horiz-adv-x="571" 
d="M256 594q-22 0 -35.5 13t-13.5 33q0 25 17 42.5t46 17.5q23 0 36.5 -12.5t13.5 -32.5q0 -24 -18 -42.5t-46 -18.5zM447 594q-19 0 -34 10.5t-15 35.5q0 24 17.5 42t46.5 18q23 0 36 -12t13 -33q0 -24 -18 -42.5t-46 -18.5zM270 61q86 0 132.5 64t46.5 181q0 63 -30 97.5
t-89 34.5q-87 0 -132.5 -61t-45.5 -179q0 -64 30 -100.5t88 -36.5zM259 -16q-107 0 -162.5 58.5t-55.5 161.5q0 144 78.5 228t221.5 84q107 0 163.5 -56t56.5 -156q0 -142 -82 -231t-220 -89z" />
    <glyph glyph-name="divide" unicode="&#xf7;" horiz-adv-x="561" 
d="M40 218l6 81h496l-11 -81h-491zM309 386q-27 0 -42.5 14.5t-15.5 38.5q0 30 22.5 49.5t53.5 19.5q26 0 42 -14.5t16 -38.5q0 -27 -21.5 -48t-54.5 -21zM250 10q-27 0 -42.5 14.5t-15.5 38.5q0 30 22.5 49.5t53.5 19.5q26 0 42 -14.5t16 -38.5q0 -27 -21.5 -48t-54.5 -21z
" />
    <glyph glyph-name="oslash" unicode="&#xf8;" horiz-adv-x="580" 
d="M270 61q86 0 132.5 64t46.5 181q0 54 -23 88l-196 -328q20 -5 40 -5zM152 198q0 -63 26 -96l198 329q-24 7 -46 7q-87 0 -132.5 -61t-45.5 -179zM259 -16q-41 0 -74 9l-104 -174l-68 8l114 190q-86 56 -86 187q0 144 78.5 228t221.5 84q40 0 80 -10l87 144l68 -8
l-97 -161q82 -55 82 -177q0 -142 -82 -231t-220 -89z" />
    <glyph glyph-name="ugrave" unicode="&#xf9;" horiz-adv-x="602" 
d="M409 579l-76 -7l-102 139l104 12zM396 421l6 79h170l-59 -379v-8q0 -34 19 -34l45 2l-4 -74q-59 -14 -116 -14q-29 0 -42 11t-14 37h-4q-6 -6 -18.5 -15.5t-58 -25.5t-98.5 -16q-75 0 -114.5 37t-39.5 105q0 20 3 39l38 252l-53 4l6 79h170l-50 -314q-2 -16 -2 -24
q0 -40 23.5 -63.5t69.5 -23.5q36 0 69 11t48 22l14 11l46 298z" />
    <glyph glyph-name="uacute" unicode="&#xfa;" horiz-adv-x="602" 
d="M382 572l-73 5l116 145l103 -11zM396 421l6 79h170l-59 -379v-8q0 -34 19 -34l45 2l-4 -74q-59 -14 -116 -14q-29 0 -42 11t-14 37h-4q-6 -6 -18.5 -15.5t-58 -25.5t-98.5 -16q-75 0 -114.5 37t-39.5 105q0 20 3 39l38 252l-53 4l6 79h170l-50 -314q-2 -16 -2 -24
q0 -40 23.5 -63.5t69.5 -23.5q36 0 69 11t48 22l14 11l46 298z" />
    <glyph glyph-name="ucircumflex" unicode="&#xfb;" horiz-adv-x="602" 
d="M236 588l-25 62l146 97h59l115 -97l-42 -62l-113 87zM396 421l6 79h170l-59 -379v-8q0 -34 19 -34l45 2l-4 -74q-59 -14 -116 -14q-29 0 -42 11t-14 37h-4q-6 -6 -18.5 -15.5t-58 -25.5t-98.5 -16q-75 0 -114.5 37t-39.5 105q0 20 3 39l38 252l-53 4l6 79h170l-50 -314
q-2 -16 -2 -24q0 -40 23.5 -63.5t69.5 -23.5q36 0 69 11t48 22l14 11l46 298z" />
    <glyph glyph-name="udieresis" unicode="&#xfc;" horiz-adv-x="602" 
d="M266 594q-22 0 -35.5 13t-13.5 33q0 25 17 42.5t46 17.5q23 0 36.5 -12.5t13.5 -32.5q0 -24 -18 -42.5t-46 -18.5zM457 594q-19 0 -34 10.5t-15 35.5q0 24 17.5 42t46.5 18q23 0 36 -12t13 -33q0 -24 -18 -42.5t-46 -18.5zM396 421l6 79h170l-59 -379v-8q0 -34 19 -34
l45 2l-4 -74q-59 -14 -116 -14q-29 0 -42 11t-14 37h-4q-6 -6 -18.5 -15.5t-58 -25.5t-98.5 -16q-75 0 -114.5 37t-39.5 105q0 20 3 39l38 252l-53 4l6 79h170l-50 -314q-2 -16 -2 -24q0 -40 23.5 -63.5t69.5 -23.5q36 0 69 11t48 22l14 11l46 298z" />
    <glyph glyph-name="yacute" unicode="&#xfd;" 
d="M388 572l-73 5l116 145l103 -11zM19 421l6 79h162l98 -393h2q104 157 165 308l-61 8l6 77h165l-4 -51q-49 -154 -248 -442q-11 -116 -73 -194.5t-162 -78.5q-35 0 -63 6t-38 12l-11 6l19 151l72 5l-3 -100q17 -5 31 -5q29 0 50.5 14.5t35 43.5t21.5 60.5t14 75.5
l-114 414z" />
    <glyph glyph-name="thorn" unicode="&#xfe;" horiz-adv-x="607" 
d="M359 434q-40 0 -72 -16t-45 -32l-12 -16l-41 -265q27 -40 104 -40q66 0 111.5 37t64 91.5t18.5 122.5q0 118 -128 118zM112 671l6 79h171l-46 -293h3l6 6t18 14.5t31 18t44.5 14t58.5 6.5q91 0 143 -52.5t52 -147.5q0 -88 -33.5 -163t-99 -122t-149.5 -47q-88 0 -141 44
l-44 -278h-109l40 250h1l103 667z" />
    <glyph glyph-name="ydieresis" unicode="&#xff;" 
d="M272 594q-22 0 -35.5 13t-13.5 33q0 25 17 42.5t46 17.5q23 0 36.5 -12.5t13.5 -32.5q0 -24 -18 -42.5t-46 -18.5zM463 594q-19 0 -34 10.5t-15 35.5q0 24 17.5 42t46.5 18q23 0 36 -12t13 -33q0 -24 -18 -42.5t-46 -18.5zM19 421l6 79h162l98 -393h2q104 157 165 308
l-61 8l6 77h165l-4 -51q-49 -154 -248 -442q-11 -116 -73 -194.5t-162 -78.5q-35 0 -63 6t-38 12l-11 6l19 151l72 5l-3 -100q17 -5 31 -5q29 0 50.5 14.5t35 43.5t21.5 60.5t14 75.5l-114 414z" />
    <glyph glyph-name="Amacron" unicode="&#x100;" horiz-adv-x="705" 
d="M333 760l8 57h226l-8 -57h-226zM404 560l-153 -297h212zM-33 0l7 79l75 4l300 567h150l124 -573l71 -3l-10 -74h-249l9 64l63 3l-29 124h-265l-65 -120l64 -4l-9 -67h-236z" />
    <glyph glyph-name="amacron" unicode="&#x101;" horiz-adv-x="607" 
d="M248 625l8 57h226l-8 -57h-226zM276 66q34 0 65.5 15.5t45 28t20.5 22.5l41 261q-37 42 -104 42q-192 0 -192 -235q0 -64 32.5 -99t91.5 -35zM572 500l-56 -360q-3 -18 -3 -29q0 -32 20 -32l46 2l-4 -74q-60 -14 -116 -14q-30 0 -43.5 12t-13.5 39v9h-1q-2 -3 -6 -7.5
t-19.5 -16.5t-33 -21t-47.5 -16.5t-63 -7.5q-88 0 -140 60.5t-52 158.5q0 138 77.5 225.5t206.5 87.5q45 0 80 -12t47 -24l12 -12h1l23 32h85z" />
    <glyph glyph-name="Abreve" unicode="&#x102;" horiz-adv-x="705" 
d="M265 831l94 13v-1q0 -2 0.5 -6t5.5 -13.5t13 -17t25 -13.5t39 -6t40.5 6t29.5 14t18.5 16t9.5 14l3 6v1l90 -13q-1 -5 -4.5 -12.5t-18 -27.5t-35 -35t-59 -27.5t-85.5 -12.5q-46 0 -80 12t-50 29t-25 33.5t-10 28.5zM404 560l-153 -297h212zM-33 0l7 79l75 4l300 567h150
l124 -573l71 -3l-10 -74h-249l9 64l63 3l-29 124h-265l-65 -120l64 -4l-9 -67h-236z" />
    <glyph glyph-name="abreve" unicode="&#x103;" horiz-adv-x="607" 
d="M180 696l94 13v-1q0 -2 0.5 -6t5.5 -13.5t13 -17t25 -13.5t39 -6t40.5 6t29.5 14t18.5 16t10.5 14l2 6v1l90 -13q-1 -5 -4.5 -12.5t-18 -27.5t-35 -35t-59 -27.5t-85.5 -12.5q-46 0 -80 12t-50 28.5t-25 33.5t-10 29zM276 66q34 0 65.5 15.5t45 28t20.5 22.5l41 261
q-37 42 -104 42q-192 0 -192 -235q0 -64 32.5 -99t91.5 -35zM572 500l-56 -360q-3 -18 -3 -29q0 -32 20 -32l46 2l-4 -74q-60 -14 -116 -14q-30 0 -43.5 12t-13.5 39v9h-1q-2 -3 -6 -7.5t-19.5 -16.5t-33 -21t-47.5 -16.5t-63 -7.5q-88 0 -140 60.5t-52 158.5
q0 138 77.5 225.5t206.5 87.5q45 0 80 -12t47 -24l12 -12h1l23 32h85z" />
    <glyph glyph-name="Aogonek" unicode="&#x104;" horiz-adv-x="705" 
d="M404 560l-153 -297h212zM620 -195l-8 -55q-171 0 -171 105q0 84 107 145h-113l9 64l63 3l-29 124h-265l-65 -120l64 -4l-9 -67h-236l7 79l75 4l300 567h150l124 -573l71 -3l-10 -74h-44q-5 -2 -13 -5t-29 -15.5t-37 -27t-29 -39t-13 -52.5q0 -56 101 -56z" />
    <glyph glyph-name="aogonek" unicode="&#x105;" horiz-adv-x="607" 
d="M276 66q34 0 65.5 15.5t45 28t20.5 22.5l41 261q-37 42 -104 42q-192 0 -192 -235q0 -64 32.5 -99t91.5 -35zM497 -195l-8 -55q-171 0 -171 105q0 85 106 144q-22 10 -22 45v9h-1q-2 -3 -6 -7.5t-19.5 -16.5t-33 -21t-47.5 -16.5t-63 -7.5q-88 0 -140 60.5t-52 158.5
q0 138 77.5 225.5t206.5 87.5q45 0 80 -12t47 -24l12 -12h1l23 32h85l-56 -360q-3 -18 -3 -29q0 -32 20 -32l46 2l-4 -74q-32 -7 -69 -11q-110 -47 -110 -135q0 -56 101 -56z" />
    <glyph glyph-name="Cacute" unicode="&#x106;" horiz-adv-x="659" 
d="M480 707l-73 5l116 145l103 -11zM547 417l10 119q-57 39 -128 39q-108 0 -177.5 -76t-69.5 -219q0 -97 58 -151t148 -54q56 0 106 22t72 44l22 22l44 -60q-3 -5 -9.5 -13t-30 -28.5t-50.5 -36t-72.5 -28.5t-95.5 -13q-141 0 -225.5 81.5t-84.5 217.5q0 167 100 274.5
t255 107.5q84 0 154 -53l22 43h66l-30 -238h-84z" />
    <glyph glyph-name="cacute" unicode="&#x107;" horiz-adv-x="489" 
d="M381 572l-73 5l116 145l103 -11zM393 322l5 83q-24 33 -81 33q-81 0 -122 -52.5t-41 -171.5q0 -71 40 -111t99 -40q36 0 66.5 15t42.5 30l12 15l53 -37q-2 -4 -6 -11t-20 -24.5t-36 -31t-55.5 -24.5t-76.5 -11q-104 0 -168 61t-64 164q0 143 67.5 225t187.5 82
q68 0 119 -44l16 33h68l-23 -183h-83z" />
    <glyph glyph-name="Ccaron" unicode="&#x10c;" horiz-adv-x="659" 
d="M312 804l43 63l113 -89l141 89l25 -63l-147 -97h-59zM547 417l10 119q-57 39 -128 39q-108 0 -177.5 -76t-69.5 -219q0 -97 58 -151t148 -54q56 0 106 22t72 44l22 22l44 -60q-3 -5 -9.5 -13t-30 -28.5t-50.5 -36t-72.5 -28.5t-95.5 -13q-141 0 -225.5 81.5t-84.5 217.5
q0 167 100 274.5t255 107.5q84 0 154 -53l22 43h66l-30 -238h-84z" />
    <glyph glyph-name="ccaron" unicode="&#x10d;" horiz-adv-x="489" 
d="M213 669l43 63l113 -89l141 89l25 -63l-147 -97h-59zM393 322l5 83q-24 33 -81 33q-81 0 -122 -52.5t-41 -171.5q0 -71 40 -111t99 -40q36 0 66.5 15t42.5 30l12 15l53 -37q-2 -4 -6 -11t-20 -24.5t-36 -31t-55.5 -24.5t-76.5 -11q-104 0 -168 61t-64 164q0 143 67.5 225
t187.5 82q68 0 119 -44l16 33h68l-23 -183h-83z" />
    <glyph glyph-name="Dcaron" unicode="&#x10e;" horiz-adv-x="749" 
d="M270 804l43 63l113 -89l141 89l25 -63l-147 -97h-59zM406 560h-119l-73 -470h129q126 0 198 76t72 222q0 86 -54 129t-153 43zM98 576l6 74h314q149 0 231 -65t82 -193q0 -181 -105 -286.5t-297 -105.5h-315l6 79l79 4l76 489z" />
    <glyph glyph-name="dcaron" unicode="&#x10f;" horiz-adv-x="603" 
d="M700 544l-63 9q23 36 39.5 88.5t18.5 93.5l15 47l73 -10q-12 -57 -35.5 -123t-47.5 -105zM276 66q35 0 67.5 15t45 27t18.5 20l41 266q-32 41 -104 41q-192 0 -192 -235q0 -64 32.5 -99t91.5 -35zM436 671l6 79h169l-95 -610q-3 -18 -3 -29q0 -32 20 -32l46 2l-4 -74
q-60 -14 -116 -14q-30 0 -44 12.5t-13 42.5h-1q-2 -3 -6 -7t-19.5 -15t-33 -19.5t-47.5 -15.5t-63 -7q-88 0 -140 60.5t-52 158.5q0 138 74.5 225.5t203.5 87.5q45 0 80 -11t47 -21l12 -11h3l30 194z" />
    <glyph glyph-name="Dcroat" unicode="&#x110;" horiz-adv-x="749" 
d="M406 560h-119l-32 -202h181l-10 -71h-182l-30 -197h129q126 0 198 76t72 222q0 86 -54 129t-153 43zM39 287l11 71h91l34 214l-77 4l6 74h314q149 0 231 -65t82 -193q0 -181 -105 -286.5t-297 -105.5h-315l6 79l79 4l31 204h-91z" />
    <glyph glyph-name="dcroat" unicode="&#x111;" horiz-adv-x="620" 
d="M276 66q35 0 67.5 15t45 27t18.5 20l41 266q-32 41 -104 41q-192 0 -192 -235q0 -64 32.5 -99t91.5 -35zM355 606l10 73h127l11 71h108l-11 -71h75l-10 -64l-71 -9h-5l-76 -488q-1 -39 20 -39l46 2l-4 -74q-60 -14 -116 -14q-30 0 -44 12.5t-13 42.5h-1q-2 -3 -6 -7
t-19.5 -15t-33 -19.5t-47.5 -15.5t-63 -7q-88 0 -140 60.5t-52 158.5q0 138 74.5 225.5t203.5 87.5q45 0 80 -11t47 -21l12 -11h3l21 133h-126z" />
    <glyph glyph-name="Emacron" unicode="&#x112;" horiz-adv-x="605" 
d="M306 760l8 57h226l-8 -57h-226zM501 491l4 73h-218l-31 -195l279 1l-12 -83h-280l-31 -201h244l22 82l82 -5l-31 -163h-515l6 79l79 4l76 489l-77 4l6 74h407l98 5l-19 -164h-89z" />
    <glyph glyph-name="emacron" unicode="&#x113;" horiz-adv-x="517" 
d="M241 625l8 57h226l-8 -57h-226zM319 438q-62 0 -105.5 -41t-59.5 -117q150 0 207.5 18t57.5 66q0 33 -25.5 53.5t-74.5 20.5zM423 126l55 -39q-2 -4 -6.5 -11t-22.5 -25t-39.5 -31.5t-59 -24.5t-80.5 -11q-103 0 -166 57t-63 160q0 135 82.5 225t207.5 90
q82 0 133.5 -40.5t51.5 -106.5q0 -87 -84.5 -121t-284.5 -35v-12q0 -65 39 -100.5t99 -35.5q42 0 76.5 15t48.5 30z" />
    <glyph glyph-name="Edotaccent" unicode="&#x116;" horiz-adv-x="605" 
d="M425 843q56 0 56 -51q0 -27 -19.5 -48.5t-53.5 -21.5q-25 0 -41.5 14t-16.5 37q0 27 20.5 48.5t54.5 21.5zM501 491l4 73h-218l-31 -195l279 1l-12 -83h-280l-31 -201h244l22 82l82 -5l-31 -163h-515l6 79l79 4l76 489l-77 4l6 74h407l98 5l-19 -164h-89z" />
    <glyph glyph-name="edotaccent" unicode="&#x117;" horiz-adv-x="517" 
d="M360 708q56 0 56 -51q0 -27 -19.5 -48.5t-53.5 -21.5q-25 0 -41.5 14t-16.5 37q0 27 20.5 48.5t54.5 21.5zM319 438q-62 0 -105.5 -41t-59.5 -117q150 0 207.5 18t57.5 66q0 33 -25.5 53.5t-74.5 20.5zM423 126l55 -39q-2 -4 -6.5 -11t-22.5 -25t-39.5 -31.5t-59 -24.5
t-80.5 -11q-103 0 -166 57t-63 160q0 135 82.5 225t207.5 90q82 0 133.5 -40.5t51.5 -106.5q0 -87 -84.5 -121t-284.5 -35v-12q0 -65 39 -100.5t99 -35.5q42 0 76.5 15t48.5 30z" />
    <glyph glyph-name="Eogonek" unicode="&#x118;" horiz-adv-x="605" 
d="M507 -195l-8 -55q-171 0 -171 105q0 84 107 145h-421l6 79l79 4l76 489l-77 4l6 74h407l98 5l-19 -164h-89l4 73h-218l-31 -195l279 1l-12 -83h-280l-31 -201h244l22 82l82 -5l-31 -163h-2q-5 -2 -13 -5t-29 -15.5t-37 -27t-29 -39t-13 -52.5q0 -56 101 -56z" />
    <glyph glyph-name="eogonek" unicode="&#x119;" horiz-adv-x="517" 
d="M319 438q-62 0 -105.5 -41t-59.5 -117q150 0 207.5 18t57.5 66q0 33 -25.5 53.5t-74.5 20.5zM332 -195l-8 -55q-171 0 -171 105q0 74 85 131q-90 9 -143.5 64.5t-53.5 150.5q0 135 82.5 225t207.5 90q82 0 133.5 -40.5t51.5 -106.5q0 -87 -84.5 -121t-284.5 -35v-12
q0 -65 39 -100.5t99 -35.5q42 0 76.5 15t48.5 30l13 16l55 -39q-2 -3 -5.5 -8.5t-16.5 -19.5t-28.5 -26t-42.5 -24.5t-58 -18.5q-96 -47 -96 -129q0 -56 101 -56z" />
    <glyph glyph-name="Ecaron" unicode="&#x11a;" horiz-adv-x="605" 
d="M259 804l43 63l113 -89l141 89l25 -63l-147 -97h-59zM501 491l4 73h-218l-31 -195l279 1l-12 -83h-280l-31 -201h244l22 82l82 -5l-31 -163h-515l6 79l79 4l76 489l-77 4l6 74h407l98 5l-19 -164h-89z" />
    <glyph glyph-name="ecaron" unicode="&#x11b;" horiz-adv-x="517" 
d="M195 669l43 63l113 -89l141 89l25 -63l-147 -97h-59zM319 438q-62 0 -105.5 -41t-59.5 -117q150 0 207.5 18t57.5 66q0 33 -25.5 53.5t-74.5 20.5zM423 126l55 -39q-2 -4 -6.5 -11t-22.5 -25t-39.5 -31.5t-59 -24.5t-80.5 -11q-103 0 -166 57t-63 160q0 135 82.5 225
t207.5 90q82 0 133.5 -40.5t51.5 -106.5q0 -87 -84.5 -121t-284.5 -35v-12q0 -65 39 -100.5t99 -35.5q42 0 76.5 15t48.5 30z" />
    <glyph glyph-name="Gbreve" unicode="&#x11e;" horiz-adv-x="713" 
d="M309 831l94 13v-1q0 -2 0.5 -6t5.5 -13.5t13 -17t25 -13.5t39 -6t40.5 6t29.5 14t18.5 16t9.5 14l3 6v1l90 -13q-1 -5 -4.5 -12.5t-18 -27.5t-35 -35t-59 -27.5t-85.5 -12.5q-46 0 -80 12t-50 29t-25 33.5t-10 28.5zM551 447l6 91q-46 37 -120 37q-256 0 -256 -290
q0 -98 50.5 -154t134.5 -56q42 0 75 10t51.5 26t27 28t13.5 23v1l12 83h-139l11 73h236l-49 -319h-66l-4 51q-69 -67 -198 -67q-126 0 -200 79.5t-74 208.5q0 181 101.5 287t267.5 106q74 0 144 -50l18 40h67l-25 -208h-84z" />
    <glyph glyph-name="gbreve" unicode="&#x11f;" horiz-adv-x="607" 
d="M183 696l94 13v-1q0 -2 0.5 -6t5.5 -13.5t13 -17t25 -13.5t39 -6t40.5 6t29.5 14t18.5 16t9.5 14l3 6v1l90 -13q-1 -5 -4.5 -12.5t-18 -27.5t-35 -35t-59 -27.5t-85.5 -12.5q-46 0 -80 12t-50 28.5t-25 33.5t-10 29zM284 63q69 0 118 39l43 275q-4 9 -12.5 20t-35.5 25.5
t-62 14.5q-181 0 -181 -227q0 -147 130 -147zM39 -228l18 137l73 5l-4 -87q52 -18 101 -18q76 0 120 49t44 143q0 3 -0.5 11t-0.5 12v3h-1q-6 -5 -18 -12t-52 -19t-84 -12q-93 0 -143 61.5t-50 163.5q0 139 76.5 223t195.5 84q32 0 59 -6.5t42 -16t25 -19t14 -16.5l3 -6h3
l18 48h94l-72 -468q0 -4 0.5 -11t0.5 -10q0 -133 -80 -205t-200 -72q-56 0 -101.5 9.5t-63.5 18.5z" />
    <glyph glyph-name="Gcommaaccent" unicode="&#x122;" horiz-adv-x="713" 
d="M332 -47q52 0 52 -63q0 -48 -37.5 -106.5t-92.5 -94.5l-29 29q42 29 64 67.5t20 73.5q-14 2 -25 11q-11 13 -11 28q0 21 16.5 38t42.5 17zM551 447l6 91q-46 37 -120 37q-256 0 -256 -290q0 -98 50.5 -154t134.5 -56q42 0 75 10t51.5 26t27 28t13.5 23v1l12 83h-139
l11 73h236l-49 -319h-66l-4 51q-69 -67 -198 -67q-126 0 -200 79.5t-74 208.5q0 181 101.5 287t267.5 106q74 0 144 -50l18 40h67l-25 -208h-84z" />
    <glyph glyph-name="gcommaaccent" unicode="&#x123;" horiz-adv-x="607" 
d="M357 571q-52 0 -52 63q0 48 37.5 106.5t92.5 94.5l29 -29q-42 -29 -64 -67.5t-20 -73.5q14 -2 25 -11q11 -13 11 -28q0 -21 -16.5 -38t-42.5 -17zM284 63q69 0 118 39l43 275q-4 9 -12.5 20t-35.5 25.5t-62 14.5q-181 0 -181 -227q0 -147 130 -147zM39 -228l18 137l73 5
l-4 -87q52 -18 101 -18q76 0 120 49t44 143q0 3 -0.5 11t-0.5 12v3h-1q-6 -5 -18 -12t-52 -19t-84 -12q-93 0 -143 61.5t-50 163.5q0 139 76.5 223t195.5 84q32 0 59 -6.5t42 -16t25 -19t14 -16.5l3 -6h3l18 48h94l-72 -468q0 -4 0.5 -11t0.5 -10q0 -133 -80 -205t-200 -72
q-56 0 -101.5 9.5t-63.5 18.5z" />
    <glyph glyph-name="uni012A" unicode="&#x12a;" horiz-adv-x="346" 
d="M151 760l8 57h226l-8 -57h-226zM98 576l6 74h270l-11 -79l-75 -4l-76 -489l76 -4l-11 -74h-263l6 79l79 4l76 489z" />
    <glyph glyph-name="imacron" unicode="&#x12b;" horiz-adv-x="273" 
d="M99 625l8 57h226l-8 -57h-226zM67 421l6 79h169l-59 -382v-7q0 -32 21 -32l45 2l-4 -74q-60 -14 -116 -14q-32 0 -47.5 13.5t-15.5 44.5q0 7 2 25l52 341z" />
    <glyph glyph-name="Iogonek" unicode="&#x12e;" horiz-adv-x="346" 
d="M180 -195l-8 -55q-171 0 -171 105q0 84 107 145h-94l6 79l79 4l76 489l-77 4l6 74h270l-11 -79l-75 -4l-76 -489l76 -4l-11 -74h-77q-5 -2 -13 -5t-29 -15.5t-37 -27t-29 -39t-13 -52.5q0 -56 101 -56z" />
    <glyph glyph-name="iogonek" unicode="&#x12f;" horiz-adv-x="273" 
d="M219 708q56 0 56 -51q0 -27 -19.5 -48.5t-53.5 -21.5q-25 0 -41.5 14t-16.5 37q0 27 20.5 48.5t54.5 21.5zM145 -195l-8 -55q-171 0 -171 105q0 89 117 150q-17 14 -17 45q0 8 2 26l52 341l-53 4l6 79h169l-59 -382v-7q0 -32 21 -32l45 2l-4 -74q-47 -11 -96 -13
q-105 -46 -105 -133q0 -56 101 -56z" />
    <glyph glyph-name="Idotaccent" unicode="&#x130;" horiz-adv-x="346" 
d="M272 843q56 0 56 -51q0 -27 -19.5 -48.5t-53.5 -21.5q-25 0 -41.5 14t-16.5 37q0 27 20.5 48.5t54.5 21.5zM98 576l6 74h270l-11 -79l-75 -4l-76 -489l76 -4l-11 -74h-263l6 79l79 4l76 489z" />
    <glyph glyph-name="dotlessi" unicode="&#x131;" horiz-adv-x="273" 
d="M67 421l6 79h169l-59 -382v-7q0 -32 21 -32l45 2l-4 -74q-60 -14 -116 -14q-32 0 -47.5 13.5t-15.5 44.5q0 7 2 25l52 341z" />
    <glyph glyph-name="Kcommaaccent" unicode="&#x136;" horiz-adv-x="721" 
d="M311 -47q52 0 52 -63q0 -48 -37.5 -106.5t-92.5 -94.5l-29 29q42 29 64 67.5t20 73.5q-14 2 -25 11q-11 13 -11 28q0 21 16.5 38t42.5 17zM98 576l6 74h260l-10 -69l-65 -4l-37 -243l85 46l205 200l-31 3l9 67h246l-11 -79l-111 -4l-225 -221l178 -265l108 -2l-12 -79
h-180l-36 35l-155 240l-87 -51l-22 -141l75 -4l-11 -79h-263l6 79l79 4l76 489z" />
    <glyph glyph-name="kcommaaccent" unicode="&#x137;" horiz-adv-x="550" 
d="M253 -47q52 0 52 -63q0 -48 -37.5 -106.5t-92.5 -94.5l-29 29q42 29 64 67.5t20 73.5q-14 2 -25 11q-11 13 -11 28q0 21 16.5 38t42.5 17zM355 438q-61 0 -140 -74l-21 -138q39 3 74.5 10t75.5 22t64 43.5t24 67.5q0 69 -77 69zM418 -7q-34 0 -65.5 44t-75.5 134
q-33 -7 -94 -13l-24 -158h-109l103 667l-53 4l5 79h170l-45 -292q80 58 158 58q71 0 111 -34t40 -94q0 -123 -156 -186q65 -123 90 -123l49 2l-5 -74q-44 -14 -99 -14z" />
    <glyph glyph-name="Lacute" unicode="&#x139;" horiz-adv-x="560" 
d="M269 707l-73 5l116 145l103 -11zM98 576l6 74h270l-11 -79l-75 -4l-74 -481h230l24 88l82 -5l-32 -169h-504l6 79l79 4l76 489z" />
    <glyph glyph-name="lacute" unicode="&#x13a;" horiz-adv-x="267" 
d="M267 797l-73 5l116 145l103 -11zM99 671l7 79h170l-99 -632q-1 -39 21 -39l45 2l-4 -74q-59 -14 -116 -14q-63 0 -63 58q0 7 2 25l92 591z" />
    <glyph glyph-name="Lcommaaccent" unicode="&#x13b;" horiz-adv-x="560" 
d="M268 -47q52 0 52 -63q0 -48 -37.5 -106.5t-92.5 -94.5l-29 29q42 29 64 67.5t20 73.5q-14 2 -25 11q-11 13 -11 28q0 21 16.5 38t42.5 17zM98 576l6 74h270l-11 -79l-75 -4l-74 -481h230l24 88l82 -5l-32 -169h-504l6 79l79 4l76 489z" />
    <glyph glyph-name="lcommaaccent" unicode="&#x13c;" horiz-adv-x="267" 
d="M99 -47q52 0 52 -63q0 -48 -37.5 -106.5t-92.5 -94.5l-29 29q42 29 64 67.5t20 73.5q-14 2 -25 11q-11 13 -11 28q0 21 16.5 38t42.5 17zM99 671l7 79h170l-99 -632q-1 -39 21 -39l45 2l-4 -74q-59 -14 -116 -14q-63 0 -63 58q0 7 2 25l92 591z" />
    <glyph glyph-name="Lcaron" unicode="&#x13d;" horiz-adv-x="560" 
d="M112 804l43 63l113 -89l141 89l25 -63l-147 -97h-59zM98 576l6 74h270l-11 -79l-75 -4l-74 -481h230l24 88l82 -5l-32 -169h-504l6 79l79 4l76 489z" />
    <glyph glyph-name="lcaron" unicode="&#x13e;" horiz-adv-x="267" 
d="M366 544l-63 9q23 36 39.5 88.5t18.5 93.5l15 47l73 -10q-12 -57 -35.5 -123t-47.5 -105zM99 671l7 79h170l-99 -632q-1 -39 21 -39l45 2l-4 -74q-59 -14 -116 -14q-63 0 -63 58q0 7 2 25l92 591z" />
    <glyph glyph-name="Lslash" unicode="&#x141;" horiz-adv-x="579" 
d="M113 576l6 74h270l-11 -79l-75 -4l-29 -186l141 83l22 -46l-173 -100l-35 -232h230l24 88l82 -5l-32 -169h-504l6 79l79 4l25 162l-78 -45l-21 45l109 63l41 264z" />
    <glyph glyph-name="lslash" unicode="&#x142;" horiz-adv-x="362" 
d="M146 671l7 79h170l-49 -309l82 51l22 -45l-114 -71l-40 -258q-1 -39 21 -39l45 2l-4 -74q-59 -14 -116 -14q-63 0 -63 58q0 7 2 25l35 225l-69 -43l-23 45l102 63l47 301z" />
    <glyph glyph-name="Nacute" unicode="&#x143;" horiz-adv-x="790" 
d="M503 707l-73 5l116 145l103 -11zM539 -5l-274 493h-2l-2 -43l-59 -364l77 -4l-11 -77h-254l6 79l79 4l76 489l-77 4l6 74h201l270 -502h1l1 33l62 387l-77 5l5 77h262l-11 -79l-74 -4l-89 -572h-116z" />
    <glyph glyph-name="nacute" unicode="&#x144;" horiz-adv-x="606" 
d="M376 572l-73 5l116 145l103 -11zM404 52q0 18 22.5 155t22.5 152q0 66 -94 66q-77 0 -132 -44l-58 -381h-109l64 417l-53 4l6 79h156l3 -40q64 56 174 56q156 0 156 -123q0 -17 -3 -38l-38 -243q1 -33 21 -33l46 2l-4 -74q-60 -14 -116 -14q-64 0 -64 59z" />
    <glyph glyph-name="Ncommaaccent" unicode="&#x145;" horiz-adv-x="790" 
d="M354 -47q52 0 52 -63q0 -48 -37.5 -106.5t-92.5 -94.5l-29 29q42 29 64 67.5t20 73.5q-14 2 -25 11q-11 13 -11 28q0 21 16.5 38t42.5 17zM539 -5l-274 493h-2l-2 -43l-59 -364l77 -4l-11 -77h-254l6 79l79 4l76 489l-77 4l6 74h201l270 -502h1l1 33l62 387l-77 5l5 77
h262l-11 -79l-74 -4l-89 -572h-116z" />
    <glyph glyph-name="ncommaaccent" unicode="&#x146;" horiz-adv-x="606" 
d="M282 -47q52 0 52 -63q0 -48 -37.5 -106.5t-92.5 -94.5l-29 29q42 29 64 67.5t20 73.5q-14 2 -25 11q-11 13 -11 28q0 21 16.5 38t42.5 17zM404 52q0 18 22.5 155t22.5 152q0 66 -94 66q-77 0 -132 -44l-58 -381h-109l64 417l-53 4l6 79h156l3 -40q64 56 174 56
q156 0 156 -123q0 -17 -3 -38l-38 -243q1 -33 21 -33l46 2l-4 -74q-60 -14 -116 -14q-64 0 -64 59z" />
    <glyph glyph-name="Ncaron" unicode="&#x147;" horiz-adv-x="790" 
d="M357 804l43 63l113 -89l141 89l25 -63l-147 -97h-59zM539 -5l-274 493h-2l-2 -43l-59 -364l77 -4l-11 -77h-254l6 79l79 4l76 489l-77 4l6 74h201l270 -502h1l1 33l62 387l-77 5l5 77h262l-11 -79l-74 -4l-89 -572h-116z" />
    <glyph glyph-name="ncaron" unicode="&#x148;" horiz-adv-x="606" 
d="M207 669l43 63l113 -89l141 89l25 -63l-147 -97h-59zM404 52q0 18 22.5 155t22.5 152q0 66 -94 66q-77 0 -132 -44l-58 -381h-109l64 417l-53 4l6 79h156l3 -40q64 56 174 56q156 0 156 -123q0 -17 -3 -38l-38 -243q1 -33 21 -33l46 2l-4 -74q-60 -14 -116 -14
q-64 0 -64 59z" />
    <glyph glyph-name="Omacron" unicode="&#x14c;" horiz-adv-x="753" 
d="M356 760l8 57h226l-8 -57h-226zM356 74q65 0 116.5 30.5t82 79t46 103t15.5 108.5q0 87 -46.5 133.5t-133.5 46.5q-120 0 -188 -77.5t-68 -216.5q0 -92 46 -149.5t130 -57.5zM735 405q0 -72 -23.5 -143.5t-69 -135t-123.5 -103t-176 -39.5q-133 0 -206.5 81.5
t-73.5 213.5q0 178 103 282t282 104q138 0 212.5 -68.5t74.5 -191.5z" />
    <glyph glyph-name="omacron" unicode="&#x14d;" horiz-adv-x="571" 
d="M251 625l8 57h226l-8 -57h-226zM270 61q86 0 132.5 64t46.5 181q0 63 -30 97.5t-89 34.5q-87 0 -132.5 -61t-45.5 -179q0 -64 30 -100.5t88 -36.5zM259 -16q-107 0 -162.5 58.5t-55.5 161.5q0 144 78.5 228t221.5 84q107 0 163.5 -56t56.5 -156q0 -142 -82 -231t-220 -89
z" />
    <glyph glyph-name="Ohungarumlaut" unicode="&#x150;" horiz-adv-x="753" 
d="M495 732l99 162l60 -25l-80 -144zM335 732l99 162l59 -25l-80 -144zM356 74q65 0 116.5 30.5t82 79t46 103t15.5 108.5q0 87 -46.5 133.5t-133.5 46.5q-120 0 -188 -77.5t-68 -216.5q0 -92 46 -149.5t130 -57.5zM735 405q0 -72 -23.5 -143.5t-69 -135t-123.5 -103
t-176 -39.5q-133 0 -206.5 81.5t-73.5 213.5q0 178 103 282t282 104q138 0 212.5 -68.5t74.5 -191.5z" />
    <glyph glyph-name="ohungarumlaut" unicode="&#x151;" horiz-adv-x="571" 
d="M390 597l99 162l60 -25l-80 -144zM230 597l99 162l59 -25l-80 -144zM270 61q86 0 132.5 64t46.5 181q0 63 -30 97.5t-89 34.5q-87 0 -132.5 -61t-45.5 -179q0 -64 30 -100.5t88 -36.5zM259 -16q-107 0 -162.5 58.5t-55.5 161.5q0 144 78.5 228t221.5 84q107 0 163.5 -56
t56.5 -156q0 -142 -82 -231t-220 -89z" />
    <glyph glyph-name="OE" unicode="&#x152;" horiz-adv-x="1079" 
d="M356 74q65 0 116.5 30.5t82 79t46 103t15.5 108.5q0 87 -46.5 133.5t-133.5 46.5q-120 0 -188 -77.5t-68 -216.5q0 -92 46 -149.5t130 -57.5zM560 0l8 53q-96 -69 -225 -69q-133 0 -206.5 81.5t-73.5 213.5q0 178 103 282t282 104q129 0 205 -62l7 47h324l98 5l-1 -5h1
l-18 -159h-88l3 73h-218l-26 -164q0 -9 -2 -31l275 1l-12 -83h-277q-1 -7 -5 -19l-28 -182h243l22 82l82 -5l-30 -163h-443z" />
    <glyph glyph-name="oe" unicode="&#x153;" horiz-adv-x="916" 
d="M717 438q-55 0 -96 -32t-60 -92v-10q0 -16 -1 -24q144 0 200.5 18t56.5 66q0 33 -25.5 53.5t-74.5 20.5zM439 209q0 26 5 54t5 43q0 63 -30 97.5t-89 34.5q-87 0 -132.5 -61t-45.5 -179q0 -64 30 -100.5t88 -36.5q66 0 109 38t60 110zM821 126l55 -39q-2 -4 -6.5 -11
t-22.5 -25t-39.5 -31.5t-59 -24.5t-80.5 -11q-133 0 -192 86q-83 -86 -217 -86q-107 0 -162.5 58.5t-55.5 161.5q0 144 78.5 228t221.5 84q131 0 186 -84q82 84 202 84q82 0 133.5 -40.5t51.5 -106.5q0 -86 -83.5 -120.5t-279.5 -35.5l-6 -22q3 -61 41.5 -93.5t96.5 -32.5
q42 0 76.5 15t48.5 30z" />
    <glyph glyph-name="Racute" unicode="&#x154;" horiz-adv-x="638" 
d="M410 707l-73 5l116 145l103 -11zM352 568h-72l-41 -261h79q78 0 123 41.5t45 124.5q0 95 -134 95zM98 576l6 74h279q107 0 164.5 -41.5t57.5 -122.5q0 -86 -46 -147.5t-119 -91.5l92 -166l98 -2l-11 -79h-166l-30 33l-97 191h-100l-23 -152l66 -3l-9 -69h-246l6 79l79 8
l76 485z" />
    <glyph glyph-name="racute" unicode="&#x155;" horiz-adv-x="436" 
d="M297 572l-73 5l116 145l103 -11zM363 332l-2 96q-8 1 -23 1q-33 0 -61.5 -16.5t-40 -30.5t-16.5 -25l-55 -357h-109l64 417l-64 4l6 79h156v-69h2l6 9t17.5 20.5t29.5 26t43 20.5t56 9q20 0 41.5 -4t32.5 -8l11 -4l-19 -168h-75z" />
    <glyph glyph-name="Rcommaaccent" unicode="&#x156;" horiz-adv-x="638" 
d="M294 -47q52 0 52 -63q0 -48 -37.5 -106.5t-92.5 -94.5l-29 29q42 29 64 67.5t20 73.5q-14 2 -25 11q-11 13 -11 28q0 21 16.5 38t42.5 17zM352 568h-72l-41 -261h79q78 0 123 41.5t45 124.5q0 95 -134 95zM98 576l6 74h279q107 0 164.5 -41.5t57.5 -122.5
q0 -86 -46 -147.5t-119 -91.5l92 -166l98 -2l-11 -79h-166l-30 33l-97 191h-100l-23 -152l66 -3l-9 -69h-246l6 79l79 8l76 485z" />
    <glyph glyph-name="rcommaaccent" unicode="&#x157;" horiz-adv-x="436" 
d="M101 -47q52 0 52 -63q0 -48 -37.5 -106.5t-92.5 -94.5l-29 29q42 29 64 67.5t20 73.5q-14 2 -25 11q-11 13 -11 28q0 21 16.5 38t42.5 17zM363 332l-2 96q-8 1 -23 1q-33 0 -61.5 -16.5t-40 -30.5t-16.5 -25l-55 -357h-109l64 417l-64 4l6 79h156v-69h2l6 9t17.5 20.5
t29.5 26t43 20.5t56 9q20 0 41.5 -4t32.5 -8l11 -4l-19 -168h-75z" />
    <glyph glyph-name="Rcaron" unicode="&#x158;" horiz-adv-x="638" 
d="M243 804l43 63l113 -89l141 89l25 -63l-147 -97h-59zM352 568h-72l-41 -261h79q78 0 123 41.5t45 124.5q0 95 -134 95zM98 576l6 74h279q107 0 164.5 -41.5t57.5 -122.5q0 -86 -46 -147.5t-119 -91.5l92 -166l98 -2l-11 -79h-166l-30 33l-97 191h-100l-23 -152l66 -3
l-9 -69h-246l6 79l79 8l76 485z" />
    <glyph glyph-name="rcaron" unicode="&#x159;" horiz-adv-x="436" 
d="M129 669l43 63l113 -89l141 89l25 -63l-147 -97h-59zM363 332l-2 96q-8 1 -23 1q-33 0 -61.5 -16.5t-40 -30.5t-16.5 -25l-55 -357h-109l64 417l-64 4l6 79h156v-69h2l6 9t17.5 20.5t29.5 26t43 20.5t56 9q20 0 41.5 -4t32.5 -8l11 -4l-19 -168h-75z" />
    <glyph glyph-name="Sacute" unicode="&#x15a;" horiz-adv-x="573" 
d="M409 707l-73 5l116 145l103 -11zM465 486l2 62q-39 36 -97 36q-65 0 -103 -28.5t-38 -78.5q0 -33 31.5 -57.5t76 -42t89 -37.5t76 -55.5t31.5 -85.5q0 -99 -73.5 -157t-202.5 -58q-64 0 -117.5 10t-75.5 20l-22 10l21 160l78 5l-2 -103q57 -19 118 -19q79 0 120 32t41 81
q0 31 -31 54.5t-76 41t-89.5 38.5t-75.5 59t-31 91q0 91 68.5 146t175.5 55q67 0 125 -49l21 39h67l-19 -169h-88z" />
    <glyph glyph-name="sacute" unicode="&#x15b;" horiz-adv-x="480" 
d="M335 572l-73 5l116 145l103 -11zM385 359l-3 48q-44 33 -95 33q-39 0 -64.5 -17t-25.5 -47q0 -26 25.5 -44t61.5 -30.5t72 -27t61.5 -42.5t25.5 -68q0 -79 -60.5 -129.5t-188.5 -50.5q-46 0 -86 6t-57 12l-17 7l10 137l68 5l-3 -78q46 -13 95 -13q60 0 92 24.5t32 60.5
q0 24 -25 42t-60.5 31t-71 29t-60.5 45.5t-25 71.5q0 73 53.5 112.5t136.5 39.5q61 0 121 -42l16 31h55l-16 -146h-67z" />
    <glyph glyph-name="Scedilla" unicode="&#x15e;" horiz-adv-x="573" 
d="M113 -213l24 41q29 -29 74 -29q68 0 68 54q0 13 -8.5 23t-20.5 15.5t-24 9t-20 5.5t-8 4l21 75q-52 3 -96.5 12.5t-62.5 18.5l-18 8l21 160l78 5l-2 -103q57 -19 118 -19q79 0 120 32t41 81q0 31 -31 54.5t-76 41t-89.5 38.5t-75.5 59t-31 91q0 91 68.5 146t175.5 55
q67 0 125 -49l21 39h67l-19 -169h-88l2 62q-39 36 -97 36q-65 0 -103 -28.5t-38 -78.5q0 -33 31.5 -57.5t76 -42t89 -37.5t76 -55.5t31.5 -85.5q0 -96 -69 -153.5t-191 -61.5l-12 -46q0 -1 22.5 -8t46 -26t23.5 -49q0 -48 -34.5 -77t-98.5 -29q-33 0 -60 9.5t-37 19.5z" />
    <glyph glyph-name="scedilla" unicode="&#x15f;" horiz-adv-x="480" 
d="M52 -213l24 41q29 -29 74 -29q68 0 68 54q0 13 -8.5 23t-20.5 15.5t-24 9t-20 5.5t-8 4l21 75q-36 2 -67 8t-44 11l-13 5l10 137l68 5l-3 -78q46 -13 95 -13q60 0 92 24.5t32 60.5q0 24 -25 42t-60.5 31t-71 29t-60.5 45.5t-25 71.5q0 73 53.5 112.5t136.5 39.5
q61 0 121 -42l16 31h55l-16 -146h-67l-3 48q-44 33 -95 33q-39 0 -64.5 -17t-25.5 -47q0 -26 25.5 -44t61.5 -30.5t72 -27t61.5 -42.5t25.5 -68q0 -76 -56.5 -126t-174.5 -54l-12 -46q0 -1 22.5 -8t46 -26t23.5 -49q0 -48 -34.5 -77t-98.5 -29q-33 0 -60 9.5t-37 19.5z" />
    <glyph glyph-name="Scaron" unicode="&#x160;" horiz-adv-x="573" 
d="M241 804l43 63l113 -89l141 89l25 -63l-147 -97h-59zM465 486l2 62q-39 36 -97 36q-65 0 -103 -28.5t-38 -78.5q0 -33 31.5 -57.5t76 -42t89 -37.5t76 -55.5t31.5 -85.5q0 -99 -73.5 -157t-202.5 -58q-64 0 -117.5 10t-75.5 20l-22 10l21 160l78 5l-2 -103
q57 -19 118 -19q79 0 120 32t41 81q0 31 -31 54.5t-76 41t-89.5 38.5t-75.5 59t-31 91q0 91 68.5 146t175.5 55q67 0 125 -49l21 39h67l-19 -169h-88z" />
    <glyph glyph-name="scaron" unicode="&#x161;" horiz-adv-x="480" 
d="M156 669l43 63l113 -89l141 89l25 -63l-147 -97h-59zM385 359l-3 48q-44 33 -95 33q-39 0 -64.5 -17t-25.5 -47q0 -26 25.5 -44t61.5 -30.5t72 -27t61.5 -42.5t25.5 -68q0 -79 -60.5 -129.5t-188.5 -50.5q-46 0 -86 6t-57 12l-17 7l10 137l68 5l-3 -78q46 -13 95 -13
q60 0 92 24.5t32 60.5q0 24 -25 42t-60.5 31t-71 29t-60.5 45.5t-25 71.5q0 73 53.5 112.5t136.5 39.5q61 0 121 -42l16 31h55l-16 -146h-67z" />
    <glyph glyph-name="Tcommaaccent" unicode="&#x162;" horiz-adv-x="562" 
d="M245 -47q52 0 52 -63q0 -48 -37.5 -106.5t-92.5 -94.5l-29 29q42 29 64 67.5t20 73.5q-14 2 -25 11q-11 13 -11 28q0 21 16.5 38t42.5 17zM122 0l6 79l78 4l74 481h-132l-22 -83h-82l30 174l97 -5h361l98 5l-21 -174h-83l3 83h-134l-74 -481l75 -4l-11 -79h-263z" />
    <glyph glyph-name="tcommaaccent" unicode="&#x163;" horiz-adv-x="382" 
d="M161 -47q52 0 52 -63q0 -48 -37.5 -106.5t-92.5 -94.5l-29 29q42 29 64 67.5t20 73.5q-14 2 -25 11q-11 13 -11 28q0 21 16.5 38t42.5 17zM75 416l5 79l65 4l38 163h96l-26 -162h142l-12 -84h-143l-39 -254q-3 -19 -3 -34q0 -27 12 -39t38 -12q19 0 38.5 2.5t29.5 4.5
l9 2l-9 -71q-34 -24 -115 -24q-59 0 -87.5 23.5t-28.5 77.5q0 22 4 45l43 279h-57z" />
    <glyph glyph-name="Tcaron" unicode="&#x164;" horiz-adv-x="562" 
d="M213 804l43 63l113 -89l141 89l25 -63l-147 -97h-59zM122 0l6 79l78 4l74 481h-132l-22 -83h-82l30 174l97 -5h361l98 5l-21 -174h-83l3 83h-134l-74 -481l75 -4l-11 -79h-263z" />
    <glyph glyph-name="tcaron" unicode="&#x165;" horiz-adv-x="382" 
d="M418 544l-63 9q23 36 39.5 88.5t18.5 93.5l15 47l73 -10q-12 -57 -35.5 -123t-47.5 -105zM75 416l5 79l65 4l38 163h96l-26 -162h142l-12 -84h-143l-39 -254q-3 -19 -3 -34q0 -27 12 -39t38 -12q19 0 38.5 2.5t29.5 4.5l9 2l-9 -71q-34 -24 -115 -24q-59 0 -87.5 23.5
t-28.5 77.5q0 22 4 45l43 279h-57z" />
    <glyph glyph-name="Umacron" unicode="&#x16a;" horiz-adv-x="738" 
d="M344 760l8 57h226l-8 -57h-226zM515 573l6 77h265l-10 -74l-76 -5l-52 -339q-16 -108 -94.5 -178t-216.5 -70q-122 0 -181 56t-59 146q0 14 4 46l53 340l-76 4l5 74h270l-10 -74l-75 -4l-50 -317q-3 -21 -3 -41q0 -61 34 -97t104 -36q82 0 130 48t61 126l49 313z" />
    <glyph glyph-name="umacron" unicode="&#x16b;" horiz-adv-x="602" 
d="M260 625l8 57h226l-8 -57h-226zM396 421l6 79h170l-59 -379v-8q0 -34 19 -34l45 2l-4 -74q-59 -14 -116 -14q-29 0 -42 11t-14 37h-4q-6 -6 -18.5 -15.5t-58 -25.5t-98.5 -16q-75 0 -114.5 37t-39.5 105q0 20 3 39l38 252l-53 4l6 79h170l-50 -314q-2 -16 -2 -24
q0 -40 23.5 -63.5t69.5 -23.5q36 0 69 11t48 22l14 11l46 298z" />
    <glyph glyph-name="Uring" unicode="&#x16e;" horiz-adv-x="738" 
d="M452 768q29 0 48.5 20.5t19.5 51.5q0 23 -13.5 37.5t-34.5 14.5q-28 0 -48.5 -20.5t-20.5 -51.5q0 -23 13.5 -37.5t35.5 -14.5zM446 720q-44 0 -69 25.5t-25 67.5q0 54 37 90t90 36q40 0 66 -26.5t26 -67.5q0 -53 -36 -89t-89 -36zM515 573l6 77h265l-10 -74l-76 -5
l-52 -339q-16 -108 -94.5 -178t-216.5 -70q-122 0 -181 56t-59 146q0 14 4 46l53 340l-76 4l5 74h270l-10 -74l-75 -4l-50 -317q-3 -21 -3 -41q0 -61 34 -97t104 -36q82 0 130 48t61 126l49 313z" />
    <glyph glyph-name="uring" unicode="&#x16f;" horiz-adv-x="602" 
d="M368 632q29 0 48.5 20.5t19.5 51.5q0 23 -13.5 37.5t-34.5 14.5q-28 0 -48.5 -20.5t-20.5 -51.5q0 -23 13.5 -37.5t35.5 -14.5zM362 584q-44 0 -69 25.5t-25 67.5q0 54 37 90t90 36q40 0 66 -26.5t26 -67.5q0 -53 -36 -89t-89 -36zM396 421l6 79h170l-59 -379v-8
q0 -34 19 -34l45 2l-4 -74q-59 -14 -116 -14q-29 0 -42 11t-14 37h-4q-6 -6 -18.5 -15.5t-58 -25.5t-98.5 -16q-75 0 -114.5 37t-39.5 105q0 20 3 39l38 252l-53 4l6 79h170l-50 -314q-2 -16 -2 -24q0 -40 23.5 -63.5t69.5 -23.5q36 0 69 11t48 22l14 11l46 298z" />
    <glyph glyph-name="Uhungarumlaut" unicode="&#x170;" horiz-adv-x="738" 
d="M473 732l99 162l60 -25l-80 -144zM313 732l99 162l59 -25l-80 -144zM515 573l6 77h265l-10 -74l-76 -5l-52 -339q-16 -108 -94.5 -178t-216.5 -70q-122 0 -181 56t-59 146q0 14 4 46l53 340l-76 4l5 74h270l-10 -74l-75 -4l-50 -317q-3 -21 -3 -41q0 -61 34 -97t104 -36
q82 0 130 48t61 126l49 313z" />
    <glyph glyph-name="uhungarumlaut" unicode="&#x171;" horiz-adv-x="602" 
d="M400 597l99 162l60 -25l-80 -144zM240 597l99 162l59 -25l-80 -144zM396 421l6 79h170l-59 -379v-8q0 -34 19 -34l45 2l-4 -74q-59 -14 -116 -14q-29 0 -42 11t-14 37h-4q-6 -6 -18.5 -15.5t-58 -25.5t-98.5 -16q-75 0 -114.5 37t-39.5 105q0 20 3 39l38 252l-53 4l6 79
h170l-50 -314q-2 -16 -2 -24q0 -40 23.5 -63.5t69.5 -23.5q36 0 69 11t48 22l14 11l46 298z" />
    <glyph glyph-name="Uogonek" unicode="&#x172;" horiz-adv-x="738" 
d="M410 -195l-8 -55q-171 0 -171 105q0 74 83 130q-110 6 -163.5 60.5t-53.5 140.5q0 14 4 46l53 340l-76 4l5 74h270l-10 -74l-75 -4l-50 -317q-3 -21 -3 -41q0 -61 34 -97t104 -36q82 0 130 48t61 126l49 313l-78 5l6 77h265l-10 -74l-76 -5l-52 -339q-15 -94 -76 -160.5
t-168 -82.5q-95 -46 -95 -128q0 -56 101 -56z" />
    <glyph glyph-name="uogonek" unicode="&#x173;" horiz-adv-x="602" 
d="M473 -195l-8 -55q-171 0 -171 105q0 89 119 151q-12 10 -12 35h-4q-6 -6 -18.5 -15.5t-58 -25.5t-98.5 -16q-75 0 -114.5 37t-39.5 105q0 20 3 39l38 252l-53 4l6 79h170l-50 -314q-2 -16 -2 -24q0 -40 23.5 -63.5t69.5 -23.5q36 0 69 11t48 22l14 11l46 298l-54 4l6 79
h170l-59 -379v-8q0 -34 19 -34l45 2l-4 -74q-46 -11 -96 -13q-105 -46 -105 -133q0 -56 101 -56z" />
    <glyph glyph-name="Ydieresis" unicode="&#x178;" horiz-adv-x="643" 
d="M328 729q-22 0 -35.5 13t-13.5 33q0 25 17 42.5t46 17.5q23 0 36.5 -12.5t13.5 -32.5q0 -24 -18 -42.5t-46 -18.5zM519 729q-19 0 -34 10.5t-15 35.5q0 24 17.5 42t46.5 18q23 0 36 -12t13 -33q0 -24 -18 -42.5t-46 -18.5zM168 0l6 79l79 4l27 178l-154 312l-92 3l5 74
h267l-9 -74l-45 -3l104 -215l168 213l-40 2l12 77h244l-12 -79l-91 -3l-242 -305l-28 -180l76 -4l-12 -79h-263z" />
    <glyph glyph-name="Zacute" unicode="&#x179;" horiz-adv-x="616" 
d="M422 707l-73 5l116 145l103 -11zM98 491l26 155l1 4l1 5l97 -5h413l-10 -76l-455 -488h296l22 82l82 -5l-31 -163h-526l11 75l454 489h-277l-17 -73h-87z" />
    <glyph glyph-name="zacute" unicode="&#x17a;" horiz-adv-x="498" 
d="M354 572l-73 5l116 145l103 -11zM77 348l29 162l86 -10h307l-5 -72l-314 -332q15 -2 79.5 -13t102.5 -14l24 93l76 -5l-30 -172q-74 0 -181.5 17t-141.5 19l-52 -37l-54 64l357 371h-189l-17 -71h-77z" />
    <glyph glyph-name="Zdotaccent" unicode="&#x17b;" horiz-adv-x="616" 
d="M417 843q56 0 56 -51q0 -27 -19.5 -48.5t-53.5 -21.5q-25 0 -41.5 14t-16.5 37q0 27 20.5 48.5t54.5 21.5zM98 491l26 155l1 4l1 5l97 -5h413l-10 -76l-455 -488h296l22 82l82 -5l-31 -163h-526l11 75l454 489h-277l-17 -73h-87z" />
    <glyph glyph-name="zdotaccent" unicode="&#x17c;" horiz-adv-x="498" 
d="M348 708q56 0 56 -51q0 -27 -19.5 -48.5t-53.5 -21.5q-25 0 -41.5 14t-16.5 37q0 27 20.5 48.5t54.5 21.5zM77 348l29 162l86 -10h307l-5 -72l-314 -332q15 -2 79.5 -13t102.5 -14l24 93l76 -5l-30 -172q-74 0 -181.5 17t-141.5 19l-52 -37l-54 64l357 371h-189l-17 -71
h-77z" />
    <glyph glyph-name="Zcaron" unicode="&#x17d;" horiz-adv-x="616" 
d="M255 804l43 63l113 -89l141 89l25 -63l-147 -97h-59zM98 491l26 155l1 4l1 5l97 -5h413l-10 -76l-455 -488h296l22 82l82 -5l-31 -163h-526l11 75l454 489h-277l-17 -73h-87z" />
    <glyph glyph-name="zcaron" unicode="&#x17e;" horiz-adv-x="498" 
d="M185 669l43 63l113 -89l141 89l25 -63l-147 -97h-59zM77 348l29 162l86 -10h307l-5 -72l-314 -332q15 -2 79.5 -13t102.5 -14l24 93l76 -5l-30 -172q-74 0 -181.5 17t-141.5 19l-52 -37l-54 64l357 371h-189l-17 -71h-77z" />
    <glyph glyph-name="longs" unicode="&#x17f;" horiz-adv-x="288" 
d="M245 489l-114 -739h-107l116 750q0 265 191 265q40 0 90 -31l11 21h62l-17 -151h-77l3 55q-26 26 -57 26q-49 0 -75 -44t-26 -152z" />
    <glyph glyph-name="florin" unicode="&#x192;" horiz-adv-x="376" 
d="M414 604l3 55q-26 26 -58 26q-47 0 -73 -41.5t-27 -143.5h162l-12 -84h-162l-70 -457q-18 -115 -76 -170t-128 -55q-35 0 -59.5 5t-31.5 11l-7 5l40 85q27 -11 59 -11t58 32t37 98l72 457h-58l11 79l60 5q0 265 191 265q43 0 89 -32l12 22h61l-16 -151h-77z" />
    <glyph glyph-name="dotlessj" unicode="&#x237;" horiz-adv-x="271" 
d="M73 421l6 79h168l-82 -531q-18 -116 -77.5 -175.5t-128.5 -59.5q-35 0 -58 5t-29 11l-6 5l35 85q26 -11 59 -11q31 0 58 36.5t38 103.5l69 448z" />
    <glyph glyph-name="circumflex" unicode="&#x2c6;" horiz-adv-x="392" 
d="M130 588l-25 62l146 97h59l115 -97l-42 -62l-113 87z" />
    <glyph glyph-name="caron" unicode="&#x2c7;" horiz-adv-x="391" 
d="M108 669l43 63l113 -89l141 89l25 -63l-147 -97h-59z" />
    <glyph glyph-name="breve" unicode="&#x2d8;" horiz-adv-x="415" 
d="M99 696l94 13v-1q0 -2 0.5 -6t5.5 -13.5t13 -17t25 -13.5t39 -6t40.5 6t29.5 14t18.5 16t9.5 14l3 6v1l90 -13q-1 -5 -4.5 -12.5t-18 -27.5t-35 -35t-59 -27.5t-85.5 -12.5q-46 0 -80 12t-50 28.5t-25 33.5t-10 29z" />
    <glyph glyph-name="dotaccent" unicode="&#x2d9;" horiz-adv-x="433" 
d="M325 708q56 0 56 -51q0 -27 -19.5 -48.5t-53.5 -21.5q-25 0 -41.5 14t-16.5 37q0 27 20.5 48.5t54.5 21.5z" />
    <glyph glyph-name="ring" unicode="&#x2da;" horiz-adv-x="473" 
d="M239 632q29 0 48.5 20.5t19.5 51.5q0 23 -13.5 37.5t-34.5 14.5q-28 0 -48.5 -20.5t-20.5 -51.5q0 -23 13.5 -37.5t35.5 -14.5zM233 584q-44 0 -69 25.5t-25 67.5q0 54 37 90t90 36q40 0 66 -26.5t26 -67.5q0 -53 -36 -89t-89 -36z" />
    <glyph glyph-name="ogonek" unicode="&#x2db;" horiz-adv-x="271" 
d="M163 -195l-8 -55q-171 0 -171 105q0 34 18.5 64.5t44.5 50t52 34.5t45 22l18 6l21 -32q-5 -2 -13 -5t-29 -15.5t-37 -27t-29 -39t-13 -52.5q0 -56 101 -56z" />
    <glyph glyph-name="tilde" unicode="&#x2dc;" horiz-adv-x="465" 
d="M129 606l-5 61q1 2 3.5 5.5t12 13t20.5 16.5t30.5 12.5t41.5 5.5q41 0 94 -26t80 -26q20 0 37.5 5t24.5 10l8 5l5 -55l-2.5 -5t-8.5 -10.5t-16.5 -13t-27 -10.5t-39.5 -5q-37 0 -90.5 24.5t-83.5 24.5q-20 0 -41 -8t-32 -16z" />
    <glyph glyph-name="hungarumlaut" unicode="&#x2dd;" horiz-adv-x="446" 
d="M276 597l99 162l60 -25l-80 -144zM116 597l99 162l59 -25l-80 -144z" />
    <glyph glyph-name="tonos" unicode="&#x384;" horiz-adv-x="249" 
d="M194 561l-50 15l93 194l68 -22z" />
    <glyph glyph-name="dieresistonos" unicode="&#x385;" horiz-adv-x="250" 
d="M181 561l-50 15l93 194l68 -22zM58 595q-26 0 -37.5 14t-11.5 31q0 26 19 43t45 17q22 0 35 -12.5t13 -32.5q0 -24 -17.5 -42t-45.5 -18zM315 595q-26 0 -37 14t-11 31q0 24 17.5 42t45.5 18q17 0 33 -10.5t16 -33.5q0 -24 -17.5 -42.5t-46.5 -18.5z" />
    <glyph glyph-name="Alphatonos" unicode="&#x386;" horiz-adv-x="705" 
d="M156 561l-50 15l93 194l68 -22zM404 560l-153 -297h212zM-33 0l7 79l75 4l300 567h150l124 -573l71 -3l-10 -74h-249l9 64l63 3l-29 124h-265l-65 -120l64 -4l-9 -67h-236z" />
    <glyph glyph-name="Epsilontonos" unicode="&#x388;" horiz-adv-x="681" 
d="M89 561l-50 15l93 194l68 -22zM577 491l4 73h-218l-31 -195l279 1l-12 -83h-280l-31 -201h244l22 82l82 -5l-31 -163h-515l6 79l79 4l76 489l-77 4l6 74h407l98 5l-19 -164h-89z" />
    <glyph glyph-name="Etatonos" unicode="&#x389;" horiz-adv-x="849" 
d="M89 561l-50 15l93 194l68 -22zM518 0l5 79l78 4l31 199h-312l-31 -199l75 -4l-11 -79h-263l6 79l79 4l76 489l-77 4l6 74h270l-11 -79l-75 -4l-31 -202h312l31 202l-75 4l6 79h271l-13 -79l-75 -4l-75 -489l76 -4l-10 -74h-263z" />
    <glyph glyph-name="Iotatonos" unicode="&#x38a;" horiz-adv-x="422" 
d="M89 561l-50 15l93 194l68 -22zM174 576l6 74h270l-11 -79l-75 -4l-76 -489l76 -4l-11 -74h-263l6 79l79 4l76 489z" />
    <glyph glyph-name="Omicrontonos" unicode="&#x38c;" horiz-adv-x="790" 
d="M118 561l-50 15l93 194l68 -22zM394 74q65 0 116.5 30.5t82 79t46 103t15.5 108.5q0 87 -46.5 133.5t-133.5 46.5q-120 0 -188 -77.5t-68 -216.5q0 -92 46 -149.5t130 -57.5zM773 405q0 -72 -23.5 -143.5t-69 -135t-123.5 -103t-176 -39.5q-133 0 -206.5 81.5
t-73.5 213.5q0 178 103 282t282 104q138 0 212.5 -68.5t74.5 -191.5z" />
    <glyph glyph-name="Upsilontonos" unicode="&#x38e;" horiz-adv-x="643" 
d="M-31 561l-50 15l93 194l68 -22zM168 0l6 79l79 4l27 178l-154 312l-92 3l5 74h267l-9 -74l-45 -3l104 -215l168 213l-40 2l12 77h244l-12 -79l-91 -3l-242 -305l-28 -180l76 -4l-12 -79h-263z" />
    <glyph glyph-name="Omegatonos" unicode="&#x38f;" horiz-adv-x="788" 
d="M118 561l-50 15l93 194l68 -22zM54 0l13 122l59 5l3 -46h145l8 6q-28 11 -53.5 27.5t-54.5 45t-46.5 72.5t-17.5 98q0 147 101 241t274 94q136 0 210 -67t74 -180q0 -62 -19.5 -115.5t-47.5 -87.5t-66.5 -62t-68.5 -42t-61 -25l7 -5h145l17 46l57 -5l-24 -122h-275
l14 139q8 3 22 9t49 29t62 51.5t49 78.5t22 107q0 74 -46.5 117.5t-132.5 43.5q-114 0 -178.5 -65.5t-64.5 -174.5q0 -41 13 -76t31.5 -56t37 -36.5t31.5 -21.5l13 -6l-25 -139h-276z" />
    <glyph glyph-name="iotadieresistonos" unicode="&#x390;" horiz-adv-x="273" 
d="M197 561l-50 15l93 194l68 -22zM67 421l6 79h169l-59 -382v-7q0 -32 21 -32l45 2l-4 -74q-60 -14 -116 -14q-32 0 -47.5 13.5t-15.5 44.5q0 7 2 25l52 341zM81 595q-26 0 -37.5 14t-11.5 31q0 26 19 43t45 17q22 0 35 -12.5t13 -32.5q0 -24 -17.5 -42t-45.5 -18zM338 595
q-26 0 -37 14t-11 31q0 24 17.5 42t45.5 18q17 0 33 -10.5t16 -33.5q0 -24 -17.5 -42.5t-46.5 -18.5z" />
    <glyph glyph-name="Alpha" unicode="&#x391;" horiz-adv-x="705" 
d="M404 560l-153 -297h212zM-33 0l7 79l75 4l300 567h150l124 -573l71 -3l-10 -74h-249l9 64l63 3l-29 124h-265l-65 -120l64 -4l-9 -67h-236z" />
    <glyph glyph-name="Beta" unicode="&#x392;" horiz-adv-x="636" 
d="M245 370h135q39 0 76.5 33.5t37.5 93.5q0 72 -114 72h-105zM376 297h-143l-33 -215h105q177 0 177 138q0 77 -106 77zM98 576l6 74h293q104 0 155 -37t51 -100q0 -100 -105 -165q94 -34 94 -126q0 -97 -71.5 -159.5t-220.5 -62.5h-286l6 79l79 4l76 489z" />
    <glyph glyph-name="Gamma" unicode="&#x393;" horiz-adv-x="497" 
d="M14 0l6 79l79 4l76 489l-77 4l6 74h371l98 5l-21 -184h-89l6 93h-182l-75 -486l86 -4l-11 -74h-273z" />
    <glyph glyph-name="Delta" unicode="&#x394;" horiz-adv-x="679" 
d="M394 566l-268 -476h387zM4 0l12 87l320 563h149l143 -563l-7 -87h-617z" />
    <glyph glyph-name="Epsilon" unicode="&#x395;" horiz-adv-x="605" 
d="M501 491l4 73h-218l-31 -195l279 1l-12 -83h-280l-31 -201h244l22 82l82 -5l-31 -163h-515l6 79l79 4l76 489l-77 4l6 74h407l98 5l-19 -164h-89z" />
    <glyph glyph-name="Zeta" unicode="&#x396;" horiz-adv-x="616" 
d="M98 491l26 155l1 4l1 5l97 -5h413l-10 -76l-455 -488h296l22 82l82 -5l-31 -163h-526l11 75l454 489h-277l-17 -73h-87z" />
    <glyph glyph-name="Eta" unicode="&#x397;" horiz-adv-x="773" 
d="M442 0l5 79l78 4l31 199h-312l-31 -199l75 -4l-11 -79h-263l6 79l79 4l76 489l-77 4l6 74h270l-11 -79l-75 -4l-31 -202h312l31 202l-75 4l6 79h271l-13 -79l-75 -4l-75 -489l76 -4l-10 -74h-263z" />
    <glyph glyph-name="Theta" unicode="&#x398;" horiz-adv-x="753" 
d="M356 74q65 0 116.5 30.5t82 79t46 103t15.5 108.5q0 87 -46.5 133.5t-133.5 46.5q-120 0 -188 -77.5t-68 -216.5q0 -92 46 -149.5t130 -57.5zM735 405q0 -72 -23.5 -143.5t-69 -135t-123.5 -103t-176 -39.5q-133 0 -206.5 81.5t-73.5 213.5q0 178 103 282t282 104
q138 0 212.5 -68.5t74.5 -191.5zM261 280l7 85h266l-11 -85h-262z" />
    <glyph glyph-name="Iota" unicode="&#x399;" horiz-adv-x="346" 
d="M98 576l6 74h270l-11 -79l-75 -4l-76 -489l76 -4l-11 -74h-263l6 79l79 4l76 489z" />
    <glyph glyph-name="Kappa" unicode="&#x39a;" horiz-adv-x="721" 
d="M98 576l6 74h260l-10 -69l-65 -4l-37 -243l85 46l205 200l-31 3l9 67h246l-11 -79l-111 -4l-225 -221l178 -265l108 -2l-12 -79h-180l-36 35l-155 240l-87 -51l-22 -141l75 -4l-11 -79h-263l6 79l79 4l76 489z" />
    <glyph glyph-name="Lambda" unicode="&#x39b;" horiz-adv-x="686" 
d="M-33 0l7 79l74 4l292 567h149l115 -573l70 -3l-10 -74h-248l9 69l63 8l-92 481l-243 -483l65 -4l-9 -71h-242z" />
    <glyph glyph-name="Mu" unicode="&#x39c;" horiz-adv-x="1010" 
d="M99 576l6 74h230l158 -532h3l323 532h219l-11 -79l-75 -4l-75 -484l76 -4l-11 -79h-249l5 69l69 4l67 422h-3l-305 -495h-107l-148 495h-2l-69 -424l67 -4l-9 -67h-244l6 79l79 4l77 489z" />
    <glyph glyph-name="Nu" unicode="&#x39d;" horiz-adv-x="790" 
d="M539 -5l-274 493h-2l-2 -43l-59 -364l77 -4l-11 -77h-254l6 79l79 4l76 489l-77 4l6 74h201l270 -502h1l1 33l62 387l-77 5l5 77h262l-11 -79l-74 -4l-89 -572h-116z" />
    <glyph glyph-name="Xi" unicode="&#x39e;" horiz-adv-x="616" 
d="M165 281l7 85h317l-12 -85h-312zM87 492l27 158h527l-17 -158h-81l3 68h-364l-18 -68h-77zM14 0l20 163l79 5l-4 -78h363l21 78l78 -5l-31 -163h-526z" />
    <glyph glyph-name="Omicron" unicode="&#x39f;" horiz-adv-x="753" 
d="M356 74q65 0 116.5 30.5t82 79t46 103t15.5 108.5q0 87 -46.5 133.5t-133.5 46.5q-120 0 -188 -77.5t-68 -216.5q0 -92 46 -149.5t130 -57.5zM735 405q0 -72 -23.5 -143.5t-69 -135t-123.5 -103t-176 -39.5q-133 0 -206.5 81.5t-73.5 213.5q0 178 103 282t282 104
q138 0 212.5 -68.5t74.5 -191.5z" />
    <glyph glyph-name="Pi" unicode="&#x3a0;" horiz-adv-x="755" 
d="M98 576l6 74h679l-10 -74l-76 -4l-76 -489l77 -4l-11 -79h-264l6 79l79 4l76 481h-297l-74 -481l75 -4l-11 -79h-263l6 79l79 4l76 489z" />
    <glyph glyph-name="Rho" unicode="&#x3a1;" horiz-adv-x="592" 
d="M351 568h-72l-42 -273h70q76 0 127 42t51 129q0 102 -134 102zM98 576l6 74h278q222 0 222 -166q0 -67 -26 -120.5t-69 -84.5t-92 -47t-100 -16h-92l-22 -144l91 -3l-9 -69h-271l6 79l79 4l76 489z" />
    <glyph glyph-name="Sigma" unicode="&#x3a3;" horiz-adv-x="586" 
d="M505 486l5 78h-250l119 -236l-215 -238h291l21 78l83 -5l-31 -163h-514l12 84l225 241l-124 244l1 81h387l97 5l-19 -169h-88z" />
    <glyph glyph-name="Tau" unicode="&#x3a4;" horiz-adv-x="562" 
d="M122 0l6 79l78 4l74 481h-132l-22 -83h-82l30 174l97 -5h361l98 5l-21 -174h-83l3 83h-134l-74 -481l75 -4l-11 -79h-263z" />
    <glyph glyph-name="Upsilon" unicode="&#x3a5;" horiz-adv-x="643" 
d="M168 0l6 79l79 4l27 178l-154 312l-92 3l5 74h267l-9 -74l-45 -3l104 -215l168 213l-40 2l12 77h244l-12 -79l-91 -3l-242 -305l-28 -180l76 -4l-12 -79h-263z" />
    <glyph glyph-name="Phi" unicode="&#x3a6;" horiz-adv-x="807" 
d="M169 314q0 -62 44.5 -89t138.5 -28l44 284q-120 -1 -173.5 -36t-53.5 -131zM685 375q0 60 -44.5 82.5t-143.5 23.5l-43 -284q118 2 174.5 43.5t56.5 134.5zM339 607l4 64h257l-9 -64l-75 -4l-8 -51q145 -1 220 -39t75 -132q0 -131 -95 -192.5t-265 -62.5l-8 -53l87 -3
l-10 -70h-272l5 70l88 4l8 52q-290 2 -290 188q0 130 90.5 183t265.5 55l7 51z" />
    <glyph glyph-name="Chi" unicode="&#x3a7;" horiz-adv-x="700" 
d="M65 576l5 74h263l-10 -74l-31 -2l92 -171l146 168l-30 2l11 77h249l-11 -79l-101 -4l-210 -239l142 -246l103 -3l-11 -79h-263l10 74l31 1l-94 173l-147 -170l32 -1l-10 -77h-257l6 79l106 4l215 241l-139 249z" />
    <glyph glyph-name="Psi" unicode="&#x3a8;" horiz-adv-x="837" 
d="M268 0l6 79l79 4l17 110q-135 3 -201.5 61.5t-66.5 155.5q0 26 4 49l18 113l-76 4l5 74h197l-27 -174q-4 -20 -4 -44q0 -69 41.5 -108t123.5 -40l47 304l-76 4l12 79h251l-10 -79l-75 -4l-47 -304q185 6 214 182l28 184h173l-10 -74l-61 -4l-19 -123
q-18 -118 -101.5 -186.5t-237.5 -69.5l-17 -110l76 -4l-11 -79h-252z" />
    <glyph glyph-name="Omega" unicode="&#x3a9;" horiz-adv-x="753" 
d="M19 0l13 122l59 5l3 -46h145l8 6q-28 11 -53.5 27.5t-54.5 45t-46.5 72.5t-17.5 98q0 147 101 241t274 94q136 0 210 -67t74 -180q0 -62 -19.5 -115.5t-47.5 -87.5t-66.5 -62t-68.5 -42t-61 -25l7 -5h145l17 46l57 -5l-24 -122h-275l14 139q8 3 22 9t49 29t62 51.5
t49 78.5t22 107q0 74 -46.5 117.5t-132.5 43.5q-114 0 -178.5 -65.5t-64.5 -174.5q0 -41 13 -76t31.5 -56t37 -36.5t31.5 -21.5l13 -6l-25 -139h-276z" />
    <glyph glyph-name="Iotadieresis" unicode="&#x3aa;" horiz-adv-x="346" 
d="M163 744q-22 0 -35.5 13t-13.5 33q0 25 17 42.5t46 17.5q23 0 36.5 -12.5t13.5 -32.5q0 -24 -18 -42.5t-46 -18.5zM354 744q-19 0 -34 10.5t-15 35.5q0 24 17.5 42t46.5 18q23 0 36 -12t13 -33q0 -24 -18 -42.5t-46 -18.5zM98 576l6 74h270l-11 -79l-75 -4l-76 -489
l76 -4l-11 -74h-263l6 79l79 4l76 489z" />
    <glyph glyph-name="Upsilondieresis" unicode="&#x3ab;" horiz-adv-x="643" 
d="M328 729q-22 0 -35.5 13t-13.5 33q0 25 17 42.5t46 17.5q23 0 36.5 -12.5t13.5 -32.5q0 -24 -18 -42.5t-46 -18.5zM519 729q-19 0 -34 10.5t-15 35.5q0 24 17.5 42t46.5 18q23 0 36 -12t13 -33q0 -24 -18 -42.5t-46 -18.5zM168 0l6 79l79 4l27 178l-154 312l-92 3l5 74
h267l-9 -74l-45 -3l104 -215l168 213l-40 2l12 77h244l-12 -79l-91 -3l-242 -305l-28 -180l76 -4l-12 -79h-263z" />
    <glyph glyph-name="alphatonos" unicode="&#x3ac;" horiz-adv-x="603" 
d="M368 561l-50 15l93 194l68 -22zM280 66q24 0 46 7t36.5 17t25 20.5t15.5 17.5l5 7l37 249q-29 51 -101 51q-192 0 -192 -230q0 -64 34.5 -101.5t93.5 -37.5zM400 0l-2 49q-8 -11 -22.5 -23t-53.5 -27t-86 -15q-88 0 -142 62.5t-54 160.5q0 138 75.5 223.5t210.5 85.5
q43 0 75.5 -13t44.5 -26l11 -13h3l13 36h99l-65 -422l56 -4l-16 -74h-147z" />
    <glyph glyph-name="epsilontonos" unicode="&#x3ad;" horiz-adv-x="473" 
d="M307 561l-50 15l93 194l68 -22zM367 358l2 47q-27 35 -78 35q-47 0 -72 -20.5t-25 -57.5q0 -26 16.5 -44t30 -23t22.5 -6h88l-10 -69h-89q-113 0 -113 -79q0 -34 31 -57t81 -23q46 0 83 16t51 32l14 16l44 -45q-2 -4 -6 -10.5t-20.5 -23t-38 -29t-61 -23t-85.5 -10.5
q-87 0 -144.5 41.5t-57.5 104.5q0 57 32 91t80 49q-50 38 -50 96q0 71 48 110.5t127 39.5q67 0 120 -42l14 31h67l-18 -147h-83z" />
    <glyph glyph-name="etatonos" unicode="&#x3ae;" horiz-adv-x="597" 
d="M357 -250q92 601 92 609q0 66 -94 66q-36 0 -69 -11t-48 -22l-15 -11l-58 -381h-109l64 417l-53 4l6 79h156l2 -40q67 56 175 56q156 0 156 -124q0 -18 -3 -37l-93 -605h-109zM373 561l-50 15l93 194l68 -22z" />
    <glyph glyph-name="iotatonos" unicode="&#x3af;" horiz-adv-x="273" 
d="M216 561l-50 15l93 194l68 -22zM67 421l6 79h169l-59 -382v-7q0 -32 21 -32l45 2l-4 -74q-60 -14 -116 -14q-32 0 -47.5 13.5t-15.5 44.5q0 7 2 25l52 341z" />
    <glyph glyph-name="upsilondieresistonos" unicode="&#x3b0;" horiz-adv-x="589" 
d="M358 561l-50 15l93 194l68 -22zM396 421l10 79h166l-50 -324q-13 -88 -77.5 -140t-172.5 -52q-98 0 -150.5 43t-52.5 116q0 17 3 33l38 241l-54 4l6 79h170l-50 -315q-2 -16 -2 -22q0 -43 26 -68.5t73 -25.5q53 0 89.5 32.5t44.5 83.5l37 232zM238 594q-22 0 -35.5 13
t-13.5 33q0 24 17.5 42t46.5 18q26 0 37.5 -14t11.5 -31q0 -24 -18 -42.5t-46 -18.5zM496 594q-22 0 -35.5 12.5t-13.5 32.5q0 24 17 42.5t46 18.5q23 0 36.5 -12t13.5 -32q0 -24 -18 -43t-46 -19z" />
    <glyph glyph-name="alpha" unicode="&#x3b1;" horiz-adv-x="607" 
d="M276 66q34 0 65.5 15.5t45 28t20.5 22.5l41 261q-37 42 -104 42q-192 0 -192 -235q0 -64 32.5 -99t91.5 -35zM572 500l-56 -360q-3 -18 -3 -29q0 -32 20 -32l46 2l-4 -74q-60 -14 -116 -14q-30 0 -43.5 12t-13.5 39v9h-1q-2 -3 -6 -7.5t-19.5 -16.5t-33 -21t-47.5 -16.5
t-63 -7.5q-88 0 -140 60.5t-52 158.5q0 138 77.5 225.5t206.5 87.5q45 0 80 -12t47 -24l12 -12h1l23 32h85z" />
    <glyph glyph-name="beta" unicode="&#x3b2;" horiz-adv-x="591" 
d="M307 377l11 77q6 1 15.5 3.5t34 14t43 27t34 44.5t15.5 65q0 76 -88 76q-62 0 -93 -37t-42 -113l-66 -423q27 -47 103 -47q82 0 135 61.5t53 147.5q0 56 -36.5 80t-118.5 24zM6 -250l124 797q31 218 254 218q87 0 136 -38.5t49 -106.5q0 -115 -117 -189q121 -39 121 -161
q0 -116 -78.5 -201t-194.5 -85q-31 0 -57 6t-40.5 14t-24.5 16.5t-14 14.5l-3 6h-1l-45 -291h-109z" />
    <glyph glyph-name="gamma" unicode="&#x3b3;" horiz-adv-x="516" 
d="M370 423l11 77h158l-3 -51q-87 -217 -244 -449h-1l-37 -250h-110l37 252l-97 415l-69 4l6 79h166l76 -394h3q89 132 161 310z" />
    <glyph glyph-name="delta" unicode="&#x3b4;" horiz-adv-x="571" 
d="M270 61q86 0 132.5 64t46.5 181q0 63 -30 97.5t-89 34.5q-87 0 -132.5 -61t-45.5 -179q0 -64 30 -100.5t88 -36.5zM259 -16q-107 0 -162.5 58.5t-55.5 161.5q0 104 42 178t122 108q-40 40 -40 102q0 82 67 127.5t162 45.5q81 0 152 -13l26 3l-12 -125h-75l-2 41
q-75 5 -100 5q-127 0 -127 -90q0 -63 72 -70h13q107 0 163.5 -56t56.5 -156q0 -142 -82 -231t-220 -89z" />
    <glyph glyph-name="epsilon" unicode="&#x3b5;" horiz-adv-x="473" 
d="M367 358l2 47q-27 35 -78 35q-47 0 -72 -20.5t-25 -57.5q0 -26 16.5 -44t30 -23t22.5 -6h88l-10 -69h-89q-113 0 -113 -79q0 -34 31 -57t81 -23q46 0 83 16t51 32l14 16l44 -45q-2 -4 -6 -10.5t-20.5 -23t-38 -29t-61 -23t-85.5 -10.5q-87 0 -144.5 41.5t-57.5 104.5
q0 57 32 91t80 49q-50 38 -50 96q0 71 48 110.5t127 39.5q67 0 120 -42l14 31h67l-18 -147h-83z" />
    <glyph glyph-name="zeta" unicode="&#x3b6;" horiz-adv-x="449" 
d="M131 774l75 6v-30h338l-11 -74q-169 -163 -234 -239q-132 -156 -132 -258t179 -102q106 0 106 -74q0 -34 -14.5 -78.5t-29.5 -72.5l-14 -27l-83 10q44 81 44 130q0 22 -19 28.5t-63 6.5q-220 0 -220 159q0 185 349 506h-195l-87 -5z" />
    <glyph glyph-name="eta" unicode="&#x3b7;" horiz-adv-x="597" 
d="M357 -250q92 601 92 609q0 66 -94 66q-36 0 -69 -11t-48 -22l-15 -11l-58 -381h-109l64 417l-53 4l6 79h156l2 -40q67 56 175 56q156 0 156 -124q0 -18 -3 -37l-93 -605h-109z" />
    <glyph glyph-name="theta" unicode="&#x3b8;" horiz-adv-x="593" 
d="M273 61q162 0 198 270h-307q-1 -27 -1 -85q0 -185 110 -185zM369 688q-82 0 -131 -64t-66 -207h307q3 42 3 92q0 179 -113 179zM266 -16q-103 0 -156.5 72t-53.5 210q0 235 78.5 367t240.5 132q213 0 213 -271q0 -149 -34 -261.5t-107.5 -180.5t-180.5 -68z" />
    <glyph glyph-name="iota" unicode="&#x3b9;" horiz-adv-x="273" 
d="M67 421l6 79h169l-59 -382v-7q0 -32 21 -32l45 2l-4 -74q-60 -14 -116 -14q-32 0 -47.5 13.5t-15.5 44.5q0 7 2 25l52 341z" />
    <glyph glyph-name="kappa" unicode="&#x3ba;" horiz-adv-x="543" 
d="M417 -7q-33 0 -68.5 58t-77.5 161l-79 -36l-27 -176h-109l64 417l-63 4l6 79h179l-35 -228l92 46q55 47 101 108l-32 2l9 72h160l-6 -47q-21 -35 -68.5 -91t-94.5 -96q79 -187 104 -187l49 2l-4 -74q-45 -14 -100 -14z" />
    <glyph glyph-name="lambda" unicode="&#x3bb;" horiz-adv-x="539" 
d="M166 671l3 79h185q0 -3 8.5 -44.5t21 -109.5t24.5 -145q64 -371 84 -371l49 4l-3 -70q-50 -20 -114 -21h-1q-48 0 -106 372h-4q-29 -27 -83 -114t-96 -168l59 -6l-11 -77h-173l7 50q3 18 117.5 197.5t166.5 230.5q-18 113 -38 190z" />
    <glyph glyph-name="mu" unicode="&#x3bc;" horiz-adv-x="612" 
d="M406 421l6 79h170l-59 -379v-8q0 -34 19 -34l45 2l-4 -74q-59 -14 -116 -14q-29 0 -42 11t-14 37h-4q-6 -6 -18.5 -15.5t-58 -25.5t-98.5 -16q-39 0 -70 11l-37 -245h-109l63 399q0 6 2 16l38 252l-53 4l6 79h170l-50 -314q-2 -16 -2 -24q0 -40 23.5 -63.5t69.5 -23.5
q36 0 69 11t48 22l14 11l46 298z" />
    <glyph glyph-name="nu" unicode="&#x3bd;" horiz-adv-x="526" 
d="M386 423l6 77h178q-53 -211 -291 -500h-100l-94 417l-68 4l6 79h166l77 -386h3q113 144 178 301z" />
    <glyph glyph-name="xi" unicode="&#x3be;" horiz-adv-x="477" 
d="M442 591l3 65q-31 29 -80 29q-54 0 -86 -31t-32 -95q0 -32 15 -55t39 -34.5t45.5 -16.5t42.5 -5l72 1l-6 -78h-86q-115 -3 -163 -40.5t-48 -117.5q0 -136 201 -136q106 0 106 -75q0 -38 -18.5 -82t-37.5 -70l-19 -25l-67 10q44 82 44 130q0 22 -16 28.5t-57 6.5
q-43 0 -84 10.5t-79.5 32t-62 63t-23.5 96.5q0 90 43 143t130 74q-77 49 -77 143q0 101 58 152t147 51q59 0 115 -40l15 30h68l-20 -164h-82z" />
    <glyph glyph-name="omicron" unicode="&#x3bf;" horiz-adv-x="571" 
d="M270 61q86 0 132.5 64t46.5 181q0 63 -30 97.5t-89 34.5q-87 0 -132.5 -61t-45.5 -179q0 -64 30 -100.5t88 -36.5zM259 -16q-107 0 -162.5 58.5t-55.5 161.5q0 144 78.5 228t221.5 84q107 0 163.5 -56t56.5 -156q0 -142 -82 -231t-220 -89z" />
    <glyph glyph-name="pi" unicode="&#x3c0;" horiz-adv-x="603" 
d="M398 76l53 341h-221l-65 -417h-109l64 417l-53 4l6 79h498l-55 -360q-3 -18 -3 -30q0 -31 20 -31l45 2l-4 -74q-59 -14 -116 -14q-62 0 -62 57q0 8 2 26z" />
    <glyph glyph-name="rho" unicode="&#x3c1;" horiz-adv-x="579" 
d="M192 306l-30 -192q5 -9 14 -19t33.5 -21.5t54.5 -11.5q96 0 145.5 74.5t49.5 182.5q0 119 -122 119q-62 0 -98.5 -36t-46.5 -96zM-3 -250l85 547q15 100 85 159.5t184 59.5q110 0 165 -51t55 -146q0 -137 -77.5 -235.5t-203.5 -98.5q-45 0 -79.5 12.5t-46.5 25.5l-12 13
h-2l-45 -286h-108z" />
    <glyph glyph-name="sigma1" unicode="&#x3c2;" horiz-adv-x="504" 
d="M406 321l5 77q-37 40 -99 40q-79 0 -118 -50.5t-39 -162.5q0 -74 46 -111t130 -37q92 0 92 -75q0 -38 -19.5 -82t-39.5 -70l-20 -25l-66 10q49 82 49 130q0 20 -12 27.5t-44 7.5q-108 0 -169 57t-61 159q0 142 67.5 221t186.5 79q75 0 133 -45l16 34h68l-24 -184h-82z
" />
    <glyph glyph-name="sigma" unicode="&#x3c3;" horiz-adv-x="619" 
d="M270 61q31 0 59 11t57 38t46 83t17 136q0 42 -10 102l-79 6l-30 1q-178 0 -178 -235q0 -65 29.5 -103.5t88.5 -38.5zM340 516q39 0 158.5 -8t139.5 -8l-7 -82q-30 0 -97 5v-2q19 -57 19 -125q0 -134 -80 -223t-214 -89q-107 0 -162.5 61t-55.5 165q0 144 77.5 225
t221.5 81z" />
    <glyph glyph-name="tau" unicode="&#x3c4;" horiz-adv-x="399" 
d="M54 416l1 79l90 5h283l-12 -86l-176 1l-40 -253q-3 -18 -3 -34q0 -59 50 -59q19 0 38.5 2.5t29.5 4.5l10 3l-9 -71q-35 -24 -115 -24q-116 0 -116 107q0 23 4 46l41 278z" />
    <glyph glyph-name="upsilon" unicode="&#x3c5;" horiz-adv-x="589" 
d="M396 421l10 79h166l-50 -324q-13 -88 -77.5 -140t-172.5 -52q-98 0 -150.5 43t-52.5 116q0 17 3 33l38 241l-54 4l6 79h170l-50 -315q-2 -16 -2 -22q0 -43 26 -68.5t73 -25.5q53 0 89.5 32.5t44.5 83.5l37 232z" />
    <glyph glyph-name="phi" unicode="&#x3c6;" horiz-adv-x="700" 
d="M584 309q0 66 -34.5 97t-104.5 32l-58 -376q98 2 147.5 69t49.5 178zM147 208q0 -70 34 -107.5t102 -38.5l58 375q-97 -2 -145.5 -54t-48.5 -175zM323 671l6 79h165l-37 -234q111 -2 172 -56.5t61 -153.5q0 -143 -85 -232.5t-230 -89.5l-36 -234h-104l36 234
q-108 3 -168.5 65t-60.5 165q0 145 81 223.5t230 78.5l24 151z" />
    <glyph glyph-name="chi" unicode="&#x3c7;" horiz-adv-x="566" 
d="M392 429l1 71h172l-8 -50q-1 -5 -28 -38.5t-71 -83t-84 -89.5q38 -69 71.5 -114.5t49.5 -45.5l60 2l-4 -74q-56 -14 -112 -14q-63 0 -165 212h-4q-73 -73 -117 -124l36 -4l-11 -77h-167l8 50q5 10 79 87.5t128 129.5l-87 151l-92 3l3 79h166l104 -200h1q75 73 114 123z
" />
    <glyph glyph-name="psi" unicode="&#x3c8;" horiz-adv-x="755" 
d="M39 421l6 79h177l-44 -279q-2 -18 -2 -27q0 -56 36.5 -90.5t95.5 -34.5l93 598l-54 4l7 79h163l-105 -681q69 2 121 44.5t62 107.5l30 196l-55 9l10 74h161l-45 -298q-16 -97 -99 -157t-198 -61l-36 -234h-104l36 234q-99 2 -162.5 53t-63.5 133q0 16 3 32l33 215z" />
    <glyph glyph-name="omega" unicode="&#x3c9;" horiz-adv-x="778" 
d="M351 235l21 131h97l-20 -131q-8 -46 -8 -77q0 -42 16.5 -62.5t56.5 -20.5q69 0 106.5 73t37.5 182q0 48 -8.5 86t-16.5 53t-10 15l90 27q4 0 15 -15t23.5 -58.5t12.5 -101.5q0 -164 -64.5 -258t-189.5 -94q-96 0 -134 94q-67 -94 -161 -94q-168 0 -168 209q0 66 13 123
t31 91.5t37 59t31.5 34.5t14.5 10l81 -27q-5 -4 -13.5 -13t-25 -34t-30 -55t-24 -78.5t-10.5 -101.5q0 -60 21.5 -93.5t62.5 -33.5q54 0 78 38t37 122z" />
    <glyph glyph-name="iotadieresis" unicode="&#x3ca;" horiz-adv-x="273" 
d="M106 594q-22 0 -35.5 13t-13.5 33q0 25 17 42.5t46 17.5q23 0 36.5 -12.5t13.5 -32.5q0 -24 -18 -42.5t-46 -18.5zM297 594q-19 0 -34 10.5t-15 35.5q0 24 17.5 42t46.5 18q23 0 36 -12t13 -33q0 -24 -18 -42.5t-46 -18.5zM67 421l6 79h169l-59 -382v-7q0 -32 21 -32
l45 2l-4 -74q-60 -14 -116 -14q-32 0 -47.5 13.5t-15.5 44.5q0 7 2 25l52 341z" />
    <glyph glyph-name="upsilondieresis" unicode="&#x3cb;" horiz-adv-x="589" 
d="M260 594q-22 0 -35.5 13t-13.5 33q0 25 17 42.5t46 17.5q23 0 36.5 -12.5t13.5 -32.5q0 -24 -18 -42.5t-46 -18.5zM451 594q-19 0 -34 10.5t-15 35.5q0 24 17.5 42t46.5 18q23 0 36 -12t13 -33q0 -24 -18 -42.5t-46 -18.5zM396 421l10 79h166l-50 -324
q-13 -88 -77.5 -140t-172.5 -52q-98 0 -150.5 43t-52.5 116q0 17 3 33l38 241l-54 4l6 79h170l-50 -315q-2 -16 -2 -22q0 -43 26 -68.5t73 -25.5q53 0 89.5 32.5t44.5 83.5l37 232z" />
    <glyph glyph-name="omicrontonos" unicode="&#x3cc;" horiz-adv-x="571" 
d="M360 561l-50 15l93 194l68 -22zM270 61q86 0 132.5 64t46.5 181q0 63 -30 97.5t-89 34.5q-87 0 -132.5 -61t-45.5 -179q0 -64 30 -100.5t88 -36.5zM259 -16q-107 0 -162.5 58.5t-55.5 161.5q0 144 78.5 228t221.5 84q107 0 163.5 -56t56.5 -156q0 -142 -82 -231t-220 -89
z" />
    <glyph glyph-name="upsilontonos" unicode="&#x3cd;" horiz-adv-x="589" 
d="M363 561l-50 15l93 194l68 -22zM396 421l10 79h166l-50 -324q-13 -88 -77.5 -140t-172.5 -52q-98 0 -150.5 43t-52.5 116q0 17 3 33l38 241l-54 4l6 79h170l-50 -315q-2 -16 -2 -22q0 -43 26 -68.5t73 -25.5q53 0 89.5 32.5t44.5 83.5l37 232z" />
    <glyph glyph-name="omegatonos" unicode="&#x3ce;" horiz-adv-x="778" 
d="M463 561l-50 15l93 194l68 -22zM351 235l21 131h97l-20 -131q-8 -46 -8 -77q0 -42 16.5 -62.5t56.5 -20.5q69 0 106.5 73t37.5 182q0 48 -8.5 86t-16.5 53t-10 15l90 27q4 0 15 -15t23.5 -58.5t12.5 -101.5q0 -164 -64.5 -258t-189.5 -94q-96 0 -134 94q-67 -94 -161 -94
q-168 0 -168 209q0 66 13 123t31 91.5t37 59t31.5 34.5t14.5 10l81 -27q-5 -4 -13.5 -13t-25 -34t-30 -55t-24 -78.5t-10.5 -101.5q0 -60 21.5 -93.5t62.5 -33.5q54 0 78 38t37 122z" />
    <glyph glyph-name="uni0400" unicode="&#x400;" horiz-adv-x="605" 
d="M455 714l-76 -7l-102 139l104 12zM501 491l4 73h-218l-31 -195l279 1l-12 -83h-280l-31 -201h244l22 82l82 -5l-31 -163h-515l6 79l79 4l76 489l-77 4l6 74h407l98 5l-19 -164h-89z" />
    <glyph glyph-name="afii10023" unicode="&#x401;" horiz-adv-x="605" 
d="M312 729q-22 0 -35.5 13t-13.5 33q0 25 17 42.5t46 17.5q23 0 36.5 -12.5t13.5 -32.5q0 -24 -18 -42.5t-46 -18.5zM503 729q-19 0 -34 10.5t-15 35.5q0 24 17.5 42t46.5 18q23 0 36 -12t13 -33q0 -24 -18 -42.5t-46 -18.5zM501 491l4 73h-218l-31 -195l279 1l-12 -83
h-280l-31 -201h244l22 82l82 -5l-31 -163h-515l6 79l79 4l76 489l-77 4l6 74h407l98 5l-19 -164h-89z" />
    <glyph glyph-name="afii10051" unicode="&#x402;" horiz-adv-x="760" 
d="M512 497l3 70h-126l-35 -226q83 62 199 62q86 0 124.5 -31.5t38.5 -94.5q0 -11 -4 -43l-6 -38q-33 -212 -187 -212q-38 0 -66 10t-37 20l-9 10l16 68q21 -28 61 -28q87 0 104 110h1l5 35q4 26 4 34q0 38 -23.5 53t-77.5 15q-79 0 -156 -53l-27 -180l65 -4l-11 -74h-252
l6 79l78 4l75 484h-125l-17 -70h-87l28 158l97 -5h349l97 5l-17 -158h-88z" />
    <glyph glyph-name="afii10052" unicode="&#x403;" horiz-adv-x="497" 
d="M386 707l-73 5l116 145l103 -11zM14 0l6 79l79 4l76 489l-77 4l6 74h371l98 5l-21 -184h-89l6 93h-182l-75 -486l86 -4l-11 -74h-273z" />
    <glyph glyph-name="afii10053" unicode="&#x404;" horiz-adv-x="663" 
d="M552 458l5 78q-49 39 -133 39q-93 0 -156 -55.5t-80 -166.5h371l-12 -83h-365v-2q0 -92 55.5 -142.5t151.5 -50.5q36 0 70 9t57 21.5t40.5 25.5t25.5 22l9 9l40 -64q-3 -5 -9.5 -12.5t-30 -27t-51.5 -34.5t-74 -27.5t-98 -12.5q-135 0 -220.5 82t-85.5 218
q0 166 99.5 273.5t258.5 107.5q88 0 153 -53l20 43h67l-24 -197h-84z" />
    <glyph glyph-name="afii10054" unicode="&#x405;" horiz-adv-x="573" 
d="M465 486l2 62q-39 36 -97 36q-65 0 -103 -28.5t-38 -78.5q0 -33 31.5 -57.5t76 -42t89 -37.5t76 -55.5t31.5 -85.5q0 -99 -73.5 -157t-202.5 -58q-64 0 -117.5 10t-75.5 20l-22 10l21 160l78 5l-2 -103q57 -19 118 -19q79 0 120 32t41 81q0 31 -31 54.5t-76 41
t-89.5 38.5t-75.5 59t-31 91q0 91 68.5 146t175.5 55q67 0 125 -49l21 39h67l-19 -169h-88z" />
    <glyph glyph-name="afii10055" unicode="&#x406;" horiz-adv-x="346" 
d="M98 576l6 74h270l-11 -79l-75 -4l-76 -489l76 -4l-11 -74h-263l6 79l79 4l76 489z" />
    <glyph glyph-name="afii10056" unicode="&#x407;" horiz-adv-x="346" 
d="M160 729q-22 0 -35.5 13t-13.5 33q0 25 17 42.5t46 17.5q23 0 36.5 -12.5t13.5 -32.5q0 -24 -18 -42.5t-46 -18.5zM351 729q-19 0 -34 10.5t-15 35.5q0 24 17.5 42t46.5 18q23 0 36 -12t13 -33q0 -24 -18 -42.5t-46 -18.5zM98 576l6 74h270l-11 -79l-75 -4l-76 -489
l76 -4l-11 -74h-263l6 79l79 4l76 489z" />
    <glyph glyph-name="afii10057" unicode="&#x408;" horiz-adv-x="458" 
d="M215 576l6 74h270l-11 -79l-60 -4l-57 -372q-19 -117 -74 -164t-149 -47q-44 0 -80 6t-50 12l-14 7l12 154l80 5l-5 -91q22 -8 56 -8q89 0 109 126l59 377z" />
    <glyph glyph-name="afii10058" unicode="&#x409;" horiz-adv-x="1012" 
d="M701 317h-77l-36 -236h77q92 0 142.5 38.5t50.5 108.5q0 48 -39.5 68.5t-117.5 20.5zM177 572l6 78h566l-11 -74l-74 -4l-28 -177h77q256 0 256 -155q0 -107 -80 -173.5t-230 -66.5h-270l6 79l79 4l75 481h-181q-45 -289 -129 -433.5t-188 -144.5q-19 0 -34.5 3.5
t-20.5 6.5l-6 4l18 93q11 -6 33 -6q68 0 123 113t101 367z" />
    <glyph glyph-name="afii10059" unicode="&#x40a;" horiz-adv-x="1064" 
d="M753 317h-77l-36 -236h77q92 0 142.5 38.5t50.5 108.5q0 48 -39.5 68.5t-117.5 20.5zM525 576l6 74h270l-11 -74l-74 -4l-28 -177h77q256 0 256 -155q0 -107 -80 -173.5t-230 -66.5h-270l6 79l79 4l31 199h-313l-31 -199l75 -4l-11 -79h-263l6 79l79 4l76 489l-77 4l6 74
h270l-11 -79l-75 -4l-31 -202h313l32 207z" />
    <glyph glyph-name="afii10060" unicode="&#x40b;" horiz-adv-x="812" 
d="M495 0l6 74l73 4l20 131q3 20 3 33q0 38 -23 53.5t-77 15.5q-79 0 -156 -53l-27 -180l70 -4l-10 -74h-258l6 79l78 4l75 484h-125l-17 -70h-87l28 158l97 -5h349l97 5l-17 -158h-88l3 70h-126l-35 -226q83 62 199 62q86 0 124.5 -31.5t38.5 -94.5q0 -11 -4 -43l-24 -156
l76 -4l-11 -74h-258z" />
    <glyph glyph-name="afii10061" unicode="&#x40c;" horiz-adv-x="721" 
d="M436 707l-73 5l116 145l103 -11zM98 576l6 74h260l-10 -69l-65 -4l-37 -243l85 46l205 200l-31 3l9 67h246l-11 -79l-111 -4l-225 -221l178 -265l108 -2l-12 -79h-180l-36 35l-155 240l-87 -51l-22 -141l75 -4l-11 -79h-263l6 79l79 4l76 489z" />
    <glyph glyph-name="uni040D" unicode="&#x40d;" horiz-adv-x="781" 
d="M528 714l-76 -7l-102 139l104 12zM457 0l5 74l77 3l59 362l11 48h-1l-409 -473l-8 -14h-177l6 79l79 4l76 489l-77 4l6 74h265l-11 -74l-76 -4l-58 -366l-12 -43h2l410 473l8 14h178l-11 -74l-75 -4l-77 -494l76 -4l-9 -74h-257z" />
    <glyph glyph-name="afii10062" unicode="&#x40e;" horiz-adv-x="666" 
d="M44 576l5 74h268l-10 -74l-51 -3l125 -313l176 311l-51 2l10 77h240l-11 -74l-75 -3l-243 -401q-64 -105 -125.5 -146t-137.5 -41q-30 0 -58.5 5t-41.5 10l-13 5l20 171l79 5l-6 -108q16 -2 24 -2q39 0 71 18t70 69l-179 415zM297 820l93 4l1 -2q-1 -4 -1 -9
q0 -39 60 -39q25 0 47.5 8t36.5 19.5t25 23t15 19.5l5 8v1l70 -23q-2 -5 -6 -13.5t-20.5 -30t-37.5 -38t-60.5 -30t-86.5 -13.5q-45 0 -75.5 10.5t-44 28t-18 32t-4.5 29.5z" />
    <glyph glyph-name="afii10145" unicode="&#x40f;" horiz-adv-x="755" 
d="M513 576l5 74h265l-10 -74l-76 -4l-76 -489l77 -4l-11 -79h-288l-37 -208h-93l25 208h-280l6 79l79 4l76 489l-77 4l6 74h265l-11 -74l-70 -4l-76 -486h296l75 486z" />
    <glyph glyph-name="afii10017" unicode="&#x410;" horiz-adv-x="705" 
d="M404 560l-153 -297h212zM-33 0l7 79l75 4l300 567h150l124 -573l71 -3l-10 -74h-249l9 64l63 3l-29 124h-265l-65 -120l64 -4l-9 -67h-236z" />
    <glyph glyph-name="afii10018" unicode="&#x411;" horiz-adv-x="636" 
d="M325 312h-77l-36 -231h77q193 0 193 141q0 49 -39.5 69.5t-117.5 20.5zM480 487l4 77h-197l-27 -174h77q257 0 257 -155q0 -107 -79.5 -171t-231.5 -64h-269l6 79l79 4l76 489l-77 4l6 74h386l98 5l-20 -168h-88z" />
    <glyph glyph-name="afii10019" unicode="&#x412;" horiz-adv-x="636" 
d="M245 370h135q39 0 76.5 33.5t37.5 93.5q0 72 -114 72h-105zM376 297h-143l-33 -215h105q177 0 177 138q0 77 -106 77zM98 576l6 74h293q104 0 155 -37t51 -100q0 -100 -105 -165q94 -34 94 -126q0 -97 -71.5 -159.5t-220.5 -62.5h-286l6 79l79 4l76 489z" />
    <glyph glyph-name="afii10020" unicode="&#x413;" horiz-adv-x="497" 
d="M14 0l6 79l79 4l76 489l-77 4l6 74h371l98 5l-21 -184h-89l6 93h-182l-75 -486l86 -4l-11 -74h-273z" />
    <glyph glyph-name="afii10021" unicode="&#x414;" horiz-adv-x="732" 
d="M551 564h-204q-57 -320 -159 -478h287zM-11 -160l30 246h62q110 161 166 481l-82 5l6 78h577l-11 -79l-75 -4h-1l-74 -481h89l-50 -246h-93l14 160h-429l-42 -160h-87z" />
    <glyph glyph-name="afii10022" unicode="&#x415;" horiz-adv-x="605" 
d="M501 491l4 73h-218l-31 -195l279 1l-12 -83h-280l-31 -201h244l22 82l82 -5l-31 -163h-515l6 79l79 4l76 489l-77 4l6 74h407l98 5l-19 -164h-89z" />
    <glyph glyph-name="afii10024" unicode="&#x416;" horiz-adv-x="998" 
d="M805 0l-31 41l-130 258h-90l-34 -221l77 -4l-10 -74h-258l6 74l78 4l34 221h-89l-182 -251l-46 -48h-161l12 79l90 2l203 259l-112 233l-89 3l5 74h246l-10 -77l-32 -3l80 -185h98l29 187l-66 4l10 74h238l-10 -74l-64 -4l-1 1l-29 -188h91l156 186l-27 2l11 77h241
l-10 -74l-97 -3l-195 -217l147 -275l97 -2l-10 -79h-166z" />
    <glyph glyph-name="afii10025" unicode="&#x417;" horiz-adv-x="562" 
d="M117 484l30 171h68l4 -34q72 44 142 44q81 0 129.5 -40t48.5 -107q0 -113 -126 -179q103 -31 103 -136q0 -91 -71 -155t-198 -64q-52 0 -96 10.5t-70 26t-44.5 31t-25.5 26.5l-7 10l49 70q2 -3 7 -9t21.5 -21t36 -26t52 -20.5t68.5 -9.5q78 0 118 37.5t40 97.5
q0 79 -119 79l-111 -1l11 87h117q45 0 88 37.5t43 94.5q0 79 -104 79q-60 0 -107 -39l-14 -60h-83z" />
    <glyph glyph-name="afii10026" unicode="&#x418;" horiz-adv-x="781" 
d="M457 0l5 74l77 3l59 362l11 48h-1l-409 -473l-8 -14h-177l6 79l79 4l76 489l-77 4l6 74h265l-11 -74l-76 -4l-58 -366l-12 -43h2l410 473l8 14h178l-11 -74l-75 -4l-77 -494l76 -4l-9 -74h-257z" />
    <glyph glyph-name="afii10027" unicode="&#x419;" horiz-adv-x="781" 
d="M457 0l5 74l77 3l59 362l11 48h-1l-409 -473l-8 -14h-177l6 79l79 4l76 489l-77 4l6 74h265l-11 -74l-76 -4l-58 -366l-12 -43h2l410 473l8 14h178l-11 -74l-75 -4l-77 -494l76 -4l-9 -74h-257zM337 820l93 4v-2q-1 -3 -1 -8q0 -40 61 -40q25 0 47 8t36.5 19.5t25 23
t15.5 19.5l5 8v1l70 -23q-2 -5 -6 -13.5t-20.5 -30t-37.5 -38t-60.5 -30t-86.5 -13.5q-45 0 -75.5 10.5t-44 28t-18 31.5t-4.5 29z" />
    <glyph glyph-name="afii10028" unicode="&#x41a;" horiz-adv-x="721" 
d="M98 576l6 74h260l-10 -69l-65 -4l-37 -243l85 46l205 200l-31 3l9 67h246l-11 -79l-111 -4l-225 -221l178 -265l108 -2l-12 -79h-180l-36 35l-155 240l-87 -51l-22 -141l75 -4l-11 -79h-263l6 79l79 4l76 489z" />
    <glyph glyph-name="afii10029" unicode="&#x41b;" horiz-adv-x="721" 
d="M177 572l6 78h566l-10 -79l-76 -4l-75 -484l77 -4l-12 -79h-264l7 79l79 4l76 481h-182q-46 -289 -130 -433.5t-188 -144.5q-19 0 -34.5 3.5t-20.5 6.5l-6 4l18 93q11 -6 33 -6q68 0 123 113t101 367z" />
    <glyph glyph-name="afii10030" unicode="&#x41c;" horiz-adv-x="1010" 
d="M99 576l6 74h230l158 -532h3l323 532h219l-11 -79l-75 -4l-75 -484l76 -4l-11 -79h-249l5 69l69 4l67 422h-3l-305 -495h-107l-148 495h-2l-69 -424l67 -4l-9 -67h-244l6 79l79 4l77 489z" />
    <glyph glyph-name="afii10031" unicode="&#x41d;" horiz-adv-x="773" 
d="M442 0l5 79l78 4l31 199h-312l-31 -199l75 -4l-11 -79h-263l6 79l79 4l76 489l-77 4l6 74h270l-11 -79l-75 -4l-31 -202h312l31 202l-75 4l6 79h271l-13 -79l-75 -4l-75 -489l76 -4l-10 -74h-263z" />
    <glyph glyph-name="afii10032" unicode="&#x41e;" horiz-adv-x="753" 
d="M356 74q65 0 116.5 30.5t82 79t46 103t15.5 108.5q0 87 -46.5 133.5t-133.5 46.5q-120 0 -188 -77.5t-68 -216.5q0 -92 46 -149.5t130 -57.5zM735 405q0 -72 -23.5 -143.5t-69 -135t-123.5 -103t-176 -39.5q-133 0 -206.5 81.5t-73.5 213.5q0 178 103 282t282 104
q138 0 212.5 -68.5t74.5 -191.5z" />
    <glyph glyph-name="afii10033" unicode="&#x41f;" horiz-adv-x="755" 
d="M98 576l6 74h679l-10 -74l-76 -4l-76 -489l77 -4l-11 -79h-264l6 79l79 4l76 481h-297l-74 -481l75 -4l-11 -79h-263l6 79l79 4l76 489z" />
    <glyph glyph-name="afii10034" unicode="&#x420;" horiz-adv-x="592" 
d="M351 568h-72l-42 -273h70q76 0 127 42t51 129q0 102 -134 102zM98 576l6 74h278q222 0 222 -166q0 -67 -26 -120.5t-69 -84.5t-92 -47t-100 -16h-92l-22 -144l91 -3l-9 -69h-271l6 79l79 4l76 489z" />
    <glyph glyph-name="afii10035" unicode="&#x421;" horiz-adv-x="659" 
d="M547 417l10 119q-57 39 -128 39q-108 0 -177.5 -76t-69.5 -219q0 -97 58 -151t148 -54q56 0 106 22t72 44l22 22l44 -60q-3 -5 -9.5 -13t-30 -28.5t-50.5 -36t-72.5 -28.5t-95.5 -13q-141 0 -225.5 81.5t-84.5 217.5q0 167 100 274.5t255 107.5q84 0 154 -53l22 43h66
l-30 -238h-84z" />
    <glyph glyph-name="afii10036" unicode="&#x422;" horiz-adv-x="562" 
d="M122 0l6 79l78 4l74 481h-132l-22 -83h-82l30 174l97 -5h361l98 5l-21 -174h-83l3 83h-134l-74 -481l75 -4l-11 -79h-263z" />
    <glyph glyph-name="afii10037" unicode="&#x423;" horiz-adv-x="666" 
d="M44 576l5 74h268l-10 -74l-51 -3l125 -313l176 311l-51 2l10 77h240l-11 -74l-75 -3l-243 -401q-64 -105 -125.5 -146t-137.5 -41q-30 0 -58.5 5t-41.5 10l-13 5l20 171l79 5l-6 -108q16 -2 24 -2q39 0 71 18t70 69l-179 415z" />
    <glyph glyph-name="afii10038" unicode="&#x424;" horiz-adv-x="807" 
d="M169 314q0 -62 44.5 -89t138.5 -28l44 284q-120 -1 -173.5 -36t-53.5 -131zM685 375q0 60 -44.5 82.5t-143.5 23.5l-43 -284q118 2 174.5 43.5t56.5 134.5zM339 607l4 64h257l-9 -64l-75 -4l-8 -51q145 -1 220 -39t75 -132q0 -131 -95 -192.5t-265 -62.5l-8 -53l87 -3
l-10 -70h-272l5 70l88 4l8 52q-290 2 -290 188q0 130 90.5 183t265.5 55l7 51z" />
    <glyph glyph-name="afii10039" unicode="&#x425;" horiz-adv-x="700" 
d="M65 576l5 74h263l-10 -74l-31 -2l92 -171l146 168l-30 2l11 77h249l-11 -79l-101 -4l-210 -239l142 -246l103 -3l-11 -79h-263l10 74l31 1l-94 173l-147 -170l32 -1l-10 -77h-257l6 79l106 4l215 241l-139 249z" />
    <glyph glyph-name="afii10040" unicode="&#x426;" horiz-adv-x="767" 
d="M507 576l11 74h265l-10 -74l-76 -4l-75 -486h88l-48 -246h-98l14 160h-564l6 79l79 4l76 489l-77 4l6 74h270l-11 -74l-75 -4l-76 -486h296l75 486z" />
    <glyph glyph-name="afii10041" unicode="&#x427;" horiz-adv-x="690" 
d="M449 576l9 74h260l-11 -74l-75 -4l-76 -489l77 -4l-11 -79h-274l5 79l89 4l27 176q-8 -5 -24.5 -12.5t-62 -17.5t-97.5 -10q-86 0 -128 38t-42 105q0 13 4 43l26 167l-66 4l5 74h254l-9 -74l-70 -4l-23 -148q-3 -18 -3 -33q0 -42 24.5 -61.5t77.5 -19.5q83 0 147 32
l36 230z" />
    <glyph glyph-name="afii10042" unicode="&#x428;" horiz-adv-x="1020" 
d="M789 576l11 74h249l-10 -74l-76 -4l-75 -489l76 -4l-11 -79h-939l6 79l79 4l76 489l-77 4l6 74h254l-11 -74l-59 -4l-76 -486h225l75 486l-59 4l10 74h233l-10 -74l-60 -4l-75 -486h223l75 486z" />
    <glyph glyph-name="afii10043" unicode="&#x429;" horiz-adv-x="1033" 
d="M789 576l11 74h249l-10 -74l-76 -4l-75 -486h85l-49 -246h-98l14 160h-826l6 79l79 4l76 489l-77 4l6 74h254l-11 -74l-59 -4l-76 -486h224l76 486l-59 4l10 74h233l-10 -74l-60 -4l-75 -486h223l75 486z" />
    <glyph glyph-name="afii10044" unicode="&#x42a;" horiz-adv-x="732" 
d="M422 317h-77l-36 -236h77q92 0 142.5 38.5t50.5 108.5q0 48 -39.5 68.5t-117.5 20.5zM44 486l30 169l97 -5h299l-11 -74l-74 -4l-28 -177h77q256 0 256 -155q0 -107 -80 -173.5t-230 -66.5h-270l6 79l79 4l75 481h-120l-18 -78h-88z" />
    <glyph glyph-name="afii10045" unicode="&#x42b;" horiz-adv-x="940" 
d="M692 576l6 74h270l-11 -79l-75 -4l-76 -489l76 -4l-11 -74h-263l6 79l79 4l76 489zM326 317h-77l-36 -236h77q92 0 142.5 38.5t50.5 108.5q0 48 -39.5 68.5t-117.5 20.5zM98 576l6 74h270l-11 -74l-74 -4l-28 -177h77q256 0 256 -155q0 -107 -80 -173.5t-230 -66.5h-270
l6 79l79 4l76 489z" />
    <glyph glyph-name="afii10046" unicode="&#x42c;" horiz-adv-x="636" 
d="M326 317h-77l-36 -236h77q92 0 142.5 38.5t50.5 108.5q0 48 -39.5 68.5t-117.5 20.5zM98 576l6 74h270l-11 -74l-74 -4l-28 -177h77q256 0 256 -155q0 -107 -80 -173.5t-230 -66.5h-270l6 79l79 4l76 489z" />
    <glyph glyph-name="afii10047" unicode="&#x42d;" horiz-adv-x="644" 
d="M134 278l11 83h362q2 32 2 50q0 82 -44 124.5t-129 42.5q-72 0 -132 -33l-14 -61h-78l31 171h61l7 -33q81 43 157 43q122 0 189.5 -72t67.5 -196q0 -181 -97.5 -297t-265.5 -116q-55 0 -102.5 10.5t-75.5 26t-48.5 31t-28.5 26.5l-8 10l49 71q3 -3 8.5 -9t25 -20.5
t41.5 -25.5t58 -20t75 -9q91 0 153 50.5t86 152.5h-361z" />
    <glyph glyph-name="afii10048" unicode="&#x42e;" horiz-adv-x="1059" 
d="M662 74q118 0 189.5 89t71.5 225q0 88 -47.5 137.5t-133.5 49.5q-118 0 -187 -80.5t-69 -218.5q0 -92 46 -147t130 -55zM98 576l6 74h270l-10 -69l-75 -4l-33 -212h117q26 139 127 219.5t255 80.5q137 0 211.5 -72.5t74.5 -200.5q0 -177 -107.5 -292.5t-284.5 -115.5
q-134 0 -209 80t-75 212v6h-122l-31 -204l76 -4l-6 -74h-268l6 79l79 4l76 489z" />
    <glyph glyph-name="afii10049" unicode="&#x42f;" horiz-adv-x="649" 
d="M206 432q0 -47 30.5 -76.5t74.5 -29.5h134l38 242h-134q-55 0 -99 -35t-44 -101zM-9 0l6 79l89 2l121 172q-50 20 -80.5 63.5t-30.5 105.5q0 110 74.5 169t182.5 59h324l-12 -79l-75 -4l-76 -489l76 -4l-10 -74h-257l5 69l78 4l26 166h-134l-129 -197l-39 -42h-139z" />
    <glyph glyph-name="afii10065" unicode="&#x430;" horiz-adv-x="607" 
d="M276 66q34 0 65.5 15.5t45 28t20.5 22.5l41 261q-37 42 -104 42q-192 0 -192 -235q0 -64 32.5 -99t91.5 -35zM572 500l-56 -360q-3 -18 -3 -29q0 -32 20 -32l46 2l-4 -74q-60 -14 -116 -14q-30 0 -43.5 12t-13.5 39v9h-1q-2 -3 -6 -7.5t-19.5 -16.5t-33 -21t-47.5 -16.5
t-63 -7.5q-88 0 -140 60.5t-52 158.5q0 138 77.5 225.5t206.5 87.5q45 0 80 -12t47 -24l12 -12h1l23 32h85z" />
    <glyph glyph-name="afii10066" unicode="&#x431;" horiz-adv-x="588" 
d="M336 437q-77 0 -126 -56t-51 -151v-10q0 -159 118 -159q85 0 132 66t47 184q0 126 -120 126zM432 643q-221 -20 -272 -210q76 82 198 82q102 0 156 -53.5t54 -152.5q0 -142 -82.5 -233.5t-219.5 -91.5q-110 0 -163.5 62t-53.5 174q0 74 11.5 141.5t38.5 132.5t68 114
t104.5 83t143.5 43l92 10l14 36l74 -5l-28 -125l-35 2z" />
    <glyph glyph-name="afii10067" unicode="&#x432;" horiz-adv-x="550" 
d="M203 282h115h1q12 0 31 5.5t40.5 26t21.5 51.5q0 62 -103 62h-84zM301 228h-107l-24 -155h92q75 0 106 29t31 63q0 28 -24 45.5t-74 17.5zM67 421l6 79h246q99 0 149.5 -33t50.5 -87q0 -80 -100 -120q86 -31 86 -95q0 -71 -58.5 -118t-193.5 -47h-197l65 417z" />
    <glyph glyph-name="afii10068" unicode="&#x433;" horiz-adv-x="434" 
d="M80 350l25 155h55l5 -34q62 45 126 45q60 0 101 -32.5t41 -92.5q0 -126 -190 -168q-51 -11 -75.5 -31t-24.5 -64q0 -31 26 -48.5t67 -17.5q36 0 70.5 18t51.5 36l17 18l38 -55q-2 -4 -6.5 -10.5t-21.5 -22.5t-37.5 -28.5t-56 -23t-75.5 -10.5q-80 0 -130 33.5t-50 100.5
q0 41 14 71t41 48t53 28t64 18q118 26 118 96q0 60 -79 60q-49 0 -86 -32l-15 -58z" />
    <glyph glyph-name="afii10069" unicode="&#x434;" horiz-adv-x="597" 
d="M284 63q69 0 118 39l43 275q-4 9 -12.5 20t-35.5 25.5t-62 14.5q-181 0 -181 -227q0 -147 130 -147zM39 -228l18 137l73 5l-4 -87q52 -18 101 -18q76 0 120 49t44 143q0 3 -0.5 11t-0.5 12v3h-1q-6 -5 -18 -12t-52 -19t-84 -12q-93 0 -143 61.5t-50 163.5q0 139 76.5 223
t195.5 84q32 0 59 -6.5t42 -16t25 -19t14 -16.5l3 -6h3l18 48h94l-72 -468q0 -4 0.5 -11t0.5 -10q0 -133 -80 -205t-200 -72q-56 0 -101.5 9.5t-63.5 18.5z" />
    <glyph glyph-name="afii10070" unicode="&#x435;" horiz-adv-x="517" 
d="M319 438q-62 0 -105.5 -41t-59.5 -117q150 0 207.5 18t57.5 66q0 33 -25.5 53.5t-74.5 20.5zM423 126l55 -39q-2 -4 -6.5 -11t-22.5 -25t-39.5 -31.5t-59 -24.5t-80.5 -11q-103 0 -166 57t-63 160q0 135 82.5 225t207.5 90q82 0 133.5 -40.5t51.5 -106.5
q0 -87 -84.5 -121t-284.5 -35v-12q0 -65 39 -100.5t99 -35.5q42 0 76.5 15t48.5 30z" />
    <glyph glyph-name="afii10072" unicode="&#x436;" horiz-adv-x="799" 
d="M682 -7q-32 0 -68.5 56.5t-82.5 161.5l-64 -4l-32 -207h-106l33 214l-78 -3q-59 -52 -119 -130l40 -4l-16 -77h-172l7 51q3 14 65 76t129 119q-10 24 -33 82.5t-37 89.5l-81 3l5 79h159q15 -35 39.5 -104t37.5 -102l67 3l31 203h106l-32 -210l72 5q54 45 108 128l-43 6
l10 71h163l-8 -50q-2 -16 -54.5 -75.5t-110.5 -110.5q32 -76 66.5 -130.5t52.5 -54.5l65 2l-4 -74q-59 -14 -115 -14z" />
    <glyph glyph-name="afii10073" unicode="&#x437;" horiz-adv-x="503" 
d="M90 350l26 155h57l9 -35q62 46 129 46q68 0 114 -29.5t46 -86.5q0 -87 -100 -136q85 -30 85 -99q0 -77 -62 -129t-167 -52q-48 0 -87.5 9.5t-61.5 22.5t-37.5 26.5t-20.5 23.5l-5 9l52 57l5 -7.5t15.5 -16t28.5 -20.5t44 -16.5t61 -7.5q62 0 94.5 28t32.5 68
q0 58 -101 58h-86l10 70l88 -1q13 0 35 7t46 30t24 57q0 58 -86 58q-55 0 -100 -34l-12 -55h-76z" />
    <glyph glyph-name="afii10074" unicode="&#x438;" horiz-adv-x="625" 
d="M66 421l6 79h169l-54 -338l306 336l1 2h101l-57 -360q-3 -18 -3 -29q0 -32 20 -32l46 2l-5 -74q-59 -14 -116 -14q-63 0 -63 57q0 16 2 26l46 286l-329 -361l-1 -1h-80l64 417z" />
    <glyph glyph-name="afii10075" unicode="&#x439;" horiz-adv-x="625" 
d="M66 421l6 79h169l-54 -338l306 336l1 2h101l-57 -360q-3 -18 -3 -29q0 -32 20 -32l46 2l-5 -74q-59 -14 -116 -14q-63 0 -63 57q0 16 2 26l46 286l-329 -361l-1 -1h-80l64 417zM240 685l94 4v-2q-1 -4 -1 -9q0 -39 60 -39q25 0 47.5 8t36.5 19.5t25 23t16 19.5l4 8v1
l70 -23q-2 -5 -6 -13.5t-20 -30t-37.5 -38t-60.5 -30t-86 -13.5q-45 0 -76 10.5t-44.5 28t-18 32t-4.5 29.5z" />
    <glyph glyph-name="afii10076" unicode="&#x43a;" horiz-adv-x="543" 
d="M417 -7q-33 0 -68.5 58t-77.5 161l-79 -36l-27 -176h-109l64 417l-63 4l6 79h179l-35 -228l92 46q55 47 101 108l-32 2l9 72h160l-6 -47q-21 -35 -68.5 -91t-94.5 -96q79 -187 104 -187l49 2l-4 -74q-45 -14 -100 -14z" />
    <glyph glyph-name="afii10077" unicode="&#x43b;" horiz-adv-x="546" 
d="M10 0l7 51q17 40 60.5 110.5t72.5 113t100 143.5l-65 3l6 79h236q1 -54 26.5 -237.5t42.5 -183.5l48 2l-4 -74q-65 -14 -121 -14q-34 0 -61 161.5t-29 233.5h-5q-11 -18 -55.5 -84.5t-78 -120.5t-56.5 -100l46 -6l-11 -77h-159z" />
    <glyph glyph-name="afii10078" unicode="&#x43c;" horiz-adv-x="810" 
d="M112 421l6 79h205l78 -401l213 401h131l-20 -360q-1 -8 -1 -20q0 -41 18 -41l45 2l-4 -74q-59 -14 -116 -14q-27 0 -38 14.5t-11 44.5q0 18 1 28l19 245l8 68h-1l-203 -388l-119 -5l-76 392h-1q-50 -119 -109 -306l49 -5l-12 -81h-141l7 54q8 35 49 150t82 214z" />
    <glyph glyph-name="afii10079" unicode="&#x43d;" horiz-adv-x="610" 
d="M67 421l6 79h169l-32 -204h230l32 204h109l-58 -360q-2 -11 -2 -27q0 -34 21 -34l46 2l-5 -74q-59 -14 -116 -14q-63 0 -63 58q0 7 2 25l22 142h-230l-33 -218h-109l64 417z" />
    <glyph glyph-name="afii10080" unicode="&#x43e;" horiz-adv-x="571" 
d="M270 61q86 0 132.5 64t46.5 181q0 63 -30 97.5t-89 34.5q-87 0 -132.5 -61t-45.5 -179q0 -64 30 -100.5t88 -36.5zM259 -16q-107 0 -162.5 58.5t-55.5 161.5q0 144 78.5 228t221.5 84q107 0 163.5 -56t56.5 -156q0 -142 -82 -231t-220 -89z" />
    <glyph glyph-name="afii10081" unicode="&#x43f;" horiz-adv-x="603" 
d="M398 76l53 341h-221l-65 -417h-109l64 417l-53 4l6 79h498l-55 -360q-3 -18 -3 -30q0 -31 20 -31l45 2l-4 -74q-59 -14 -116 -14q-62 0 -62 57q0 8 2 26z" />
    <glyph glyph-name="afii10082" unicode="&#x440;" horiz-adv-x="598" 
d="M220 370l-41 -265q34 -40 105 -40q93 0 143.5 67t50.5 186q0 62 -32 89t-95 27q-38 0 -70.5 -16t-46.5 -32zM67 421l6 79h155l1 -53q2 3 6.5 7.5t20 16.5t34 21t48.5 16.5t63 7.5q89 0 139 -52t50 -145q0 -138 -77 -236.5t-203 -98.5q-45 0 -80 10.5t-48 21.5l-12 11h-3
l-43 -277h-108l104 667z" />
    <glyph glyph-name="afii10083" unicode="&#x441;" horiz-adv-x="489" 
d="M393 322l5 83q-24 33 -81 33q-81 0 -122 -52.5t-41 -171.5q0 -71 40 -111t99 -40q36 0 66.5 15t42.5 30l12 15l53 -37q-2 -4 -6 -11t-20 -24.5t-36 -31t-55.5 -24.5t-76.5 -11q-104 0 -168 61t-64 164q0 143 67.5 225t187.5 82q68 0 119 -44l16 33h68l-23 -183h-83z" />
    <glyph glyph-name="afii10084" unicode="&#x442;" horiz-adv-x="534" 
d="M32 318l31 192l77 -10h337l79 10l-14 -172h-78l2 79h-113l-47 -304q-1 -34 21 -34l45 2l-4 -74q-60 -14 -116 -14q-63 0 -63 56q0 12 3 27l52 341h-114l-21 -99h-77z" />
    <glyph glyph-name="afii10085" unicode="&#x443;" 
d="M19 421l6 79h162l98 -393h2q104 157 165 308l-61 8l6 77h165l-4 -51q-49 -154 -248 -442q-11 -116 -73 -194.5t-162 -78.5q-35 0 -63 6t-38 12l-11 6l19 151l72 5l-3 -100q17 -5 31 -5q29 0 50.5 14.5t35 43.5t21.5 60.5t14 75.5l-114 414z" />
    <glyph glyph-name="afii10086" unicode="&#x444;" horiz-adv-x="700" 
d="M147 204q0 -141 136 -142l58 375q-194 -3 -194 -233zM584 313q0 65 -34.5 94.5t-104.5 30.5l-59 -376q97 2 147.5 71.5t50.5 179.5zM323 671l6 79h165l-37 -234q112 -2 172.5 -52.5t60.5 -148.5q0 -144 -85 -237.5t-230 -93.5h-1l-17 -113v-8q0 -32 20 -34l46 2l-5 -74
q-59 -14 -116 -14q-58 0 -58 54q0 12 3 29l24 158q-109 3 -169 61t-60 160q0 145 82 228t229 83l24 151z" />
    <glyph glyph-name="afii10087" unicode="&#x445;" horiz-adv-x="566" 
d="M392 429l1 71h172l-8 -50q-1 -5 -28 -38.5t-71 -83t-84 -89.5q38 -69 71.5 -114.5t49.5 -45.5l60 2l-4 -74q-56 -14 -112 -14q-63 0 -165 212h-4q-73 -73 -117 -124l36 -4l-11 -77h-167l8 50q5 10 79 87.5t128 129.5l-87 151l-92 3l3 79h166l104 -200h1q75 73 114 123z
" />
    <glyph glyph-name="afii10088" unicode="&#x446;" horiz-adv-x="606" 
d="M397 421l11 79h164l-65 -417h71l-40 -228h-93l21 145h-410l65 417l-54 4l6 79h170l-66 -417h221l52 334z" />
    <glyph glyph-name="afii10089" unicode="&#x447;" horiz-adv-x="543" 
d="M338 421l11 79h164l-59 -380v-8q0 -33 20 -33l46 2l-5 -74q-59 -14 -116 -14q-63 0 -63 57q0 8 2 26l20 128q-44 -25 -147 -25q-66 0 -105 30.5t-39 89.5q0 19 2 29l14 89l-54 4l6 79h173l-26 -159q-1 -7 -1 -20q0 -72 70 -72q31 0 60 5.5t43 11.5l14 5l23 146z" />
    <glyph glyph-name="afii10090" unicode="&#x448;" horiz-adv-x="833" 
d="M67 421l6 79h164l-65 -417h178l65 417h105l-65 -417h179l64 417h104l-65 -422h56l-10 -75l-58 -3h-669l64 417z" />
    <glyph glyph-name="afii10091" unicode="&#x449;" horiz-adv-x="836" 
d="M67 421l6 79h164l-65 -417h178l65 417h105l-65 -417h179l64 417h104l-64 -417h71l-42 -228h-93l23 145h-641l64 417z" />
    <glyph glyph-name="afii10092" unicode="&#x44a;" horiz-adv-x="640" 
d="M385 254q-31 0 -79 -11l-26 -170h78q66 0 104 28.5t38 77.5q0 39 -32.5 57t-82.5 18zM25 343l29 167l78 -10h214l-28 -184q49 9 80 9q98 0 156.5 -33.5t58.5 -103.5q0 -87 -69 -137.5t-194 -50.5h-190l64 417h-105l-18 -74h-76z" />
    <glyph glyph-name="afii10093" unicode="&#x44b;" horiz-adv-x="788" 
d="M582 421l6 79h169l-59 -382v-7q0 -32 21 -32l45 2l-4 -74q-60 -14 -116 -14q-32 0 -47.5 13.5t-15.5 44.5q0 7 2 25l52 341zM281 254q-31 0 -79 -11l-26 -170h78q66 0 104 28.5t38 77.5q0 39 -32.5 57t-82.5 18zM67 421l6 79h169l-28 -184q49 9 80 9q98 0 156.5 -33.5
t58.5 -103.5q0 -87 -69 -137.5t-194 -50.5h-190l64 417z" />
    <glyph glyph-name="afii10094" unicode="&#x44c;" horiz-adv-x="536" 
d="M281 254q-31 0 -79 -11l-26 -170h78q66 0 104 28.5t38 77.5q0 39 -32.5 57t-82.5 18zM67 421l6 79h169l-28 -184q49 9 80 9q98 0 156.5 -33.5t58.5 -103.5q0 -87 -69 -137.5t-194 -50.5h-190l64 417z" />
    <glyph glyph-name="afii10095" unicode="&#x44d;" horiz-adv-x="489" 
d="M120 209l12 83l244 -1q0 3 0.5 9t0.5 10q0 127 -119 127q-51 0 -95 -31l-12 -51h-81l27 150h62l9 -30q62 41 118 41q92 0 143 -53.5t51 -150.5q0 -148 -79 -238t-203 -90q-42 0 -77.5 7.5t-56 18t-35 21t-19.5 17.5l-6 8l40 61q5 -6 14.5 -15t46 -24t79.5 -15
q146 0 182 146h-246z" />
    <glyph glyph-name="afii10096" unicode="&#x44e;" horiz-adv-x="790" 
d="M498 61q87 0 132 69t45 186q0 123 -117 123q-90 0 -131 -59.5t-41 -181.5q0 -137 112 -137zM485 -16q-97 0 -150 59.5t-53 162.5v12h-84l-33 -218h-109l64 417l-53 4l6 79h169l-32 -204h80q20 105 91 162.5t186 57.5q214 0 214 -203q0 -146 -76 -237.5t-220 -91.5z" />
    <glyph glyph-name="afii10097" unicode="&#x44f;" horiz-adv-x="545" 
d="M279 250q37 0 88 7l26 170h-81q-138 0 -138 -96q0 -38 28 -59.5t77 -21.5zM24 0l4 41q1 11 38.5 62.5t81.5 103.5q-78 46 -78 123q0 78 61.5 124t180.5 46h202l-60 -382q-1 -39 20 -39l46 2l-4 -74q-60 -14 -116 -14q-63 0 -63 59q0 6 2 24l17 110q-61 -7 -98 -7
q-22 0 -33 2q-28 -35 -78 -105l44 -9l-10 -67h-157z" />
    <glyph glyph-name="uni0450" unicode="&#x450;" horiz-adv-x="517" 
d="M395 579l-76 -7l-102 139l104 12zM319 438q-62 0 -105.5 -41t-59.5 -117q150 0 207.5 18t57.5 66q0 33 -25.5 53.5t-74.5 20.5zM423 126l55 -39q-2 -4 -6.5 -11t-22.5 -25t-39.5 -31.5t-59 -24.5t-80.5 -11q-103 0 -166 57t-63 160q0 135 82.5 225t207.5 90
q82 0 133.5 -40.5t51.5 -106.5q0 -87 -84.5 -121t-284.5 -35v-12q0 -65 39 -100.5t99 -35.5q42 0 76.5 15t48.5 30z" />
    <glyph glyph-name="afii10071" unicode="&#x451;" horiz-adv-x="517" 
d="M231 594q-22 0 -35.5 13t-13.5 33q0 25 17 42.5t46 17.5q23 0 36.5 -12.5t13.5 -32.5q0 -24 -18 -42.5t-46 -18.5zM422 594q-19 0 -34 10.5t-15 35.5q0 24 17.5 42t46.5 18q23 0 36 -12t13 -33q0 -24 -18 -42.5t-46 -18.5zM319 438q-62 0 -105.5 -41t-59.5 -117
q150 0 207.5 18t57.5 66q0 33 -25.5 53.5t-74.5 20.5zM423 126l55 -39q-2 -4 -6.5 -11t-22.5 -25t-39.5 -31.5t-59 -24.5t-80.5 -11q-103 0 -166 57t-63 160q0 135 82.5 225t207.5 90q82 0 133.5 -40.5t51.5 -106.5q0 -87 -84.5 -121t-284.5 -35v-12q0 -65 39 -100.5
t99 -35.5q42 0 76.5 15t48.5 30z" />
    <glyph glyph-name="afii10099" unicode="&#x452;" horiz-adv-x="607" 
d="M500 -39h1q-16 -105 -73.5 -160t-127.5 -55q-45 0 -82 23l39 84q17 -9 38 -9q33 0 60 28t37 89l44 285q2 16 2 21q0 72 -98 72q-82 0 -129 -47l-45 -292h-108l82 527h-57l4 70l64 3l12 72l-54 4l6 74h168l-24 -149h199l-11 -74h-199l-23 -148h4l3 3q4 3 10.5 7.5t16 9.5
t23 10.5t29 10t36 7.5t42.5 3q77 0 119 -34.5t42 -101.5q0 -17 -3 -35z" />
    <glyph glyph-name="afii10100" unicode="&#x453;" horiz-adv-x="425" 
d="M320 572l-73 5l116 145l103 -11zM80 350l25 155h55l5 -34q62 45 126 45q60 0 101 -32.5t41 -92.5q0 -126 -190 -168q-51 -11 -75.5 -31t-24.5 -64q0 -31 26 -48.5t67 -17.5q36 0 70.5 18t51.5 36l17 18l38 -55q-2 -4 -6.5 -10.5t-21.5 -22.5t-37.5 -28.5t-56 -23
t-75.5 -10.5q-80 0 -130 33.5t-50 100.5q0 41 14 71t41 48t53 28t64 18q118 26 118 96q0 60 -79 60q-49 0 -86 -32l-15 -58z" />
    <glyph glyph-name="afii10101" unicode="&#x454;" horiz-adv-x="501" 
d="M402 359l1 44q-30 33 -90 33q-69 0 -107.5 -34.5t-50.5 -114.5l245 1l-11 -83h-239q1 -70 39.5 -105t101.5 -35q41 0 75.5 12.5t48.5 24.5l14 13l35 -55q-2 -3 -6.5 -8t-21.5 -18.5t-37.5 -23.5t-57 -18t-78.5 -8q-101 0 -161.5 60.5t-60.5 162.5q0 145 66 227t188 82
q67 0 124 -42l15 31h68l-17 -146h-83z" />
    <glyph glyph-name="afii10102" unicode="&#x455;" horiz-adv-x="480" 
d="M385 359l-3 48q-44 33 -95 33q-39 0 -64.5 -17t-25.5 -47q0 -26 25.5 -44t61.5 -30.5t72 -27t61.5 -42.5t25.5 -68q0 -79 -60.5 -129.5t-188.5 -50.5q-46 0 -86 6t-57 12l-17 7l10 137l68 5l-3 -78q46 -13 95 -13q60 0 92 24.5t32 60.5q0 24 -25 42t-60.5 31t-71 29
t-60.5 45.5t-25 71.5q0 73 53.5 112.5t136.5 39.5q61 0 121 -42l16 31h55l-16 -146h-67z" />
    <glyph glyph-name="afii10103" unicode="&#x456;" horiz-adv-x="273" 
d="M219 708q56 0 56 -51q0 -27 -19.5 -48.5t-53.5 -21.5q-25 0 -41.5 14t-16.5 37q0 27 20.5 48.5t54.5 21.5zM67 421l6 79h169l-59 -382v-7q0 -32 21 -32l45 2l-4 -74q-60 -14 -116 -14q-32 0 -47.5 13.5t-15.5 44.5q0 7 2 25l52 341z" />
    <glyph glyph-name="afii10104" unicode="&#x457;" horiz-adv-x="273" 
d="M107 594q-22 0 -35.5 13t-13.5 33q0 25 17 42.5t46 17.5q23 0 36.5 -12.5t13.5 -32.5q0 -24 -18 -42.5t-46 -18.5zM298 594q-19 0 -34 10.5t-15 35.5q0 24 17.5 42t46.5 18q23 0 36 -12t13 -33q0 -24 -18 -42.5t-46 -18.5zM67 421l6 79h169l-59 -382v-7q0 -32 21 -32
l45 2l-4 -74q-60 -14 -116 -14q-32 0 -47.5 13.5t-15.5 44.5q0 7 2 25l52 341z" />
    <glyph glyph-name="afii10105" unicode="&#x458;" horiz-adv-x="271" 
d="M225 708q56 0 56 -51q0 -27 -19.5 -48.5t-53.5 -21.5q-25 0 -41.5 14t-16.5 37q0 27 20.5 48.5t54.5 21.5zM73 421l6 79h168l-82 -531q-18 -116 -77.5 -175.5t-128.5 -59.5q-35 0 -58 5t-29 11l-6 5l35 85q26 -11 59 -11q31 0 58 36.5t38 103.5l69 448z" />
    <glyph glyph-name="afii10106" unicode="&#x459;" horiz-adv-x="782" 
d="M509 73h4q65 0 101 28.5t36 79.5q0 39 -34 56t-85 17q-32 0 -70 -8q5 -74 11.5 -111.5t14.5 -49.5t22 -12zM205 421l6 79h236l10 -184q61 9 97 9q91 0 149.5 -33.5t58.5 -108.5q0 -85 -77.5 -134t-232.5 -49h-13q-37 0 -52 48.5t-25 195.5l-12 144h-6q-15 -24 -94.5 -135
t-112.5 -170l43 -6l-11 -77h-159l8 51q12 31 43 79t55.5 82t79 107.5t73.5 98.5z" />
    <glyph glyph-name="afii10107" unicode="&#x45a;" horiz-adv-x="874" 
d="M619 254q-33 0 -79 -11l-27 -170h79q65 0 103.5 28.5t38.5 77.5q0 39 -32.5 57t-82.5 18zM394 0l33 218h-229l-33 -218h-109l64 417l-53 4l6 79h169l-32 -204h229l32 204h109l-29 -184q49 9 81 9q98 0 156.5 -33.5t58.5 -103.5q0 -87 -69 -137.5t-194 -50.5h-190z" />
    <glyph glyph-name="afii10108" unicode="&#x45b;" horiz-adv-x="613" 
d="M405 50q0 15 15.5 111t15.5 106q0 72 -99 72q-82 0 -128 -46l-45 -293h-109l82 527h-57l5 70l63 3l12 72l-54 4l6 74h169l-24 -149h198l-11 -74h-198l-23 -148h4q6 6 17.5 14.5t53 22.5t89.5 14q76 0 118 -34t42 -100q0 -18 -3 -37l-18 -119l-3 -17q-1 -5 -1 -13
q0 -31 21 -31l45 2l-4 -74q-60 -14 -116 -14q-63 0 -63 57z" />
    <glyph glyph-name="afii10109" unicode="&#x45c;" horiz-adv-x="543" 
d="M376 572l-73 5l116 145l103 -11zM417 -7q-33 0 -68.5 58t-77.5 161l-79 -36l-27 -176h-109l64 417l-63 4l6 79h179l-35 -228l92 46q55 47 101 108l-32 2l9 72h160l-6 -47q-21 -35 -68.5 -91t-94.5 -96q79 -187 104 -187l49 2l-4 -74q-45 -14 -100 -14z" />
    <glyph glyph-name="uni045D" unicode="&#x45d;" horiz-adv-x="625" 
d="M426 579l-76 -7l-102 139l104 12zM66 421l6 79h169l-54 -338l306 336l1 2h101l-57 -360q-3 -18 -3 -29q0 -32 20 -32l46 2l-5 -74q-59 -14 -116 -14q-63 0 -63 57q0 16 2 26l46 286l-329 -361l-1 -1h-80l64 417z" />
    <glyph glyph-name="afii10110" unicode="&#x45e;" 
d="M19 421l6 79h162l98 -393h2q104 157 165 308l-61 8l6 77h165l-4 -51q-49 -154 -248 -442q-11 -116 -73 -194.5t-162 -78.5q-35 0 -63 6t-38 12l-11 6l19 151l72 5l-3 -100q17 -5 31 -5q29 0 50.5 14.5t35 43.5t21.5 60.5t14 75.5l-114 414zM373 639q21 0 40 5.5t32 14
t24.5 19t17.5 18.5t11 15l4 7l69 -23q-2 -5 -6 -13.5t-20 -30t-37.5 -38t-60.5 -30t-86 -13.5q-45 0 -76 10.5t-44.5 28t-18 32t-4.5 29.5l1 15l94 4v-2q-1 -3 -1 -8q0 -40 61 -40z" />
    <glyph glyph-name="afii10193" unicode="&#x45f;" horiz-adv-x="626" 
d="M433 436l4 64h159l-66 -422h56l-10 -75l-58 -3h-180l-25 -145h-94l21 145h-184l64 417l-53 4l6 79h169l-65 -417h245l54 349z" />
    <glyph glyph-name="afii10146" unicode="&#x462;" horiz-adv-x="709" 
d="M399 317h-78l-36 -236h77q92 0 142.5 38.5t50.5 108.5q0 48 -39.5 68.5t-116.5 20.5zM184 658l2 49h268l-7 -49l-74 -4l-6 -38h1l-2 -11h152l92 5l-16 -147h-83l3 56h-161l-20 -124h77q257 0 257 -155q0 -107 -80.5 -173.5t-229.5 -66.5h-270l5 79l79 4l67 436h-99
l-21 -78h-87l29 169l102 -5h89l8 49z" />
    <glyph glyph-name="afii10194" unicode="&#x463;" horiz-adv-x="620" 
d="M288 254l-29 -181h78q67 0 105 29.5t38 84.5q0 67 -114 67h-78zM139 0l64 417h-96l-16 -79h-65l21 160v2l1 5l63 -5h105l16 100h109l-16 -100h134l68 5l-14 -121h-72l2 46h-128l-17 -105h80q215 0 215 -127q0 -94 -69 -146t-195 -52h-190z" />
    <glyph glyph-name="afii10050" unicode="&#x490;" horiz-adv-x="473" 
d="M98 576l6 74h348l15 100h87l-21 -186h-246l-75 -486l86 -4l-11 -74h-273l6 79l79 4l76 489z" />
    <glyph glyph-name="afii10098" unicode="&#x491;" horiz-adv-x="400" 
d="M73 421l5 79h279l20 127h83l-26 -210h-199l-70 -448q-18 -116 -77.5 -175.5t-128.5 -59.5q-35 0 -59.5 5t-31.5 11l-7 5l40 85q26 -11 59 -11q31 0 58 36.5t38 103.5l69 448z" />
    <glyph glyph-name="uni1E9E" unicode="&#x1e9e;" horiz-adv-x="736" 
d="M494 308q-29 0 -48 -19l-83 32l162 238h-105q-154 -4 -177 -149l-63 -410h-187l5 74l80 4l54 350q17 105 92.5 163.5t214.5 58.5h216l-3 -60l-142 -207q5 1 14 1q78 0 123.5 -39.5t45.5 -111.5q0 -109 -79 -179t-193 -70q-51 0 -88 5t-49 10l-11 5l15 138l72 5l-2 -68
q27 -5 61 -5q71 0 117 44t46 111q0 79 -88 79z" />
    <glyph glyph-name="uni2002" unicode="&#x2002;" horiz-adv-x="491" 
 />
    <glyph glyph-name="uni2003" unicode="&#x2003;" horiz-adv-x="983" 
 />
    <glyph glyph-name="uni2004" unicode="&#x2004;" horiz-adv-x="328" 
 />
    <glyph glyph-name="uni2005" unicode="&#x2005;" horiz-adv-x="246" 
 />
    <glyph glyph-name="uni2009" unicode="&#x2009;" horiz-adv-x="196" 
 />
    <glyph glyph-name="uni200A" unicode="&#x200a;" horiz-adv-x="40" 
 />
    <glyph glyph-name="uni2011" unicode="&#x2011;" horiz-adv-x="353" 
d="M42 236l7 81h288l-12 -81h-283z" />
    <glyph glyph-name="endash" unicode="&#x2013;" horiz-adv-x="560" 
d="M42 236l6 81h496l-11 -81h-491z" />
    <glyph glyph-name="emdash" unicode="&#x2014;" horiz-adv-x="738" 
d="M42 236l6 81h674l-12 -81h-668z" />
    <glyph glyph-name="afii00208" unicode="&#x2015;" horiz-adv-x="738" 
d="M42 236l6 81h674l-12 -81h-668z" />
    <glyph glyph-name="quoteleft" unicode="&#x2018;" horiz-adv-x="174" 
d="M129 469q-22 0 -38.5 14t-16.5 47q0 53 43 122.5t101 105.5l33 -34q-42 -29 -69 -71t-32 -79q20 -2 32 -13.5t12 -30.5q0 -24 -18.5 -42.5t-46.5 -18.5z" />
    <glyph glyph-name="quoteright" unicode="&#x2019;" horiz-adv-x="174" 
d="M102 694q0 22 17 40.5t49 18.5q24 0 38 -13l7 -11q8 -13 8 -37q0 -54 -42.5 -122.5t-100.5 -104.5l-33 35q41 28 68 70t32 79q-24 2 -33.5 16t-9.5 29z" />
    <glyph glyph-name="quotesinglbase" unicode="&#x201a;" horiz-adv-x="174" 
d="M69 121q54 0 54 -60q0 -53 -43 -122t-101 -105l-33 34q41 29 68 70.5t32 78.5q-19 1 -31 14t-12 30q0 21 17 40.5t49 19.5z" />
    <glyph glyph-name="quotedblleft" unicode="&#x201c;" horiz-adv-x="363" 
d="M317 469q-22 0 -38.5 14t-16.5 47q0 53 43 122.5t101 105.5l33 -34q-42 -29 -69 -71t-32 -79q20 -2 32 -13.5t12 -30.5q0 -24 -18.5 -42.5t-46.5 -18.5zM129 469q-22 0 -38.5 14t-16.5 47q0 53 43 122.5t101 105.5l33 -34q-42 -29 -69 -71t-32 -79q20 -2 32 -13.5
t12 -30.5q0 -24 -18.5 -42.5t-46.5 -18.5z" />
    <glyph glyph-name="quotedblright" unicode="&#x201d;" horiz-adv-x="362" 
d="M290 694q0 22 17 40.5t49 18.5q24 0 38 -13l7 -11q8 -13 8 -37q0 -54 -42.5 -122.5t-100.5 -104.5l-33 35q41 28 68 70t32 79q-24 2 -33.5 16t-9.5 29zM102 694q0 22 17 40.5t49 18.5q24 0 38 -13l7 -11q8 -13 8 -37q0 -54 -42.5 -122.5t-100.5 -104.5l-33 35
q41 28 68 70t32 79q-24 2 -33.5 16t-9.5 29z" />
    <glyph glyph-name="quotedblbase" unicode="&#x201e;" horiz-adv-x="362" 
d="M191 61q0 21 17 40.5t49 19.5q24 0 38 -13l1 -1q15 -18 15 -46q0 -53 -43 -122t-101 -105l-33 34q41 29 68 70.5t32 78.5q-19 1 -31 14t-12 30zM69 121q54 0 54 -60q0 -53 -43 -122t-101 -105l-33 34q41 29 68 70.5t32 78.5q-19 1 -31 14t-12 30q0 21 17 40.5t49 19.5z
" />
    <glyph glyph-name="dagger" unicode="&#x2020;" horiz-adv-x="531" 
d="M84 362l11 81h167l31 207h89l-34 -207h163l-11 -81h-155l-95 -612h-105l98 612h-159z" />
    <glyph glyph-name="daggerdbl" unicode="&#x2021;" horiz-adv-x="531" 
d="M15 -79l11 82h166l62 394h-164l11 82h164l25 171h92l-28 -171h163l-11 -82h-165l-65 -394h166l-11 -82h-166l-24 -171h-89l26 171h-163z" />
    <glyph glyph-name="bullet" unicode="&#x2022;" horiz-adv-x="375" 
d="M186 227q-36 0 -65.5 19.5t-29.5 64.5q0 52 44 88q37 25 80 25q35 0 64.5 -19.5t29.5 -64.5q0 -43 -33.5 -78t-89.5 -35z" />
    <glyph glyph-name="ellipsis" unicode="&#x2026;" horiz-adv-x="823" 
d="M640 -12q-27 0 -42.5 14.5t-15.5 38.5q0 30 22.5 49.5t53.5 19.5q26 0 42 -14.5t16 -38.5q0 -27 -21.5 -48t-54.5 -21zM378 -12q-27 0 -42.5 14.5t-15.5 38.5q0 30 22.5 49.5t53.5 19.5q26 0 42 -14.5t16 -38.5q0 -27 -21.5 -48t-54.5 -21zM116 -12q-27 0 -42.5 14.5
t-15.5 38.5q0 30 22.5 49.5t53.5 19.5q26 0 42 -14.5t16 -38.5q0 -27 -21.5 -48t-54.5 -21z" />
    <glyph glyph-name="perthousand" unicode="&#x2030;" horiz-adv-x="1380" 
d="M1122 61q55 0 88.5 39t33.5 108q0 42 -21.5 66t-62.5 24q-56 0 -88.5 -39.5t-32.5 -110.5q0 -40 21.5 -63.5t61.5 -23.5zM1112 -16q-79 0 -121 43.5t-42 117.5q0 101 61 164.5t161 63.5q76 0 119 -44t43 -119q0 -99 -60 -162.5t-161 -63.5zM690 61q55 0 88.5 39t33.5 108
q0 42 -21.5 66t-62.5 24q-56 0 -88.5 -39.5t-32.5 -110.5q0 -40 21.5 -63.5t61.5 -23.5zM680 -16q-79 0 -121 43.5t-42 117.5q0 101 61 164.5t161 63.5q76 0 119 -44t43 -119q0 -99 -60 -162.5t-161 -63.5zM259 353q55 0 88.5 39t33.5 108q0 42 -21.5 66t-62.5 24
q-56 0 -88.5 -39.5t-32.5 -110.5q0 -40 21.5 -63.5t61.5 -23.5zM249 276q-79 0 -121 43.5t-42 117.5q0 101 61 164.5t161 63.5q76 0 119 -44t43 -119q0 -99 -60 -162.5t-161 -63.5zM240 10l417 629l80 -15l-418 -628z" />
    <glyph glyph-name="guilsinglleft" unicode="&#x2039;" horiz-adv-x="379" 
d="M250 67l-149 183l204 177l37 -48l-144 -131l103 -130z" />
    <glyph glyph-name="guilsinglright" unicode="&#x203a;" horiz-adv-x="378" 
d="M91 67l-39 49l144 129l-102 132l51 50l149 -182z" />
    <glyph glyph-name="fraction" unicode="&#x2044;" horiz-adv-x="471" 
d="M38 13l454 580l60 -36l-453 -580z" />
    <glyph glyph-name="zerosuperior" unicode="&#x2070;" horiz-adv-x="476" 
d="M383 488q8 54 8 89q0 112 -76 112q-64 0 -102.5 -69t-38.5 -210q0 -119 78 -119q51 0 82.5 48t48.5 149zM484 488q-43 -271 -242 -271q-167 0 -167 203q0 70 13.5 129t41.5 108.5t78 77.5t118 28q165 0 165 -189q0 -43 -7 -86z" />
    <glyph glyph-name="foursuperior" unicode="&#x2074;" horiz-adv-x="476" 
d="M66 375l4 60q110 157 178 326l92 -11q-61 -143 -165 -301h144l18 107l32 117h85l-36 -224h58l-9 -68l-60 -6l-12 -74l42 -4l-9 -67h-191l5 67l53 3l12 75h-241z" />
    <glyph glyph-name="fivesuperior" unicode="&#x2075;" horiz-adv-x="477" 
d="M262 487q-59 0 -80 -21l-49 7l71 277h216l10 27l66 -5l-21 -110l-83 5h-127l-31 -113q20 3 41 3q84 0 133 -37.5t49 -103.5q0 -96 -68.5 -148t-173.5 -52q-46 0 -81.5 6t-47.5 12l-13 7l13 116l67 5l-1 -61q27 -8 70 -8q62 0 99.5 32t37.5 83q0 35 -26 57t-71 22z" />
    <glyph glyph-name="sixsuperior" unicode="&#x2076;" horiz-adv-x="474" 
d="M257 286q31 0 54.5 15.5t35 38.5t16.5 44.5t5 39.5q0 34 -19.5 54t-58.5 20q-59 0 -93 -38q-19 -38 -19 -88q0 -86 79 -86zM81 393q0 24 6.5 63.5t25 94.5t45 101t73.5 78.5t104 32.5q25 0 67 -26l11 18h56l-14 -132h-71l2 56q-23 9 -55 9q-100 0 -135 -156q57 31 115 31
q72 0 114 -34.5t42 -98.5q0 -88 -58.5 -150.5t-160.5 -62.5q-80 0 -123.5 44.5t-43.5 131.5z" />
    <glyph glyph-name="sevensuperior" unicode="&#x2077;" horiz-adv-x="476" 
d="M113 610l25 145l79 -5h304l-11 -81q-161 -205 -267 -439h-114q84 188 265 433h-200l-14 -53h-67z" />
    <glyph glyph-name="eightsuperior" unicode="&#x2078;" horiz-adv-x="476" 
d="M215 599q0 -63 78 -76q98 17 98 108q0 32 -19.5 50t-55.5 18q-45 0 -73 -27t-28 -73zM359 385q0 65 -86 76q-38 -5 -70 -29.5t-32 -78.5q0 -35 21 -54t58 -19q48 0 78.5 28t30.5 77zM491 637q0 -98 -112 -142q84 -29 84 -110q0 -85 -58.5 -126.5t-162.5 -41.5
q-176 0 -176 126q0 101 121 152q-70 32 -70 106t58.5 118t150.5 44q76 0 120.5 -33.5t44.5 -92.5z" />
    <glyph glyph-name="ninesuperior" unicode="&#x2079;" horiz-adv-x="475" 
d="M486 589q0 -25 -6 -63.5t-24.5 -94t-46.5 -102t-79 -79.5t-116 -33q-36 0 -69 4t-49 8l-15 4l14 124l66 5l-1 -66q28 -5 59 -5q51 0 93 41t61 118q-51 -40 -120 -40q-72 0 -114 33.5t-42 101.5q0 92 63.5 155t163.5 63q78 0 120 -44t42 -130zM373 518q16 39 16 87
q0 88 -75 88q-52 0 -84.5 -41.5t-32.5 -96.5q0 -35 20 -57.5t59 -22.5q59 0 97 43z" />
    <glyph glyph-name="zerosub" unicode="&#x2080;" horiz-adv-x="475" 
d="M306 -7q8 54 8 89q0 112 -76 112q-64 0 -102.5 -69t-38.5 -210q0 -119 78 -119q52 0 83.5 48t47.5 149zM408 -7q-44 -271 -243 -271q-166 0 -166 203q0 55 8 103.5t26.5 93.5t46.5 76.5t71.5 50.5t97.5 19q166 0 166 -191q0 -42 -7 -84z" />
    <glyph glyph-name="onesub" unicode="&#x2081;" horiz-adv-x="475" 
d="M99 111l-20 70l160 74h83l-69 -445l93 -3l-10 -72h-294l5 73l108 7l54 346z" />
    <glyph glyph-name="twosub" unicode="&#x2082;" horiz-adv-x="475" 
d="M46 116l25 144h56l6 -34q61 42 123 42q72 0 109 -37.5t37 -97.5q0 -143 -279 -313h170l16 50l68 -4l-24 -131h-376l12 82q7 3 51.5 32.5t102.5 74t103.5 100.5t45.5 99q0 65 -77 65q-50 0 -89 -34l-10 -38h-70z" />
    <glyph glyph-name="threesub" unicode="&#x2083;" horiz-adv-x="475" 
d="M203 -30q-40 0 -60 -20l-38 47l178 175h-148l-15 -55h-67l25 143l80 -5h252l-8 -57l-165 -158q62 -1 100 -36.5t38 -95.5q0 -89 -69.5 -138t-178.5 -49q-40 0 -73.5 6.5t-47.5 12.5l-13 6l13 117l67 4l-1 -60q31 -9 66 -9q67 0 103.5 28.5t37.5 74.5q0 32 -19.5 50.5
t-56.5 18.5z" />
    <glyph glyph-name="foursub" unicode="&#x2084;" horiz-adv-x="475" 
d="M-11 -120l4 60q110 157 178 326l92 -11q-61 -143 -165 -301h144l18 107l32 117h85l-36 -224h58l-9 -68l-60 -5l-12 -75l42 -4l-9 -67h-191l5 67l53 3l12 75h-241z" />
    <glyph glyph-name="fivesub" unicode="&#x2085;" horiz-adv-x="476" 
d="M185 -8q-26 0 -50 -6t-30 -15l-49 7l71 277h216l10 27l66 -5l-21 -110l-83 5h-127l-31 -113q20 3 41 3q85 0 133.5 -37.5t48.5 -103.5q0 -96 -68.5 -148t-173.5 -52q-46 0 -81.5 6.5t-47.5 12.5l-12 6l12 116l67 5l-1 -60q31 -9 70 -9q62 0 99.5 32t37.5 83q0 35 -26 57
t-71 22z" />
    <glyph glyph-name="sixsub" unicode="&#x2086;" horiz-adv-x="474" 
d="M181 -209q31 0 54.5 15.5t35 39t16.5 44.5t5 38q0 34 -20 54.5t-59 20.5q-60 0 -92 -38q-19 -30 -19 -89q0 -85 79 -85zM5 -102q0 28 7 70t26 95.5t46 98t73 75.5t101 31q26 0 68 -25l11 17h56l-14 -132h-71l2 56q-27 9 -62 9q-95 0 -130 -156q57 31 117 31
q73 0 114.5 -34.5t41.5 -99.5q0 -85 -57.5 -148.5t-161.5 -63.5q-80 0 -123.5 44.5t-43.5 131.5z" />
    <glyph glyph-name="sevensub" unicode="&#x2087;" horiz-adv-x="477" 
d="M37 115l25 145l79 -5h304l-11 -81q-161 -205 -267 -439h-114q83 186 265 433h-200l-14 -53h-67z" />
    <glyph glyph-name="eightsub" unicode="&#x2088;" horiz-adv-x="476" 
d="M138 104q0 -66 79 -76q98 17 98 108q0 32 -20 50t-55 18q-46 0 -74 -27t-28 -73zM283 -110q0 66 -86 77q-103 -17 -103 -109q0 -35 21.5 -54t58.5 -19q48 0 78.5 28t30.5 77zM414 142q0 -98 -111 -142q84 -29 84 -110q0 -85 -59 -126.5t-163 -41.5q-176 0 -176 126
q0 103 122 152q-71 32 -71 106t58.5 118t150.5 44q76 0 120.5 -33.5t44.5 -92.5z" />
    <glyph glyph-name="ninesub" unicode="&#x2089;" horiz-adv-x="475" 
d="M199 -20q58 0 97 42q16 38 16 88q0 88 -75 88q-52 0 -84 -41.5t-32 -96.5q0 -35 20 -57.5t58 -22.5zM409 94q0 -18 -4 -47t-14 -73.5t-30.5 -86.5t-48.5 -80t-73.5 -61.5t-101.5 -23.5q-36 0 -69.5 4t-48.5 8l-15 4l14 124l67 5l-1 -65q25 -6 58 -6q52 0 94 41.5
t59 118.5q-47 -41 -118 -41q-73 0 -115 33.5t-42 101.5q0 92 64 155t163 63q79 0 120.5 -44t41.5 -130z" />
    <glyph glyph-name="Euro" unicode="&#x20ac;" horiz-adv-x="652" 
d="M562 503l1 44q-35 37 -108 37q-156 0 -202 -160h286l-10 -72h-290q-5 -38 -5 -73h282l-10 -73h-268q24 -141 183 -141q31 0 59 7t46 16.5t31.5 19.5t19.5 17l6 7l38 -52q-3 -4 -8 -10.5t-24.5 -23t-43 -29t-63.5 -23t-85 -10.5q-121 0 -190.5 59.5t-81.5 163.5l-74 2
l4 70h67q2 42 7 74l-56 2l5 69h66q33 113 110 177t190 64q73 0 136 -45l16 35h62l-18 -152h-78z" />
    <glyph glyph-name="uni20B4" unicode="&#x20b4;" horiz-adv-x="553" 
d="M154 505l22 150h66l2 -34q64 44 131 44t106 -35.5t39 -88.5q0 -62 -46 -115l55 -3l-8 -56h-111q-8 -6 -110 -77h209l-9 -63h-273q-37 -42 -37 -87q0 -72 95 -72q44 0 88 8l22 90l77 -5l-27 -142q-6 -4 -17.5 -10t-57 -15.5t-101.5 -9.5q-88 0 -135 34.5t-47 99.5
q0 59 41 111l-54 4l3 57h112q7 6 107 77h-202l3 62h276q43 43 43 86q0 66 -82 66q-56 0 -97 -38l-10 -38h-73z" />
    <glyph glyph-name="afii61352" unicode="&#x2116;" horiz-adv-x="1299" 
d="M868 105l7 81h288l-12 -81h-283zM960 458q0 -91 90 -91q130 0 130 164q0 88 -90 88q-130 0 -130 -161zM860 463q0 100 61.5 159t177.5 59q89 0 135 -40.5t46 -113.5q0 -100 -63 -159t-176 -59q-90 0 -135.5 40.5t-45.5 113.5zM539 -5l-274 493h-2l-2 -43l-59 -364l77 -4
l-11 -77h-254l6 79l79 4l76 489l-77 4l6 74h201l270 -502h1l1 33l62 387l-77 5l5 77h262l-11 -79l-74 -4l-89 -572h-116z" />
    <glyph glyph-name="trademark" unicode="&#x2122;" horiz-adv-x="883" 
d="M139 689l9 61h336l-8 -61h-144l-44 -289h-68l44 289h-125zM790 400l27 230l-139 -230h-57l-64 251l-46 -251h-62l78 350h72l63 -282l169 282h67l-44 -350h-64z" />
    <glyph glyph-name="onethird" unicode="&#x2153;" horiz-adv-x="999" 
d="M726 -30q-40 0 -60 -20l-38 47l178 175h-148l-15 -55h-67l25 143l80 -5h252l-8 -57l-165 -158q62 -1 100 -36.5t38 -95.5q0 -89 -69.5 -138t-178.5 -49q-40 0 -73.5 6.5t-46.5 12.5l-14 6l13 117l67 4l-1 -60q31 -9 66 -9q67 0 103.5 28.5t37.5 74.5q0 32 -19.5 50.5
t-56.5 18.5zM276 13l454 580l60 -36l-453 -580zM176 606l-20 70l160 74h83l-69 -445l93 -3l-15 -72h-289l5 73l108 7l54 346z" />
    <glyph glyph-name="twothirds" unicode="&#x2154;" horiz-adv-x="1026" 
d="M754 -30q-40 0 -60 -20l-38 47l178 175h-148l-15 -55h-67l25 143l80 -5h252l-8 -57l-165 -158q62 -1 100 -36.5t38 -95.5q0 -89 -69.5 -138t-178.5 -49q-40 0 -73.5 6.5t-46.5 12.5l-14 6l13 117l67 4l-1 -60q31 -9 66 -9q67 0 103.5 28.5t37.5 74.5q0 32 -19.5 50.5
t-56.5 18.5zM305 13l454 580l60 -36l-453 -580zM123 611l25 144h56l6 -34q61 42 123 42q72 0 109 -37.5t37 -97.5q0 -143 -279 -313h170l16 50l68 -4l-24 -131h-376l12 82q7 3 51.5 32.5t102.5 74t103.5 100.5t45.5 99q0 65 -77 65q-50 0 -89 -34l-10 -38h-70z" />
    <glyph glyph-name="oneeighth" unicode="&#x215b;" horiz-adv-x="999" 
d="M660 104q0 -66 79 -76q98 17 98 108q0 32 -20 50t-55 18q-46 0 -74 -27t-28 -73zM805 -110q0 66 -86 77q-103 -17 -103 -109q0 -35 21.5 -54t58.5 -19q48 0 78.5 28t30.5 77zM936 142q0 -98 -111 -142q84 -29 84 -110q0 -85 -59 -126.5t-163 -41.5q-176 0 -176 126
q0 103 122 152q-71 32 -71 106t58.5 118t150.5 44q76 0 120.5 -33.5t44.5 -92.5zM276 13l454 580l60 -36l-453 -580zM176 606l-20 70l160 74h83l-69 -445l93 -3l-15 -72h-289l5 73l108 7l54 346z" />
    <glyph glyph-name="threeeighths" unicode="&#x215c;" horiz-adv-x="1000" 
d="M664 104q0 -66 79 -76q98 17 98 108q0 32 -20 50t-55 18q-46 0 -74 -27t-28 -73zM809 -110q0 66 -86 77q-103 -17 -103 -109q0 -35 21.5 -54t58.5 -19q48 0 78.5 28t30.5 77zM940 142q0 -98 -111 -142q84 -29 84 -110q0 -85 -59 -126.5t-163 -41.5q-176 0 -176 126
q0 103 122 152q-71 32 -71 106t58.5 118t150.5 44q76 0 120.5 -33.5t44.5 -92.5zM280 13l454 580l60 -36l-453 -580zM279 465q-39 0 -59 -20l-39 47l178 175h-148l-14 -55h-67l25 143l79 -5h253l-9 -57l-165 -158q61 -1 100 -37t39 -95q0 -89 -67.5 -138t-175.5 -49
q-40 0 -74.5 6t-49.5 12l-15 7l13 117l67 4l-1 -61q34 -8 66 -8q67 0 103.5 28.5t36.5 74.5q1 32 -19 50.5t-57 18.5z" />
    <glyph glyph-name="fiveeighths" unicode="&#x215d;" horiz-adv-x="991" 
d="M652 104q0 -66 79 -76q98 17 98 108q0 32 -20 50t-55 18q-46 0 -74 -27t-28 -73zM797 -110q0 66 -86 77q-103 -17 -103 -109q0 -35 21.5 -54t58.5 -19q48 0 78.5 28t30.5 77zM928 142q0 -98 -111 -142q84 -29 84 -110q0 -85 -59 -126.5t-163 -41.5q-176 0 -176 126
q0 103 122 152q-71 32 -71 106t58.5 118t150.5 44q76 0 120.5 -33.5t44.5 -92.5zM269 13l454 580l60 -36l-453 -580zM262 487q-59 0 -80 -21l-49 7l71 277h216l10 27l66 -5l-21 -110l-83 5h-127l-31 -113q20 3 41 3q84 0 133 -37.5t49 -103.5q0 -96 -68.5 -148t-173.5 -52
q-46 0 -81.5 6t-47.5 12l-13 7l13 116l67 5l-1 -61q27 -8 70 -8q62 0 99.5 32t37.5 83q0 35 -26 57t-71 22z" />
    <glyph glyph-name="seveneighths" unicode="&#x215e;" horiz-adv-x="912" 
d="M575 104q0 -66 79 -76q98 17 98 108q0 32 -20 50t-55 18q-46 0 -74 -27t-28 -73zM720 -110q0 66 -86 77q-103 -17 -103 -109q0 -35 21.5 -54t58.5 -19q48 0 78.5 28t30.5 77zM851 142q0 -98 -111 -142q84 -29 84 -110q0 -85 -59 -126.5t-163 -41.5q-176 0 -176 126
q0 103 122 152q-71 32 -71 106t58.5 118t150.5 44q76 0 120.5 -33.5t44.5 -92.5zM190 13l454 580l60 -36l-453 -580zM113 610l25 145l79 -5h304l-11 -81q-161 -205 -267 -439h-114q84 188 265 433h-200l-14 -53h-67z" />
    <glyph glyph-name="arrowup" unicode="&#x2191;" horiz-adv-x="697" 
d="M548 267l-128 151l-65 -440h-78l70 440l-175 -151l-51 47l284 244l207 -244z" />
    <glyph glyph-name="arrowdown" unicode="&#x2193;" horiz-adv-x="724" 
d="M339 -19l-209 244l65 47l128 -153l65 441h78l-70 -440l175 152l51 -47z" />
    <glyph glyph-name="arrowupleft" unicode="&#x2196;" horiz-adv-x="597" 
d="M128 120l27 351l344 -26l-20 -67l-200 14l248 -300l-70 -58l-243 305l-19 -209z" />
    <glyph glyph-name="arrowupright" unicode="&#x2197;" horiz-adv-x="598" 
d="M92 34l-54 58l341 300l-203 -14v67l352 26l-80 -351l-65 10l45 208z" />
    <glyph glyph-name="arrowdownright" unicode="&#x2198;" horiz-adv-x="597" 
d="M139 65l21 66l198 -13l-248 300l70 58l244 -305l19 209l67 10l-28 -352z" />
    <glyph glyph-name="arrowdownleft" unicode="&#x2199;" horiz-adv-x="598" 
d="M68 38l80 352l65 -10l-46 -207l336 303l54 -58l-340 -300l201 13l2 -66z" />
    <glyph glyph-name="minus" unicode="&#x2212;" horiz-adv-x="560" 
d="M42 236l6 81h496l-11 -81h-491z" />
    <glyph glyph-name="uni2731" unicode="&#x2731;" horiz-adv-x="1632" 
d="M610 369l31 9q-14 13 -40 16zM542 189l-9 27l-30 -10q17 -17 39 -17zM647 267l5 2q12 21 12 46l-31 -10zM550 351l-11 30q-9 -3 -20.5 -15.5t-14.5 -23.5l1 -4zM645 247l-3 7l-45 -15l10 -33q26 20 38 41zM513 278l-14 47l-9 -3q-11 -22 -11 -48v-7zM601 366l-10 28
q-26 0 -43 -9l10 -30zM599 202l-12 34l-45 -17l8 -30q28 0 49 13zM629 315l33 10q0 25 -16 45l-33 -10zM530 224l-14 46l-37 -12q3 -24 17 -44zM1250 335l-30 32l-34 -33l23 -27zM639 263l-15 39l-44 -12l15 -42zM620 312l-16 45l-42 -12l15 -47zM585 244l-13 43l-48 -14
l15 -46zM568 295l-15 48l-45 -15l13 -47zM1169 351l32 33q-132 105 -243 154l-3 -4q60 -34 107.5 -76.5t106.5 -106.5zM364 665q5 -8 5 -10q0 -38 -28.5 -66t-65.5 -28q-21 0 -49 9t-41 9q-37 0 -37 -30q0 -31 21.5 -47t52.5 -16q69 0 134 54q121 119 331 119q179 0 364 -95
l1 3q-19 15 -19 41q0 22 17.5 39.5t46.5 17.5t51.5 -18t22.5 -48q0 -23 -14 -35t-35 -12q-14 0 -22 7.5t-8 16.5q0 5 1 7l4 1q4 -18 20 -18q18 0 18 28q0 13 -11.5 23.5t-28.5 10.5q-16 0 -25 -11t-9 -25q0 -28 16 -42q85 -46 188 -125l11 9l18 -18l-10 -8l32 -31l12 11
l18 -19l-13 -10q179 -181 249 -358h-123q-62 185 -192 316l-41 -29q107 -130 156 -288h-125q-45 161 -103 239l-13 -7l-14 22l12 7l-18 27l-12 -10l-16 21l14 10q-31 43 -52.5 69.5t-65.5 68.5t-86 66.5t-105 43.5t-133 19q-144 0 -234 -75t-90 -209q0 -50 15 -90.5t38 -65
t53 -41t58.5 -23t56.5 -6.5q120 0 207 77.5t87 173.5q0 51 -33 78.5t-78 27.5q-25 0 -55 -25q13 -24 48 -45.5t60 -21.5q10 0 17 5l1 -1q0 -2 -0.5 -4t-3.5 -8.5t-7 -11.5t-12.5 -9t-19.5 -4q-26 0 -54 28t-38 62q-4 -4 -6.5 -9t-2.5 -9l-1 -3q18 -17 27.5 -46t9.5 -53
t-15 -35.5t-35 -11.5v-12q0 -41 -19 -60t-41 -19q-14 0 -25 6t-15 12l-5 6q-27 -20 -60 -20q-48 0 -48 52l2 38h-6q-18 0 -33.5 11t-15.5 37q0 24 19 42.5t33 24t25 8.5q-2 1 -5.5 4.5t-7.5 11t-4 14.5q0 24 31.5 35.5t70.5 11.5q5 0 16 2t19 2q12 0 28 -4q1 1 13 15h-7
q-34 0 -61 14t-27 42q0 17 12.5 27.5t25.5 12.5l13 2l1 -1q-11 -6 -8 -28q5 -19 24 -34.5t42 -19.5q54 40 99 40q76 0 132.5 -46t56.5 -132q0 -80 -42 -155h1q63 48 122 48q51 0 87 -30.5t36 -77.5q0 -46 -33 -76t-81 -30q-31 0 -49 16.5t-18 42.5q0 29 28 36l1 -2
q-12 -6 -12 -20q0 -19 13.5 -28.5t32.5 -9.5q20 0 34 15t14 36q0 31 -22.5 53t-63.5 22q-57 0 -120 -39q-105 -133 -302 -133q-48 0 -92.5 11t-84 35t-68.5 59t-46 86.5t-17 113.5q0 98 54 186h-3q-49 -72 -122 -72q-51 0 -90.5 33.5t-39.5 101.5q0 67 36 94.5t84 27.5
q34 0 63.5 -24t49.5 -24q26 0 49.5 13t31.5 40z" />
    <glyph glyph-name="uni2732" unicode="&#x2732;" horiz-adv-x="1632" 
d="M961 378l31 -9l9 25q-26 -3 -40 -16zM1069 216l-9 -27q10 0 19.5 4.5t14.5 8.5l5 4zM950 269l5 -2l14 38l-31 10q0 -28 12 -46zM1063 381l-11 -30l45 -13l1 4q-3 11 -14.5 23.5t-20.5 15.5zM960 254l-3 -7q12 -21 38 -41l10 33zM1103 325l-14 -47l34 -11v7q0 26 -11 48z
M1011 394l-10 -28l43 -11l10 30q-17 9 -43 9zM1014 236l-11 -34q21 -13 49 -13l8 30zM939 325l34 -10l16 45l-33 10q-15 -17 -17 -45zM1086 270l-14 -46l33 -10q15 21 18 44zM382 367l-31 -32l42 -28l23 27zM978 302l-15 -39l44 -15l15 42zM998 357l-16 -45l43 -14l15 47z
M1030 287l-13 -43l46 -17l14 46zM1049 343l-16 -48l48 -14l13 47zM401 384l32 -33q59 64 106.5 106.5t107.5 76.5l-3 4q-111 -49 -243 -154zM505 584q5 -1 5 -8q0 -9 -8 -16.5t-22 -7.5q-21 0 -35 12t-14 35q0 31 22 48.5t52 17.5q29 0 46.5 -17.5t17.5 -39.5q0 -26 -19 -41
l1 -3q185 95 364 95q213 0 333 -122q64 -51 132 -51q30 0 51.5 16t21.5 47q0 18 -9 24t-27 6q-13 0 -41 -9t-49 -9q-37 0 -65.5 28t-28.5 66v8l5 2q8 -27 31.5 -40t49.5 -13q20 0 49.5 24t63.5 24q48 0 84 -27.5t36 -94.5q0 -68 -39.5 -101.5t-90.5 -33.5q-73 0 -122 72h-3
q54 -88 54 -186q0 -62 -17 -113.5t-46 -86.5t-68.5 -59t-84 -35t-92.5 -11q-198 0 -303 133q-61 39 -119 39q-41 0 -63.5 -22t-22.5 -53q0 -21 13.5 -36t34.5 -15q19 0 32 9.5t13 28.5q0 6 -3 11t-5 7l-3 2l1 2q27 -7 27 -36q0 -27 -18 -43t-48 -16q-48 0 -81 30t-33 76
q0 47 36 77.5t87 30.5q59 0 121 -48h1q-41 73 -41 155q0 86 56.5 132t132.5 46q45 0 99 -40q23 4 42 19.5t23 34.5q5 20 -7 28v1q6 0 14.5 -2t23 -12.5t14.5 -27.5q0 -28 -27 -42t-61 -14h-7q12 -14 13 -15q16 4 28 4q8 0 19 -2t16 -2q39 0 70.5 -11.5t31.5 -35.5
q0 -11 -7.5 -20t-11.5 -10q8 -2 17.5 -6t25.5 -12.5t26 -23.5t10 -33q0 -26 -15.5 -37t-33.5 -11h-6q2 -16 2 -38q0 -52 -48 -52q-15 0 -30 5t-23 10l-7 5q-15 -24 -45 -24q-22 0 -41 19t-19 60v12q-21 0 -36 11.5t-15 35.5t10 53t28 46q-3 13 -10 21q-10 -33 -38.5 -61.5
t-53.5 -28.5q-17 0 -28 9t-13 19l-3 9l2 1q7 -5 17 -5q25 0 59.5 21.5t47.5 45.5q-28 25 -54 25q-45 0 -78 -27.5t-33 -78.5q0 -96 87 -173.5t207 -77.5q28 0 56.5 6.5t58.5 23t53 41t37.5 65t14.5 90.5q0 134 -90 209t-233 75q-70 0 -133 -19t-105 -43.5t-86 -66.5
t-65.5 -68.5t-52.5 -69.5l14 -10l-16 -21l-12 10l-18 -27l12 -7l-14 -22l-13 7q-61 -82 -103 -239h-126q52 162 157 288l-42 29q-129 -132 -191 -316h-123q70 177 249 358l-13 10l18 19l12 -11l32 31l-10 8l18 18l11 -9q94 73 187 125q17 15 17 42q0 14 -9 25t-25 11
q-18 0 -29 -10t-11 -24q0 -28 18 -28q7 0 12 4.5t7 9.5z" />
    <glyph glyph-name="uni2733" unicode="&#x2733;" horiz-adv-x="1274" 
d="M987 421q15 0 29 -8l3 2q-1 3 -50 73q15 -40 18 -67zM1086 537q-33 -13 -60 -15l75 -36q9 11 22 15q-28 10 -37 36zM919 413q11 -7 19 -18q9 16 27 22q-3 23 -28 96q-6 -74 -18 -100zM847 446q5 -8 5 -21q0 -7 -2 -14q17 11 36 11q8 0 14 -2q12 31 15 87q-25 -44 -68 -61
zM1093 413q-7 15 -7 33q0 9 2 15q-8 4 -46.5 23t-59.5 30q8 -11 31 -44.5t30 -44.5q1 1 2 1h8q24 0 40 -13zM1011 53l20 37l-227 111l-19 -38zM281 425q0 2 0.5 4.5t0.5 3.5q0 37 -44 66t-87 29q-25 0 -38 -12q-8 -15 -9 -34q1 -40 28.5 -69t67.5 -29h2h3q22 0 43.5 10.5
t32.5 30.5zM758 176l19 38l-414 203l-19 -38zM740 138q0 3 5 14l-166 81q-60 -52 -84 -69q24 6 47 6q45 0 75 -22t30 -65q0 -26 -18 -56l-21 17q-1 -7 -4 -17.5t-14.5 -34t-26.5 -35.5q-2 8 -7 22.5t-7.5 26t-2.5 22.5v6q-5 -5 -14 -7.5t-25 -4.5t-21 -3q2 7 5.5 14.5
t6.5 13t6 12t4.5 14t1.5 15.5q0 32 -71 40q-125 -72 -274 -82l-1 53q52 3 101 15q2 6 2 14q0 4 -2 8.5t-5.5 8.5t-8 8t-8.5 7.5t-9 6.5t-8.5 5l-7 4l-3.5 2q2 1 7.5 3t10.5 3.5t10 1.5q1 0 3 -0.5t3 -0.5l-32 45q2 0 13 4.5t18 4.5q3 0 11 -2q-6 27 -13 40h3q6 0 21 2.5
t25 2.5q31 0 47 -17.5t16 -43.5q0 -27 -16.5 -53.5t-44.5 -40.5l-8 -7q77 22 143 58.5t107 74.5l-209 102q-8 -16 -18 -16q-4 0 -7.5 2t-6 5.5t-2.5 7.5q0 2 5 15l-2 1q-37 -36 -98 -36q-37 0 -69.5 18t-52 49t-19.5 67q0 15 3 31l-12 5q-5 2 -5 10q0 2 2 8l32 63q6 14 15 9
l12 -5q39 45 109 45q58 0 98 -40.5t40 -102.5v-10l2 -1q1 1 3 6t3 6t3.5 2.5t6.5 1.5q6 0 11 -4t5 -11q0 -4 -4 -14l222 -109q7 9 14.5 19t15.5 23t13.5 23.5t15 27t14.5 25.5q-2 25 -12 39.5t-26 14.5q-1 -27 -11 -46.5t-24 -28t-27 -13.5t-23 -6h-9l-9 36l-59 -10
q-1 31 -1 35h-3q-13 0 -33.5 7.5t-33.5 7.5q22 29 30 51q-8 6 -16.5 14.5t-14 16t-10 14.5t-6.5 11l-2 4q7 1 22 6.5t35.5 11.5t43.5 8q-5 22 -19 34q3 1 13 6t23.5 9t29.5 4q20 0 37.5 -4t37 -14t31 -33t11.5 -56q0 -16 -1 -24q16 -1 31 -16t23 -36q63 97 143 97
q30 0 60 -15.5t59.5 -31.5t58.5 -16q26 0 53 11q1 15 9 29t22.5 23t32.5 9q25 0 43.5 -18t18.5 -46q0 -19 -10.5 -34.5t-27.5 -23.5q17 -6 30 -22t13 -38q0 -24 -18 -43t-47 -19q-21 0 -36 12q8 -13 8 -29q0 -18 -8.5 -32.5t-23.5 -23t-34 -8.5q-23 0 -40 14q-12 -7 -28 -7
q-27 0 -43 22q-17 -33 -56 -33q-27 0 -45 18.5t-18 43.5q0 10 3 19q-14 -9 -31 -9q-25 0 -41 17t-16 40q0 22 15 39.5t42 17.5q26 0 43 -20q23 12 39.5 38t22.5 53q-36 15 -57 15q-22 0 -41.5 -12t-34.5 -31t-30.5 -44.5t-28.5 -50t-29.5 -50t-31.5 -42.5l153 -75
q6 15 17 15q6 0 11 -4t5 -10q0 -4 -5 -15l251 -123l8 17q4 9 13 9q8 0 14.5 -5.5t6.5 -12.5q0 -3 -2 -7l-71 -144q-4 -8 -14 -8q-5 0 -9.5 2t-7.5 5.5t-3 8.5q0 3 2 7l8 17l-250 122q0 -1 -2 -4t-3 -4l-3 -3t-4 -3t-5 -1q-6 0 -11.5 4.5t-5.5 11.5z" />
    <glyph glyph-name="uni2736" unicode="&#x2736;" horiz-adv-x="498" 
d="M365 196v206l-58 -80l29 -53l-75 -42l27 94l-39 138l-39 -138l26 -94l-74 42l29 53l-58 80v-206h79l37 -65l37 65h79zM428 143l-179 -71l-179 71v357h358v-357z" />
    <glyph glyph-name="uni2737" unicode="&#x2737;" horiz-adv-x="893" 
d="M205 332q0 56 -23 56q-18 0 -18 -16q0 -25 41 -40zM687 332q42 16 42 40q0 16 -18 16q-13 0 -18.5 -12t-5.5 -44zM446 589q24 11 24 36q0 20 -24 26q-23 -6 -23 -26q0 -10 6.5 -20.5t16.5 -15.5zM685 248l7 2q13 19 26 25.5t36 6.5h12q-2 15 -12.5 29t-25.5 14
q-43 0 -43 -61v-16zM200 250l8 -2v16q0 61 -44 61q-14 0 -24.5 -13.5t-13.5 -29.5h13q23 0 35.5 -6.5t25.5 -25.5zM587 29l-9 82l-40 -37h-184l-40 37l-8 -82h281zM82 259q0 -25 16.5 -46t49.5 -22h26q24 0 38 -18t14 -40q0 -17 -9 -28.5t-24 -11.5q-25 0 -25 20q0 18 17 18
q7 0 10.5 -8.5t-0.5 -13.5h1q15 0 15 24q0 37 -42 37q-21 0 -33.5 -13t-12.5 -34q0 -26 20.5 -44.5t54.5 -18.5q29 0 50.5 20t21.5 56q0 32 -49 80q-24 23 -44.5 29t-47.5 7t-47 7zM698 111q-4 5 -0.5 13.5t10.5 8.5q6 0 12 -5t6 -13q0 -10 -8.5 -16t-18.5 -6
q-14 0 -23.5 11.5t-9.5 28.5q0 22 14 40t39 18h25q33 1 50 22t17 46q-20 -6 -47 -7t-48 -7t-44 -29q-50 -47 -50 -80q0 -36 21.5 -56t50.5 -20q34 0 55 19.5t21 44.5q0 48 -47 48q-41 0 -41 -37q0 -24 15 -24h1zM446 180q5 23 26 44.5t41 21.5q9 0 20 -2t17 -4l6 -1
q-3 65 -3 92l6 89q-37 -9 -50.5 -20.5t-13.5 -32.5q0 -15 -1.5 -25t-3.5 -13l-2 -3q1 0 4 0.5t6 0.5q32 0 32 -31q0 -14 -13 -23t-29 -9q-27 0 -27 35q0 36 0.5 52t3.5 34t10.5 24t20.5 6q1 1 1 5q0 8 -20.5 26.5t-30.5 40.5q-10 -22 -30 -40.5t-20 -26.5v-5h1
q23 0 28.5 -22t5.5 -82v-12q0 -35 -27 -35q-15 0 -28 9t-13 23q0 31 31 31q3 0 6 -0.5t4 -0.5q-7 8 -7 41q0 21 -13.5 32.5t-50.5 20.5q6 -46 6 -89l-3 -92q23 7 43 7q21 0 41 -21t26 -45zM516 158h-140l-94 101v149l94 101h140l95 -101v-149zM353 105h186l120 134v190
l-124 130h-177l-125 -130v-190zM625 0h-358l9 72q-6 -14 -27 -27.5t-53 -13.5q-50 0 -76.5 28t-26.5 61q0 39 24 53q-24 6 -39.5 18.5t-22 31.5t-8 29t-2.5 31l52 -7q14 72 55 74q-8 11 -8 22q0 14 10 25t27 11q15 0 24 -13v46l140 146h70q-14 12 -14 38q0 39 45 50
q46 -11 46 -50q0 -25 -15 -38h70l141 -146v-46q9 13 23 13q17 0 27.5 -11t10.5 -25q0 -11 -8 -22q41 -2 55 -74l52 7q-1 -21 -2.5 -31t-8 -29t-22 -31.5t-39.5 -18.5q24 -14 24 -53q0 -33 -27 -61t-76 -28q-32 0 -53.5 13.5t-26.5 27.5z" />
    <glyph glyph-name="uni2766" unicode="&#x2766;" horiz-adv-x="991" 
d="M792 354q1 0 4.5 1.5t9.5 3t13 2.5q0 1 -1 3q-7 13 -7 29q-43 9 -106 28q84 -64 87 -67zM797 473q-33 -17 -77 -27q67 -20 97 -27q6 14 18 23q-27 8 -38 31zM656 298q22 -7 35 -24q8 12 19 17q-15 47 -61 120q9 -43 9 -86q0 -13 -2 -27zM731 298q16 2 28 -4q-2 23 14 42
q-11 10 -47 38t-53 42q43 -70 58 -118zM571 313q12 -12 12 -34q0 -10 -2 -15q7 14 22.5 24.5t31.5 10.5q1 6 1 22q0 41 -9 86q-13 -58 -56 -94zM273 217q65 26 99.5 76.5t34.5 106.5q0 31 -11 59q-58 -22 -93.5 -72t-35.5 -116q0 -25 6 -54zM878 328q8 -11 8 -31
q0 -25 -19 -44t-46 -19q-13 0 -25 6q0 -23 -17.5 -39.5t-42.5 -16.5q-26 0 -43 19q-19 -30 -54 -30q-26 0 -44.5 19.5t-18.5 47.5q0 9 1 13q-18 -32 -52 -32q-23 0 -39.5 17t-16.5 41q0 22 15.5 39t40.5 17q19 0 32 -9q19 18 31.5 49t12.5 58q0 8 -1 12q-43 27 -111 27
q-27 0 -54 -4q10 -29 10 -63q0 -68 -42.5 -129t-120.5 -90q22 -60 75.5 -93.5t115.5 -33.5q47 0 87.5 21t61.5 60l33 -20q-24 -51 -74 -78.5t-110 -27.5q-100 0 -175.5 67t-75.5 183q0 79 44.5 140.5t111.5 87.5q-19 25 -49 40q-13 -51 -54 -75.5t-90 -24.5q-40 0 -67 15
q3 8 6 22t6 24.5t7 15.5q-26 3 -46.5 9t-29.5 11t-17.5 10.5t-10.5 6.5q1 1 9 23.5t22 30.5q-17 20 -25.5 39t-11 30.5t-5.5 14.5h3q5 0 35 11.5t64 11.5q27 0 52 -5q-5 8 -7.5 17.5t-3 16t-0.5 16v12.5q5 1 16 1q32 0 70.5 -13.5t71.5 -47.5t33 -79q0 -23 -11 -54
q47 -24 74 -66l20 3q20 3 43 3q54 0 111 -18.5t90 -18.5q57 0 109 26v5q0 27 19 44.5t44 17.5q26 0 45 -19t19 -46q0 -31 -26 -49q19 -6 33 -22t14 -39q0 -27 -18.5 -44t-41.5 -20z" />
    <glyph glyph-name="uni2767" unicode="&#x2767;" horiz-adv-x="689" 
d="M247 188q3 -8 3 -14q0 -15 -8 -29q17 20 44 20q5 0 9 -1q21 54 24 95q-20 -45 -72 -71zM516 169q-6 8 -6 30q0 5 1 10q-25 8 -103 54q46 -54 66 -88l2 1h2q2 0 4 0.5t4 0.5q16 0 30 -8zM398 143q21 -5 31 -21q2 26 22 42q-24 41 -81 103q28 -76 28 -124zM317 156
q20 -12 26 -32q13 14 31 19q0 52 -31 126q-1 -64 -26 -113zM539 146q7 -14 7 -28q0 -24 -17.5 -41t-42.5 -17q-30 0 -47 25q-2 -19 -16.5 -31.5t-36.5 -12.5q-37 0 -51 34q-17 -27 -49 -27q-25 0 -41.5 17.5t-16.5 43.5q0 18 9 30q-17 -17 -39 -17q-23 0 -37.5 15.5
t-14.5 37.5q0 21 14.5 36.5t36.5 15.5q23 0 40 -19q26 15 44.5 39.5t18.5 47.5q0 1 -0.5 3.5t-0.5 3.5q-14 10 -48 18t-67 8q-85 0 -130 -60l-44 17q0 1 9 12t11 13t11 12.5t14.5 13.5t16 10.5t20.5 10.5t23 7t28.5 5.5t32.5 1.5q9 0 33 -2q66 15 97 65q-60 33 -60 101
q0 34 14.5 67t33.5 50q7 -7 28 -20.5t25 -20.5q14 28 27.5 47t23.5 29l11 11q1 -2 10 -10t18 -19t11 -21q26 13 54 13t29 1q-2 -6 -2 -11q0 -4 1 -15t1 -18q0 -45 -33 -98q4 1 13 1q11 0 26.5 -4t18.5 -4q3 -34 -41.5 -87.5t-102.5 -53.5q-42 0 -80 30q-19 -29 -51 -48
q52 -15 135.5 -63.5t106.5 -56.5q15 22 45 22q24 0 41.5 -17.5t17.5 -39.5q0 -24 -17 -42.5t-42 -18.5q-15 0 -29 8z" />
    <glyph glyph-name="st" unicode="&#xfb06;" horiz-adv-x="839" 
d="M385 359l-3 48q-44 33 -95 33q-39 0 -64.5 -17t-25.5 -47q0 -26 25.5 -44t61.5 -30.5t72 -27t61.5 -42.5t25.5 -68q0 -79 -60.5 -129.5t-188.5 -50.5q-46 0 -86 6t-57 12l-17 7l10 137l68 5l-3 -78q46 -13 95 -13q60 0 92 24.5t32 60.5q0 24 -25 42t-60.5 31t-71 29
t-60.5 45.5t-25 71.5q0 73 53.5 112.5t136.5 39.5h3q-11 24 -11 52q0 74 54.5 128t147.5 54h279l-39 -250h143l-12 -83h-144l-39 -256q-3 -17 -3 -30q0 -62 54 -62q17 0 35.5 1.5t28.5 3.5l10 2l-12 -76q-33 -16 -108 -16q-61 0 -91 26.5t-30 86.5q0 12 4 46l75 469l26 73
h-183q-63 0 -96.5 -34.5t-33.5 -92.5q0 -36 33 -66q17 -9 30 -18l16 31h55l-16 -146h-67z" />
    <glyph glyph-name="halfcaron" horiz-adv-x="392" 
d="M302 544l-63 9q23 36 39.5 88.5t18.5 93.5l15 47l73 -10q-12 -57 -35.5 -123t-47.5 -105z" />
    <glyph glyph-name="commaaccent" horiz-adv-x="249" 
d="M59 -47q52 0 52 -63q0 -48 -37.5 -106.5t-92.5 -94.5l-29 29q42 29 64 67.5t20 73.5q-14 2 -25 11q-11 13 -11 28q0 21 16.5 38t42.5 17z" />
    <glyph glyph-name="zero.onum" horiz-adv-x="670" 
d="M315 67q56 0 98 25.5t62.5 65t30 76.5t9.5 70q0 129 -142 129q-100 0 -149.5 -60.5t-49.5 -159.5q0 -66 35.5 -106t105.5 -40zM627 313q0 -46 -11 -91.5t-36.5 -88.5t-62 -76t-92 -53t-122.5 -20q-120 0 -180 62.5t-60 165.5q0 140 81 222t240 82q122 0 182.5 -53.5
t60.5 -149.5z" />
    <glyph glyph-name="one.onum" horiz-adv-x="434" 
d="M100 381v77l175 42h87l-67 -422l56 -4l-10 -74h-253l6 79l94 4l51 330q-130 -32 -139 -32z" />
    <glyph glyph-name="two.onum" horiz-adv-x="548" 
d="M79 334l30 171h61l3 -33q73 44 135 44q94 0 139.5 -36.5t45.5 -96.5q0 -48 -29 -94t-78 -83.5t-95 -64t-97 -49.5h212l20 66l74 -5l-29 -153h-463l11 74l33 7q29 14 58.5 29.5t80 47t87 61t64.5 68t28 71.5t-24.5 51.5t-71.5 18.5q-59 0 -105 -41l-12 -53h-78z" />
    <glyph glyph-name="three.onum" horiz-adv-x="532" 
d="M68 339l30 166l86 -5h319l-8 -63l-216 -208h6q79 0 128.5 -43t49.5 -116q0 -109 -81.5 -172.5t-213.5 -63.5q-51 0 -95 8t-63 16l-19 7l15 138l73 5l-1 -77q39 -12 93 -12q88 0 134 39.5t46 106.5q0 40 -27.5 64t-79.5 24q-37 0 -69 -24l-41 52l227 228h-201l-18 -70h-74
z" />
    <glyph glyph-name="four.onum" horiz-adv-x="571" 
d="M8 0l4 70q156 216 266 438l101 -8q-83 -177 -256 -419h220l29 181l37 142h93l-50 -323h77l-9 -75l-81 -6l-23 -150h-109l23 150h-322z" />
    <glyph glyph-name="five.onum" horiz-adv-x="528" 
d="M-4 -135l15 137l73 5l-2 -76q36 -12 93 -12q81 0 129.5 44.5t48.5 111.5q0 46 -35.5 75t-95.5 29q-37 0 -63 -9t-33 -17l-53 7l87 340h267l12 34l73 -5l-23 -125l-92 5h-171l-42 -159q27 6 59 6q104 0 163 -45t59 -126q0 -116 -83 -183.5t-210 -67.5q-57 0 -101 8t-59 16
z" />
    <glyph glyph-name="six.onum" horiz-adv-x="596" 
d="M287 60q53 0 90.5 35t52 76t14.5 78q0 46 -28.5 72.5t-86.5 26.5q-55 0 -92 -23t-52 -48q-8 -21 -10 -42q-4 -23 -4 -49q0 -60 29 -93t87 -33zM556 260q0 -68 -30.5 -129.5t-96 -104t-153.5 -42.5q-103 0 -159 60t-56 169q0 59 21 126q41 163 116 244.5t168 81.5
q58 0 109 -42l16 32h62l-18 -157h-78l2 53q-39 32 -86 32q-138 0 -186 -213q79 49 165 49q96 0 150 -40t54 -119z" />
    <glyph glyph-name="seven.onum" horiz-adv-x="494" 
d="M50 333l31 172l86 -5h356l-12 -88q-89 -120 -177 -271.5t-145 -290.5h-125q105 246 322 554h-245l-18 -71h-73z" />
    <glyph glyph-name="eight.onum" horiz-adv-x="590" 
d="M220 469q0 -36 20 -60.5t42 -33t46 -11.5q21 4 40.5 12t42.5 23.5t37 44t14 66.5q0 84 -104 84q-67 0 -102.5 -32.5t-35.5 -92.5zM422 192q0 87 -114 103q-17 -2 -33.5 -6.5t-38 -15t-37.5 -25.5t-27 -41t-11 -58q0 -46 29 -70t82 -24q70 0 110 36t40 101zM576 514
q0 -127 -151 -181q116 -38 116 -142q0 -105 -73.5 -156t-204.5 -51q-222 0 -222 157q0 130 162 191q-97 42 -97 138q0 91 72 143t189 52q97 0 153 -39.5t56 -111.5z" />
    <glyph glyph-name="nine.onum" horiz-adv-x="597" 
d="M283 143q89 0 141 62q22 59 22 122q0 113 -113 113q-76 0 -119.5 -53.5t-43.5 -126.5q0 -49 28 -83t85 -34zM40 -145l16 148l74 5l-2 -83q48 -8 89 -8q73 0 129 54.5t79 157.5q-68 -57 -165 -57q-94 0 -148 49.5t-54 135.5q0 110 79 184.5t207 74.5q210 0 210 -207
q0 -56 -21 -140q-36 -166 -121 -250t-201 -84q-47 0 -89.5 5t-61.5 10z" />
    <glyph glyph-name="dollar.onum" horiz-adv-x="480" 
d="M152 -118l9 103q-36 2 -68 8t-45 11l-14 5l10 137l68 5l-3 -78q46 -13 95 -13q60 0 92 24.5t32 60.5q0 24 -25 42t-60.5 31t-71 29t-60.5 45.5t-25 71.5q0 64 42 102.5t110 46.5l21 119h79l-12 -124q34 -9 71 -34l16 31h55l-16 -146h-67l-3 48q-44 33 -95 33
q-39 0 -64.5 -17t-25.5 -47q0 -26 25.5 -44t61.5 -30.5t72 -27t61.5 -42.5t25.5 -68q0 -70 -47.5 -118t-146.5 -59l-18 -105h-79z" />
    <glyph glyph-name="cent.onum" horiz-adv-x="489" 
d="M185 -122l11 116q-72 20 -113.5 76.5t-41.5 138.5q0 132 57 211.5t161 92.5l19 115h80l-12 -119q35 -9 69 -37l16 33h68l-23 -183h-83l5 83q-24 33 -81 33q-81 0 -122 -52.5t-41 -171.5q0 -71 40 -111t99 -40q36 0 66.5 15t42.5 30l12 15l53 -37q-2 -4 -6 -10.5
t-19 -23.5t-34 -30.5t-52.5 -25t-72.5 -12.5l-18 -106h-80z" />
    <glyph glyph-name="sterling.onum" horiz-adv-x="553" 
d="M164 284q0 113 50.5 172.5t143.5 59.5q64 0 112 -41l13 30h67l-17 -146h-83l2 42q-27 27 -68 27q-105 0 -109 -109l-2 -35h209l-10 -73h-206q-11 -81 -46 -130h213l21 66l74 -5l-28 -142h-481l11 81h82q38 38 47 130l-107 1l5 72h107z" />
    <glyph glyph-name="yen.onum" horiz-adv-x="522" 
d="M57 180l7 82h149l-107 212l-94 3l10 73h238l-10 -73l-24 -2l84 -168h1l132 167l-21 1l11 75h221l-10 -76l-94 -4l-168 -208h117l-12 -82h-145l-16 -99l66 -3l-10 -78h-240l5 77l69 4l16 99h-175z" />
    <glyph glyph-name="Euro.onum" horiz-adv-x="567" 
d="M458 353l1 48q-40 37 -95 37q-137 0 -160 -158h317l-11 -73h-310q0 -72 35.5 -108.5t97.5 -36.5q39 0 74 13t51 26l16 13l37 -55q-2 -3 -6.5 -8t-21.5 -18t-36.5 -23t-52 -18t-68.5 -8q-110 0 -172.5 60t-62.5 163l-57 2l5 71h57q16 112 81 174t171 62q67 0 125 -48
l18 37h66l-16 -152h-83z" />
    <glyph glyph-name="uni20B4.onum" horiz-adv-x="500" 
d="M120 372l24 133h55l3 -25q61 36 119 36q63 0 99.5 -30.5t36.5 -75.5q0 -71 -77 -124h77l-11 -72h-197q-81 -29 -81 -90q0 -62 98 -62q39 0 66 6l17 69l66 -5l-24 -127q-44 -21 -138 -21q-95 0 -142 30.5t-47 82.5q0 68 76 117l-86 1l5 72h199q95 33 95 96
q0 25 -19.5 39.5t-52.5 14.5q-49 0 -83 -27l-11 -38h-67z" />
    <glyph glyph-name="afii61352.onum" horiz-adv-x="944" 
d="M780 0l7 81h288l-12 -81h-283zM872 345q0 -91 90 -91q130 0 130 164q0 88 -90 88q-130 0 -130 -161zM772 350q0 100 61.5 159t177.5 59q89 0 135 -40.5t46 -113.5q0 -100 -63 -159t-176 -59q-90 0 -135.5 40.5t-45.5 113.5zM467 -4l-237 395h-2l1 -23l-48 -294l67 -4
l-9 -70h-231l6 77l68 4l61 393l-66 3l11 73h181l232 -403h2v23l49 301l-67 4l10 75h233l-10 -73l-66 -3l-74 -477z" />
    <glyph glyph-name="onefifth" horiz-adv-x="950" 
d="M683 -8q-26 0 -50 -6t-30 -15l-49 7l71 277h216l10 27l66 -5l-21 -110l-83 5h-127l-31 -113q19 3 41 3q85 0 133.5 -37.5t48.5 -103.5q0 -96 -68.5 -148t-173.5 -52q-46 0 -81.5 6.5t-47.5 12.5l-12 6l12 116l67 5l-1 -60q31 -9 70 -9q62 0 99.5 32t37.5 83q0 35 -26 57
t-71 22zM291 13l454 580l60 -36l-453 -580zM176 606l-20 70l160 74h83l-69 -445l93 -3l-15 -72h-289l5 73l108 7l54 346z" />
    <glyph glyph-name="twofifths" horiz-adv-x="978" 
d="M711 -8q-26 0 -50 -6t-30 -15l-49 7l71 277h216l10 27l66 -5l-21 -110l-83 5h-127l-31 -113q19 3 41 3q85 0 133.5 -37.5t48.5 -103.5q0 -96 -68.5 -148t-173.5 -52q-46 0 -81.5 6.5t-47.5 12.5l-12 6l12 116l67 5l-1 -60q31 -9 70 -9q62 0 99.5 32t37.5 83q0 35 -26 57
t-71 22zM291 13l454 580l60 -36l-453 -580zM123 611l25 144h56l6 -34q61 42 123 42q72 0 109 -37.5t37 -97.5q0 -143 -279 -313h170l16 50l68 -4l-24 -131h-376l12 82q7 3 51.5 32.5t102.5 74t103.5 100.5t45.5 99q0 65 -77 65q-50 0 -89 -34l-10 -38h-70z" />
    <glyph glyph-name="threefifths" horiz-adv-x="978" 
d="M711 -8q-26 0 -50 -6t-30 -15l-49 7l71 277h216l10 27l66 -5l-21 -110l-83 5h-127l-31 -113q19 3 41 3q85 0 133.5 -37.5t48.5 -103.5q0 -96 -68.5 -148t-173.5 -52q-46 0 -81.5 6.5t-47.5 12.5l-12 6l12 116l67 5l-1 -60q31 -9 70 -9q62 0 99.5 32t37.5 83q0 35 -26 57
t-71 22zM286 13l454 580l60 -36l-453 -580zM279 465q-39 0 -59 -20l-39 47l178 175h-148l-14 -55h-67l25 143l79 -5h253l-9 -57l-165 -158q61 -1 100 -37t39 -95q0 -89 -67.5 -138t-175.5 -49q-40 0 -74.5 6t-49.5 12l-15 7l13 117l67 4l-1 -61q34 -8 66 -8q67 0 103.5 28.5
t36.5 74.5q1 32 -19 50.5t-57 18.5z" />
    <glyph glyph-name="fourfifths" horiz-adv-x="978" 
d="M711 -8q-26 0 -50 -6t-30 -15l-49 7l71 277h216l10 27l66 -5l-21 -110l-83 5h-127l-31 -113q19 3 41 3q85 0 133.5 -37.5t48.5 -103.5q0 -96 -68.5 -148t-173.5 -52q-46 0 -81.5 6.5t-47.5 12.5l-12 6l12 116l67 5l-1 -60q31 -9 70 -9q62 0 99.5 32t37.5 83q0 35 -26 57
t-71 22zM291 13l454 580l60 -36l-453 -580zM26 375l4 60q110 157 178 326l92 -11q-61 -143 -165 -301h144l18 107l32 117h85l-36 -224h58l-9 -68l-60 -6l-12 -74l42 -4l-9 -67h-191l5 67l53 3l12 75h-241z" />
    <glyph glyph-name="ct" horiz-adv-x="861" 
d="M393 322l5 83q-3 4 -6.5 7t-11.5 7.5t-16 10.5q-19 8 -47 8q-81 0 -122 -52.5t-41 -171.5q0 -71 40 -111t99 -40q36 0 66.5 15t42.5 30l12 15l53 -37q-2 -4 -6 -11t-20 -24.5t-36 -31t-55.5 -24.5t-76.5 -11q-104 0 -168 61t-64 164q0 141 66 223t183 84q-11 27 -11 57
q0 72 58 124.5t151 52.5h284l-40 -250h143l-12 -83h-144l-39 -249q-2 -10 -2 -29q0 -62 54 -62l72 6l-10 -75q-34 -16 -109 -16q-60 0 -90 25.5t-30 84.5q0 24 4 48l75 464l26 71h-188q-61 0 -99 -30t-38 -90q0 -35 24 -64q26 -12 46 -29l16 33h68l-23 -183h-83z" />
    <glyph glyph-name="y.alt" horiz-adv-x="598" 
d="M396 421l11 79h164l-68 -440q0 -326 -288 -326q-56 0 -100.5 8t-60.5 16l-17 9l19 142l72 5l-3 -90q45 -15 96 -15q82 0 126.5 54.5t45.5 181.5h-1q-1 -2 -4.5 -6.5t-16.5 -15t-29 -18.5t-45.5 -14.5t-64.5 -6.5q-168 0 -168 129q0 15 3 32l42 272l-53 4l6 79h169
l-52 -334q-2 -16 -2 -21q0 -70 100 -70q39 0 70.5 11.5t43.5 23.5l12 12l46 295z" />
    <glyph glyph-name="yacute.alt" horiz-adv-x="596" 
d="M389 572l-73 5l116 145l103 -11zM396 421l11 79h164l-68 -440q0 -326 -288 -326q-56 0 -100.5 8t-60.5 16l-17 9l19 142l72 5l-3 -90q45 -15 96 -15q82 0 126.5 54.5t45.5 181.5h-1q-1 -2 -4.5 -6.5t-16.5 -15t-29 -18.5t-45.5 -14.5t-64.5 -6.5q-168 0 -168 129
q0 15 3 32l42 272l-53 4l6 79h169l-52 -334q-2 -16 -2 -21q0 -70 100 -70q39 0 70.5 11.5t43.5 23.5l12 12l46 295z" />
    <glyph glyph-name="ydieresis.alt" horiz-adv-x="596" 
d="M273 594q-22 0 -35.5 13t-13.5 33q0 25 17 42.5t46 17.5q23 0 36.5 -12.5t13.5 -32.5q0 -24 -18 -42.5t-46 -18.5zM464 594q-19 0 -34 10.5t-15 35.5q0 24 17.5 42t46.5 18q23 0 36 -12t13 -33q0 -24 -18 -42.5t-46 -18.5zM396 421l11 79h164l-68 -440q0 -326 -288 -326
q-56 0 -100.5 8t-60.5 16l-17 9l19 142l72 5l-3 -90q45 -15 96 -15q82 0 126.5 54.5t45.5 181.5h-1q-1 -2 -4.5 -6.5t-16.5 -15t-29 -18.5t-45.5 -14.5t-64.5 -6.5q-168 0 -168 129q0 15 3 32l42 272l-53 4l6 79h169l-52 -334q-2 -16 -2 -21q0 -70 100 -70q39 0 70.5 11.5
t43.5 23.5l12 12l46 295z" />
    <glyph glyph-name="afii10066.alt" horiz-adv-x="571" 
d="M270 61q86 0 132.5 64t46.5 181q0 63 -30 97.5t-89 34.5q-87 0 -132.5 -61t-45.5 -179q0 -64 30 -100.5t88 -36.5zM259 -16q-107 0 -162.5 58.5t-55.5 161.5q0 100 39 173t113 108q-58 42 -58 108q0 81 58.5 126.5t154.5 45.5q23 0 75 -9.5t67 -9.5q24 0 40.5 5t21.5 10
l4 5l58 -12q-1 -4 -3 -11t-12 -25.5t-23 -32t-38 -25t-55 -11.5t-76 10t-69 10q-42 0 -72.5 -20t-30.5 -62q0 -63 84 -72q7 1 22 1q107 0 163.5 -56t56.5 -156q0 -142 -82 -231t-220 -89z" />
    <glyph glyph-name="afii10085.alt" horiz-adv-x="596" 
d="M396 421l11 79h164l-68 -440q0 -326 -288 -326q-56 0 -100.5 8t-60.5 16l-17 9l19 142l72 5l-3 -90q45 -15 96 -15q82 0 126.5 54.5t45.5 181.5h-1q-1 -2 -4.5 -6.5t-16.5 -15t-29 -18.5t-45.5 -14.5t-64.5 -6.5q-168 0 -168 129q0 15 3 32l42 272l-53 4l6 79h169
l-52 -334q-2 -16 -2 -21q0 -70 100 -70q39 0 70.5 11.5t43.5 23.5l12 12l46 295z" />
    <glyph glyph-name="afii10110.alt" horiz-adv-x="596" 
d="M200 696l94 13v-1q0 -2 0.5 -6t5.5 -13.5t13 -17t25 -13.5t39 -6t40.5 6t29.5 14t18.5 16t10.5 14l2 6v1l90 -13q-1 -5 -4.5 -12.5t-18 -27.5t-35 -35t-59 -27.5t-85.5 -12.5q-46 0 -80 12t-50 28.5t-25 33.5t-10 29zM396 421l11 79h164l-68 -440q0 -326 -288 -326
q-56 0 -100.5 8t-60.5 16l-17 9l19 142l72 5l-3 -90q45 -15 96 -15q82 0 126.5 54.5t45.5 181.5h-1q-1 -2 -4.5 -6.5t-16.5 -15t-29 -18.5t-45.5 -14.5t-64.5 -6.5q-168 0 -168 129q0 15 3 32l42 272l-53 4l6 79h169l-52 -334q-2 -16 -2 -21q0 -70 100 -70q39 0 70.5 11.5
t43.5 23.5l12 12l46 295z" />
    <glyph glyph-name="Epsilon.alt" horiz-adv-x="663" 
d="M552 458l5 78q-49 39 -133 39q-93 0 -156 -55.5t-80 -166.5h371l-12 -83h-365v-2q0 -92 55.5 -142.5t151.5 -50.5q36 0 70 9t57 21.5t40.5 25.5t25.5 22l9 9l40 -64q-3 -5 -9.5 -12.5t-30 -27t-51.5 -34.5t-74 -27.5t-98 -12.5q-135 0 -220.5 82t-85.5 218
q0 166 99.5 273.5t258.5 107.5q88 0 153 -53l20 43h67l-24 -197h-84z" />
    <glyph glyph-name="Epsilontonos.alt" horiz-adv-x="701" 
d="M589 458l5 78q-49 39 -133 39q-93 0 -156 -55.5t-80 -166.5h371l-12 -83h-365v-2q0 -92 55.5 -142.5t151.5 -50.5q36 0 70 9t57 21.5t40.5 25.5t26.5 22l8 9l40 -64q-3 -5 -9.5 -12.5t-30 -27t-51.5 -34.5t-74 -27.5t-98 -12.5q-135 0 -220.5 82t-85.5 218
q0 166 99.5 273.5t258.5 107.5q88 0 153 -53l20 43h67l-24 -197h-84zM118 561l-50 15l93 194l68 -22z" />
    <glyph glyph-name="epsilon.alt" horiz-adv-x="501" 
d="M402 359l1 44q-30 33 -90 33q-69 0 -107.5 -34.5t-50.5 -114.5l245 1l-11 -83h-239q1 -70 39.5 -105t101.5 -35q41 0 75.5 12.5t48.5 24.5l14 13l35 -55q-2 -3 -6.5 -8t-21.5 -18.5t-37.5 -23.5t-57 -18t-78.5 -8q-101 0 -161.5 60.5t-60.5 162.5q0 145 66 227t188 82
q67 0 124 -42l15 31h68l-17 -146h-83z" />
    <glyph glyph-name="epsilontonos.alt" horiz-adv-x="501" 
d="M373 561l-50 15l93 194l68 -22zM402 359l1 44q-30 33 -90 33q-69 0 -107.5 -34.5t-50.5 -114.5l245 1l-11 -83h-239q1 -70 39.5 -105t101.5 -35q41 0 75.5 12.5t48.5 24.5l14 13l35 -55q-2 -3 -6.5 -8t-21.5 -18.5t-37.5 -23.5t-57 -18t-78.5 -8q-101 0 -161.5 60.5
t-60.5 162.5q0 145 66 227t188 82q67 0 124 -42l15 31h68l-17 -146h-83z" />
    <glyph glyph-name="AndrijType" horiz-adv-x="1855" 
d="M1252 359q23 0 35.5 6t24.5 6t12 -5q0 -8 -22 -14q-15 -26 -33 -102q24 35 57 59t58 24v-4q0 -18 -11.5 -56t-36 -89t-75.5 -91.5t-118 -46.5q3 29 29.5 57.5t59.5 48.5l2 -4q-38 -30 -48 -81q35 11 63 37t44.5 59t26 63.5t13.5 61.5q-43 -26 -72 -81q-1 -4 -12.5 -6
t-22.5 -2h-10q10 98 40 146q-41 0 -69 5q-34 -95 -48 -171q-1 -4 -17.5 -7t-27.5 -3l-4 1q0 36 56 185q-9 1 -35 5.5t-39 4.5q-40 0 -55 -33h-5q-24 0 -28 16q15 36 67 36q15 0 99 -15q11 1 24.5 7.5t26.5 8.5l-9 -20q32 -6 60 -6zM1584 324q0 -24 -31 -72.5t-61 -48.5
q-7 0 -17.5 4.5t-15.5 4.5q48 31 79 110q-29 -11 -60.5 -42.5t-44.5 -71.5q-5 -16 -12 -56.5t-7 -58.5l-3 -5q-3 0 -13 -1t-16 -1q-16 0 -16 5q4 16 14.5 71t22.5 102t26 85q33 11 42 11q3 0 9 -2q-12 -19 -20 -39.5t-13 -37t-5 -17.5q21 28 54 53.5t64 25.5q24 0 24 -19z
M1683 213q0 -8 -27 -25.5t-47 -17.5q-30 0 -30 40q0 51 35 94t84 43q21 0 21 -19q0 -13 -9.5 -27.5t-22.5 -18.5q7 -1 18 -1q63 0 81 47q5 -2 14 -2h13q11 0 15 -4q-23 -54 -145 -54q-37 0 -58 4q-8 -16 -8 -43q0 -38 10 -38q11 0 31 13t21 13q4 0 4 -4zM1669 330
q-6 0 -18 -13.5t-18 -28.5l15 -2q26 19 26 38q0 6 -5 6zM991 260q6 10 42 10q7 0 7 -1q0 -2 -4.5 -7t-10 -10t-11.5 -10l-5 -5q-8 -8 -42 -8q-6 0 -6 1t5.5 5.5t13.5 11.5t11 13zM622 213q13 8 28.5 50.5t15.5 70.5q0 41 -34.5 76t-99.5 57q3 1 18 10t24 10q7 0 26 -8.5
t42.5 -24.5t41.5 -45.5t18 -65.5q0 -46 -34.5 -97.5t-72.5 -51.5q-21 0 -21 26q0 53 42 111q3 6 12 6q4 0 13.5 -2.5t13.5 -2.5q-35 -46 -35 -107q0 -2 1 -6t1 -6zM1014 451q7 0 7 -1q0 -2 -5.5 -3t-16 -5.5t-20.5 -14.5q-18 -18 -51 -18q-9 0 -9 1q39 41 95 41zM124 195
q0 91 25 125.5t95 34.5q34 0 72 -6q4 4 14 13.5t19 16.5t15 11q3 2 22 6t21 4l-5 -11q-55 -141 -58 -224q0 -4 -15 -8t-27 -4q-2 0 -4 0.5t-3 0.5q2 70 45 189q-33 -36 -84.5 -79.5t-86.5 -65.5q-2 -2 -18.5 -5t-23.5 -3q-2 0 -3 1v4zM843 385q8 0 17.5 -10t11.5 -18
q-24 0 -54.5 -6.5t-39.5 -13.5q-12 -9 -19 -33t-11 -55.5t-7 -40.5q-1 -4 -13 -5.5t-24 -1.5t-12 -1l3 12q0 1 1 2.5t1 2.5q25 96 60 122q56 37 86 46zM892 353q1 9 48 9q-18 -145 -86 -229q-28 -33 -73.5 -55.5t-79.5 -22.5q5 54 89 105l3 -3q-40 -32 -50 -81
q43 21 72.5 53t44.5 75t21 73t11 76zM565 356q11 0 11 -4t-9.5 -24t-19 -53.5t-9.5 -69.5q-2 -8 -34 -8q-11 0 -13 2q0 12 0.5 22t2.5 20t3 15.5t4.5 15t5 12.5t7 15t6.5 15q-16 0 -44.5 -35.5t-43.5 -70.5q-1 -4 -13 -6t-23 -2l-11 -1q24 118 47 154q3 6 31 6h8q2 0 4 1h2
q-17 -26 -37 -108q23 33 37 50.5t39 35.5t49 18zM300 332q-49 13 -75 13q-15 0 -20 -8q-24 -35 -27 -111q58 41 122 106zM852 323l3 -1q-5 -19 -9.5 -36.5t-7 -27.5t-4.5 -19.5t-3.5 -14t-2.5 -8t-4 -4.5t-5 -1.5t-8 -1.5q-4 0 -8 -1l-5 -1q-4 -1 -9 -1.5t-7 -0.5q-4 0 -4 1
q6 19 10.5 36.5t7 28t4 19.5t3.5 13.5t3 8t3.5 5t4.5 2t8 1.5q5 0 8 1l9 1q9 1 13 1z" />
    <glyph glyph-name="ampersand.alt" horiz-adv-x="734" 
d="M384 87q-82 92 -123 224q-42 -10 -73.5 -40t-31.5 -89q0 -52 32 -84t96 -32q55 0 100 21zM548 498l1 48q-37 37 -91 37q-117 0 -117 -127q0 -68 35.5 -154t89.5 -150q57 74 57 180v14l-4 41l2 9h191l-12 -86l-76 -1q-9 -129 -90 -219q37 -24 71 -24q43 0 69 13l3 -75
q-47 -20 -103 -20q-61 0 -122 42q-79 -42 -176 -42q-113 0 -172 55t-59 138q0 47 19 85.5t50 63.5t62.5 40t65.5 23q-6 35 -6 67q0 97 55 153t148 56q67 0 126 -45l16 35h63l-19 -157h-77z" />
    <glyph glyph-name="afii10086.hist" horiz-adv-x="414" 
d="M259 489v-1h158l-12 -84h-159l-11 -69h155l-12 -84h-156l-78 -501h-106l77 501h-64l6 79l71 3l11 71h-60l6 79l67 3l2 14q0 265 190 265q40 0 90 -31l11 21h62l-16 -151h-78l3 56q-27 25 -57 25q-48 0 -74 -44t-26 -152z" />
    </font>
</defs>
</svg>
