<?xml version="1.0" standalone="no"?>
<!DOCTYPE svg PUBLIC "-//W3C//DTD SVG 20010904//EN"
 "http://www.w3.org/TR/2001/REC-SVG-20010904/DTD/svg10.dtd">
<svg version="1.0" xmlns="http://www.w3.org/2000/svg"
 width="188.000000pt" height="188.000000pt" viewBox="0 0 188.000000 188.000000"
 preserveAspectRatio="xMidYMid meet">
<metadata>
Created by potrace 1.11, written by Peter Selinger 2001-2013
</metadata>
<g transform="translate(0.000000,188.000000) scale(0.100000,-0.100000)"
fill="#000000" stroke="none">
<path d="M879 1855 c-139 -40 -231 -106 -342 -245 -49 -62 -90 -152 -74 -162
25 -16 45 -7 72 35 83 127 178 197 246 182 64 -14 134 -105 154 -201 23 -107
8 -304 -34 -459 -77 -282 -210 -513 -333 -576 -79 -40 -170 -19 -201 46 -13
28 -19 31 -51 27 -41 -5 -53 -28 -42 -85 8 -44 59 -149 98 -203 27 -38 50 -54
153 -103 163 -79 167 -80 249 -37 113 59 229 168 308 292 78 122 170 346 203
497 2 10 6 26 9 35 3 9 8 33 11 52 3 19 8 49 11 65 12 69 14 97 18 235 8 251
-39 445 -133 552 -32 36 -52 43 -196 64 -16 3 -34 6 -40 8 -5 2 -44 -7 -86
-19z m269 -60 c6 -2 12 -9 12 -15 0 -7 -26 -10 -69 -9 -49 1 -75 -3 -92 -14
-17 -13 -26 -14 -37 -5 -11 10 -7 16 22 33 29 17 48 21 94 18 31 -2 63 -5 70
-8z m43 -87 c16 -30 10 -34 -53 -33 -39 1 -71 -3 -83 -12 -26 -17 -32 -17 -45
7 -9 17 -6 23 22 40 42 26 145 25 159 -2z m33 -110 c3 -13 6 -27 6 -31 0 -4
-30 -7 -67 -6 -38 1 -80 -2 -94 -6 -21 -5 -27 -3 -32 14 -9 34 27 51 109 51
66 0 72 -2 78 -22z m2 -97 c7 -1 14 -14 16 -30 l4 -30 -96 2 c-96 2 -97 2 -96
27 1 17 8 26 26 30 21 5 97 6 146 1z m-56 -122 c76 -3 80 -6 80 -50 0 -21 -1
-39 -2 -39 -2 0 -34 6 -73 13 -38 8 -82 12 -96 10 -24 -3 -27 -1 -25 29 1 25
7 34 26 39 14 3 27 5 30 3 3 -1 30 -3 60 -5z m-49 -129 c86 -16 103 -18 114
-19 6 -1 9 -18 7 -42 l-4 -41 -52 7 c-28 3 -67 9 -86 14 -19 4 -39 8 -45 9 -5
1 -9 11 -8 22 4 70 -5 64 74 50z m99 -175 c8 -5 -3 -62 -14 -72 -6 -6 -169 28
-180 38 -5 4 -6 23 -2 42 l6 34 91 -18 c50 -10 94 -21 99 -24z m-32 -149 c7
-8 -8 -76 -17 -76 -11 0 -169 48 -180 54 -4 3 -3 21 2 39 l11 34 90 -23 c49
-13 91 -26 94 -28z m-121 -123 c46 -15 83 -32 83 -38 -1 -5 -6 -22 -13 -37
l-12 -27 -90 31 c-49 17 -91 32 -92 33 -7 4 23 65 31 65 5 0 47 -12 93 -27z
m-55 -134 c45 -16 84 -31 85 -33 2 -2 -4 -19 -12 -39 l-15 -36 -87 36 c-49 20
-89 37 -90 38 -6 3 22 65 29 65 3 0 44 -14 90 -31z m-99 -103 c23 -13 59 -29
79 -36 48 -15 53 -23 33 -54 l-17 -25 -56 21 c-75 27 -105 56 -97 91 4 15 9
27 12 27 2 0 23 -11 46 -24z m-6 -147 c32 -12 59 -23 61 -25 8 -6 -31 -54 -44
-54 -7 0 -38 11 -69 25 -65 28 -81 56 -56 98 l16 28 17 -24 c10 -14 44 -35 75
-48z m-148 -58 c6 -10 37 -28 71 -41 33 -12 60 -26 60 -29 0 -4 -11 -18 -24
-30 l-24 -22 -60 30 c-65 33 -81 57 -60 90 16 26 24 26 37 2z m-23 -134 l56
-28 -23 -18 c-21 -17 -23 -17 -74 11 -60 32 -80 72 -48 95 16 12 19 11 26 -10
4 -14 28 -33 63 -50z m-136 -7 c0 -11 19 -30 50 -49 28 -17 48 -36 45 -41 -9
-15 -19 -13 -77 21 -41 24 -54 37 -56 57 -2 25 15 45 30 36 4 -3 8 -14 8 -24z
m-77 -27 c4 -21 20 -36 58 -57 37 -20 47 -31 38 -37 -21 -13 -111 43 -131 82
-17 32 -17 34 0 40 23 9 28 4 35 -28z"/>
<path d="M1330 1699 c18 -34 43 -106 57 -158 22 -85 25 -117 26 -271 1 -562
-251 -1087 -596 -1240 l-42 -19 55 -1 c30 -1 67 -3 83 -4 15 -1 27 2 27 6 0 4
13 14 29 23 23 11 36 12 57 5 19 -7 36 -7 60 2 40 14 43 23 12 32 l-23 6 23
20 c18 15 28 17 49 9 31 -11 54 -5 78 21 17 18 16 19 -9 26 -30 7 -31 12 -11
39 14 17 19 18 48 7 30 -12 33 -11 54 15 l22 27 -30 14 c-27 14 -29 16 -15 36
8 12 20 20 27 18 58 -14 64 -13 81 17 l16 30 -34 11 c-38 13 -40 18 -21 45 12
15 19 16 45 7 30 -10 33 -9 47 19 19 35 14 45 -24 54 -23 5 -28 10 -24 26 7
27 23 32 57 19 25 -9 28 -7 41 22 16 39 14 45 -25 53 -31 7 -37 19 -21 44 7
11 15 11 40 3 29 -10 33 -9 41 14 16 41 12 51 -22 61 -27 7 -32 13 -30 33 5
32 3 31 42 20 19 -5 35 -8 37 -6 10 10 14 76 5 76 -6 0 -22 4 -35 9 -19 8 -23
15 -20 35 5 22 8 24 30 15 41 -15 51 -11 55 25 3 32 1 35 -32 45 -33 10 -36
14 -32 40 4 28 6 29 34 19 34 -12 46 -2 43 34 -2 21 -13 31 -47 42 -11 3 -18
15 -18 31 0 22 4 25 32 23 33 -3 34 -2 29 46 0 8 -14 19 -30 24 -19 7 -30 19
-33 37 -5 25 -4 27 23 21 24 -5 29 -2 29 15 0 32 -19 59 -40 59 -11 0 -20 1
-20 3 0 1 -4 17 -9 35 -9 31 -9 32 16 26 22 -6 25 -4 20 10 -4 10 -7 22 -7 27
0 6 -13 15 -29 20 -19 7 -33 21 -40 41 -9 25 -8 29 4 24 66 -25 -82 136 -173
188 -7 5 1 -20 18 -55z"/>
</g>
</svg>
